<svg width="68" height="68" viewBox="0 0 68 68" fill="none" xmlns="http://www.w3.org/2000/svg">
<rect width="68" height="68" fill="#F3F3F3"/>
<g clip-path="url(#clip0_3160_16992)">
<path d="M60 52.8984V58.8984H34V52.8984H60ZM60 49.8984H34C32.3 49.8984 31 51.1984 31 52.8984V58.8984C31 60.5984 32.3 61.8984 34 61.8984H60C61.7 61.8984 63 60.5984 63 58.8984V52.8984C63 51.2984 61.7 49.8984 60 49.8984Z" fill="black"/>
<path d="M31.1992 51.5C30.3992 51.5 29.6992 50.8 29.6992 50V44C29.6992 43.2 30.3992 42.5 31.1992 42.5H57.1992C57.9992 42.5 58.6992 43.2 58.6992 44V50C58.6992 50.8 57.9992 51.5 57.1992 51.5H31.1992Z" fill="#FF3D2E"/>
<path d="M57.1992 44V50H31.1992V44H57.1992ZM57.1992 41H31.1992C29.4992 41 28.1992 42.3 28.1992 44V50C28.1992 51.7 29.4992 53 31.1992 53H57.1992C58.8992 53 60.1992 51.7 60.1992 50V44C60.1992 42.3 58.8992 41 57.1992 41Z" fill="black"/>
<path d="M60.1992 35V41H34.1992V35H60.1992ZM60.1992 32H34.1992C32.4992 32 31.1992 33.3 31.1992 35V41C31.1992 42.7 32.4992 44 34.1992 44H60.1992C61.8992 44 63.1992 42.7 63.1992 41V35C63.1992 33.3 61.8992 32 60.1992 32Z" fill="black"/>
<path d="M31.1992 33.5C30.3992 33.5 29.6992 32.8 29.6992 32V26C29.6992 25.2 30.3992 24.5 31.1992 24.5H57.1992C57.9992 24.5 58.6992 25.2 58.6992 26V32C58.6992 32.8 57.9992 33.5 57.1992 33.5H31.1992Z" fill="#FF3D2E"/>
<path d="M57.1992 26V32H31.1992V26H57.1992ZM57.1992 23H31.1992C29.4992 23 28.1992 24.3 28.1992 26V32C28.1992 33.7 29.4992 35 31.1992 35H57.1992C58.8992 35 60.1992 33.7 60.1992 32V26C60.1992 24.3 58.8992 23 57.1992 23Z" fill="black"/>
<path d="M60.1992 17V23H34.1992V17H60.1992ZM60.1992 14H34.1992C32.4992 14 31.1992 15.3 31.1992 17V23C31.1992 24.7 32.4992 26 34.1992 26H60.1992C61.8992 26 63.1992 24.7 63.1992 23V17C63.1992 15.3 61.8992 14 60.1992 14Z" fill="black"/>
<path d="M31.1992 15.5C30.3992 15.5 29.6992 14.8 29.6992 14V8C29.6992 7.2 30.3992 6.5 31.1992 6.5H57.1992C57.9992 6.5 58.6992 7.2 58.6992 8V14C58.6992 14.8 57.9992 15.5 57.1992 15.5H31.1992Z" fill="#FF3D2E"/>
<path d="M57.1992 8V14H31.1992V8H57.1992ZM57.1992 5H31.1992C29.4992 5 28.1992 6.3 28.1992 8V14C28.1992 15.7 29.4992 17 31.1992 17H57.1992C58.8992 17 60.1992 15.7 60.1992 14V8C60.1992 6.3 58.8992 5 57.1992 5Z" fill="black"/>
<path d="M20 60.3984C28.0081 60.3984 34.5 53.9066 34.5 45.8984C34.5 37.8903 28.0081 31.3984 20 31.3984C11.9919 31.3984 5.5 37.8903 5.5 45.8984C5.5 53.9066 11.9919 60.3984 20 60.3984Z" fill="#F3F3F3"/>
<path d="M20 32.8984C27.2 32.8984 33 38.6984 33 45.8984C33 53.0984 27.2 58.8984 20 58.8984C12.8 58.8984 7 53.0984 7 45.8984C7 38.6984 12.8 32.8984 20 32.8984ZM20 29.8984C11.2 29.8984 4 37.0984 4 45.8984C4 54.6984 11.2 61.8984 20 61.8984C28.8 61.8984 36 54.6984 36 45.8984C36 37.0984 28.8 29.8984 20 29.8984Z" fill="black"/>
<path d="M16.6008 51.3H14.8008V49H16.6008V48H14.8008V45.3H16.6008V39H21.9008C23.6008 39 24.9008 39.4 25.8008 40.2C26.7008 41 27.1008 42.2 27.1008 43.6C27.1008 44.3 27.0008 44.9 26.8008 45.4C26.6008 45.9 26.2008 46.4 25.8008 46.8C25.4008 47.2 24.8008 47.5 24.2008 47.7C23.5008 47.9 22.8008 48 21.9008 48H20.2008V49H24.4008V51.3H20.2008V52.8H16.6008V51.3ZM21.4008 45.2C22.1008 45.2 22.6008 45.1 23.0008 44.8C23.3008 44.5 23.5008 44.1 23.5008 43.5C23.5008 42.9 23.3008 42.5 23.0008 42.2C22.7008 41.9 22.1008 41.8 21.4008 41.8H20.1008V45.2H21.4008Z" fill="black"/>
</g>
<defs>
<clipPath id="clip0_3160_16992">
<rect width="59.2" height="56.9" fill="white" transform="translate(4 5)"/>
</clipPath>
</defs>
</svg>
