<svg width="68" height="68" viewBox="0 0 68 68" fill="none" xmlns="http://www.w3.org/2000/svg">
<rect width="68" height="68" fill="#F3F3F3"/>
<g clip-path="url(#clip0_2916_19645)">
<path d="M34 35.3008C33.2 35.3008 32.5 36.0008 32.5 36.8008V53.5008C32.5 54.3008 33.2 55.0008 34 55.0008C34.8 55.0008 35.5 54.3008 35.5 53.5008V36.8008C35.5 36.0008 34.8 35.3008 34 35.3008Z" fill="#FF3D2E"/>
<path d="M47.5 32.5H37C36.2 32.5 35.5 33.2 35.5 34C35.5 34.8 36.2 35.5 37 35.5H47.5C48.3 35.5 49 34.8 49 34C49 33.2 48.3 32.5 47.5 32.5Z" fill="#FF3D2E"/>
<path d="M34 5C33.2 5 32.5 5.7 32.5 6.5V9.5C32.5 10.3 33.2 11 34 11C34.8 11 35.5 10.3 35.5 9.5V6.5C35.5 5.7 34.8 5 34 5Z" fill="#FF3D2E"/>
<path d="M34 4C17.4 4 4 17.4 4 34C4 50.6 17.4 64 34 64C50.6 64 64 50.6 64 34C64 17.4 50.6 4 34 4ZM58.1 46.2L56 45C55.8 44.9 55.5 44.8 55.3 44.8C54.8 44.8 54.3 45.1 54 45.6C53.6 46.3 53.8 47.2 54.5 47.6L56.6 48.8C54.6 51.9 51.9 54.6 48.8 56.6L47.6 54.5C47.3 54 46.8 53.7 46.3 53.7C46 53.7 45.8 53.8 45.6 53.9C44.9 54.3 44.6 55.2 45.1 55.9L46.3 58C43.1 59.6 39.4 60.7 35.6 60.9V58.4C35.6 57.6 34.9 56.9 34.1 56.9C33.3 56.9 32.6 57.6 32.6 58.4V61C28.8 60.8 25.2 59.8 21.9 58.1L23 56C23.4 55.3 23.2 54.4 22.5 54C22.3 53.9 22 53.8 21.8 53.8C21.3 53.8 20.8 54.1 20.5 54.6L19.3 56.7C16.2 54.7 13.5 52 11.5 48.9L13.6 47.7C14.3 47.3 14.6 46.4 14.1 45.7C13.8 45.2 13.3 44.9 12.8 44.9C12.5 44.9 12.3 45 12.1 45.1L10 46.3C8.3 42.9 7.3 39.3 7 35.5H9.5C10.3 35.5 11 34.8 11 34C11 33.2 10.3 32.5 9.5 32.5H7C7.2 28.7 8.2 25.1 9.9 21.8L12 23C12.2 23.1 12.5 23.2 12.7 23.2C13.2 23.2 13.7 22.9 14 22.4C14.4 21.7 14.2 20.8 13.5 20.4L11.4 19.2C13.4 16.1 16.1 13.4 19.2 11.4L20.4 13.5C20.7 14 21.2 14.3 21.7 14.3C22 14.3 22.2 14.2 22.4 14.1C23.1 13.7 23.4 12.8 22.9 12.1L21.7 10C25.5 8.1 29.6 7 34 7C38.4 7 42.5 8.1 46.2 9.9L45 12C44.6 12.7 44.8 13.6 45.5 14C45.7 14.1 46 14.2 46.2 14.2C46.7 14.2 47.2 13.9 47.5 13.4L48.7 11.3C51.8 13.3 54.5 16 56.5 19.1L54.4 20.3C53.7 20.7 53.4 21.6 53.9 22.3C54.2 22.8 54.7 23.1 55.2 23.1C55.5 23.1 55.7 23 55.9 22.9L58 21.7C59.6 24.9 60.7 28.6 60.9 32.4H58.4C57.6 32.4 56.9 33.1 56.9 33.9C56.9 34.7 57.6 35.4 58.4 35.4H61C60.7 39.3 59.7 42.9 58.1 46.2Z" fill="#231F20"/>
<path d="M34.4992 29.9992C34.2992 29.9992 34.1992 29.9992 33.9992 29.9992C33.2992 29.9992 32.5992 30.1992 31.9992 30.5992L18.8992 17.4992C18.4992 17.0992 17.8992 17.0992 17.4992 17.4992C17.0992 17.8992 17.0992 18.4992 17.4992 18.8992L30.5992 31.9992C30.2992 32.4992 30.0992 32.9992 30.0992 33.4992C29.7992 35.6992 31.3992 37.6992 33.5992 37.8992C33.7992 37.8992 33.8992 37.8992 34.0992 37.8992C36.0992 37.8992 37.7992 36.3992 38.0992 34.3992C38.1992 32.2992 36.6992 30.2992 34.4992 29.9992Z" fill="#231F20"/>
</g>
<defs>
<clipPath id="clip0_2916_19645">
<rect width="60" height="60" fill="white" transform="translate(4 4)"/>
</clipPath>
</defs>
</svg>
