<svg width="58" height="57" viewBox="0 0 58 57" fill="none" xmlns="http://www.w3.org/2000/svg">
<g clip-path="url(#clip0_2823_6805)">
<path d="M10.3 54.7031C10.1 54.7031 9.9 54.6031 9.8 54.3031L1.5 23.5031C1.5 23.3031 1.5 23.2031 1.5 23.1031C1.5 23.0031 1.6 22.9031 1.8 22.9031L25 16.7031H25.1C25.3 16.7031 25.5 16.8031 25.6 17.1031L33.9 48.0031C33.9 48.2031 33.9 48.3031 33.9 48.4031C33.9 48.5031 33.8 48.6031 33.6 48.6031L10.4 54.8031C10.4 54.7031 10.3 54.7031 10.3 54.7031Z" fill="#FF3D2E"/>
<path d="M24.5004 18.4016L32.3004 47.4016L11.0004 53.0016L3.2004 24.0016L24.5004 18.4016ZM25.2004 15.1016C25.0004 15.1016 24.9004 15.1016 24.7004 15.2016L1.5004 21.4016C0.400401 21.7016 -0.199599 22.8016 0.100401 23.8016L8.4004 54.7016C8.6004 55.6016 9.4004 56.2016 10.3004 56.2016C10.5004 56.2016 10.6004 56.2016 10.8004 56.1016L34.0004 50.0016C35.1004 49.7016 35.7004 48.6016 35.4004 47.6016L27.1004 16.7016C26.9004 15.7016 26.1004 15.1016 25.2004 15.1016Z" fill="black"/>
<path d="M47.2 54.6H47.1L23.9 48.4C23.6 48.3 23.5 48.1 23.5 47.8L31.8 16.9C31.9 16.6 32.1 16.5 32.3 16.5H32.4L55.6 22.7C55.9 22.8 56 23 56 23.3L47.7 54.2C47.7 54.5 47.4 54.6 47.2 54.6Z" fill="#F3F3F3"/>
<path d="M33.1004 18.2L54.4004 23.9L46.6004 52.9L25.3004 47.2L33.1004 18.2ZM32.3004 15C31.4004 15 30.6004 15.6 30.4004 16.5L22.1004 47.4C21.8004 48.5 22.4004 49.6 23.5004 49.8L46.7004 56C46.9004 56 47.0004 56.1 47.2004 56.1C48.1004 56.1 48.9004 55.5 49.1004 54.6L57.4004 23.7C57.7004 22.6 57.1004 21.5 56.0004 21.3L32.8004 15.1C32.7004 15 32.5004 15 32.3004 15Z" fill="black"/>
<path d="M38.9992 45L38.1992 47.9L43.9992 49.5L44.7992 46.6L38.9992 45Z" fill="#FF3D2E"/>
<path d="M16.8008 34.5C16.5008 34.5 16.3008 34.3 16.3008 34V2C16.3008 1.7 16.5008 1.5 16.8008 1.5H40.8008C41.1008 1.5 41.3008 1.7 41.3008 2V34C41.3008 34.3 41.1008 34.5 40.8008 34.5H16.8008Z" fill="#F3F3F3"/>
<path d="M39.8008 3V33H17.8008V3H39.8008ZM40.8008 0H16.8008C15.7008 0 14.8008 0.9 14.8008 2V34C14.8008 35.1 15.7008 36 16.8008 36H40.8008C41.9008 36 42.8008 35.1 42.8008 34V2C42.8008 0.9 41.9008 0 40.8008 0Z" fill="black"/>
<path d="M36.8008 6H20.8008V9H36.8008V6Z" fill="black"/>
<path d="M35 16H21V19H35V16Z" fill="black"/>
<path d="M30.8008 11H20.8008V14H30.8008V11Z" fill="black"/>
<path d="M27.8008 26H20.8008V29H27.8008V26Z" fill="black"/>
</g>
<defs>
<clipPath id="clip0_2823_6805">
<rect width="57.5" height="56.2" fill="white"/>
</clipPath>
</defs>
</svg>
