<svg width="60" height="60" viewBox="0 0 60 60" fill="none" xmlns="http://www.w3.org/2000/svg">
<path d="M30 31.3008C29.2 31.3008 28.5 32.0008 28.5 32.8008V49.5008C28.5 50.3008 29.2 51.0008 30 51.0008C30.8 51.0008 31.5 50.3008 31.5 49.5008V32.8008C31.5 32.0008 30.8 31.3008 30 31.3008Z" fill="#FF3D2E"/>
<path d="M43.5 28.5H33C32.2 28.5 31.5 29.2 31.5 30C31.5 30.8 32.2 31.5 33 31.5H43.5C44.3 31.5 45 30.8 45 30C45 29.2 44.3 28.5 43.5 28.5Z" fill="#FF3D2E"/>
<path d="M30 1C29.2 1 28.5 1.7 28.5 2.5V5.5C28.5 6.3 29.2 7 30 7C30.8 7 31.5 6.3 31.5 5.5V2.5C31.5 1.7 30.8 1 30 1Z" fill="#FF3D2E"/>
<path d="M30 0C13.4 0 0 13.4 0 30C0 46.6 13.4 60 30 60C46.6 60 60 46.6 60 30C60 13.4 46.6 0 30 0ZM54.1 42.2L52 41C51.8 40.9 51.5 40.8 51.3 40.8C50.8 40.8 50.3 41.1 50 41.6C49.6 42.3 49.8 43.2 50.5 43.6L52.6 44.8C50.6 47.9 47.9 50.6 44.8 52.6L43.6 50.5C43.3 50 42.8 49.7 42.3 49.7C42 49.7 41.8 49.8 41.6 49.9C40.9 50.3 40.6 51.2 41.1 51.9L42.3 54C39.1 55.6 35.4 56.7 31.6 56.9V54.4C31.6 53.6 30.9 52.9 30.1 52.9C29.3 52.9 28.6 53.6 28.6 54.4V57C24.8 56.8 21.2 55.8 17.9 54.1L19 52C19.4 51.3 19.2 50.4 18.5 50C18.3 49.9 18 49.8 17.8 49.8C17.3 49.8 16.8 50.1 16.5 50.6L15.3 52.7C12.2 50.7 9.5 48 7.5 44.9L9.6 43.7C10.3 43.3 10.6 42.4 10.1 41.7C9.8 41.2 9.3 40.9 8.8 40.9C8.5 40.9 8.3 41 8.1 41.1L6 42.3C4.3 38.9 3.3 35.3 3 31.5H5.5C6.3 31.5 7 30.8 7 30C7 29.2 6.3 28.5 5.5 28.5H3C3.2 24.7 4.2 21.1 5.9 17.8L8 19C8.2 19.1 8.5 19.2 8.7 19.2C9.2 19.2 9.7 18.9 10 18.4C10.4 17.7 10.2 16.8 9.5 16.4L7.4 15.2C9.4 12.1 12.1 9.4 15.2 7.4L16.4 9.5C16.7 10 17.2 10.3 17.7 10.3C18 10.3 18.2 10.2 18.4 10.1C19.1 9.7 19.4 8.8 18.9 8.1L17.7 6C21.5 4.1 25.6 3 30 3C34.4 3 38.5 4.1 42.2 5.9L41 8C40.6 8.7 40.8 9.6 41.5 10C41.7 10.1 42 10.2 42.2 10.2C42.7 10.2 43.2 9.9 43.5 9.4L44.7 7.3C47.8 9.3 50.5 12 52.5 15.1L50.4 16.3C49.7 16.7 49.4 17.6 49.9 18.3C50.2 18.8 50.7 19.1 51.2 19.1C51.5 19.1 51.7 19 51.9 18.9L54 17.7C55.6 20.9 56.7 24.6 56.9 28.4H54.4C53.6 28.4 52.9 29.1 52.9 29.9C52.9 30.7 53.6 31.4 54.4 31.4H57C56.7 35.3 55.7 38.9 54.1 42.2Z" fill="black"/>
<path d="M30.4992 25.9992C30.2992 25.9992 30.1992 25.9992 29.9992 25.9992C29.2992 25.9992 28.5992 26.1992 27.9992 26.5992L14.8992 13.4992C14.4992 13.0992 13.8992 13.0992 13.4992 13.4992C13.0992 13.8992 13.0992 14.4992 13.4992 14.8992L26.5992 27.9992C26.2992 28.4992 26.0992 28.9992 26.0992 29.4992C25.7992 31.6992 27.3992 33.6992 29.5992 33.8992C29.7992 33.8992 29.8992 33.8992 30.0992 33.8992C32.0992 33.8992 33.7992 32.3992 34.0992 30.3992C34.1992 28.2992 32.6992 26.2992 30.4992 25.9992Z" fill="black"/>
</svg>
