<svg width="60" height="57" viewBox="0 0 60 57" fill="none" xmlns="http://www.w3.org/2000/svg">
<path d="M56 47.8984V53.8984H30V47.8984H56ZM56 44.8984H30C28.3 44.8984 27 46.1984 27 47.8984V53.8984C27 55.5984 28.3 56.8984 30 56.8984H56C57.7 56.8984 59 55.5984 59 53.8984V47.8984C59 46.2984 57.7 44.8984 56 44.8984Z" fill="black"/>
<path d="M27.1992 46.5C26.3992 46.5 25.6992 45.8 25.6992 45V39C25.6992 38.2 26.3992 37.5 27.1992 37.5H53.1992C53.9992 37.5 54.6992 38.2 54.6992 39V45C54.6992 45.8 53.9992 46.5 53.1992 46.5H27.1992Z" fill="#FF3D2E"/>
<path d="M53.1992 39V45H27.1992V39H53.1992ZM53.1992 36H27.1992C25.4992 36 24.1992 37.3 24.1992 39V45C24.1992 46.7 25.4992 48 27.1992 48H53.1992C54.8992 48 56.1992 46.7 56.1992 45V39C56.1992 37.3 54.8992 36 53.1992 36Z" fill="black"/>
<path d="M56.1992 30V36H30.1992V30H56.1992ZM56.1992 27H30.1992C28.4992 27 27.1992 28.3 27.1992 30V36C27.1992 37.7 28.4992 39 30.1992 39H56.1992C57.8992 39 59.1992 37.7 59.1992 36V30C59.1992 28.3 57.8992 27 56.1992 27Z" fill="black"/>
<path d="M27.1992 28.5C26.3992 28.5 25.6992 27.8 25.6992 27V21C25.6992 20.2 26.3992 19.5 27.1992 19.5H53.1992C53.9992 19.5 54.6992 20.2 54.6992 21V27C54.6992 27.8 53.9992 28.5 53.1992 28.5H27.1992Z" fill="#FF3D2E"/>
<path d="M53.1992 21V27H27.1992V21H53.1992ZM53.1992 18H27.1992C25.4992 18 24.1992 19.3 24.1992 21V27C24.1992 28.7 25.4992 30 27.1992 30H53.1992C54.8992 30 56.1992 28.7 56.1992 27V21C56.1992 19.3 54.8992 18 53.1992 18Z" fill="black"/>
<path d="M56.1992 12V18H30.1992V12H56.1992ZM56.1992 9H30.1992C28.4992 9 27.1992 10.3 27.1992 12V18C27.1992 19.7 28.4992 21 30.1992 21H56.1992C57.8992 21 59.1992 19.7 59.1992 18V12C59.1992 10.3 57.8992 9 56.1992 9Z" fill="black"/>
<path d="M27.1992 10.5C26.3992 10.5 25.6992 9.8 25.6992 9V3C25.6992 2.2 26.3992 1.5 27.1992 1.5H53.1992C53.9992 1.5 54.6992 2.2 54.6992 3V9C54.6992 9.8 53.9992 10.5 53.1992 10.5H27.1992Z" fill="#FF3D2E"/>
<path d="M53.1992 3V9H27.1992V3H53.1992ZM53.1992 0H27.1992C25.4992 0 24.1992 1.3 24.1992 3V9C24.1992 10.7 25.4992 12 27.1992 12H53.1992C54.8992 12 56.1992 10.7 56.1992 9V3C56.1992 1.3 54.8992 0 53.1992 0Z" fill="black"/>
<path d="M16 55.3984C24.0081 55.3984 30.5 48.9066 30.5 40.8984C30.5 32.8903 24.0081 26.3984 16 26.3984C7.99187 26.3984 1.5 32.8903 1.5 40.8984C1.5 48.9066 7.99187 55.3984 16 55.3984Z" fill="#F3F3F3"/>
<path d="M16 27.8984C23.2 27.8984 29 33.6984 29 40.8984C29 48.0984 23.2 53.8984 16 53.8984C8.8 53.8984 3 48.0984 3 40.8984C3 33.6984 8.8 27.8984 16 27.8984ZM16 24.8984C7.2 24.8984 0 32.0984 0 40.8984C0 49.6984 7.2 56.8984 16 56.8984C24.8 56.8984 32 49.6984 32 40.8984C32 32.0984 24.8 24.8984 16 24.8984Z" fill="black"/>
<path d="M12.6008 46.3H10.8008V44H12.6008V43H10.8008V40.3H12.6008V34H17.9008C19.6008 34 20.9008 34.4 21.8008 35.2C22.7008 36 23.1008 37.2 23.1008 38.6C23.1008 39.3 23.0008 39.9 22.8008 40.4C22.6008 40.9 22.2008 41.4 21.8008 41.8C21.4008 42.2 20.8008 42.5 20.2008 42.7C19.5008 42.9 18.8008 43 17.9008 43H16.2008V44H20.4008V46.3H16.2008V47.8H12.6008V46.3ZM17.4008 40.2C18.1008 40.2 18.6008 40.1 19.0008 39.8C19.3008 39.5 19.5008 39.1 19.5008 38.5C19.5008 37.9 19.3008 37.5 19.0008 37.2C18.7008 36.9 18.1008 36.8 17.4008 36.8H16.1008V40.2H17.4008Z" fill="black"/>
</svg>
