<svg width="68" height="68" viewBox="0 0 68 68" fill="none" xmlns="http://www.w3.org/2000/svg">
    <path d="M59.6304 6.19141C58.8333 6.19103 58.0542 6.42882 57.3932 6.87426C56.7322 7.3197 56.2193 7.95247 55.9204 8.69141H38.2604V6.19141H30.2604V8.69141H12.7804C12.4323 7.83088 11.7957 7.11821 10.9798 6.67554C10.1639 6.23286 9.21938 6.08775 8.3082 6.26507C7.39702 6.44238 6.57588 6.93109 5.9855 7.64743C5.39512 8.36377 5.07227 9.26314 5.07227 10.1914C5.07227 11.1197 5.39512 12.0191 5.9855 12.7354C6.57588 13.4517 7.39702 13.9404 8.3082 14.1178C9.21938 14.2951 10.1639 14.15 10.9798 13.7073C11.7957 13.2646 12.4323 12.5519 12.7804 11.6914H21.7804C17.2504 14.0914 13.7804 17.9814 13.0504 23.5514C13.0354 23.6408 13.0354 23.732 13.0504 23.8214H10.6904V31.8214H18.6904V23.8214H16.0004C17.0004 16.8214 23.4504 13.1014 30.2604 12.0314V14.1914H38.2604V12.0014C45.0004 13.0014 51.1404 16.7714 52.0004 23.6714H49.6404V31.6714H57.6404V23.6714H55.0004C55.0053 23.645 55.0053 23.6179 55.0004 23.5914C54.7323 21.0755 53.8364 18.6673 52.3948 16.588C50.9533 14.5087 49.0124 12.8249 46.7504 11.6914H55.9004C56.1725 12.3641 56.6225 12.9502 57.2022 13.3867C57.7819 13.8233 58.4694 14.0939 59.1911 14.1696C59.9129 14.2453 60.6416 14.1232 61.2993 13.8165C61.9569 13.5098 62.5187 13.0299 62.9246 12.4283C63.3304 11.8267 63.5649 11.126 63.603 10.4013C63.641 9.67662 63.4813 8.95524 63.1407 8.31441C62.8002 7.67359 62.2918 7.13747 61.6699 6.76349C61.048 6.38951 60.336 6.19176 59.6104 6.19141H59.6304Z" fill="black"/>
    <path d="M36.2102 18.8786C35.9853 18.5255 35.6749 18.2349 35.3078 18.0335C34.9408 17.8321 34.5289 17.7266 34.1102 17.7266C33.6915 17.7266 33.2796 17.8321 32.9126 18.0335C32.5455 18.2349 32.2352 18.5255 32.0102 18.8786L22.6302 33.4386C22.3136 33.9286 22.1248 34.4901 22.0811 35.0718C22.0374 35.6535 22.1403 36.2369 22.3802 36.7686L25.8802 44.5486C25.2144 44.7985 24.6406 45.2453 24.2351 45.8295C23.8295 46.4137 23.6116 47.1075 23.6102 47.8186V51.8186C23.6132 52.6659 23.9243 53.4832 24.4855 54.118C25.0467 54.7528 25.8197 55.1618 26.6602 55.2686C26.6332 55.4509 26.6165 55.6345 26.6102 55.8186V57.8186C26.6102 58.7469 26.979 59.6371 27.6353 60.2935C28.2917 60.9499 29.182 61.3186 30.1102 61.3186H38.1102C39.0385 61.3186 39.9287 60.9499 40.5851 60.2935C41.2415 59.6371 41.6102 58.7469 41.6102 57.8186V55.8186C41.6056 55.6339 41.5855 55.45 41.5502 55.2686C42.3926 55.164 43.168 54.7561 43.7312 54.121C44.2944 53.486 44.607 52.6674 44.6102 51.8186V47.8186C44.6088 47.1075 44.3909 46.4137 43.9854 45.8295C43.5798 45.2453 43.006 44.7985 42.3402 44.5486L45.8402 36.7486C46.0775 36.2163 46.1789 35.6333 46.1352 35.0521C46.0916 34.4709 45.9043 33.9096 45.5902 33.4186L36.2102 18.8786ZM34.1102 33.7686C34.4275 33.7666 34.7382 33.859 35.0029 34.0341C35.2675 34.2091 35.4741 34.4589 35.5965 34.7517C35.7188 35.0445 35.7513 35.367 35.6899 35.6783C35.6285 35.9896 35.4759 36.2756 35.2516 36.5C35.0272 36.7243 34.7412 36.8769 34.4299 36.9383C34.1186 36.9997 33.7961 36.9672 33.5033 36.8449C33.2105 36.7225 32.9607 36.5159 32.7857 36.2513C32.6106 35.9866 32.5182 35.6759 32.5202 35.3586C32.5202 34.9369 32.6877 34.5325 32.9859 34.2343C33.2841 33.9361 33.6885 33.7686 34.1102 33.7686ZM38.6102 57.7686C38.6102 57.9012 38.5575 58.0284 38.4638 58.1222C38.37 58.2159 38.2428 58.2686 38.1102 58.2686H30.1102C29.9776 58.2686 29.8504 58.2159 29.7567 58.1222C29.6629 58.0284 29.6102 57.9012 29.6102 57.7686V55.7686C29.6102 55.636 29.6629 55.5088 29.7567 55.4151C29.8504 55.3213 29.9776 55.2686 30.1102 55.2686H38.1102C38.242 55.2712 38.3677 55.3247 38.4609 55.4179C38.5542 55.5111 38.6077 55.6368 38.6102 55.7686V57.7686ZM41.1102 47.2686C41.2428 47.2686 41.37 47.3213 41.4638 47.4151C41.5575 47.5088 41.6102 47.636 41.6102 47.7686V51.7686C41.6077 51.9004 41.5542 52.0261 41.4609 52.1193C41.3677 52.2126 41.242 52.2661 41.1102 52.2686H27.1102C26.9776 52.2686 26.8504 52.2159 26.7567 52.1222C26.6629 52.0284 26.6102 51.9012 26.6102 51.7686V47.7686C26.6102 47.636 26.6629 47.5088 26.7567 47.4151C26.8504 47.3213 26.9776 47.2686 27.1102 47.2686H41.0802H41.1102ZM43.1102 35.4686L39.1702 44.2686H29.0602L25.1202 35.4886C25.0808 35.4148 25.0602 35.3323 25.0602 35.2486C25.0602 35.1649 25.0808 35.0825 25.1202 35.0086L32.5802 23.4386V30.9986C31.5543 31.3534 30.6873 32.0602 30.1333 32.9936C29.5792 33.927 29.3738 35.0266 29.5537 36.0971C29.7335 37.1676 30.2869 38.1397 31.1156 38.8408C31.9444 39.5419 32.9947 39.9266 34.0802 39.9266C35.1657 39.9266 36.2161 39.5419 37.0448 38.8408C37.8735 38.1397 38.4269 37.1676 38.6068 36.0971C38.7866 35.0266 38.5813 33.927 38.0272 32.9936C37.4731 32.0602 36.6061 31.3534 35.5802 30.9986V23.4786L43.0402 35.0486C43.0891 35.1155 43.1203 35.1937 43.1308 35.2759C43.1413 35.3581 43.1308 35.4416 43.1002 35.5186L43.1102 35.4686Z" fill="#FF3D2E"/>
</svg>
