<svg width="120" height="120" viewBox="0 0 120 120" fill="none" xmlns="http://www.w3.org/2000/svg">
<path d="M105.23 10.9219C103.824 10.9212 102.449 11.3408 101.282 12.1269C100.116 12.913 99.2106 14.0296 98.6831 15.3337H67.5184V10.9219H53.4008V15.3337H22.5537C21.9394 13.8151 20.8161 12.5574 19.3762 11.7762C17.9363 10.995 16.2696 10.739 14.6616 11.0519C13.0537 11.3648 11.6046 12.2272 10.5628 13.4913C9.52091 14.7555 8.95117 16.3426 8.95117 17.9807C8.95117 19.6188 9.52091 21.206 10.5628 22.4701C11.6046 23.7342 13.0537 24.5966 14.6616 24.9096C16.2696 25.2225 17.9363 24.9664 19.3762 24.1852C20.8161 23.404 21.9394 22.1464 22.5537 20.6278H38.4361C30.4419 24.8631 24.3184 31.7278 23.0302 41.5572C23.0038 41.7149 23.0038 41.8759 23.0302 42.0336H18.8655V56.1513H32.9831V42.0336H28.2361C30.0008 29.6807 41.3831 23.116 53.4008 21.2278V25.0395H67.5184V21.1748C79.4125 22.9395 90.2478 29.5925 91.7655 41.7689H87.6008V55.8866H101.718V41.7689H97.0596C97.0682 41.7223 97.0682 41.6744 97.0596 41.6278C96.5865 37.188 95.0055 32.9382 92.4616 29.2688C89.9177 25.5995 86.4925 22.6281 82.5008 20.6278H98.6478C99.1281 21.8149 99.9222 22.8491 100.945 23.6195C101.968 24.3898 103.181 24.8674 104.455 25.001C105.729 25.1346 107.015 24.9192 108.175 24.3779C109.336 23.8366 110.327 22.9898 111.043 21.9281C111.76 20.8664 112.173 19.63 112.241 18.3511C112.308 17.0723 112.026 15.7992 111.425 14.6684C110.824 13.5375 109.927 12.5914 108.829 11.9314C107.732 11.2715 106.475 10.9225 105.195 10.9219H105.23Z" fill="black"/>
<path d="M63.9003 33.3182C63.5033 32.6951 62.9556 32.1822 62.3078 31.8268C61.6601 31.4714 60.9332 31.2852 60.1944 31.2852C59.4556 31.2852 58.7287 31.4714 58.0809 31.8268C57.4332 32.1822 56.8855 32.6951 56.4885 33.3182L39.9356 59.0123C39.3767 59.8769 39.0436 60.8678 38.9665 61.8944C38.8894 62.9209 39.0709 63.9504 39.4944 64.8888L45.6708 78.6182C44.496 79.0592 43.4833 79.8477 42.7677 80.8785C42.052 81.9094 41.6674 83.1338 41.665 84.3888V91.4476C41.6702 92.9429 42.2192 94.3851 43.2095 95.5054C44.1999 96.6256 45.564 97.3473 47.0473 97.5358C46.9996 97.8574 46.9702 98.1815 46.9591 98.5064V102.036C46.9591 103.674 47.6098 105.245 48.7681 106.403C49.9264 107.562 51.4975 108.212 53.1356 108.212H67.2532C68.8913 108.212 70.4623 107.562 71.6206 106.403C72.7789 105.245 73.4297 103.674 73.4297 102.036V98.5064C73.4215 98.1805 73.3861 97.8558 73.3238 97.5358C74.8103 97.3513 76.1786 96.6313 77.1726 95.5107C78.1666 94.39 78.718 92.9455 78.7238 91.4476V84.3888C78.7214 83.1338 78.3367 81.9094 77.6211 80.8785C76.9055 79.8477 75.8928 79.0592 74.7179 78.6182L80.8944 64.8535C81.3131 63.914 81.492 62.8853 81.415 61.8596C81.338 60.8339 81.0075 59.8434 80.4532 58.977L63.9003 33.3182ZM60.1944 59.5947C60.7543 59.5912 61.3026 59.7542 61.7697 60.0632C62.2367 60.3721 62.6013 60.8129 62.8172 61.3295C63.0331 61.8461 63.0905 62.4153 62.9821 62.9647C62.8737 63.514 62.6044 64.0187 62.2085 64.4147C61.8126 64.8106 61.3078 65.0799 60.7585 65.1883C60.2091 65.2966 59.64 65.2392 59.1233 65.0234C58.6067 64.8075 58.1659 64.4428 57.857 63.9758C57.5481 63.5088 57.385 62.9605 57.3885 62.4005C57.3885 61.6564 57.6841 60.9427 58.2103 60.4165C58.7365 59.8903 59.4502 59.5947 60.1944 59.5947ZM68.1356 101.948C68.1356 102.182 68.0426 102.406 67.8771 102.572C67.7116 102.737 67.4872 102.83 67.2532 102.83H53.1356C52.9015 102.83 52.6771 102.737 52.5116 102.572C52.3462 102.406 52.2532 102.182 52.2532 101.948V98.4182C52.2532 98.1842 52.3462 97.9597 52.5116 97.7943C52.6771 97.6288 52.9015 97.5358 53.1356 97.5358H67.2532C67.4858 97.5404 67.7076 97.6348 67.8721 97.7993C68.0366 97.9638 68.131 98.1856 68.1356 98.4182V101.948ZM72.5473 83.4182C72.7813 83.4182 73.0058 83.5112 73.1712 83.6766C73.3367 83.8421 73.4297 84.0665 73.4297 84.3005V91.3594C73.4252 91.592 73.3307 91.8138 73.1662 91.9783C73.0017 92.1428 72.7799 92.2372 72.5473 92.2417H47.8414C47.6074 92.2417 47.383 92.1488 47.2175 91.9833C47.052 91.8178 46.9591 91.5934 46.9591 91.3594V84.3005C46.9591 84.0665 47.052 83.8421 47.2175 83.6766C47.383 83.5112 47.6074 83.4182 47.8414 83.4182H72.4944H72.5473ZM76.0767 62.5947L69.1238 78.1241H51.2826L44.3297 62.63C44.2602 62.4996 44.2238 62.3542 44.2238 62.2064C44.2238 62.0587 44.2602 61.9132 44.3297 61.7829L57.4944 41.3653V54.7064C55.684 55.3324 54.154 56.5798 53.1762 58.227C52.1984 59.8742 51.836 61.8147 52.1534 63.7038C52.4708 65.5929 53.4474 67.3084 54.9098 68.5456C56.3723 69.7828 58.2259 70.4617 60.1414 70.4617C62.057 70.4617 63.9106 69.7828 65.373 68.5456C66.8355 67.3084 67.8121 65.5929 68.1295 63.7038C68.4469 61.8147 68.0845 59.8742 67.1067 58.227C66.1289 56.5798 64.5989 55.3324 62.7885 54.7064V41.4358L75.9532 61.8535C76.0395 61.9715 76.0945 62.1095 76.1131 62.2545C76.1316 62.3996 76.113 62.547 76.0591 62.6829L76.0767 62.5947Z" fill="#FF3D2E"/>
</svg>
