<svg width="68" height="68" viewBox="0 0 68 68" fill="none" xmlns="http://www.w3.org/2000/svg">
    <path d="M54.9375 10H12.0625C10.3711 10 9 11.4327 9 13.2V38.8C9 40.5673 10.3711 42 12.0625 42H54.9375C56.6289 42 58 40.5673 58 38.8V13.2C58 11.4327 56.6289 10 54.9375 10Z" fill="#FF3D2E"/>
    <path d="M21.41 22.36L15 26.1V23.47L18.4 21.57L15 19.66V17L21.41 20.74V22.36Z" fill="black"/>
    <path d="M25.6604 26.8914H22.9404V24.1914H25.6404L25.6604 26.8914Z" fill="black"/>
    <path d="M30.2303 26.8914H27.5303V24.1914H30.2303V26.8914Z" fill="black"/>
    <path fill-rule="evenodd" clip-rule="evenodd" d="M62.88 51.2C62.9548 51.4603 62.9951 51.7292 63 52V54.22V57C63 57.9283 62.6312 58.8185 61.9749 59.4749C61.3185 60.1312 60.4283 60.5 59.5 60.5H7.5C6.57174 60.5 5.6815 60.1312 5.02513 59.4749C4.36875 58.8185 4 57.9283 4 57V54.06V52C4.00118 51.7158 4.04156 51.4332 4.12 51.16L6.79 42.88C6.9307 42.4482 7.15876 42.0499 7.46 41.71C7.16468 41.188 7.00643 40.5997 7 40V12C7 11.0717 7.36875 10.1815 8.02513 9.52513C8.6815 8.86875 9.57174 8.5 10.5 8.5H56.5C57.4283 8.5 58.3185 8.86875 58.9749 9.52513C59.6312 10.1815 60 11.0717 60 12V40C59.9943 40.5814 59.843 41.1521 59.56 41.66C59.9279 42.0361 60.199 42.496 60.35 43L62.88 51.2ZM10.1464 11.6464C10.0527 11.7402 10 11.8674 10 12V40C10.0025 40.1301 10.0546 40.2544 10.1457 40.3474C10.2368 40.4403 10.3599 40.4949 10.49 40.5H56.49C56.6226 40.5 56.7498 40.4473 56.8436 40.3536C56.9373 40.2598 56.99 40.1326 56.99 40V11.99C56.99 11.8574 56.9373 11.7302 56.8436 11.6364C56.7498 11.5427 56.6226 11.49 56.49 11.49H38V13C38 13.5523 37.5523 14 37 14H30C29.4477 14 29 13.5523 29 13V11.5H10.5C10.3674 11.5 10.2402 11.5527 10.1464 11.6464ZM14.34 46.5H52.63L51.91 43.5H15.05L14.34 46.5ZM9.61 43.8L7 52.07C6.97589 52.1072 6.96307 52.1506 6.96307 52.195C6.96307 52.2394 6.97589 52.2828 7 52.32C7.05998 52.3974 7.14062 52.4563 7.23261 52.49C7.32461 52.5236 7.42423 52.5305 7.52 52.51H59.52C59.6018 52.516 59.6837 52.5018 59.7587 52.4687C59.8337 52.4356 59.8994 52.3845 59.95 52.32C59.9791 52.2861 59.999 52.2453 60.0077 52.2015C60.0165 52.1578 60.0138 52.1125 60 52.07L57.48 43.81C57.4409 43.7165 57.3737 43.6374 57.2877 43.5837C57.2017 43.5299 57.1012 43.5042 57 43.51H55L55.68 46.57C55.7561 46.9199 55.7529 47.2823 55.6708 47.6308C55.5886 47.9793 55.4295 48.305 55.2051 48.584C54.9808 48.863 54.6968 49.0883 54.3741 49.2433C54.0514 49.3984 53.698 49.4792 53.34 49.48H13.62C13.2577 49.481 12.8998 49.4007 12.5727 49.2449C12.2455 49.0892 11.9576 48.8619 11.73 48.58C11.5094 48.3019 11.3544 47.9777 11.2765 47.6314C11.1986 47.2851 11.1998 46.9258 11.28 46.58L12 43.51H10.09C9.99017 43.5048 9.89108 43.5297 9.80552 43.5814C9.71995 43.6331 9.65185 43.7092 9.61 43.8ZM59.8536 57.3536C59.9473 57.2598 60 57.1326 60 57V55.52H7V57C7 57.1326 7.05268 57.2598 7.14645 57.3536C7.24021 57.4473 7.36739 57.5 7.5 57.5H59.5C59.6326 57.5 59.7598 57.4473 59.8536 57.3536Z" fill="black"/>
</svg>
