<svg width="68" height="68" viewBox="0 0 68 68" fill="none" xmlns="http://www.w3.org/2000/svg">
<rect width="68" height="68" fill="#F3F3F3"/>
<g clip-path="url(#clip0_3160_17130)">
<path d="M32.7031 21C39.9031 21 45.7031 26.8 45.7031 34C45.7031 41.2 39.9031 47 32.7031 47C25.5031 47 19.7031 41.2 19.7031 34C19.7031 26.8 25.5031 21 32.7031 21ZM32.7031 18C23.9031 18 16.7031 25.2 16.7031 34C16.7031 42.8 23.9031 50 32.7031 50C41.5031 50 48.7031 42.8 48.7031 34C48.7031 25.2 41.5031 18 32.7031 18Z" fill="black"/>
<path d="M29.2023 39.4H27.4023V37H29.2023V36H27.4023V33.3H29.2023V27H34.5023C36.2023 27 37.5023 27.4 38.4023 28.2C39.3023 29 39.7023 30.2 39.7023 31.6C39.7023 32.3 39.6023 32.9 39.4023 33.4C39.2023 33.9 38.8023 34.4 38.4023 34.8C38.0023 35.2 37.4023 35.5 36.8023 35.7C36.1023 35.9 35.4023 36 34.5023 36H32.8023V37H37.0023V39.3H32.8023V40.8H29.2023V39.4ZM34.1023 33.3C34.8023 33.3 35.3023 33.2 35.7023 32.9C36.0023 32.6 36.2023 32.2 36.2023 31.6C36.2023 31 36.0023 30.6 35.7023 30.3C35.4023 30 34.8023 29.9 34.1023 29.9H32.8023V33.3H34.1023Z" fill="black"/>
<path d="M61.6017 32.0991C60.7017 17.5991 48.8017 5.79913 34.3017 4.99913C21.1017 4.29913 9.70173 12.3991 5.50173 23.9991C5.40173 24.3991 5.20173 24.7991 5.10173 25.1991C4.80173 26.0991 5.50173 26.9991 6.40173 26.9991H6.60173C7.20173 26.9991 7.80173 26.5991 8.00173 25.9991C8.20173 25.2991 8.50173 24.6991 8.70173 23.9991C13.0017 13.6991 23.7017 6.79913 35.8017 8.19913C47.7017 9.59913 57.2017 19.1991 58.5017 30.9991C60.3017 46.6991 48.0017 59.9991 32.7017 59.9991C23.9017 59.9991 16.2017 55.5991 11.5017 48.9991H17.2017C18.0017 48.9991 18.7017 48.2991 18.7017 47.4991C18.7017 46.6991 18.0017 45.9991 17.2017 45.9991H9.70173C8.00173 45.9991 6.70173 47.2991 6.70173 48.9991V56.4991C6.70173 57.2991 7.40173 57.9991 8.20173 57.9991C9.00173 57.9991 9.70173 57.2991 9.70173 56.4991V51.5991C15.0017 58.4991 23.3017 62.9991 32.7017 62.9991C49.3017 62.9991 62.7017 48.9991 61.6017 32.0991Z" fill="#FF3D2E"/>
</g>
<defs>
<clipPath id="clip0_3160_17130">
<rect width="56.7" height="58" fill="white" transform="translate(5 5)"/>
</clipPath>
</defs>
</svg>
