<svg width="68" height="68" viewBox="0 0 68 68" fill="none" xmlns="http://www.w3.org/2000/svg">
<rect width="68" height="68" fill="#F3F3F3"/>
<g clip-path="url(#clip0_3160_17176)">
<path d="M39 54.6992C38.2 54.6992 37.5 53.9992 37.5 53.1992V49.1992C37.5 48.3992 38.2 47.6992 39 47.6992H57C57.8 47.6992 58.5 48.3992 58.5 49.1992V53.1992C58.5 53.9992 57.8 54.6992 57 54.6992H39Z" fill="#FF3D2E"/>
<path d="M57 49.1992V53.1992H39V49.1992H57ZM57 46.1992H39C37.3 46.1992 36 47.4992 36 49.1992V53.1992C36 54.8992 37.3 56.1992 39 56.1992H57C58.7 56.1992 60 54.8992 60 53.1992V49.1992C60 47.5992 58.7 46.1992 57 46.1992Z" fill="black"/>
<path d="M39 47.6992C38.2 47.6992 37.5 46.9992 37.5 46.1992V42.1992C37.5 41.3992 38.2 40.6992 39 40.6992H57C57.8 40.6992 58.5 41.3992 58.5 42.1992V46.1992C58.5 46.9992 57.8 47.6992 57 47.6992H39Z" fill="#FF3D2E"/>
<path d="M57 42.1992V46.1992H39V42.1992H57ZM57 39.1992H39C37.3 39.1992 36 40.4992 36 42.1992V46.1992C36 47.8992 37.3 49.1992 39 49.1992H57C58.7 49.1992 60 47.8992 60 46.1992V42.1992C60 40.5992 58.7 39.1992 57 39.1992Z" fill="black"/>
<path d="M39 33.6992C38.2 33.6992 37.5 32.9992 37.5 32.1992V28.1992C37.5 27.3992 38.2 26.6992 39 26.6992H57C57.8 26.6992 58.5 27.3992 58.5 28.1992V32.1992C58.5 32.9992 57.8 33.6992 57 33.6992H39Z" fill="#FF3D2E"/>
<path d="M57 28.1992V32.1992H39V28.1992H57ZM57 25.1992H39C37.3 25.1992 36 26.4992 36 28.1992V32.1992C36 33.8992 37.3 35.1992 39 35.1992H57C58.7 35.1992 60 33.8992 60 32.1992V28.1992C60 26.5992 58.7 25.1992 57 25.1992Z" fill="black"/>
<path d="M39 40.6992C38.2 40.6992 37.5 39.9992 37.5 39.1992V35.1992C37.5 34.3992 38.2 33.6992 39 33.6992H57C57.8 33.6992 58.5 34.3992 58.5 35.1992V39.1992C58.5 39.9992 57.8 40.6992 57 40.6992H39Z" fill="#FF3D2E"/>
<path d="M57 35.1992V39.1992H39V35.1992H57ZM57 32.1992H39C37.3 32.1992 36 33.4992 36 35.1992V39.1992C36 40.8992 37.3 42.1992 39 42.1992H57C58.7 42.1992 60 40.8992 60 39.1992V35.1992C60 33.5992 58.7 32.1992 57 32.1992Z" fill="black"/>
<path d="M61.3984 7.50056C57.3984 4.90056 53.3984 10.1006 49.3984 7.50056C49.3984 10.2006 49.3984 13.0006 49.3984 15.7006C53.3984 18.3006 57.3984 13.1006 61.3984 15.7006C61.3984 13.0006 61.3984 10.2006 61.3984 7.50056Z" fill="#FF3D2E"/>
<path d="M47.8984 5C47.0984 5 46.3984 5.7 46.3984 6.5V25.9C46.3984 26.7 47.0984 27.4 47.8984 27.4C48.6984 27.4 49.3984 26.7 49.3984 25.9V6.5C49.3984 5.7 48.6984 5 47.8984 5Z" fill="black"/>
<path d="M62.5 60.1992H60V56.1992C60 54.4992 58.7 53.1992 57 53.1992H39C37.3 53.1992 36 54.4992 36 56.1992V60.1992H31.7V60.0992V56.0992C31.7 54.3992 30.4 53.0992 28.7 53.0992H26.7C29.9 50.8992 31.9 47.2992 31.9 43.1992C31.9 36.5992 26.5 31.1992 19.9 31.1992C13.3 31.1992 7.9 36.5992 7.9 43.1992C7.9 47.2992 10 50.8992 13.1 53.0992H10.8C9.1 53.0992 7.8 54.3992 7.8 56.0992V60.0992V60.1992H5.5C4.7 60.1992 4 60.8992 4 61.6992C4 62.4992 4.7 63.1992 5.5 63.1992H39H57H62.5C63.3 63.1992 64 62.4992 64 61.6992C64 60.8992 63.3 60.1992 62.5 60.1992ZM11 43.1992C11 38.1992 15 34.1992 20 34.1992C25 34.1992 29 38.1992 29 43.1992C29 48.1992 25 52.1992 20 52.1992C15 52.1992 11 48.1992 11 43.1992ZM10.8 56.0992H28.8V60.0992H10.8V56.0992ZM39 60.1992V56.1992H57V60.1992H39Z" fill="black"/>
<path d="M17.2008 47.9H19.8008V46.8H22.8008V45.1H19.8008V44.4H21.0008C21.6008 44.4 22.2008 44.3 22.6008 44.2C23.0008 44.1 23.5008 43.8 23.8008 43.6C24.1008 43.3 24.4008 43 24.5008 42.6C24.7008 42.2 24.7008 41.8 24.7008 41.3C24.7008 40.3 24.4008 39.5 23.7008 38.9C23.0008 38.3 22.1008 38 20.9008 38H17.1008V42.6H15.8008V44.6H17.1008V45.3H15.8008V47H17.1008V47.9H17.2008ZM19.7008 40H20.6008C21.1008 40 21.5008 40.1 21.7008 40.3C21.9008 40.5 22.1008 40.8 22.1008 41.2C22.1008 41.6 22.0008 41.9 21.7008 42.1C21.5008 42.3 21.1008 42.4 20.6008 42.4H19.7008V40Z" fill="black"/>
</g>
<defs>
<clipPath id="clip0_3160_17176">
<rect width="60" height="58.2" fill="white" transform="translate(4 5)"/>
</clipPath>
</defs>
</svg>
