<svg width="68" height="68" viewBox="0 0 68 68" fill="none" xmlns="http://www.w3.org/2000/svg">
<rect width="68" height="68" fill="#F3F3F3"/>
<g clip-path="url(#clip0_3160_17227)">
<path d="M64 29.5H4V36.5H64V29.5Z" fill="#FF3D2E"/>
<path d="M27.6016 43.1992H11.6016V46.1992H27.6016V43.1992Z" fill="black"/>
<path d="M21.6016 49.1992H11.6016V52.1992H21.6016V49.1992Z" fill="black"/>
<circle cx="50.5" cy="47.5" r="3.5" fill="#FF3D2E"/>
<path d="M50.4023 41.6992C49.0023 41.6992 47.7023 42.1992 46.7023 42.9992C45.7023 42.1992 44.4023 41.6992 42.9023 41.6992C39.6023 41.6992 36.9023 44.3992 36.9023 47.6992C36.9023 50.9992 39.6023 53.6992 42.9023 53.6992C44.3023 53.6992 45.6023 53.1992 46.7023 52.3992C47.7023 53.1992 49.0023 53.6992 50.4023 53.6992C53.7023 53.6992 56.4023 50.9992 56.4023 47.6992C56.4023 44.3992 53.7023 41.6992 50.4023 41.6992ZM42.9023 50.6992C41.2023 50.6992 39.9023 49.3992 39.9023 47.6992C39.9023 45.9992 41.2023 44.6992 42.9023 44.6992C43.6023 44.6992 44.3023 44.9992 44.8023 45.3992C44.5023 46.0992 44.4023 46.8992 44.4023 47.6992C44.4023 48.4992 44.6023 49.2992 44.8023 49.9992C44.3023 50.3992 43.6023 50.6992 42.9023 50.6992ZM50.4023 50.6992C49.7023 50.6992 49.0023 50.3992 48.5023 49.9992C47.9023 49.3992 47.4023 48.5992 47.4023 47.6992C47.4023 46.7992 47.8023 45.9992 48.5023 45.3992C49.0023 44.8992 49.7023 44.6992 50.4023 44.6992C52.1023 44.6992 53.4023 45.9992 53.4023 47.6992C53.4023 49.3992 52.0023 50.6992 50.4023 50.6992Z" fill="black"/>
<path d="M36 7.5L15.5 20.5L14.5 22.5L19 23.5L38.5 14.5L42 12.5L38.5 8.5L36 7.5Z" fill="#FF3D2E"/>
<path d="M58.0016 21.5016H57.3016L54.3016 13.6016C53.4016 11.2016 51.1016 9.80156 48.7016 9.80156C48.0016 9.80156 47.2016 9.90156 46.5016 10.2016L43.4016 11.4016L41.6016 8.70156C40.4016 7.00156 38.6016 6.10156 36.6016 6.10156C35.4016 6.10156 34.3016 6.40156 33.2016 7.10156L12.0016 21.5016H10.0016C7.00156 21.5016 4.50156 23.7016 4.10156 26.6016C4.10156 26.7016 4.10156 26.8016 4.10156 26.9016C4.10156 27.1016 4.10156 27.3016 4.10156 27.5016V29.8016V30.5016V41.8016V50.1016V54.9016V55.5016C4.10156 58.2016 5.90156 60.5016 8.40156 61.3016C8.90156 61.5016 9.50156 61.5016 10.1016 61.5016H12.1016H16.5016H19.0016H24.3016H24.7016H58.0016C61.3016 61.5016 64.0016 58.8016 64.0016 55.5016V44.7016V38.8016V27.5016C64.0016 24.1016 61.3016 21.5016 58.0016 21.5016ZM45.1016 13.9016L47.6016 13.0016C47.9016 12.9016 48.3016 12.8016 48.7016 12.8016C49.9016 12.8016 51.1016 13.6016 51.5016 14.7016L54.1016 21.5016H50.3016H46.7016H25.7016L42.2016 15.0016L45.1016 13.9016ZM34.9016 9.50156C35.4016 9.20156 35.9016 9.00156 36.5016 9.00156C37.5016 9.00156 38.4016 9.50156 39.0016 10.3016L40.5016 12.4016L17.4016 21.3016L34.9016 9.50156ZM61.0016 39.4016V43.8016V47.4016V55.5016C61.0016 57.2016 59.7016 58.5016 58.0016 58.5016H32.5016H28.7016H24.2016H23.4016H10.5016H10.0016C8.30156 58.5016 7.00156 57.2016 7.00156 55.5016V49.5016V28.6016V28.4016V27.4016C7.00156 26.2016 7.70156 25.2016 8.70156 24.7016L9.10156 24.6016C9.40156 24.5016 9.70156 24.4016 10.0016 24.4016H12.9016H17.8016H48.6016H52.2016H55.1016H58.0016C58.2016 24.4016 58.3016 24.4016 58.4016 24.4016C59.8016 24.6016 61.0016 25.9016 61.0016 27.4016V31.1016V39.4016Z" fill="black"/>
</g>
<defs>
<clipPath id="clip0_3160_17227">
<rect width="60" height="55.5" fill="white" transform="translate(4 6)"/>
</clipPath>
</defs>
</svg>
