<svg width="57" height="58" viewBox="0 0 57 58" fill="none" xmlns="http://www.w3.org/2000/svg">
<g clip-path="url(#clip0_2926_16916)">
<path d="M27.7031 16C34.9031 16 40.7031 21.8 40.7031 29C40.7031 36.2 34.9031 42 27.7031 42C20.5031 42 14.7031 36.2 14.7031 29C14.7031 21.8 20.5031 16 27.7031 16ZM27.7031 13C18.9031 13 11.7031 20.2 11.7031 29C11.7031 37.8 18.9031 45 27.7031 45C36.5031 45 43.7031 37.8 43.7031 29C43.7031 20.2 36.5031 13 27.7031 13Z" fill="black"/>
<path d="M24.2023 34.4H22.4023V32H24.2023V31H22.4023V28.3H24.2023V22H29.5023C31.2023 22 32.5023 22.4 33.4023 23.2C34.3023 24 34.7023 25.2 34.7023 26.6C34.7023 27.3 34.6023 27.9 34.4023 28.4C34.2023 28.9 33.8023 29.4 33.4023 29.8C33.0023 30.2 32.4023 30.5 31.8023 30.7C31.1023 30.9 30.4023 31 29.5023 31H27.8023V32H32.0023V34.3H27.8023V35.8H24.2023V34.4ZM29.1023 28.3C29.8023 28.3 30.3023 28.2 30.7023 27.9C31.0023 27.6 31.2023 27.2 31.2023 26.6C31.2023 26 31.0023 25.6 30.7023 25.3C30.4023 25 29.8023 24.9 29.1023 24.9H27.8023V28.3H29.1023Z" fill="black"/>
<path d="M56.6017 27.0991C55.7017 12.5991 43.8017 0.799132 29.3017 -0.000867795C16.1017 -0.700868 4.70173 7.39913 0.501727 18.9991C0.401727 19.3991 0.201727 19.7991 0.101727 20.1991C-0.198273 21.0991 0.501727 21.9991 1.40173 21.9991H1.60173C2.20173 21.9991 2.80173 21.5991 3.00173 20.9991C3.20173 20.2991 3.50173 19.6991 3.70173 18.9991C8.00173 8.69913 18.7017 1.79913 30.8017 3.19913C42.7017 4.59913 52.2017 14.1991 53.5017 25.9991C55.3017 41.6991 43.0017 54.9991 27.7017 54.9991C18.9017 54.9991 11.2017 50.5991 6.50173 43.9991H12.2017C13.0017 43.9991 13.7017 43.2991 13.7017 42.4991C13.7017 41.6991 13.0017 40.9991 12.2017 40.9991H4.70173C3.00173 40.9991 1.70173 42.2991 1.70173 43.9991V51.4991C1.70173 52.2991 2.40173 52.9991 3.20173 52.9991C4.00173 52.9991 4.70173 52.2991 4.70173 51.4991V46.5991C10.0017 53.4991 18.3017 57.9991 27.7017 57.9991C44.3017 57.9991 57.7017 43.9991 56.6017 27.0991Z" fill="#FF3D2E"/>
</g>
<defs>
<clipPath id="clip0_2926_16916">
<rect width="56.7" height="58" fill="white"/>
</clipPath>
</defs>
</svg>
