<svg width="60" height="59" viewBox="0 0 60 59" fill="none" xmlns="http://www.w3.org/2000/svg">
<path d="M35 49.6992C34.2 49.6992 33.5 48.9992 33.5 48.1992V44.1992C33.5 43.3992 34.2 42.6992 35 42.6992H53C53.8 42.6992 54.5 43.3992 54.5 44.1992V48.1992C54.5 48.9992 53.8 49.6992 53 49.6992H35Z" fill="#FF3D2E"/>
<path d="M53 44.1992V48.1992H35V44.1992H53ZM53 41.1992H35C33.3 41.1992 32 42.4992 32 44.1992V48.1992C32 49.8992 33.3 51.1992 35 51.1992H53C54.7 51.1992 56 49.8992 56 48.1992V44.1992C56 42.5992 54.7 41.1992 53 41.1992Z" fill="black"/>
<path d="M35 42.6992C34.2 42.6992 33.5 41.9992 33.5 41.1992V37.1992C33.5 36.3992 34.2 35.6992 35 35.6992H53C53.8 35.6992 54.5 36.3992 54.5 37.1992V41.1992C54.5 41.9992 53.8 42.6992 53 42.6992H35Z" fill="#FF3D2E"/>
<path d="M53 37.1992V41.1992H35V37.1992H53ZM53 34.1992H35C33.3 34.1992 32 35.4992 32 37.1992V41.1992C32 42.8992 33.3 44.1992 35 44.1992H53C54.7 44.1992 56 42.8992 56 41.1992V37.1992C56 35.5992 54.7 34.1992 53 34.1992Z" fill="black"/>
<path d="M35 28.6992C34.2 28.6992 33.5 27.9992 33.5 27.1992V23.1992C33.5 22.3992 34.2 21.6992 35 21.6992H53C53.8 21.6992 54.5 22.3992 54.5 23.1992V27.1992C54.5 27.9992 53.8 28.6992 53 28.6992H35Z" fill="#FF3D2E"/>
<path d="M53 23.1992V27.1992H35V23.1992H53ZM53 20.1992H35C33.3 20.1992 32 21.4992 32 23.1992V27.1992C32 28.8992 33.3 30.1992 35 30.1992H53C54.7 30.1992 56 28.8992 56 27.1992V23.1992C56 21.5992 54.7 20.1992 53 20.1992Z" fill="black"/>
<path d="M35 35.6992C34.2 35.6992 33.5 34.9992 33.5 34.1992V30.1992C33.5 29.3992 34.2 28.6992 35 28.6992H53C53.8 28.6992 54.5 29.3992 54.5 30.1992V34.1992C54.5 34.9992 53.8 35.6992 53 35.6992H35Z" fill="#FF3D2E"/>
<path d="M53 30.1992V34.1992H35V30.1992H53ZM53 27.1992H35C33.3 27.1992 32 28.4992 32 30.1992V34.1992C32 35.8992 33.3 37.1992 35 37.1992H53C54.7 37.1992 56 35.8992 56 34.1992V30.1992C56 28.5992 54.7 27.1992 53 27.1992Z" fill="black"/>
<path d="M57.3984 2.50056C53.3984 -0.0994446 49.3984 5.10056 45.3984 2.50056C45.3984 5.20056 45.3984 8.00056 45.3984 10.7006C49.3984 13.3006 53.3984 8.10055 57.3984 10.7006C57.3984 8.00056 57.3984 5.20056 57.3984 2.50056Z" fill="#FF3D2E"/>
<path d="M43.8984 0C43.0984 0 42.3984 0.7 42.3984 1.5V20.9C42.3984 21.7 43.0984 22.4 43.8984 22.4C44.6984 22.4 45.3984 21.7 45.3984 20.9V1.5C45.3984 0.7 44.6984 0 43.8984 0Z" fill="black"/>
<path d="M58.5 55.1992H56V51.1992C56 49.4992 54.7 48.1992 53 48.1992H35C33.3 48.1992 32 49.4992 32 51.1992V55.1992H27.7V55.0992V51.0992C27.7 49.3992 26.4 48.0992 24.7 48.0992H22.7C25.9 45.8992 27.9 42.2992 27.9 38.1992C27.9 31.5992 22.5 26.1992 15.9 26.1992C9.3 26.1992 3.9 31.5992 3.9 38.1992C3.9 42.2992 6 45.8992 9.1 48.0992H6.8C5.1 48.0992 3.8 49.3992 3.8 51.0992V55.0992V55.1992H1.5C0.7 55.1992 0 55.8992 0 56.6992C0 57.4992 0.7 58.1992 1.5 58.1992H35H53H58.5C59.3 58.1992 60 57.4992 60 56.6992C60 55.8992 59.3 55.1992 58.5 55.1992ZM7 38.1992C7 33.1992 11 29.1992 16 29.1992C21 29.1992 25 33.1992 25 38.1992C25 43.1992 21 47.1992 16 47.1992C11 47.1992 7 43.1992 7 38.1992ZM6.8 51.0992H24.8V55.0992H6.8V51.0992ZM35 55.1992V51.1992H53V55.1992H35Z" fill="black"/>
<path d="M13.2008 42.9H15.8008V41.8H18.8008V40.1H15.8008V39.4H17.0008C17.6008 39.4 18.2008 39.3 18.6008 39.2C19.0008 39.1 19.5008 38.8 19.8008 38.6C20.1008 38.3 20.4008 38 20.5008 37.6C20.7008 37.2 20.7008 36.8 20.7008 36.3C20.7008 35.3 20.4008 34.5 19.7008 33.9C19.0008 33.3 18.1008 33 16.9008 33H13.1008V37.6H11.8008V39.6H13.1008V40.3H11.8008V42H13.1008V42.9H13.2008ZM15.7008 35H16.6008C17.1008 35 17.5008 35.1 17.7008 35.3C17.9008 35.5 18.1008 35.8 18.1008 36.2C18.1008 36.6 18.0008 36.9 17.7008 37.1C17.5008 37.3 17.1008 37.4 16.6008 37.4H15.7008V35Z" fill="black"/>
</svg>
