<svg width="60" height="56" viewBox="0 0 60 56" fill="none" xmlns="http://www.w3.org/2000/svg">
<g clip-path="url(#clip0_2928_17004)">
<path d="M60 23.5H0V30.5H60V23.5Z" fill="#FF3D2E"/>
<path d="M23.6016 37.1992H7.60156V40.1992H23.6016V37.1992Z" fill="black"/>
<path d="M17.6016 43.1992H7.60156V46.1992H17.6016V43.1992Z" fill="black"/>
<circle cx="46.5" cy="41.5" r="3.5" fill="#FF3D2E"/>
<path d="M46.4023 35.6992C45.0023 35.6992 43.7023 36.1992 42.7023 36.9992C41.7023 36.1992 40.4023 35.6992 38.9023 35.6992C35.6023 35.6992 32.9023 38.3992 32.9023 41.6992C32.9023 44.9992 35.6023 47.6992 38.9023 47.6992C40.3023 47.6992 41.6023 47.1992 42.7023 46.3992C43.7023 47.1992 45.0023 47.6992 46.4023 47.6992C49.7023 47.6992 52.4023 44.9992 52.4023 41.6992C52.4023 38.3992 49.7023 35.6992 46.4023 35.6992ZM38.9023 44.6992C37.2023 44.6992 35.9023 43.3992 35.9023 41.6992C35.9023 39.9992 37.2023 38.6992 38.9023 38.6992C39.6023 38.6992 40.3023 38.9992 40.8023 39.3992C40.5023 40.0992 40.4023 40.8992 40.4023 41.6992C40.4023 42.4992 40.6023 43.2992 40.8023 43.9992C40.3023 44.3992 39.6023 44.6992 38.9023 44.6992ZM46.4023 44.6992C45.7023 44.6992 45.0023 44.3992 44.5023 43.9992C43.9023 43.3992 43.4023 42.5992 43.4023 41.6992C43.4023 40.7992 43.8023 39.9992 44.5023 39.3992C45.0023 38.8992 45.7023 38.6992 46.4023 38.6992C48.1023 38.6992 49.4023 39.9992 49.4023 41.6992C49.4023 43.3992 48.0023 44.6992 46.4023 44.6992Z" fill="black"/>
<path d="M32 1.5L11.5 14.5L10.5 16.5L15 17.5L34.5 8.5L38 6.5L34.5 2.5L32 1.5Z" fill="#FF3D2E"/>
<path d="M54.0016 15.5016H53.3016L50.3016 7.60156C49.4016 5.20156 47.1016 3.80156 44.7016 3.80156C44.0016 3.80156 43.2016 3.90156 42.5016 4.20156L39.4016 5.40156L37.6016 2.70156C36.4016 1.00156 34.6016 0.101562 32.6016 0.101562C31.4016 0.101562 30.3016 0.401563 29.2016 1.10156L8.00156 15.5016H6.00156C3.00156 15.5016 0.501563 17.7016 0.101562 20.6016C0.101562 20.7016 0.101562 20.8016 0.101562 20.9016C0.101562 21.1016 0.101562 21.3016 0.101562 21.5016V23.8016V24.5016V35.8016V44.1016V48.9016V49.5016C0.101562 52.2016 1.90156 54.5016 4.40156 55.3016C4.90156 55.5016 5.50156 55.5016 6.10156 55.5016H8.10156H12.5016H15.0016H20.3016H20.7016H54.0016C57.3016 55.5016 60.0016 52.8016 60.0016 49.5016V38.7016V32.8016V21.5016C60.0016 18.1016 57.3016 15.5016 54.0016 15.5016ZM41.1016 7.90156L43.6016 7.00156C43.9016 6.90156 44.3016 6.80156 44.7016 6.80156C45.9016 6.80156 47.1016 7.60156 47.5016 8.70156L50.1016 15.5016H46.3016H42.7016H21.7016L38.2016 9.00156L41.1016 7.90156ZM30.9016 3.50156C31.4016 3.20156 31.9016 3.00156 32.5016 3.00156C33.5016 3.00156 34.4016 3.50156 35.0016 4.30156L36.5016 6.40156L13.4016 15.3016L30.9016 3.50156ZM57.0016 33.4016V37.8016V41.4016V49.5016C57.0016 51.2016 55.7016 52.5016 54.0016 52.5016H28.5016H24.7016H20.2016H19.4016H6.50156H6.00156C4.30156 52.5016 3.00156 51.2016 3.00156 49.5016V43.5016V22.6016V22.4016V21.4016C3.00156 20.2016 3.70156 19.2016 4.70156 18.7016L5.10156 18.6016C5.40156 18.5016 5.70156 18.4016 6.00156 18.4016H8.90156H13.8016H44.6016H48.2016H51.1016H54.0016C54.2016 18.4016 54.3016 18.4016 54.4016 18.4016C55.8016 18.6016 57.0016 19.9016 57.0016 21.4016V25.1016V33.4016Z" fill="black"/>
</g>
<defs>
<clipPath id="clip0_2928_17004">
<rect width="60" height="55.5" fill="white"/>
</clipPath>
</defs>
</svg>
