<svg width="24" height="25" viewBox="0 0 24 25" fill="none" xmlns="http://www.w3.org/2000/svg">
<path d="M14.8299 13.293C14.6976 13.2924 14.5667 13.2652 14.4448 13.2129C14.3229 13.1605 14.2125 13.0841 14.1199 12.9881L8.45986 7.24712C8.36613 7.15266 8.29174 7.04028 8.24097 6.91646C8.1902 6.79263 8.16406 6.65982 8.16406 6.52568C8.16406 6.39155 8.1902 6.25873 8.24097 6.13491C8.29174 6.01109 8.36613 5.89871 8.45986 5.80425C8.5533 5.71007 8.66412 5.63557 8.78595 5.585C8.90779 5.53443 9.03825 5.5088 9.16986 5.50957C9.30147 5.5088 9.43193 5.53443 9.55377 5.585C9.6756 5.63557 9.78642 5.71007 9.87986 5.80425L15.5399 11.5351C15.7261 11.7255 15.8307 11.983 15.8307 12.2515C15.8307 12.5199 15.7261 12.7774 15.5399 12.9678C15.4472 13.0638 15.3368 13.1402 15.2149 13.1925C15.0931 13.2449 14.9622 13.2721 14.8299 13.2726V13.293Z" fill="white"/>
<path d="M9.33002 19.5937C9.19841 19.5945 9.06795 19.5689 8.94611 19.5183C8.82427 19.4677 8.71346 19.3932 8.62002 19.2991C8.52629 19.2046 8.45189 19.0922 8.40113 18.9684C8.35036 18.8446 8.32422 18.7118 8.32422 18.5776C8.32422 18.4435 8.35036 18.3107 8.40113 18.1869C8.45189 18.063 8.52629 17.9506 8.62002 17.8562L12.16 14.2693C12.3474 14.0801 12.6008 13.9738 12.865 13.9738C13.1292 13.9738 13.3827 14.0801 13.57 14.2693C13.7563 14.4597 13.8608 14.7172 13.8608 14.9857C13.8608 15.2541 13.7563 15.5117 13.57 15.702L10 19.2991C9.90658 19.3932 9.79576 19.4677 9.67392 19.5183C9.55209 19.5689 9.42162 19.5945 9.29002 19.5937H9.33002Z" fill="#8D8D8D"/>
</svg>
