<svg width="170" height="100" viewBox="0 0 170 100" fill="none" xmlns="http://www.w3.org/2000/svg">
<g clip-path="url(#clip0_3231_17210)">
<path d="M74.1752 33H96.6966C100.111 33 102.872 35.7607 102.872 39.1752V60.8248C102.872 64.2393 100.111 67 96.6966 67H74.1752C70.7607 67 68 64.2393 68 60.8248V39.1752C68 35.7607 70.7607 33 74.1752 33Z" fill="black"/>
<path d="M82.0053 53.341H76.6002L75.4959 56.77C75.4669 56.9008 75.3506 56.988 75.2199 56.9734H72.4882C72.3284 56.9734 72.2848 56.8863 72.3284 56.7119L77.0071 43.3008C77.0506 43.1555 77.0942 43.0247 77.1523 42.8504C77.2105 42.5452 77.2395 42.2256 77.2395 41.9059C77.225 41.8333 77.2831 41.7606 77.3558 41.7461H77.3994H81.119C81.2207 41.7461 81.2934 41.7897 81.3079 41.8623L86.6113 56.6828C86.6549 56.8427 86.6113 56.9153 86.466 56.9153H83.4293C83.3276 56.9299 83.2259 56.8572 83.1968 56.7555L82.0053 53.2683V53.341ZM77.4429 50.4495H81.1335C81.0464 50.1444 80.9301 49.7811 80.7994 49.4034C80.6686 49.0111 80.5378 48.5897 80.4071 48.1538C80.2618 47.7034 80.131 47.2675 79.9857 46.817C79.8404 46.3666 79.7096 45.9452 79.5934 45.5239C79.4771 45.117 79.3754 44.7393 79.2737 44.3905H79.2447C79.1139 45.0153 78.9541 45.6401 78.7506 46.2649C78.5327 46.9623 78.3147 47.6888 78.0823 48.4153C77.8934 49.1564 77.6609 49.8393 77.4429 50.4495Z" fill="white"/>
<path d="M95.171 52.0326H90.565C90.6231 52.483 90.7684 52.9334 91.0154 53.3257C91.277 53.718 91.6402 54.0232 92.0761 54.1975C92.6573 54.4445 93.2966 54.5753 93.936 54.5608C94.4445 54.5462 94.953 54.5026 95.4471 54.4009C95.8975 54.3428 96.3334 54.2266 96.7402 54.0667C96.8129 54.0086 96.8565 54.0377 96.8565 54.183V56.4061C96.8565 56.4642 96.8419 56.5223 96.8274 56.5804C96.7983 56.624 96.7693 56.6531 96.7257 56.6821C96.2607 56.8855 95.7812 57.0308 95.2727 57.118C94.5898 57.2488 93.9069 57.3069 93.2095 57.2924C92.1052 57.2924 91.1753 57.118 90.4197 56.7838C89.7077 56.4787 89.083 55.9992 88.5889 55.4035C88.124 54.8368 87.7898 54.1975 87.5864 53.5001C87.383 52.8172 87.2812 52.1052 87.2812 51.3787C87.2812 50.5941 87.3975 49.824 87.6445 49.0685C87.877 48.342 88.2402 47.6736 88.7342 47.0779C89.2137 46.4967 89.8095 46.0317 90.4924 45.6975C91.1753 45.3633 91.9889 45.2471 92.9189 45.2471C93.6889 45.2326 94.459 45.3779 95.171 45.6975C95.7667 45.959 96.2898 46.3514 96.6966 46.8599C97.0744 47.3539 97.3795 47.9061 97.5684 48.5163C97.7573 49.0975 97.8445 49.6932 97.8445 50.289C97.8445 50.6377 97.83 50.9428 97.8154 51.2189C97.7864 51.4949 97.7718 51.6984 97.7573 51.8291C97.7428 51.9308 97.6556 52.018 97.5539 52.018C97.4667 52.018 97.3069 52.0326 97.0744 52.0471C96.8419 52.0761 96.5659 52.0907 96.2317 52.0907C95.8975 52.0907 95.5488 52.0326 95.171 52.0326ZM90.565 49.9112H93.6308C94.0086 49.9112 94.2847 49.9112 94.459 49.8967C94.5753 49.8821 94.6915 49.8531 94.7932 49.7804V49.6351C94.7932 49.4462 94.7642 49.2719 94.706 49.0975C94.4445 48.2838 93.6744 47.7317 92.8171 47.7608C92.018 47.7172 91.2624 48.1385 90.8847 48.865C90.7103 49.1992 90.6086 49.5479 90.565 49.9112Z" fill="white"/>
</g>
<defs>
<clipPath id="clip0_3231_17210">
<rect width="34.8718" height="34" fill="white" transform="translate(68 33)"/>
</clipPath>
</defs>
</svg>
