<svg width="170" height="100" viewBox="0 0 170 100" fill="none" xmlns="http://www.w3.org/2000/svg">
<g clip-path="url(#clip0_3231_17182)">
<path d="M74.1752 33H96.6966C100.111 33 102.872 35.7607 102.872 39.1752V60.8248C102.872 64.2393 100.111 67 96.6966 67H74.1752C70.7607 67 68 64.2393 68 60.8248V39.1752C68 35.7607 70.7607 33 74.1752 33Z" fill="black"/>
<path d="M84.853 53.345H79.4479L78.3436 56.7595C78.3145 56.8903 78.1983 56.9775 78.0675 56.963H75.3359C75.1761 56.963 75.1325 56.8758 75.1761 56.7014L79.8547 43.2322C79.8983 43.0869 79.9419 42.9271 80 42.7527C80.0581 42.4476 80.0872 42.1279 80.0872 41.8083C80.0727 41.7356 80.1308 41.663 80.2034 41.6484H80.247H83.9667C84.0829 41.6484 84.141 41.692 84.1556 41.7647L89.459 56.7305C89.5026 56.8903 89.459 56.963 89.3137 56.963H86.2769C86.1752 56.9775 86.0735 56.9048 86.0445 56.8031L84.853 53.345ZM80.2906 50.3954H83.9812C83.894 50.0903 83.7778 49.7271 83.647 49.3493C83.5162 48.957 83.3855 48.5356 83.2547 48.0997C83.1094 47.6493 82.9786 47.2134 82.8333 46.763C82.688 46.3125 82.5573 45.8912 82.441 45.4698C82.3248 45.063 82.2231 44.6852 82.1214 44.3365H82.0923C81.9615 44.9613 81.8017 45.586 81.5983 46.2108C81.3803 46.9083 81.1624 47.6348 80.9299 48.3613C80.7265 49.1023 80.5086 49.7852 80.2906 50.3954Z" fill="white"/>
<path d="M92.6982 44.19C92.2187 44.2045 91.7537 44.0156 91.405 43.6814C91.0708 43.3182 90.8965 42.8387 90.911 42.3447C90.8965 41.8507 91.0854 41.3857 91.4341 41.0515C91.7828 40.7173 92.2477 40.543 92.7272 40.543C93.2939 40.543 93.7298 40.7173 94.0495 41.0515C94.3691 41.4002 94.5435 41.8652 94.5289 42.3447C94.5435 42.8387 94.3691 43.3182 94.0204 43.6814C93.6862 44.0301 93.1922 44.219 92.6982 44.19ZM91.0708 56.8019V45.6139C91.0708 45.4686 91.1289 45.4105 91.2597 45.4105H94.1366C94.2674 45.4105 94.3255 45.4831 94.3255 45.6139V56.8019C94.3255 56.9618 94.2674 57.0344 94.1366 57.0344H91.2888C91.1435 57.0344 91.0708 56.9472 91.0708 56.8019Z" fill="white"/>
</g>
<defs>
<clipPath id="clip0_3231_17182">
<rect width="34.8718" height="34" fill="white" transform="translate(68 33)"/>
</clipPath>
</defs>
</svg>
