<svg width="170" height="100" viewBox="0 0 170 100" fill="none" xmlns="http://www.w3.org/2000/svg">
<g clip-path="url(#clip0_3067_17182)">
<path d="M56.3276 43.8281L64.2895 54.3104V43.8281H65.8822V56.8402H64.1989L56.2365 46.266V56.8402H54.6445V43.8281H56.3276Z" fill="black"/>
<path d="M78.8039 56.3283C77.7549 56.7294 76.6235 56.9289 75.41 56.9289C70.6969 56.9289 68.3398 54.6697 68.3398 50.1501C68.3398 45.8733 70.6147 43.7344 75.1647 43.7344C76.4688 43.7344 77.6825 43.9171 78.8039 44.2813V45.7369C77.6823 45.3122 76.5291 45.0995 75.3464 45.0995C71.7981 45.0995 70.024 46.7835 70.024 50.1497C70.024 53.759 71.7707 55.5645 75.265 55.5645C75.8226 55.5645 76.442 55.4918 77.1218 55.3453V50.9233H78.8041L78.8039 56.3283Z" fill="black"/>
<path d="M81.4883 51.8178V43.8281H83.1705V51.8176C83.1705 54.3167 84.4145 55.5669 86.9022 55.5669C89.3888 55.5669 90.6328 54.3165 90.6328 51.8176V43.8281H92.3159V51.8176C92.3159 55.2279 90.5113 56.9314 86.9022 56.9314C83.2929 56.9314 81.4883 55.2282 81.4883 51.8178Z" fill="black"/>
<path d="M103.809 55.4758V56.8402H95.3203V43.8281H97.0027V55.4758H103.809Z" fill="black"/>
<path d="M110.962 42.1094L117.431 56.8389H115.565L113.882 52.7438H109.578L110.043 51.3794H113.318L110.889 45.4822L106.239 56.8389H104.492L110.962 42.1094Z" fill="black"/>
<path d="M119.203 56.8402V43.8281H124.754C127.229 43.8281 128.465 44.8682 128.465 46.9491C128.465 48.6412 127.257 49.8948 124.836 50.7066L129.304 56.8402H127.082L122.943 50.9894V49.8882C125.43 49.4929 126.674 48.5385 126.674 47.0216C126.674 45.8209 125.982 45.2203 124.599 45.2203H120.886V56.8402H119.203Z" fill="black"/>
<path d="M135.609 43.8281V53.0917C135.609 55.5916 134.138 56.8402 131.195 56.8402V55.4758C133.015 55.4758 133.926 54.68 133.926 53.0916V43.8281H135.609Z" fill="black"/>
<path d="M138.612 56.3829V54.8362C139.978 55.3212 141.451 55.5649 143.035 55.5649C145.273 55.5649 146.393 54.7454 146.393 53.1072C146.393 51.7133 145.567 51.0148 143.917 51.0148H142.242C139.519 51.0148 138.156 49.832 138.156 47.4657C138.156 44.979 139.901 43.7344 143.39 43.7344C144.906 43.7344 146.316 43.9178 147.621 44.2813V45.8284C146.316 45.3425 144.906 45.0997 143.39 45.0997C141.024 45.0997 139.841 45.8887 139.841 47.4659C139.841 48.8605 140.641 49.5583 142.242 49.5583H143.917C146.688 49.5583 148.076 50.7415 148.076 53.1072C148.076 55.6553 146.396 56.9293 143.034 56.9293C141.451 56.9291 139.977 56.7465 138.612 56.3829Z" fill="black"/>
<path d="M24.1476 59.0632L36.9592 66.1047L49.8367 58.9678L52.2373 39.0581L36.943 33.8047L21.7461 39.1528L24.1476 59.0632Z" fill="black"/>
<path d="M36.9062 64.4243L48.483 58.0172L50.7202 40.2107L36.9062 35.5V64.4243Z" fill="black"/>
<path d="M36.909 64.4209V35.4961L23.4531 40.2923L25.511 58.0989L36.909 64.4209Z" fill="black"/>
<path d="M40.7102 50.8943L36.9077 52.6724H32.8999L31.0159 57.3846L27.5117 57.4495L36.9077 36.5469L40.7102 50.8943ZM40.3426 49.9991L36.9328 43.2489L34.136 49.883H36.9075L40.3426 49.9991Z" fill="white"/>
<path d="M40.105 49.8881H36.9134L36.9062 52.6682L41.3194 52.6724L43.3821 57.4503L46.735 57.5124L36.9062 36.5469L36.9314 43.2489L40.105 49.8881Z" fill="white"/>
</g>
<defs>
<clipPath id="clip0_3067_17182">
<rect width="127.73" height="34" fill="white" transform="translate(21 33)"/>
</clipPath>
</defs>
</svg>
