<svg width="170" height="100" viewBox="0 0 170 100" fill="none" xmlns="http://www.w3.org/2000/svg">
<g clip-path="url(#clip0_3093_17496)">
<path d="M75.4467 70.7286L63.4805 37.9896L96.3421 29.1992L102.32 63.5379L89.8604 70.8645L75.4467 70.7286Z" fill="black"/>
<path d="M89.1178 68.0097L99.1843 62.0868L94.0748 32.7422L80.6445 36.3351L89.1178 68.0097Z" fill="#8D8D8D"/>
<path d="M111.974 46.1358L113.505 51.404L101.783 54.7159C101.783 54.7159 101.783 61.7664 96.0942 64.5693C90.4063 67.3721 85.9874 64.9954 85.9874 64.9954L85.2799 62.9566L93.7178 60.6625L95.5854 53.441L90.1492 48.094L82.3348 50.4574L81.6562 48.6026C81.6562 48.6029 85.3074 40.5331 96.0957 45.1227C96.0957 45.1227 99.4953 47.244 100.258 49.1147L111.974 46.1358ZM113.505 45.7401L115.373 45.202L116.875 50.5819L114.92 51.1748L113.505 45.7401Z" fill="white"/>
<path d="M114.161 45.5037L115.37 45.2031L116.873 50.583L114.918 51.1759L114.406 49.3744L115.186 49.0692L114.161 45.5037ZM110.679 46.4665L111.971 46.1369L113.503 51.4051L101.78 54.717C101.78 54.717 101.654 60.8689 97.5748 63.6545C93.5022 66.4377 88.9124 66.3539 85.9835 64.9967L85.6571 64.0566C85.6571 64.0566 93.6279 65.9308 97.5748 59.9417C99.9549 55.9932 99.9129 53.1466 99.9129 53.1466L111.676 49.9624L110.679 46.4665ZM81.6523 48.6005L88.5327 46.6038L90.1438 48.0917L82.3309 50.4551L81.6523 48.6005Z" fill="#8D8D8D"/>
<path d="M57.3977 52.3341L58.7789 57.6425L70.5418 54.4919C70.5418 54.4919 74.1512 60.547 80.4742 60.0428C86.7992 59.5388 89.3759 55.2366 89.3759 55.2366L88.9399 53.1237L80.518 55.4709L75.2171 50.2256L77.1507 42.8455L85.0754 40.8777L84.7084 38.936C84.7084 38.936 77.4435 33.8711 70.5209 43.3335C70.5209 43.3335 68.6888 46.8942 68.9876 48.8912L57.3977 52.3341ZM55.8806 52.7784L54 53.271L55.4623 58.6603L57.446 58.1708L55.8806 52.7784Z" fill="white"/>
<path d="M55.1941 52.9086L54 53.2709L55.4623 58.6601L57.446 58.1706L56.9661 56.3593L56.136 56.4971L55.1941 52.9086ZM58.6804 51.9554L57.3977 52.3339L58.7789 57.6423L70.5418 54.4918C70.5418 54.4918 73.8002 59.7101 78.7295 60.0171C83.6538 60.3209 87.552 57.9039 89.3759 55.2364L89.1772 54.2624C89.1772 54.2624 83.2854 59.9525 76.828 56.8262C72.7633 54.6519 71.3447 52.1814 71.3447 52.1814L59.6078 55.4675L58.6804 51.9554ZM84.7084 38.9375L77.7778 40.7405L77.1525 42.8455L85.0768 40.8778L84.7084 38.9375Z" fill="#8D8D8D"/>
</g>
<defs>
<clipPath id="clip0_3093_17496">
<rect width="62.8743" height="42" fill="white" transform="translate(54 29)"/>
</clipPath>
</defs>
</svg>
