<svg width="170" height="100" viewBox="0 0 170 100" fill="none" xmlns="http://www.w3.org/2000/svg">
<path d="M51.901 57.4588C50.9107 58.1117 49.3416 58.3997 47.7012 58.3997C42.4892 58.3997 39.543 55.2615 39.543 50.2662C39.543 45.4382 42.4891 42.0586 47.6546 42.0586C49.199 42.0586 50.7434 42.3494 51.8791 43.1559V45.2571C50.7434 44.5329 49.4898 44.1599 47.6546 44.1599C43.9375 44.1599 41.7156 46.6287 41.7156 50.2662C41.7156 53.9037 44.0089 56.3259 47.7753 56.3259C49.2045 56.3389 50.6158 56.0077 51.89 55.3603L51.901 57.4588Z" fill="black"/>
<path d="M53.418 52.1033C53.418 48.4823 55.5412 45.8516 59.1622 45.8516C62.7832 45.8516 64.8598 48.4823 64.8598 52.1033C64.8598 55.7243 62.7585 58.4126 59.1622 58.4126C55.5659 58.4126 53.418 55.7243 53.418 52.1033ZM55.4452 52.1033C55.4452 54.3966 56.5809 56.4732 59.1622 56.4732C61.7435 56.4732 62.8326 54.3966 62.8326 52.1033C62.8326 49.81 61.7353 47.7828 59.1649 47.7828C56.5946 47.7828 55.4507 49.81 55.4507 52.1033H55.4452Z" fill="black"/>
<path d="M77.5369 58.1639H75.4603V50.8753C75.4603 48.7027 74.5907 47.7371 72.6128 47.7371C70.6926 47.7371 69.3539 49.0154 69.3539 51.4541V58.1639H67.2773V46.0939H69.3539V48.0745C69.7234 47.389 70.2749 46.8189 70.9477 46.4268C71.6205 46.0348 72.3884 45.836 73.167 45.8525C75.9431 45.8525 77.5369 47.7727 77.5369 51.092V58.1639Z" fill="black"/>
<path d="M83.319 46.0942H86.4326V48.0144H83.319V58.1642H81.2918V48.0144H79.3359V46.0942H81.2918V44.7665C81.2918 42.5225 82.5482 41.0001 85.1323 41.0001C85.6054 40.9974 86.0764 41.0621 86.5313 41.1921V43.1123C86.1018 43.0307 85.6655 42.9902 85.2283 42.9916C83.95 42.9916 83.3081 43.7405 83.3081 44.8268L83.319 46.0942Z" fill="black"/>
<path d="M91.9022 58.2368C89.9216 58.2368 88.668 57.2959 88.668 55.0739V41.0508H90.7446V54.8325C90.7446 55.9298 91.4688 56.3056 92.363 56.3056C92.5645 56.309 92.766 56.3007 92.9665 56.2809V58.1408C92.6169 58.2158 92.2595 58.248 91.9022 58.2368Z" fill="black"/>
<path d="M94.7266 46.0938H96.8032V53.3824C96.8032 55.555 97.6727 56.5206 99.6506 56.5206C101.571 56.5206 102.909 55.2423 102.909 52.8036V46.0938H104.992V58.1638H102.915V56.1832C102.545 56.8686 101.994 57.4388 101.321 57.8308C100.648 58.2229 99.8805 58.4216 99.1019 58.4052C96.3258 58.4052 94.7321 56.4849 94.7321 53.1684L94.7266 46.0938Z" fill="black"/>
<path d="M113.892 58.4048C109.376 58.4048 107.398 55.7988 107.398 52.0955C107.398 48.4498 109.426 45.8438 113.096 45.8438C116.813 45.8438 118.308 48.4278 118.308 52.0955V53.0364H109.5C109.79 55.0883 111.118 56.416 113.966 56.416C115.218 56.4148 116.46 56.1939 117.636 55.7631V57.6833C116.643 58.21 115.123 58.4048 113.892 58.4048ZM109.475 51.2725H116.21C116.089 49.0286 115.074 47.7475 113 47.7475C110.803 47.7338 109.692 49.1575 109.475 51.2588V51.2725Z" fill="black"/>
<path d="M131.029 58.1639H128.952V50.8753C128.952 48.7027 128.083 47.7371 126.105 47.7371C124.185 47.7371 122.846 49.0154 122.846 51.4541V58.1639H120.77V46.0939H122.846V48.0745C123.216 47.389 123.767 46.8189 124.44 46.4268C125.113 46.0348 125.881 45.836 126.659 45.8525C129.435 45.8525 131.029 47.7727 131.029 51.092V58.1639Z" fill="black"/>
<path d="M142.451 57.8479C141.727 58.2347 140.616 58.3965 139.505 58.3965C135.209 58.3965 133.195 55.7905 133.195 52.0872C133.195 48.4415 135.198 45.8355 139.505 45.8355C140.494 45.803 141.477 46.0012 142.377 46.4143V48.3345C141.525 47.9332 140.591 47.735 139.65 47.7557C136.512 47.7557 135.233 49.7363 135.233 52.0762C135.233 54.4161 136.537 56.4242 139.697 56.4242C140.63 56.4488 141.56 56.3019 142.44 55.9907L142.451 57.8479Z" fill="black"/>
<path d="M150.583 58.4048C146.068 58.4048 144.09 55.7988 144.09 52.0955C144.09 48.4498 146.117 45.8438 149.787 45.8438C153.504 45.8438 154.999 48.4278 154.999 52.0955V53.0364H146.188C146.479 55.0883 147.807 56.416 150.654 56.416C151.907 56.4148 153.149 56.1939 154.325 55.7631V57.6833C153.334 58.21 151.815 58.4048 150.583 58.4048ZM146.166 51.2725H152.901C152.78 49.0286 151.765 47.7475 149.691 47.7475C147.494 47.7338 146.383 49.1575 146.166 51.2588V51.2725Z" fill="black"/>
<path d="M15.6251 54.5861C15.4468 54.8769 15.2466 55.2143 15.0765 55.4832C15.0033 55.6068 14.9816 55.7543 15.0159 55.8938C15.0503 56.0333 15.138 56.1538 15.2603 56.2293L18.8264 58.4239C18.8884 58.4621 18.9573 58.4877 19.0293 58.499C19.1012 58.5103 19.1747 58.5072 19.2454 58.4899C19.3162 58.4725 19.3827 58.4412 19.4412 58.3979C19.4998 58.3545 19.5491 58.2999 19.5863 58.2373C19.7289 57.9987 19.9127 57.6887 20.113 57.3568C21.5257 55.0251 22.9467 55.3103 25.5088 56.5338L29.0448 58.2154C29.1111 58.2469 29.183 58.2649 29.2563 58.2681C29.3297 58.2713 29.4029 58.2598 29.4717 58.2342C29.5405 58.2087 29.6035 58.1695 29.6569 58.1192C29.7103 58.0688 29.7531 58.0082 29.7827 57.9411L31.4807 54.1006C31.5384 53.9688 31.5419 53.8196 31.4906 53.6851C31.4393 53.5507 31.3372 53.4418 31.2064 53.3819C30.4603 53.0308 28.9762 52.3312 27.6403 51.6866C22.8342 49.3522 18.7496 49.503 15.6251 54.5861Z" fill="black"/>
<path d="M31.6118 45.8727C31.7901 45.5819 31.9903 45.2445 32.1604 44.9757C32.2336 44.852 32.2553 44.7046 32.221 44.5651C32.1866 44.4255 32.0989 44.3051 31.9766 44.2295L28.4105 42.035C28.348 41.9929 28.2776 41.9642 28.2036 41.9505C28.1296 41.9369 28.0535 41.9386 27.9802 41.9556C27.9069 41.9725 27.8378 42.0044 27.7773 42.0492C27.7169 42.0941 27.6663 42.1508 27.6287 42.216C27.486 42.4547 27.3022 42.7647 27.102 43.0966C25.6892 45.4283 24.2683 45.143 21.7061 43.9196L18.1811 42.2462C18.1149 42.2147 18.0429 42.1967 17.9696 42.1935C17.8962 42.1903 17.823 42.2018 17.7542 42.2274C17.6854 42.2529 17.6224 42.2921 17.569 42.3424C17.5156 42.3928 17.4728 42.4534 17.4432 42.5205L15.7452 46.361C15.6875 46.4928 15.684 46.6421 15.7353 46.7765C15.7866 46.9109 15.8887 47.0198 16.0195 47.0797C16.7657 47.4308 18.2497 48.1304 19.5857 48.775C24.4027 51.1067 28.4873 50.9503 31.6118 45.8727Z" fill="black"/>
</svg>
