<svg width="170" height="100" viewBox="0 0 170 100" fill="none" xmlns="http://www.w3.org/2000/svg">
<path fill-rule="evenodd" clip-rule="evenodd" d="M43.4007 49.6468C43.3844 52.7436 45.6552 54.5898 49.2789 53.7504V45.5432C45.6094 44.4257 43.416 46.6866 43.4007 49.6468ZM49.3897 33.6758H54.3806V57.2995C49.5967 58.0816 45.0148 58.5777 41.737 56.7449C37.5165 54.3852 37.1772 46.8866 40.5169 43.5468C42.2102 41.8536 45.619 40.6616 49.2789 41.4395V34.0086C49.2693 33.8511 49.2605 33.6943 49.3897 33.6758Z" fill="black"/>
<path fill-rule="evenodd" clip-rule="evenodd" d="M62.4753 38.8885H57.4844V33.6758H62.4753V38.8885Z" fill="black"/>
<path fill-rule="evenodd" clip-rule="evenodd" d="M122.369 53.9732C127.81 56.0875 128.412 44.2345 122.924 45.3222C119.515 45.9977 119.625 52.9068 122.369 53.9732ZM122.591 41.2186C126.746 40.7743 129.88 42.6078 131.131 45.4332C133.265 50.2537 131.014 55.7851 127.582 57.4114C125.803 58.2543 123.941 58.3346 122.258 58.1878C117.057 57.7342 113.777 52.434 115.604 46.5422C115.889 45.62 116.211 45.056 116.38 44.7677C117.511 42.8455 119.419 41.5577 122.591 41.2186Z" fill="black"/>
<path fill-rule="evenodd" clip-rule="evenodd" d="M69.3543 52.0849C67.9738 54.4048 71.4422 54.9606 73.6796 54.3031V50.8649C71.9605 51.1049 70.0037 50.9932 69.3543 52.0849ZM78.116 57.5194C73.9933 57.7566 67.7278 59.161 65.4724 56.4104C64.1473 54.7942 64.2898 51.7117 65.4724 50.1994C67.0006 48.2453 70.3366 47.8192 73.3469 47.5376C73.6202 46.8647 73.4359 45.7698 73.1251 45.3192C70.3716 44.6178 67.6357 45.7047 65.6943 46.5392V42.6575C68.6266 41.3103 75.4185 39.8917 77.4506 42.9902C78.5179 44.6176 78.116 47.4558 78.116 49.9774V57.5194Z" fill="black"/>
<path fill-rule="evenodd" clip-rule="evenodd" d="M95.6408 57.7414H90.6499V51.3086C90.6499 49.1906 90.9925 46.5049 89.8734 45.6522C88.9969 44.984 86.9176 45.3193 85.659 45.6522V57.7414H80.668V42.3249C85.77 40.9996 94.9794 39.5787 95.6408 45.9849C95.967 49.1433 95.3992 53.882 95.6408 57.7414Z" fill="black"/>
<path fill-rule="evenodd" clip-rule="evenodd" d="M103.071 52.4212C103.911 53.7801 106.185 54.2896 108.061 53.4194C107.958 50.8237 107.922 48.161 107.951 45.4339C103.637 44.2943 101.067 49.1799 103.071 52.4212ZM115.603 41.8849C115.159 43.2153 114.509 44.3395 113.94 45.545C113.425 45.6602 112.98 45.3405 112.72 45.545C112.606 50.9513 113.871 58.2805 111.722 62.1812C110.427 64.5298 108.044 66.0366 104.402 66.285C101.748 66.466 99.688 66.0323 97.747 65.2868V60.6286C100.024 61.9579 105.777 63.0416 107.396 60.2958C107.873 59.4879 107.842 58.6529 108.061 57.4122C107.019 57.4669 106.007 57.9498 104.734 57.9668C99.5036 58.0362 96.2676 53.8713 97.5251 48.0957C98.0115 45.8616 99.3205 44.0628 101.074 42.9939C104.717 40.7739 110.316 40.9425 115.603 41.8849Z" fill="black"/>
<path fill-rule="evenodd" clip-rule="evenodd" d="M62.4779 41.5273C62.4723 45.2025 62.4731 47.8434 62.4727 52.3083C62.2607 56.6961 62.3101 60.1902 60.7034 62.2897C60.3866 62.7037 59.7137 63.3076 59.1507 63.7316C58.6778 64.0875 57.7767 64.8093 57.2652 64.8407C56.7495 64.8724 55.4247 64.1248 54.8251 63.8424C54.0378 63.4716 53.31 62.9792 52.4961 62.7334C54.3945 61.557 56.1967 60.675 56.9324 58.297C57.5722 56.2289 57.487 53.2321 57.487 50.3115C57.487 47.4276 57.4999 44.0749 57.4999 41.5286L62.4779 41.5275V41.5273Z" fill="black"/>
</svg>
