<svg width="170" height="100" viewBox="0 0 170 100" fill="none" xmlns="http://www.w3.org/2000/svg">
<g clip-path="url(#clip0_3231_17186)">
<path d="M79.6706 67.0013C82.7986 67.0013 85.3372 64.4626 85.3372 61.3346V55.668H79.6706C76.5426 55.668 74.0039 58.2066 74.0039 61.3346C74.0039 64.4626 76.5426 67.0013 79.6706 67.0013Z" fill="black"/>
<path d="M74.0039 49.9987C74.0039 46.8707 76.5426 44.332 79.6706 44.332H85.3372V55.6654H79.6706C76.5426 55.6654 74.0039 53.1267 74.0039 49.9987Z" fill="black"/>
<path d="M74.0039 38.6667C74.0039 35.5387 76.5426 33 79.6706 33H85.3372V44.3333H79.6706C76.5426 44.3333 74.0039 41.7947 74.0039 38.6667Z" fill="black"/>
<path d="M85.3359 33H91.0026C94.1306 33 96.6693 35.5387 96.6693 38.6667C96.6693 41.7947 94.1306 44.3333 91.0026 44.3333H85.3359V33Z" fill="black"/>
<path d="M96.6693 49.9987C96.6693 53.1267 94.1306 55.6654 91.0026 55.6654C87.8746 55.6654 85.3359 53.1267 85.3359 49.9987C85.3359 46.8707 87.8746 44.332 91.0026 44.332C94.1306 44.332 96.6693 46.8707 96.6693 49.9987Z" fill="black"/>
</g>
<defs>
<clipPath id="clip0_3231_17186">
<rect width="22.6712" height="34" fill="white" transform="translate(74 33)"/>
</clipPath>
</defs>
</svg>
