<svg width="170" height="100" viewBox="0 0 170 100" fill="none" xmlns="http://www.w3.org/2000/svg">
<path d="M42.0355 33.5113L52.2442 33.5L35.1167 50.6187L30.653 55.0575L25.5742 49.9725L42.0355 33.5113ZM41.9405 48.7963C42.073 48.6213 42.3167 48.7075 42.5017 48.685L52.2355 48.6875L43.3642 57.55L38.2592 52.4762L41.9405 48.7963Z" fill="black"/>
<path d="M66.5942 40.6523L77.723 40.6561L77.7217 42.8473C74.8105 42.8473 71.898 42.8386 68.9855 42.8511C68.763 42.9248 68.868 43.2036 68.843 43.3748L68.8517 49.2686C68.9255 49.4898 69.2055 49.3836 69.378 49.4111L76.848 49.4073V51.5961C74.5255 51.5948 72.2042 51.5948 69.8817 51.5961C69.5367 51.5948 69.188 51.5736 68.8467 51.6323L68.8205 59.9523C68.0717 59.9223 67.3242 59.9498 66.5755 59.9336L66.5742 41.0061L66.5942 40.6523ZM80.4217 40.6561H82.7067L82.708 53.7511L82.683 59.9173C81.9392 59.9036 81.1955 59.8998 80.453 59.9198C80.3955 59.6148 80.4192 59.3048 80.4192 58.9973L80.4217 40.6561ZM102.787 42.2798L105.079 42.2811L105.083 46.1561C106.204 46.1836 107.332 46.1061 108.45 46.1948C108.419 46.8898 108.445 47.5848 108.433 48.2798C107.318 48.2823 106.204 48.2911 105.09 48.2748L105.082 55.9923C105.105 56.7073 105.258 57.5711 105.953 57.9398C106.747 58.3911 107.722 58.1786 108.473 57.7436V59.9886C107.645 60.3636 106.702 60.4086 105.813 60.2873C104.56 60.0961 103.36 59.2423 102.982 58.0011C102.73 57.3211 102.788 56.5873 102.783 55.8773L102.778 48.3611L102.722 48.2973C101.93 48.2548 101.137 48.3036 100.344 48.2761C100.349 47.5686 100.317 46.8611 100.362 46.1548C101.167 46.1411 101.975 46.1911 102.779 46.1298L102.787 42.2798ZM112.472 42.2723C113.234 42.2986 113.997 42.2636 114.758 42.2898L114.81 42.3473C114.839 43.6198 114.772 44.8961 114.84 46.1661C115.927 46.1461 117.013 46.1623 118.098 46.1561L118.105 48.2636C117.013 48.3048 115.917 48.2798 114.824 48.2736L114.812 56.1248C114.81 56.8086 115.008 57.6173 115.669 57.9536C116.48 58.3961 117.464 58.1686 118.218 57.7161L118.215 59.9736C117.412 60.3361 116.505 60.4061 115.638 60.3061C114.512 60.1561 113.409 59.5198 112.88 58.4886C112.625 57.9486 112.483 57.3511 112.459 56.7548V48.2823C111.668 48.2811 110.878 48.2848 110.088 48.2823L110.093 46.1486C110.872 46.1698 111.65 46.1423 112.429 46.1686C112.512 44.8736 112.423 43.5698 112.472 42.2723ZM123.599 46.2286C125.182 45.5723 127.008 45.5598 128.624 46.1098C130.475 46.7486 131.908 48.3636 132.433 50.2373C132.777 51.2761 132.763 52.3798 132.714 53.4598L121.833 53.4711C121.923 54.6298 122.269 55.8111 123.074 56.6811C124.218 58.0148 126.187 58.5098 127.849 57.9861C129.015 57.6423 129.925 56.7448 130.524 55.7136C131.187 56.0098 131.83 56.3473 132.49 56.6511C131.588 58.3711 129.947 59.7373 128.018 60.1073C126.434 60.4036 124.702 60.4111 123.249 59.6286C121.364 58.6923 120.067 56.7861 119.697 54.7361C119.428 53.1611 119.512 51.4948 120.104 49.9998C120.725 48.3586 121.982 46.9373 123.599 46.2286ZM124.46 48.2048C123.129 48.8198 122.272 50.1861 122.004 51.5961L130.349 51.5698C130.217 50.6486 129.889 49.7123 129.214 49.0461C128.032 47.7786 126.01 47.5311 124.46 48.2048ZM137.668 48.3861C138.539 46.2698 141.215 45.1586 143.332 46.0448V48.5148C142.443 48.1648 141.447 47.9486 140.508 48.2248C139.225 48.6061 138.277 49.7498 137.913 51.0086C137.663 51.8586 137.757 52.7461 137.767 53.6173C137.669 54.7448 137.815 55.8736 137.742 57.0011C137.802 57.9748 137.689 58.9486 137.772 59.9236C136.994 59.9611 136.217 59.9211 135.44 59.9473C135.395 57.0086 135.434 54.0686 135.422 51.1286L135.439 46.1798C136.168 46.1998 136.898 46.1773 137.628 46.1948C137.694 46.9248 137.547 47.6586 137.668 48.3861ZM85.9842 46.1523C86.7592 46.1848 87.5405 46.1061 88.3117 46.1936L88.3005 54.3861C88.293 55.3873 88.4355 56.4811 89.128 57.2586C90.0217 58.2486 91.5355 58.4298 92.758 58.0386C94.3917 57.4536 95.5317 55.7236 95.4655 53.9936L95.4905 46.1523L97.8242 46.1573L97.8105 59.9136C97.0705 59.9011 96.3317 59.9136 95.593 59.9048L95.5842 57.9473C95.1055 58.5486 94.603 59.1573 93.9167 59.5361C92.5117 60.4223 90.7292 60.5398 89.1555 60.0861C88.1405 59.7798 87.2567 59.0686 86.748 58.1386C86.1442 57.1161 85.9917 55.9073 85.9567 54.7423L85.9842 46.1523Z" fill="black"/>
<path d="M33.1719 57.5591L38.2606 52.4766L43.3656 57.5503L43.3869 57.5728L38.2619 62.6503L33.1719 57.5591Z" fill="black"/>
<path d="M38.2617 62.6517L43.3867 57.5742L52.2405 66.4367C48.9055 66.4442 45.5717 66.4342 42.238 66.4417C42.048 66.4842 41.9305 66.3105 41.8092 66.203L38.2617 62.6517Z" fill="black"/>
</svg>
