<svg width="170" height="100" viewBox="0 0 170 100" fill="none" xmlns="http://www.w3.org/2000/svg">
<g clip-path="url(#clip0_3093_17447)">
<path d="M102 33H68V67H102V33Z" fill="black"/>
<path d="M90.8402 59.5633C91.5251 60.6816 92.4161 61.5035 93.992 61.5035C95.3158 61.5035 96.1615 60.8418 96.1615 59.9276C96.1615 58.8321 95.2926 58.444 93.8355 57.8067L93.0367 57.464C90.7312 56.4818 89.1996 55.2513 89.1996 52.65C89.1996 50.2538 91.0253 48.4297 93.8786 48.4297C95.91 48.4297 97.3704 49.1367 98.4228 50.9878L95.9348 52.5852C95.3871 51.603 94.7961 51.2161 93.8786 51.2161C92.9428 51.2161 92.3497 51.8097 92.3497 52.5852C92.3497 53.5437 92.9434 53.9317 94.3142 54.5254L95.1129 54.8676C97.8275 56.0317 99.3602 57.2184 99.3602 59.8866C99.3602 62.7631 97.1006 64.339 94.0659 64.339C91.0987 64.339 89.1818 62.925 88.2438 61.0718L90.8402 59.5633ZM79.5539 59.8402C80.0558 60.7307 80.5123 61.4835 81.61 61.4835C82.6597 61.4835 83.3219 61.0728 83.3219 59.4759V48.6121H86.5168V59.5191C86.5168 62.8273 84.5772 64.3331 81.746 64.3331C79.188 64.3331 77.7065 63.0092 76.9531 61.4147L79.5539 59.8402Z" fill="white"/>
</g>
<defs>
<clipPath id="clip0_3093_17447">
<rect width="34" height="34" fill="white" transform="translate(68 33)"/>
</clipPath>
</defs>
</svg>
