<svg width="170" height="100" viewBox="0 0 170 100" fill="none" xmlns="http://www.w3.org/2000/svg">
<g clip-path="url(#clip0_3093_17538)">
<path d="M138.417 44.1804C137.01 44.1804 135.772 44.5188 134.716 45.2094C133.87 45.7566 133.193 46.4864 132.659 47.3984L132.633 44.6116H128.918V62.6416H132.787V52.5588C132.787 51.5816 132.97 50.7199 133.348 49.9642C133.712 49.2085 134.236 48.6234 134.913 48.2064C135.591 47.7894 136.371 47.5806 137.283 47.5806C138.091 47.5806 138.796 47.7504 139.369 48.0892C139.955 48.4279 140.384 48.9216 140.684 49.547C140.983 50.1855 141.127 50.9429 141.127 51.8158V62.6416H144.996V51.2672C145.022 49.8731 144.736 48.6488 144.202 47.5805C143.685 46.5456 142.885 45.6784 141.895 45.0797C140.905 44.4803 139.746 44.1797 138.417 44.1797L138.417 44.1804Z" fill="black"/>
<path d="M120.648 37.0391V41.0118H124.558V37.0391H120.648ZM120.648 44.6094V62.6394H124.518V44.6094H120.648Z" fill="black"/>
<path d="M112.414 37V62.6404H116.284V37H112.414Z" fill="black"/>
<path d="M101.391 40.1016V43.1625C101.391 43.6446 101.274 44.0108 101.04 44.2453C100.805 44.4799 100.44 44.611 99.9453 44.611H98.082V47.8547H101.326V57.5602C101.326 58.5634 101.534 59.4634 101.937 60.2321C102.341 61.0008 102.928 61.5988 103.684 62.0156C104.439 62.4326 105.34 62.6555 106.37 62.6555H109.273V59.2805H107.084C106.524 59.2805 106.069 59.0854 105.704 58.6946C105.352 58.3037 105.184 57.7827 105.184 57.1313V47.8665H109.379V44.611H105.184V40.1016L101.391 40.1016Z" fill="black"/>
<path d="M87.9962 44.1797C86.1981 44.1797 84.5952 44.5836 83.175 45.3914C81.7787 46.1781 80.6288 47.3378 79.8539 48.7406C79.0591 50.1738 78.668 51.8023 78.668 53.6134C78.668 55.4375 79.0591 57.0528 79.8539 58.4861C80.6116 59.8931 81.7547 61.0549 83.1492 61.8353C84.5694 62.6431 86.1723 63.047 87.9704 63.047C89.7423 63.047 91.3328 62.6431 92.7399 61.8353C94.1214 61.0465 95.2541 59.8862 96.0094 58.4861C96.7911 57.0529 97.1813 55.4244 97.1813 53.6134C97.1813 51.7892 96.7911 50.1739 96.0094 48.7406C95.2276 47.3075 94.147 46.1992 92.7399 45.3914C91.3457 44.5836 89.7681 44.1797 87.9962 44.1797ZM87.9704 47.6579C88.9736 47.6579 89.8732 47.9068 90.6681 48.4149C91.4498 48.9231 92.0615 49.6266 92.4915 50.5126C92.9215 51.4117 93.1313 52.4395 93.1313 53.6252C93.1444 54.7978 92.9345 55.827 92.4915 56.726C92.0615 57.625 91.4498 58.3286 90.6681 58.8237C89.8863 59.3319 88.975 59.5808 87.9587 59.5808C86.9294 59.5808 86.0173 59.3319 85.2095 58.8237C84.4148 58.3156 83.7892 57.6121 83.3463 56.726C82.9033 55.827 82.6807 54.7978 82.6807 53.6252C82.6807 52.4526 82.9033 51.4117 83.3463 50.5126C83.7893 49.6136 84.4148 48.91 85.2095 48.4149C86.0043 47.9068 86.9282 47.6579 87.9705 47.6579H87.9704Z" fill="black"/>
<path d="M74.4985 37.9532L63.8414 49.3276V37.9908H59.9062V62.6424H63.8414V50.6963L74.5383 62.6424H79.6056L68.2055 49.8876L79.3969 37.9531L74.4985 37.9532Z" fill="black"/>
<path d="M49.6648 62.6399H25V37.9883H49.6648L37.078 50.1311L49.6648 62.6399Z" fill="black"/>
</g>
<defs>
<clipPath id="clip0_3093_17538">
<rect width="120" height="26.046" fill="white" transform="translate(25 37)"/>
</clipPath>
</defs>
</svg>
