<svg width="170" height="100" viewBox="0 0 170 100" fill="none" xmlns="http://www.w3.org/2000/svg">
<g clip-path="url(#clip0_3067_17231)">
<path fill-rule="evenodd" clip-rule="evenodd" d="M70.7047 40.8151V56.1131H76.2793V58.7518H67.7367V40.8151H70.7047ZM86.7567 48.4251V46.8118H89.5693V58.7518H86.756V57.1371C86.378 57.7351 85.84 58.2051 85.1427 58.5464C84.4467 58.8878 83.7453 59.0584 83.04 59.0584C82.128 59.0584 81.2933 58.8918 80.5367 58.5591C79.8 58.2406 79.1367 57.7741 78.588 57.1884C78.0455 56.607 77.6168 55.9291 77.324 55.1898C77.0198 54.4234 76.8663 53.6056 76.872 52.7811C76.872 51.9444 77.0227 51.1458 77.324 50.3851C77.6149 49.6412 78.0438 48.959 78.588 48.3744C79.1368 47.7887 79.8 47.3219 80.5367 47.0031C81.2933 46.6698 82.128 46.5031 83.04 46.5031C83.7453 46.5031 84.4467 46.6744 85.1433 47.0164C85.84 47.3578 86.378 47.8278 86.7567 48.4251ZM86.498 54.2418C86.6712 53.7746 86.7588 53.28 86.7567 52.7818C86.7567 52.2684 86.67 51.7818 86.498 51.3204C86.3364 50.8767 86.0913 50.468 85.776 50.1164C85.4604 49.7707 85.0787 49.4919 84.6533 49.2964C84.214 49.0918 83.728 48.9891 83.1947 48.9891C82.6613 48.9891 82.1793 49.0918 81.7493 49.2964C81.3193 49.5018 80.9493 49.7751 80.64 50.1164C80.3254 50.4663 80.0842 50.8757 79.9307 51.3204C79.7655 51.7896 79.6825 52.2837 79.6853 52.7811C79.6853 53.2938 79.7667 53.7811 79.9307 54.2411C80.084 54.6861 80.3252 55.0958 80.64 55.4458C80.9522 55.7895 81.3292 56.0681 81.7493 56.2658C82.1793 56.4711 82.6613 56.5731 83.1947 56.5731C83.728 56.5731 84.2147 56.4711 84.6533 56.2664C85.0788 56.0712 85.4606 55.7923 85.776 55.4464C86.0915 55.0947 86.3366 54.6858 86.498 54.2418ZM91.7887 58.7511V46.8111H99.428V49.5591H94.6013V58.7511H91.7887ZM109.622 48.4251V46.8118H112.435V58.7518H109.621V57.1371C109.243 57.7351 108.705 58.2051 108.008 58.5464C107.312 58.8878 106.611 59.0584 105.905 59.0584C104.993 59.0584 104.159 58.8918 103.402 58.5591C102.665 58.2406 102.002 57.7741 101.453 57.1884C100.911 56.607 100.482 55.9291 100.189 55.1898C99.8851 54.4234 99.7317 53.6056 99.7373 52.7811C99.7373 51.9444 99.8873 51.1458 100.189 50.3851C100.48 49.6412 100.909 48.959 101.453 48.3744C102.002 47.7887 102.665 47.3219 103.402 47.0031C104.159 46.6698 104.993 46.5031 105.905 46.5031C106.611 46.5031 107.312 46.6744 108.009 47.0164C108.705 47.3578 109.243 47.8278 109.622 48.4251ZM109.363 54.2418C109.536 53.7745 109.624 53.28 109.621 52.7818C109.621 52.2684 109.535 51.7818 109.363 51.3204C109.202 50.8766 108.956 50.4679 108.641 50.1164C108.325 49.7707 107.943 49.4919 107.518 49.2964C107.079 49.0918 106.593 48.9891 106.06 48.9891C105.527 48.9891 105.045 49.0918 104.615 49.2964C104.185 49.5018 103.815 49.7751 103.505 50.1164C103.191 50.4662 102.949 50.8756 102.795 51.3204C102.63 51.7896 102.547 52.2837 102.55 52.7811C102.55 53.2938 102.631 53.7811 102.795 54.2411C102.949 54.6862 103.19 55.0958 103.505 55.4458C103.818 55.7895 104.195 56.0681 104.615 56.2658C105.045 56.4711 105.527 56.5731 106.06 56.5731C106.593 56.5731 107.08 56.4711 107.518 56.2664C107.943 56.0712 108.325 55.7923 108.641 55.4464C108.956 55.0948 109.202 54.6858 109.363 54.2418ZM123.712 46.8111H126.561L121.944 58.7511H118.409L113.792 46.8111H116.641L120.177 55.9544L123.712 46.8111ZM132.696 46.5044C136.527 46.5044 139.139 49.8744 138.648 53.8191H129.316C129.316 54.8491 130.363 56.8404 132.851 56.8404C134.991 56.8404 136.424 54.9718 136.425 54.9704L138.325 56.4304C136.627 58.2318 135.235 59.0591 133.057 59.0591C129.163 59.0591 126.525 56.6138 126.525 52.7818C126.525 49.3151 129.252 46.5044 132.696 46.5044ZM129.323 51.7438H136.065C136.044 51.5138 135.679 48.7224 132.674 48.7224C129.669 48.7224 129.345 51.5138 129.323 51.7438ZM140.48 58.7511V40.8151H143.293V58.7511H140.48ZM59.176 40.6751C59.1883 40.7203 59.1946 40.7669 59.1947 40.8138V48.0964C59.1945 48.1901 59.1696 48.2821 59.1224 48.363C59.0752 48.4439 59.0075 48.5109 58.926 48.5571L52.77 52.0764V59.0518C52.7697 59.1453 52.7448 59.2371 52.6976 59.3179C52.6504 59.3987 52.5827 59.4656 52.5013 59.5118L39.652 66.8578C39.6227 66.8751 39.59 66.8851 39.5587 66.8964C39.546 66.9004 39.5347 66.9078 39.5227 66.9111C39.4326 66.9347 39.338 66.9347 39.248 66.9111C39.2333 66.9071 39.22 66.8991 39.206 66.8938C39.176 66.8838 39.146 66.8738 39.118 66.8578L26.268 59.5131C26.1866 59.4667 26.1189 59.3996 26.0718 59.3186C26.0247 59.2375 26 59.1455 26 59.0518V37.2038C26.0001 37.1569 26.0064 37.1103 26.0187 37.0651C26.0227 37.0491 26.032 37.0351 26.0373 37.0204C26.048 36.9924 26.0573 36.9638 26.072 36.9378C26.082 36.9204 26.0967 36.9064 26.108 36.8911C26.124 36.8698 26.1373 36.8471 26.156 36.8284C26.1713 36.8131 26.1913 36.8018 26.2087 36.7884C26.228 36.7738 26.2453 36.7564 26.2673 36.7438L26.268 36.7431L32.6933 33.0704C32.7746 33.0243 32.8665 33 32.96 33C33.0535 33 33.1454 33.0243 33.2267 33.0704L39.652 36.7431H39.6533C39.6747 36.7564 39.692 36.7738 39.712 36.7884C39.7293 36.8018 39.7487 36.8131 39.764 36.8284C39.7827 36.8471 39.796 36.8698 39.812 36.8904C39.824 36.9064 39.8387 36.9204 39.8487 36.9378C39.8633 36.9638 39.8727 36.9924 39.8833 37.0204C39.8887 37.0351 39.8973 37.0491 39.902 37.0651C39.9141 37.1103 39.9201 37.157 39.92 37.2038V50.8498L45.2747 47.7891V40.8138C45.2746 40.767 45.2806 40.7203 45.2927 40.6751C45.2973 40.6591 45.306 40.6458 45.312 40.6304C45.322 40.6024 45.3313 40.5738 45.346 40.5478C45.356 40.5304 45.3707 40.5164 45.3827 40.5011C45.3987 40.4798 45.412 40.4571 45.4307 40.4391C45.446 40.4238 45.4653 40.4124 45.4827 40.3991C45.5027 40.3838 45.52 40.3658 45.542 40.3538V40.3531L51.9673 36.6804C52.0487 36.634 52.1407 36.6096 52.2343 36.6096C52.328 36.6096 52.42 36.634 52.5013 36.6804L58.926 40.3531H58.9267C58.9493 40.3664 58.9667 40.3838 58.9867 40.3984C59.0033 40.4118 59.0233 40.4238 59.0387 40.4384C59.0573 40.4571 59.0707 40.4798 59.086 40.5004C59.098 40.5164 59.1127 40.5304 59.1227 40.5478C59.138 40.5738 59.1467 40.6024 59.1573 40.6304C59.1633 40.6458 59.172 40.6591 59.176 40.6751ZM58.124 47.7891V41.7331L55.8753 43.0184L52.77 44.7938V50.8498L58.1233 47.7891H58.124ZM51.6993 58.7444V52.6844L48.6433 54.4164L39.92 59.3598V65.4764L51.6993 58.7431V58.7444ZM27.0707 38.1231V58.7444L38.8493 65.4778V59.3618L32.696 55.9044L32.6947 55.9024L32.692 55.9018C32.6707 55.8898 32.654 55.8724 32.6347 55.8578C32.6173 55.8444 32.5987 55.8338 32.5833 55.8191L32.582 55.8171C32.5647 55.8004 32.5527 55.7798 32.538 55.7611C32.5247 55.7438 32.5087 55.7284 32.498 55.7098L32.4973 55.7078C32.4853 55.6878 32.478 55.6638 32.4693 55.6411C32.4607 55.6218 32.4493 55.6031 32.444 55.5818V55.5811C32.4367 55.5558 32.436 55.5291 32.4327 55.5031C32.4307 55.4831 32.4247 55.4638 32.4247 55.4431V41.1831L29.32 39.4084L27.0707 38.1231ZM32.96 34.1444L27.6087 37.2044L32.96 40.2631L38.312 37.2038L32.96 34.1444ZM35.744 53.2364L38.8493 51.4618V38.1231L36.6013 39.4084L33.4953 41.1838V54.5218L35.744 53.2364ZM52.2347 37.7551L46.8827 40.8138L52.2347 43.8731L57.586 40.8138L52.2347 37.7551ZM51.6993 44.7938L48.5933 43.0184L46.3453 41.7331V47.7891L49.4507 49.5644L51.6993 50.8498V44.7931V44.7938ZM39.384 58.4404L47.234 53.9911L51.158 51.7671L45.81 48.7098L39.652 52.2298L34.04 55.4378L39.384 58.4404Z" fill="black"/>
</g>
<defs>
<clipPath id="clip0_3067_17231">
<rect width="117.333" height="34" fill="white" transform="translate(26 33)"/>
</clipPath>
</defs>
</svg>
