<svg width="170" height="100" viewBox="0 0 170 100" fill="none" xmlns="http://www.w3.org/2000/svg">
<g clip-path="url(#clip0_3231_17298)">
<path fill-rule="evenodd" clip-rule="evenodd" d="M78.9808 33.9763C77.6695 35.2333 77.6695 37.3878 78.9808 38.6889C80.292 39.9906 82.4625 39.9906 83.7737 38.6889C85.0843 37.3878 85.0843 35.2333 83.7737 33.9763C82.4625 32.6746 80.292 32.6746 78.9808 33.9763ZM105.326 42.7838L102.251 43.2773C96.3859 44.604 92.5752 46.5049 92.5752 52.8957V65.7194L97.9109 66.7963V53.6966C97.9109 50.7102 99.6094 49.3612 102.251 48.8625L105.326 48.3033V42.7838ZM64.7157 65.772L70.0515 66.8489V52.3516C70.0515 45.3944 64.6257 42.8811 60.8727 42.8811C58.3408 42.8811 56.3518 43.5092 54.5428 45.2598C52.6894 43.5092 50.474 42.8364 48.665 42.8364C46.0881 42.8364 43.827 43.958 42.335 45.7538V43.3299L37 44.3622V65.772L42.335 66.8489V52.1269C42.335 49.7929 44.0534 48.1324 46.6309 48.1324C49.1628 48.1324 50.881 49.7929 50.881 52.1269V65.772L56.2161 66.8489V52.1269C56.2161 49.7929 57.9338 48.1324 60.4663 48.1324C62.9981 48.1324 64.7157 49.7929 64.7157 52.1269V65.772ZM133.688 54.8959C133.688 61.5712 128.219 67 121.539 67C114.815 67 109.346 61.5712 109.346 54.8959C109.346 48.2653 114.815 42.8364 121.539 42.8364C128.219 42.8364 133.688 48.2653 133.688 54.8959ZM121.539 61.9713C117.639 61.9713 114.456 58.8121 114.456 54.8959C114.456 51.0244 117.639 47.9091 121.539 47.9091C125.439 47.9091 128.577 51.0244 128.577 54.8959C128.577 58.8121 125.439 61.9713 121.539 61.9713ZM83.9994 67L78.6643 65.772V44.2097L83.9994 43.1327V67Z" fill="black"/>
</g>
<defs>
<clipPath id="clip0_3231_17298">
<rect width="96.6875" height="34" fill="white" transform="translate(37 33)"/>
</clipPath>
</defs>
</svg>
