<svg width="170" height="100" viewBox="0 0 170 100" fill="none" xmlns="http://www.w3.org/2000/svg">
<path d="M53.8867 49.9996C53.8867 58.8989 67.6015 66.1133 84.5188 66.1133C101.436 66.1133 115.151 58.8989 115.151 49.9996C115.151 41.1005 101.436 33.886 84.5188 33.886C67.6015 33.886 53.8867 41.1005 53.8867 49.9996Z" fill="black"/>
<path d="M84.5176 64.918C100.774 64.918 113.953 58.2392 113.953 50.0007C113.953 41.7622 100.774 35.0833 84.5176 35.0833C68.261 35.0833 55.082 41.7622 55.082 50.0007C55.082 58.2392 68.261 64.918 84.5176 64.918Z" fill="black"/>
<path d="M70.5302 51.8492C71.8669 51.8492 72.8648 51.6027 73.4962 51.1168C74.1209 50.6358 74.5523 49.8025 74.7784 48.6402C74.9893 47.5538 74.9089 46.7952 74.5398 46.3858C74.1623 45.9677 73.3462 45.7556 72.1142 45.7556H69.978L68.7937 51.8492H70.5302ZM63.5432 59.3555C63.4441 59.3555 63.3499 59.3112 63.2869 59.2345C63.2237 59.1579 63.1981 59.0571 63.2171 58.9597L66.3556 42.8115C66.386 42.6554 66.5228 42.5426 66.6819 42.5426H73.4463C75.5722 42.5426 77.1545 43.1198 78.1491 44.2585C79.149 45.4031 79.4578 47.003 79.0668 49.0138C78.9077 49.833 78.634 50.5938 78.2535 51.275C77.8724 51.9569 77.3689 52.5879 76.7565 53.1507C76.0235 53.8367 75.1939 54.3342 74.2929 54.6269C73.4063 54.9158 72.2675 55.0622 70.9084 55.0622H68.1694L67.3872 59.0865C67.3568 59.2427 67.2201 59.3555 67.061 59.3555H63.5432Z" fill="white"/>
<path d="M70.2523 46.0876H72.1146C73.6015 46.0876 74.118 46.4139 74.2935 46.6084C74.5847 46.9312 74.6396 47.6119 74.4525 48.5768C74.2422 49.6571 73.8525 50.423 73.2938 50.8531C72.7219 51.2934 71.7922 51.5165 70.5305 51.5165H69.1973L70.2523 46.0876ZM73.4466 42.2099H66.6821C66.3639 42.2099 66.0904 42.4354 66.0297 42.7478L62.8911 58.896C62.8532 59.0909 62.9044 59.2924 63.0306 59.4456C63.1569 59.5989 63.3451 59.6875 63.5436 59.6875H67.0613C67.3796 59.6875 67.6531 59.4619 67.7139 59.1496L68.4438 55.3943H70.9088C72.3028 55.3943 73.4763 55.2423 74.3965 54.9426C75.3427 54.6351 76.2134 54.1138 76.9839 53.3932C77.6212 52.8069 78.1461 52.1488 78.5439 51.437C78.9417 50.7249 79.2276 49.9308 79.3934 49.0768C79.805 46.9602 79.4707 45.2653 78.3997 44.0395C77.3392 42.8254 75.6727 42.2099 73.4466 42.2099ZM68.3908 52.1813H70.5305C71.9488 52.1813 73.0052 51.9141 73.6993 51.3798C74.3936 50.8453 74.8618 49.9533 75.1051 48.7034C75.3379 47.5032 75.2318 46.6563 74.787 46.163C74.3416 45.6696 73.4509 45.4229 72.1146 45.4229H69.7044L68.3908 52.1813ZM73.4466 42.8746C75.4816 42.8746 76.9661 43.4087 77.8992 44.4768C78.8322 45.545 79.1131 47.0359 78.7409 48.9501C78.5877 49.7386 78.3285 50.4595 77.9637 51.1127C77.5984 51.7662 77.1214 52.3638 76.532 52.9057C75.8296 53.5631 75.0492 54.0315 74.1906 54.3105C73.332 54.5902 72.2383 54.7295 70.9088 54.7295H67.8957L67.0613 59.0227H63.5436L66.6821 42.8746H73.4466Z" fill="black"/>
<path d="M87.1341 55.0625C87.0348 55.0625 86.9407 55.0182 86.8777 54.9415C86.8144 54.865 86.7888 54.7642 86.8078 54.6667L88.1961 47.5218C88.3282 46.8423 88.2956 46.3546 88.1045 46.1485C87.9875 46.0225 87.6361 45.8113 86.5969 45.8113H84.0817L82.3362 54.7935C82.3058 54.9497 82.169 55.0625 82.0099 55.0625H78.5199C78.4206 55.0625 78.3266 55.0182 78.2634 54.9415C78.2003 54.865 78.1747 54.7641 78.1936 54.6667L81.3322 38.5185C81.3625 38.3624 81.4994 38.2496 81.6584 38.2496H85.1484C85.2477 38.2496 85.3418 38.2939 85.4049 38.3705C85.4681 38.4472 85.4937 38.5479 85.4747 38.6454L84.7173 42.5429H87.4231C89.4844 42.5429 90.8822 42.9063 91.6963 43.6539C92.5262 44.4166 92.7851 45.6361 92.466 47.2789L91.0057 54.7935C90.9754 54.9497 90.8387 55.0625 90.6795 55.0625H87.1341Z" fill="white"/>
<path d="M85.1488 37.9169H81.6588C81.3405 37.9169 81.067 38.1425 81.0062 38.4548L77.8677 54.603C77.8298 54.7979 77.881 54.9994 78.0073 55.1527C78.1336 55.3059 78.3217 55.3945 78.5203 55.3945H82.0103C82.3285 55.3945 82.6021 55.169 82.6628 54.8566L84.3561 46.1433H86.5973C87.6347 46.1433 87.8524 46.3649 87.8611 46.3744C87.9241 46.4421 88.0068 46.7557 87.8702 47.4581L86.4819 54.603C86.444 54.7979 86.4952 54.9994 86.6215 55.1527C86.7478 55.3059 86.9359 55.3945 87.1344 55.3945H90.6798C90.998 55.3945 91.2717 55.169 91.3324 54.8566L92.7925 47.3421C93.1352 45.5781 92.8421 44.2549 91.9216 43.4089C91.0432 42.6022 89.5719 42.2101 87.4235 42.2101H85.1208L85.8014 38.7085C85.8392 38.5136 85.7881 38.312 85.6618 38.1589C85.5355 38.0056 85.3473 37.9169 85.1488 37.9169ZM85.1488 38.5817L84.3144 42.8749H87.4235C89.3798 42.8749 90.7291 43.2164 91.4718 43.8984C92.2144 44.5809 92.4369 45.6867 92.1401 47.2153L90.6798 54.7298H87.1344L88.5228 47.5849C88.6808 46.7722 88.6227 46.2178 88.3484 45.9222C88.074 45.6266 87.4902 45.4785 86.5973 45.4785H83.808L82.0103 54.7298H78.5203L81.6588 38.5817H85.1488Z" fill="black"/>
<path d="M97.9872 51.8492C99.3239 51.8492 100.322 51.6027 100.953 51.1168C101.578 50.6359 102.009 49.8027 102.236 48.6402C102.446 47.5538 102.366 46.7952 101.997 46.3858C101.619 45.9677 100.803 45.7556 99.5712 45.7556H97.435L96.2507 51.8492H97.9872ZM91.0004 59.3555C90.9012 59.3555 90.807 59.3112 90.744 59.2345C90.6808 59.1579 90.6551 59.0571 90.6741 58.9597L93.8126 42.8115C93.8431 42.6554 93.9798 42.5426 94.139 42.5426H100.903C103.029 42.5426 104.612 43.1198 105.606 44.2585C106.606 45.4029 106.915 47.0029 106.524 49.0138C106.365 49.833 106.091 50.5938 105.71 51.275C105.329 51.9569 104.826 52.5879 104.214 53.1507C103.481 53.8367 102.651 54.3342 101.75 54.6269C100.863 54.9158 99.7245 55.0622 98.3654 55.0622H95.6263L94.8444 59.0865C94.814 59.2427 94.6772 59.3555 94.518 59.3555H91.0004Z" fill="white"/>
<path d="M97.7093 46.0876H99.5715C101.058 46.0876 101.575 46.4139 101.75 46.6084C102.042 46.9312 102.097 47.6119 101.909 48.5767C101.699 49.6571 101.309 50.423 100.751 50.8531C100.179 51.2934 99.2491 51.5165 97.9875 51.5165H96.6543L97.7093 46.0876ZM100.904 42.2099H94.1392C93.821 42.2099 93.5474 42.4354 93.4867 42.7478L90.3482 58.896C90.3103 59.0909 90.3615 59.2924 90.4877 59.4456C90.614 59.5989 90.8021 59.6875 91.0006 59.6875H94.5183C94.8365 59.6875 95.1102 59.4619 95.1709 59.1496L95.9007 55.3943H98.3657C99.7597 55.3943 100.933 55.2423 101.853 54.9426C102.8 54.6351 103.67 54.1137 104.441 53.393C105.078 52.8068 105.603 52.1488 106.001 51.437C106.399 50.7249 106.685 49.9308 106.85 49.0768C107.262 46.9601 106.928 45.2652 105.857 44.0394C104.796 42.8254 103.13 42.2099 100.904 42.2099ZM95.8478 52.1813H97.9875C99.4057 52.1813 100.462 51.9141 101.156 51.3798C101.851 50.8453 102.319 49.9533 102.562 48.7034C102.795 47.5032 102.689 46.6563 102.244 46.163C101.799 45.6696 100.908 45.4229 99.5715 45.4229H97.1613L95.8478 52.1813ZM100.904 42.8746C102.938 42.8746 104.423 43.4087 105.356 44.4768C106.289 45.545 106.57 47.0359 106.198 48.9501C106.045 49.7386 105.785 50.4595 105.421 51.1127C105.055 51.7662 104.578 52.3638 103.989 52.9057C103.286 53.5631 102.506 54.0315 101.648 54.3105C100.789 54.5902 99.6952 54.7295 98.3657 54.7295H95.3526L94.5183 59.0227H91.0006L94.1392 42.8746H100.904Z" fill="black"/>
</svg>
