<svg width="170" height="100" viewBox="0 0 170 100" fill="none" xmlns="http://www.w3.org/2000/svg">
<path d="M72.6879 50.269C72.6879 45.9835 71.4658 43.7819 69.0205 43.6612C68.048 43.6153 67.0982 43.7702 66.1746 44.1289C65.4373 44.3928 64.941 44.654 64.6799 44.9177V55.1488C66.2434 56.1301 67.6321 56.586 68.8418 56.5145C71.4037 56.3452 72.6859 54.2652 72.6859 50.2687L72.6879 50.269ZM75.7019 50.4469C75.7019 52.6244 75.1912 54.4322 74.1643 55.8685C73.0196 57.4953 71.4332 58.333 69.4049 58.3789C67.8758 58.4277 66.2997 57.9486 64.6808 56.9443V66.2424L62.0586 65.307V44.6682C62.4889 44.1405 63.0426 43.6869 63.7139 43.3025C65.2745 42.393 67.1724 41.9253 69.4034 41.9023L69.4407 41.9396C71.4805 41.9138 73.0522 42.7514 74.156 44.45C75.1858 46.0079 75.7024 48.0056 75.7024 50.4456L75.7019 50.4469Z" fill="black"/>
<path d="M91.7324 56.5515C91.7324 59.4722 91.4397 61.4934 90.8544 62.6207C90.2663 63.7453 89.1472 64.6433 87.496 65.3118C86.1562 65.8395 84.7075 66.1265 83.1516 66.1753L82.7183 64.5229C84.2992 64.3078 85.4124 64.0926 86.059 63.8775C87.33 63.4472 88.2021 62.7873 88.6813 61.9037C89.0657 61.1834 89.2549 59.8095 89.2549 57.7741V57.0913C87.4618 57.906 85.5816 58.3107 83.6184 58.3107C82.3275 58.3107 81.1884 57.9063 80.2071 57.0913C79.1054 56.2047 78.5547 55.0801 78.5547 53.7182V42.8043L81.1769 41.9062V52.8908C81.1769 54.0643 81.5557 54.968 82.313 55.6019C83.0704 56.2359 84.0517 56.54 85.2537 56.517C86.4558 56.4912 87.7438 56.0264 89.1125 55.1169V42.3015H91.7347V56.5503L91.7324 56.5515Z" fill="black"/>
<path d="M101.974 58.2373C101.661 58.2631 101.374 58.2746 101.11 58.2746C99.627 58.2746 98.4708 57.9217 97.6458 57.2132C96.8226 56.5045 96.4093 55.5264 96.4093 54.2784V43.9502H94.6133V42.3004H96.4093V37.9207L99.0286 36.9883V42.301H101.975V43.9508H99.0286V54.2083C99.0286 55.1923 99.2925 55.8896 99.8204 56.2969C100.274 56.6325 100.994 56.8247 101.975 56.8736V58.2393L101.974 58.2373Z" fill="black"/>
<path d="M117.838 58.0214H115.216V47.8992C115.216 46.8694 114.975 45.9828 114.495 45.2426C113.942 44.4049 113.173 43.9861 112.186 43.9861C110.984 43.9861 109.481 44.6201 107.677 45.888V58.0205H105.055V33.8262L107.677 33V44.0199C109.352 42.8005 111.182 42.1894 113.172 42.1894C114.561 42.1894 115.685 42.6571 116.545 43.5896C117.409 44.522 117.839 45.6838 117.839 47.0716V58.0179L117.838 58.0214Z" fill="black"/>
<path d="M131.791 49.8551C131.791 48.2083 131.478 46.85 130.855 45.7727C130.115 44.4617 128.965 43.7703 127.409 43.6985C124.534 43.8649 123.1 45.9249 123.1 49.8737C123.1 51.6838 123.398 53.1967 124.001 54.4094C124.769 55.9558 125.923 56.7187 127.462 56.6931C130.348 56.6702 131.792 54.3923 131.792 49.8557L131.791 49.8551ZM134.663 49.8723C134.663 52.2161 134.063 54.1667 132.867 55.7237C131.55 57.468 129.732 58.343 127.41 58.343C125.109 58.343 123.315 57.468 122.02 55.7237C120.847 54.1658 120.262 52.2153 120.262 49.8723C120.262 47.669 120.896 45.8164 122.164 44.3065C123.504 42.7056 125.266 41.9023 127.441 41.9023C129.619 41.9023 131.391 42.7056 132.757 44.3065C134.025 45.8155 134.659 47.6678 134.659 49.8723H134.663Z" fill="black"/>
<path d="M149.687 58.0201H147.064V47.324C147.064 46.1505 146.711 45.2354 146.006 44.5755C145.3 43.9185 144.359 43.6001 143.186 43.626C141.941 43.6489 140.756 44.0563 139.63 44.8454V58.0198H137.008V44.5216C138.517 43.4229 139.906 42.7056 141.173 42.37C142.369 42.0575 143.425 41.9023 144.334 41.9023C144.956 41.9023 145.542 41.9626 146.092 42.0831C147.122 42.3212 147.96 42.763 148.605 43.4114C149.326 44.1287 149.684 44.9894 149.684 45.9963V58.0199L149.687 58.0201Z" fill="black"/>
<path d="M36.1642 33.9233C34.8149 33.9296 33.5266 34.0446 32.3937 34.2453C29.053 34.8355 28.4467 36.0702 28.4467 38.3483V41.3565H36.3378V42.359H28.4467H25.4857C23.1922 42.359 21.1825 43.7376 20.5556 46.359C19.8309 49.3641 19.7989 51.242 20.5556 54.3796C21.1166 56.716 22.4564 58.3796 24.7499 58.3796H27.4633V54.774C27.4633 52.1691 29.7171 49.8704 32.3934 49.8704H40.2757C42.47 49.8704 44.2228 48.0638 44.2228 45.8615V38.3472C44.2228 36.2085 42.4185 34.6032 40.2757 34.2441C38.92 34.0185 37.5134 33.916 36.1639 33.9221L36.1642 33.9233ZM31.8963 36.3425C32.7116 36.3425 33.3771 37.0191 33.3771 37.8509C33.3771 38.6798 32.7113 39.3503 31.8963 39.3503C31.0784 39.3503 30.4155 38.6801 30.4155 37.8509C30.4155 37.0191 31.0784 36.3425 31.8963 36.3425Z" fill="black"/>
<path d="M45.2047 42.3555V45.861C45.2047 48.578 42.9013 50.8647 40.2746 50.8647H32.3923C30.2331 50.8647 28.4453 52.7125 28.4453 54.8735V62.3879C28.4453 64.5265 30.3052 65.7845 32.3923 66.3967C34.8904 67.1314 37.2871 67.2642 40.2746 66.3967C42.2614 65.8216 44.2217 64.6637 44.2217 62.3879V59.3798H36.3394V58.3773H44.2217H48.1687C50.4622 58.3773 51.3181 56.7776 52.1157 54.3773C52.9396 51.9052 52.9045 49.5266 52.1157 46.3567C51.5488 44.0735 50.4663 42.3566 48.1687 42.3566H45.2077L45.2047 42.3555ZM40.7721 61.3872C41.59 61.3872 42.2529 62.0574 42.2529 62.8865C42.2529 63.7183 41.59 64.395 40.7721 64.395C39.9568 64.395 39.2913 63.7183 39.2913 62.8865C39.2913 62.0577 39.957 61.3872 40.7721 61.3872Z" fill="black"/>
</svg>
