<svg width="170" height="100" viewBox="0 0 170 100" fill="none" xmlns="http://www.w3.org/2000/svg">
<g clip-path="url(#clip0_3067_17194)">
<path d="M85.1053 53.4059C86.9864 53.4059 88.5114 51.8809 88.5114 49.9998C88.5114 48.1187 86.9864 46.5938 85.1053 46.5938C83.2242 46.5938 81.6992 48.1187 81.6992 49.9998C81.6992 51.8809 83.2242 53.4059 85.1053 53.4059Z" fill="black"/>
<path d="M85.1085 56.98C95.2023 56.98 103.385 53.8557 103.385 50.0017C103.385 46.1477 95.2023 43.0234 85.1085 43.0234C75.0147 43.0234 66.832 46.1477 66.832 50.0017C66.832 53.8557 75.0147 56.98 85.1085 56.98Z" stroke="black"/>
<path d="M79.0632 53.4898C84.1101 62.2313 90.9071 67.7555 94.2448 65.8285C97.5825 63.9015 96.1969 55.253 91.1499 46.5115C86.103 37.77 79.306 32.2457 75.9683 34.1727C72.6307 36.0997 74.0163 44.7483 79.0632 53.4898Z" stroke="black"/>
<path d="M79.0641 46.5098C74.0172 55.2512 72.6316 63.8998 75.9692 65.8268C79.3069 67.7538 86.1039 62.2295 91.1508 53.488C96.1977 44.7465 97.5834 36.098 94.2457 34.171C90.908 32.244 84.111 37.7683 79.0641 46.5098Z" stroke="black"/>
</g>
<defs>
<clipPath id="clip0_3067_17194">
<rect width="38.2144" height="34" fill="white" transform="translate(66 33)"/>
</clipPath>
</defs>
</svg>
