<svg width="170" height="100" viewBox="0 0 170 100" fill="none" xmlns="http://www.w3.org/2000/svg">
<g clip-path="url(#clip0_3093_17469)">
<path d="M101.033 52.5404C99.4513 52.5487 98.0767 52.9296 96.9257 53.4927C96.5034 52.6563 96.0811 51.9111 96.0065 51.3646C95.9237 50.727 95.8244 50.3378 95.9237 49.576C96.0231 48.8142 96.4703 47.7294 96.462 47.6466C96.4537 47.5638 96.3626 47.1746 95.4517 47.1663C94.5409 47.158 93.7542 47.3402 93.6631 47.5804C93.5721 47.8205 93.3982 48.367 93.2822 48.9301C93.1249 49.7581 91.4605 52.7143 90.5083 54.2628C90.2019 53.6583 89.9369 53.1283 89.8789 52.706C89.7961 52.0684 89.6968 51.6792 89.7961 50.9174C89.8955 50.1556 90.3426 49.0709 90.3344 48.988C90.3261 48.9052 90.235 48.5161 89.3241 48.5078C88.4133 48.4995 87.6266 48.6817 87.5355 48.9218C87.4444 49.1619 87.3451 49.725 87.1546 50.2715C86.9642 50.8181 84.7533 55.7533 84.1736 57.0285C83.8755 57.6826 83.6188 58.2043 83.4366 58.5604C83.4366 58.5604 83.4284 58.5852 83.4035 58.6266C83.2462 58.933 83.1551 59.0986 83.1551 59.0986C83.1551 59.0986 83.1551 59.0986 83.1551 59.1069C83.0309 59.3305 82.8984 59.5375 82.8322 59.5375C82.7825 59.5375 82.6914 58.9413 82.8487 58.1298C83.18 56.4157 83.9666 53.7494 83.9583 53.6583C83.9583 53.6086 84.1074 53.1449 83.4449 52.9048C82.799 52.6646 82.5672 53.0621 82.5092 53.0621C82.4513 53.0621 82.4099 53.2029 82.4099 53.2029C82.4099 53.2029 83.1303 50.2053 81.0353 50.2053C79.727 50.2053 77.9218 51.6378 77.0275 52.9296C76.4644 53.236 75.2637 53.8901 73.9802 54.594C73.4917 54.8672 72.9866 55.1405 72.5146 55.3972C72.4815 55.3641 72.4483 55.3227 72.4152 55.2896C69.8814 52.5818 65.1946 50.669 65.3933 47.0338C65.4678 45.7089 65.9233 42.2311 74.3943 38.008C81.3665 34.5716 86.9145 35.5238 87.875 37.6354C89.2496 40.6495 84.9023 46.2472 77.6982 47.0587C74.9491 47.3651 73.5083 46.3051 73.1439 45.9077C72.763 45.4937 72.705 45.4688 72.5643 45.5516C72.3324 45.6758 72.4815 46.0484 72.5643 46.2637C72.7796 46.8268 73.6656 47.8205 75.1644 48.309C76.4893 48.7396 79.7104 48.9798 83.6105 47.4727C87.9744 45.7835 91.386 41.0884 90.384 37.1551C89.3821 33.1639 82.7576 31.8473 76.4893 34.0748C72.763 35.3996 68.7221 37.4863 65.8156 40.2024C62.3626 43.4318 61.8161 46.2389 62.0397 47.4147C62.8429 51.5881 68.5979 54.3042 70.8999 56.3163C70.7839 56.3826 70.6763 56.4406 70.5852 56.4902C69.4342 57.0616 65.0455 59.3553 63.9525 61.7815C62.7104 64.5307 64.1512 66.5014 65.1035 66.7664C68.0596 67.5862 71.0986 66.1123 72.7299 63.6778C74.3611 61.2433 74.1624 58.0801 73.4089 56.631C73.4006 56.6144 73.3923 56.5979 73.3758 56.5813C73.6739 56.4074 73.9802 56.2253 74.2783 56.0514C74.8663 55.7036 75.4459 55.3806 75.9427 55.1157C75.6612 55.8858 75.4542 56.8049 75.3548 58.1298C75.2306 59.6865 75.8682 61.707 76.7045 62.5019C77.0772 62.8497 77.516 62.858 77.7976 62.858C78.7747 62.858 79.2136 62.0465 79.7021 61.086C80.2983 59.9101 80.8366 58.5438 80.8366 58.5438C80.8366 58.5438 80.1658 62.237 81.9875 62.237C82.65 62.237 83.3207 61.3758 83.6188 60.9369C83.6188 60.9452 83.6188 60.9452 83.6188 60.9452C83.6188 60.9452 83.6354 60.9203 83.6685 60.8624C83.7348 60.7547 83.7762 60.6885 83.7762 60.6885C83.7762 60.6885 83.7762 60.6802 83.7762 60.6719C84.0411 60.2082 84.6373 59.1566 85.5234 57.4094C86.6661 55.1571 87.7674 52.3417 87.7674 52.3417C87.7674 52.3417 87.8668 53.029 88.2063 54.1717C88.405 54.8424 88.819 55.5794 89.1502 56.2915C88.8853 56.6641 88.7197 56.8711 88.7197 56.8711C88.7197 56.8711 88.7196 56.8711 88.7279 56.8794C88.5126 57.161 88.2808 57.4673 88.0241 57.7654C87.1215 58.8419 86.045 60.0757 85.896 60.4318C85.7221 60.8541 85.7635 61.1605 86.0947 61.4089C86.3348 61.5911 86.7654 61.6159 87.2043 61.5911C88.0158 61.5331 88.5872 61.3344 88.8687 61.2102C89.3076 61.0528 89.821 60.8127 90.3012 60.4566C91.1873 59.8025 91.7255 58.8668 91.6758 57.633C91.651 56.954 91.4274 56.2749 91.1541 55.6373C91.2369 55.5214 91.3115 55.4055 91.3943 55.2896C92.7937 53.2443 93.8784 51.0002 93.8784 51.0002C93.8784 51.0002 93.9778 51.6875 94.3173 52.8302C94.4829 53.4099 94.8224 54.0392 95.1205 54.652C93.8039 55.7201 92.9924 56.9622 92.7026 57.7737C92.1809 59.2808 92.5867 59.9598 93.3568 60.1171C93.7046 60.1917 94.2014 60.026 94.5657 59.8687C95.0294 59.7197 95.576 59.463 96.0976 59.0821C96.9837 58.4279 97.8366 57.517 97.7869 56.2832C97.762 55.7201 97.613 55.1653 97.406 54.6271C98.5238 54.1634 99.9647 53.9067 101.803 54.122C105.744 54.5857 106.523 57.045 106.374 58.0801C106.225 59.1152 105.397 59.6783 105.123 59.8521C104.85 60.026 104.759 60.084 104.784 60.2082C104.817 60.3904 104.95 60.3821 105.181 60.349C105.504 60.291 107.252 59.5126 107.326 57.6081C107.45 55.1736 105.132 52.5156 101.033 52.5404ZM70.6266 62.7917C69.3183 64.216 67.4966 64.7542 66.7099 64.2988C65.8653 63.8103 66.1965 61.707 67.8029 60.1999C68.78 59.2808 70.0387 58.4279 70.875 57.9062C71.0655 57.7903 71.347 57.6247 71.6865 57.4177C71.7445 57.3845 71.7776 57.368 71.7776 57.368C71.8439 57.3266 71.9101 57.2852 71.9763 57.2438C72.5643 59.3967 72.0012 61.293 70.6266 62.7917ZM80.1493 56.3163C79.6938 57.4259 78.7416 60.2662 78.1619 60.1088C77.6651 59.9764 77.3587 57.8234 78.0626 55.6953C78.4186 54.6271 79.1722 53.3519 79.611 52.8551C80.3232 52.0601 81.1098 51.7952 81.3003 52.1181C81.5404 52.5404 80.4308 55.6208 80.1493 56.3163ZM88.0075 60.0757C87.8171 60.1751 87.6349 60.2413 87.5521 60.1917C87.4941 60.1585 87.6349 60.026 87.6349 60.026C87.6349 60.026 88.6203 58.9661 89.0095 58.4859C89.233 58.2043 89.498 57.8731 89.7796 57.5005C89.7796 57.5336 89.7796 57.575 89.7796 57.6081C89.7796 58.875 88.554 59.7279 88.0075 60.0757ZM94.0689 58.6929C93.9281 58.5935 93.953 58.2623 94.425 57.2272C94.6071 56.8215 95.0377 56.1425 95.7747 55.4883C95.8575 55.7533 95.9155 56.01 95.9072 56.2501C95.8989 57.8483 94.7562 58.4445 94.0689 58.6929Z" fill="black"/>
</g>
<defs>
<clipPath id="clip0_3093_17469">
<rect width="45.3609" height="34" fill="white" transform="translate(62 33)"/>
</clipPath>
</defs>
</svg>
