<svg width="170" height="100" viewBox="0 0 170 100" fill="none" xmlns="http://www.w3.org/2000/svg">
<g clip-path="url(#clip0_3231_17083)">
<path d="M64.7748 57.7024C64.0342 57.6956 63.2949 57.638 62.5621 57.5302C61.7679 57.4221 60.9804 57.2698 60.2031 57.0739V55.8772C60.972 56.0716 61.7509 56.2239 62.5363 56.3335C63.2489 56.4408 63.9681 56.4984 64.6887 56.5057C65.6855 56.5688 66.6767 56.3157 67.5212 55.7825C67.8425 55.5476 68.1003 55.2366 68.2717 54.8775C68.443 54.5183 68.5224 54.1222 68.5027 53.7248C68.5228 53.306 68.4351 52.8891 68.2483 52.5138C68.0614 52.1385 67.7814 51.8174 67.4352 51.581C67.0914 51.3324 66.7184 51.1271 66.3245 50.9697C65.8768 50.8033 65.3976 50.6454 64.8867 50.4962C64.1996 50.2992 63.5288 50.0487 62.8807 49.7472C62.3816 49.5209 61.9223 49.2157 61.5204 48.8432C61.1781 48.5222 60.9132 48.1277 60.7455 47.6895C60.5742 47.2089 60.4896 46.7016 60.4959 46.1914C60.488 45.6181 60.6086 45.0504 60.8488 44.5298C61.0842 44.0296 61.4284 43.5884 61.8562 43.2383C62.3161 42.8501 62.8488 42.5574 63.4231 42.3774C64.0869 42.1926 64.7747 42.1084 65.4636 42.1277C66.7432 42.1532 68.0163 42.3178 69.2604 42.6185V43.841C68.6281 43.6784 67.9871 43.552 67.3404 43.4622C66.7699 43.3813 66.1947 43.3381 65.6185 43.333C64.6724 43.2837 63.7375 43.5569 62.9668 44.1079C62.6353 44.3434 62.3663 44.6563 62.1833 45.0194C62.0002 45.3825 61.9086 45.7848 61.9164 46.1914C61.9099 46.547 61.9713 46.9006 62.0972 47.2332C62.2272 47.5638 62.4338 47.8588 62.6999 48.0941C63.0268 48.3762 63.3957 48.6057 63.7933 48.7743C64.3521 49.0116 64.9276 49.2073 65.5152 49.3597C66.1523 49.5491 66.7435 49.7529 67.2888 49.971C67.801 50.1664 68.2801 50.4393 68.7094 50.7803C69.1077 51.1027 69.431 51.5082 69.6564 51.9684C69.9003 52.5089 70.0181 53.0977 70.0008 53.6903C70.0328 54.2607 69.9275 54.8305 69.6938 55.3518C69.4601 55.8731 69.1048 56.3308 68.6577 56.6865C67.513 57.4488 66.1462 57.8064 64.7748 57.7024Z" fill="black"/>
<path d="M77.1928 57.6606C76.5142 57.7085 75.8334 57.6087 75.1972 57.3679C74.561 57.1271 73.9846 56.7511 73.5079 56.2658C72.6058 55.1174 72.1583 53.6768 72.2509 52.2193C72.1568 50.6858 72.5913 49.1664 73.4821 47.9146C73.9174 47.4026 74.4665 46.9998 75.0854 46.7381C75.7043 46.4765 76.3759 46.3634 77.0464 46.4079C77.6055 46.37 78.1658 46.4614 78.6838 46.6749C79.2019 46.8884 79.6639 47.2183 80.0339 47.639C80.7651 48.672 81.1233 49.9228 81.0499 51.1862C81.0499 51.4961 81.0499 51.7602 81.0499 51.9783C81.0426 52.1641 81.0166 52.3487 80.9724 52.5293H73.594C73.5647 53.621 73.9214 54.688 74.6013 55.5426C74.9653 55.8888 75.3976 56.155 75.8707 56.3241C76.3437 56.4931 76.8468 56.5612 77.3478 56.5241C77.8733 56.5209 78.3976 56.4719 78.9147 56.3777C79.4803 56.2759 80.0362 56.1261 80.5763 55.93L80.6797 57.0235C80.1224 57.2368 79.5457 57.3954 78.9577 57.497C78.3755 57.6043 77.7848 57.6591 77.1928 57.6606ZM77.0034 47.4238C74.8912 47.4238 73.7604 48.7841 73.6112 51.5047H79.767C79.8523 50.4198 79.6189 49.3336 79.0955 48.3795C78.8562 48.0561 78.5387 47.7988 78.1728 47.6316C77.8068 47.4645 77.4045 47.393 77.0034 47.4238Z" fill="black"/>
<path d="M84.0977 41.0273H85.458V57.4802H84.0977V41.0273Z" fill="black"/>
<path d="M93.4967 57.6606C92.8181 57.7085 92.1373 57.6087 91.5011 57.3679C90.8649 57.1271 90.2885 56.7511 89.8118 56.2658C88.9127 55.1161 88.4683 53.6757 88.5634 52.2193C88.4693 50.6858 88.9038 49.1664 89.7946 47.9146C90.2299 47.4026 90.779 46.9998 91.3979 46.7381C92.0168 46.4765 92.6884 46.3634 93.3589 46.4079C93.918 46.37 94.4783 46.4614 94.9963 46.6749C95.5144 46.8884 95.9764 47.2183 96.3464 47.639C97.0624 48.6775 97.4053 49.9278 97.3193 51.1862C97.3193 51.4961 97.3193 51.7602 97.3193 51.9783C97.312 52.1641 97.2861 52.3487 97.2418 52.5293H89.8979C89.8694 53.6209 90.226 54.6876 90.9052 55.5426C91.2701 55.8899 91.7039 56.1568 92.1785 56.3259C92.6531 56.4949 93.1579 56.5625 93.6603 56.5241C94.1858 56.5209 94.7101 56.4719 95.2272 56.3777C95.7927 56.2758 96.3486 56.126 96.8888 55.93L96.9922 57.0235C96.4349 57.2368 95.8582 57.3954 95.2703 57.497C94.6852 57.6048 94.0916 57.6596 93.4967 57.6606ZM93.3159 47.4238C91.2037 47.4238 90.0729 48.7841 89.9237 51.5047H96.0795C96.1648 50.4198 95.9314 49.3336 95.408 48.3795C95.1687 48.0561 94.8512 47.7988 94.4853 47.6316C94.1194 47.4645 93.717 47.393 93.3159 47.4238Z" fill="black"/>
<path d="M100.344 46.5107H101.48L101.584 47.7936H101.687C102.226 47.5353 102.72 47.3114 103.168 47.122C103.615 46.9326 104.026 46.7776 104.399 46.6571C104.736 46.5429 105.082 46.4537 105.432 46.3902C105.745 46.3377 106.062 46.3118 106.379 46.3127C106.767 46.2835 107.156 46.3341 107.523 46.4615C107.891 46.5889 108.228 46.7902 108.514 47.0531C109.041 47.6845 109.298 48.4981 109.229 49.3175V57.5051H107.86V49.7565C107.912 49.1445 107.744 48.534 107.386 48.0346C107.194 47.8503 106.965 47.7089 106.714 47.6198C106.464 47.5307 106.197 47.4961 105.931 47.5181C105.274 47.5334 104.623 47.6525 104.003 47.8711C103.214 48.1368 102.446 48.4591 101.704 48.8353V57.4449H100.344V46.5107Z" fill="black"/>
<path d="M113.462 44.0587C113.343 44.076 113.221 44.0661 113.106 44.0298C112.991 43.9934 112.886 43.9315 112.798 43.8487C112.71 43.7659 112.642 43.6644 112.599 43.5517C112.556 43.439 112.539 43.318 112.55 43.1978C112.55 42.9557 112.646 42.7236 112.817 42.5525C112.988 42.3813 113.22 42.2852 113.462 42.2852C113.704 42.2852 113.937 42.3813 114.108 42.5525C114.279 42.7236 114.375 42.9557 114.375 43.1978C114.385 43.318 114.368 43.439 114.325 43.5517C114.282 43.6644 114.214 43.7659 114.127 43.8487C114.039 43.9315 113.934 43.9934 113.819 44.0298C113.704 44.0661 113.582 44.076 113.462 44.0587ZM112.774 46.5124H114.134V57.481H112.774V46.5124Z" fill="black"/>
<path d="M120.403 57.6783C118.6 57.6783 117.699 56.6825 117.699 54.6908V46.5117H119.06V54.2603C119.001 54.8643 119.147 55.4704 119.473 55.9822C119.646 56.1676 119.86 56.3106 120.097 56.4002C120.334 56.4898 120.589 56.5235 120.842 56.4988C121.573 56.495 122.297 56.3549 122.977 56.0855C123.694 55.81 124.438 55.4829 125.207 55.1041V46.5117H126.593V57.4803H125.456L125.353 56.12H125.276L123.786 56.8174C123.361 57.0125 122.965 57.1761 122.598 57.3081C122.253 57.4312 121.899 57.5262 121.539 57.5922C121.164 57.6551 120.783 57.6839 120.403 57.6783Z" fill="black"/>
<path d="M130.191 46.5115H131.311L131.431 47.7943H131.509C132.22 47.364 132.963 46.987 133.73 46.6665C134.277 46.4426 134.861 46.3229 135.452 46.3135C135.991 46.2431 136.538 46.3549 137.006 46.631C137.473 46.9071 137.836 47.3317 138.035 47.8374H138.138C138.597 47.5504 139.013 47.3122 139.386 47.1228C139.722 46.9499 140.067 46.7948 140.42 46.6579C140.698 46.5447 140.986 46.4554 141.281 46.391C141.564 46.3373 141.853 46.3114 142.141 46.3135C142.524 46.2856 142.908 46.3352 143.27 46.4595C143.633 46.5838 143.966 46.7801 144.251 47.0367C144.778 47.6681 145.034 48.4816 144.965 49.301V57.4887H143.622V49.7401C143.682 49.1274 143.514 48.5141 143.149 48.0182C142.955 47.8367 142.726 47.6978 142.475 47.6103C142.224 47.5228 141.958 47.4887 141.694 47.5102C141.168 47.5272 140.649 47.638 140.161 47.8374C139.516 48.0977 138.894 48.4116 138.302 48.7758V57.4715H136.924V49.7229C136.984 49.1102 136.815 48.4969 136.451 48.001C136.257 47.8195 136.027 47.6806 135.777 47.5931C135.526 47.5056 135.26 47.4715 134.996 47.493C134.445 47.5091 133.902 47.6258 133.394 47.8374C132.754 48.0968 132.138 48.4108 131.552 48.7758V57.4801H130.191V46.5115Z" fill="black"/>
<path d="M43.4672 53.52C42.9292 53.5037 42.4047 53.6903 41.998 54.0428C41.5913 54.3953 41.332 54.8879 41.2717 55.4228C41.269 55.4331 41.2688 55.444 41.2711 55.4544C41.2733 55.4649 41.2779 55.4747 41.2846 55.483C41.2913 55.4914 41.2998 55.4981 41.3096 55.5026C41.3193 55.507 41.3299 55.5092 41.3406 55.5088H45.6023C45.6122 55.5089 45.6219 55.5069 45.6308 55.5029C45.6398 55.4989 45.6478 55.4931 45.6544 55.4857C45.6609 55.4784 45.6658 55.4697 45.6687 55.4604C45.6716 55.451 45.6724 55.4411 45.6712 55.4314C45.6293 54.8868 45.3744 54.3808 44.9618 54.023C44.5492 53.6651 44.0121 53.4844 43.4672 53.52Z" fill="black"/>
<path d="M52.6022 39.2273L43.5622 49.378C43.5364 49.4059 43.5051 49.4281 43.4703 49.4434C43.4355 49.4586 43.3979 49.4665 43.3599 49.4665C43.3219 49.4665 43.2843 49.4586 43.2495 49.4434C43.2146 49.4281 43.1834 49.4059 43.1576 49.378L38.5428 44.6169C38.5037 44.568 38.4824 44.5073 38.4824 44.4447C38.4824 44.3821 38.5037 44.3214 38.5428 44.2725L40.0667 42.3181C40.0922 42.2826 40.1258 42.2536 40.1648 42.2336C40.2037 42.2136 40.2468 42.2032 40.2906 42.2032C40.3343 42.2032 40.3775 42.2136 40.4164 42.2336C40.4553 42.2536 40.4889 42.2826 40.5144 42.3181L43.0973 45.1765C43.1231 45.2073 43.1554 45.232 43.1919 45.249C43.2283 45.266 43.268 45.2748 43.3082 45.2748C43.3484 45.2748 43.3881 45.266 43.4246 45.249C43.461 45.232 43.4933 45.2073 43.5192 45.1765L50.7167 35.3099C50.7368 35.2808 50.7486 35.2468 50.7511 35.2115C50.7535 35.1762 50.7464 35.1409 50.7306 35.1093C50.7148 35.0777 50.6908 35.0508 50.6611 35.0316C50.6314 35.0124 50.5971 35.0015 50.5618 35H25.2152C25.1582 35 25.1034 35.0227 25.063 35.063C25.0227 35.1034 25 35.1582 25 35.2152V64.0573C25 64.1143 25.0227 64.1691 25.063 64.2094C25.1034 64.2498 25.1582 64.2725 25.2152 64.2725H52.7658C52.8229 64.2725 52.8777 64.2498 52.918 64.2094C52.9584 64.1691 52.9811 64.1143 52.9811 64.0573V39.3564C52.9982 39.3062 52.9947 39.2512 52.9712 39.2036C52.9478 39.156 52.9065 39.1196 52.8562 39.1025C52.806 39.0853 52.751 39.0889 52.7034 39.1123C52.6557 39.1357 52.6194 39.1771 52.6022 39.2273ZM32.8003 61.0611C30.9916 61.1523 29.2188 60.5345 27.8584 59.3392C27.8154 59.2905 27.7917 59.2277 27.7917 59.1627C27.7917 59.0977 27.8154 59.035 27.8584 58.9862L28.9346 57.4796C28.9523 57.4487 28.9761 57.4217 29.0045 57.4002C29.0328 57.3786 29.0652 57.363 29.0997 57.3542C29.1342 57.3453 29.1701 57.3435 29.2053 57.3488C29.2406 57.354 29.2744 57.3663 29.3048 57.3848C30.2879 58.2963 31.5802 58.8009 32.9208 58.7968C34.3328 58.7968 35.0215 58.1425 35.0215 57.4537C35.0215 55.3186 28.065 56.7822 28.065 52.2363C28.065 50.2303 29.7869 48.5601 32.6453 48.5601C34.2857 48.5017 35.8915 49.0401 37.1653 50.0753C37.2132 50.1251 37.2399 50.1914 37.2399 50.2604C37.2399 50.3295 37.2132 50.3958 37.1653 50.4455L36.1063 51.9178C36.0845 51.9471 36.0568 51.9715 36.0251 51.9897C35.9934 52.0079 35.9583 52.0193 35.922 52.0233C35.8856 52.0274 35.8489 52.0239 35.8139 52.0132C35.779 52.0024 35.7467 51.9846 35.7189 51.9608C34.7797 51.2143 33.6125 50.8131 32.4128 50.8244C31.3108 50.8244 30.6909 51.3151 30.6909 52.0383C30.6909 53.9582 37.6302 52.6754 37.6302 57.204C37.6302 59.3909 36.0547 61.0611 32.7916 61.0611H32.8003ZM47.9703 56.8683C47.9715 56.9003 47.9661 56.9321 47.9544 56.9619C47.9427 56.9917 47.925 57.0188 47.9024 57.0414C47.8797 57.0641 47.8527 57.0818 47.8229 57.0935C47.7931 57.1051 47.7612 57.1105 47.7292 57.1093H41.3582C41.348 57.1104 41.3381 57.1135 41.3291 57.1184C41.3201 57.1233 41.3121 57.13 41.3057 57.138C41.2993 57.146 41.2946 57.1552 41.2917 57.1651C41.2889 57.1749 41.2881 57.1853 41.2893 57.1954C41.3926 57.7908 41.715 58.3259 42.1929 58.6956C42.6709 59.0652 43.27 59.2426 43.8721 59.1929C44.6624 59.1761 45.4297 58.9243 46.0762 58.4697C46.1014 58.4485 46.1309 58.4329 46.1625 58.424C46.1942 58.4151 46.2275 58.413 46.26 58.4179C46.2926 58.4228 46.3237 58.4345 46.3514 58.4524C46.3791 58.4702 46.4027 58.4937 46.4206 58.5213L47.1954 59.6492C47.2277 59.6993 47.2403 59.7595 47.2308 59.8184C47.2212 59.8772 47.1902 59.9304 47.1438 59.9677C46.1208 60.7142 44.8798 61.1017 43.6139 61.0697C42.9815 61.105 42.3486 61.0077 41.756 60.7842C41.1634 60.5606 40.624 60.2156 40.1725 59.7714C39.721 59.3272 39.3673 58.7935 39.1341 58.2046C38.9009 57.6157 38.7934 56.9846 38.8183 56.3517C38.8008 55.734 38.9087 55.1191 39.1354 54.5443C39.3622 53.9694 39.7031 53.4465 40.1377 53.0071C40.5722 52.5677 41.0914 52.221 41.6637 51.9879C42.236 51.7548 42.8496 51.6402 43.4675 51.6509C46.1451 51.6509 47.9617 53.6569 47.9617 56.5928L47.9703 56.8683Z" fill="black"/>
</g>
<defs>
<clipPath id="clip0_3231_17083">
<rect width="120" height="29.2725" fill="white" transform="translate(25 35)"/>
</clipPath>
</defs>
</svg>
