<svg width="170" height="100" viewBox="0 0 170 100" fill="none" xmlns="http://www.w3.org/2000/svg">
<g clip-path="url(#clip0_3093_17410)">
<path d="M41.5908 50.7969H40.3326C39.9626 50.8132 39.6008 50.9121 39.274 51.0865L30.586 56.1898C30.261 56.3657 29.8999 56.4648 29.5306 56.4794H25V58.7512C25.0042 58.8989 25.0656 59.0392 25.1712 59.1424C25.2769 59.2457 25.4186 59.3039 25.5663 59.3046H43.7402C43.8896 59.3038 44.0327 59.2443 44.1386 59.139C44.2446 59.0336 44.3049 58.8909 44.3066 58.7415V56.4698H39.7631C39.3938 56.4551 39.0327 56.3561 38.7077 56.1802L36.1077 54.655C36.0542 54.6283 36.0091 54.5872 35.9776 54.5363C35.9462 54.4855 35.9295 54.4268 35.9295 54.367C35.9295 54.3072 35.9462 54.2485 35.9776 54.1976C36.0091 54.1468 36.0542 54.1057 36.1077 54.079L37.3433 53.355C37.4926 53.278 37.6581 53.2378 37.826 53.2378C37.9939 53.2378 38.1594 53.278 38.3087 53.355L39.274 53.9149C39.6002 54.0907 39.9623 54.1897 40.3326 54.2045H44.3066V50.7969H41.5908Z" fill="black"/>
<path d="M41.5908 45.1094H40.3326C39.9626 45.1257 39.6008 45.2246 39.274 45.399L30.586 50.5056C30.2604 50.68 29.8997 50.7789 29.5306 50.7952H25V54.2028H28.9739C29.344 54.1865 29.7057 54.0875 30.0326 53.9132L38.7205 48.8066C39.0462 48.6322 39.4069 48.5332 39.776 48.517H44.3066V45.1094H41.5908Z" fill="black"/>
<path d="M43.7402 40H25.5663C25.4161 40 25.2721 40.0597 25.1659 40.1659C25.0597 40.2721 25 40.4161 25 40.5663V42.8381H29.5435C29.9125 42.8543 30.2732 42.9533 30.5989 43.1277L33.1989 44.6561C33.2516 44.6831 33.2958 44.7241 33.3267 44.7747C33.3576 44.8252 33.3739 44.8833 33.3739 44.9425C33.3739 45.0017 33.3576 45.0598 33.3267 45.1103C33.2958 45.1608 33.2516 45.2019 33.1989 45.2289L31.9632 45.9561C31.814 46.0331 31.6485 46.0733 31.4806 46.0733C31.3126 46.0733 31.1471 46.0331 30.9979 45.9561L30.0326 45.393C29.7057 45.2186 29.344 45.1197 28.9739 45.1034H25V48.511H28.9739C29.3443 48.4962 29.7063 48.3972 30.0326 48.2214L38.7205 43.118C39.0456 42.9421 39.4067 42.8431 39.776 42.8284H44.3066V40.5567C44.304 40.4082 44.2433 40.2666 44.1373 40.1624C44.0314 40.0583 43.8888 40 43.7402 40V40Z" fill="black"/>
<path d="M59.8936 41.9835C59.5491 41.7303 59.1483 41.5647 58.7256 41.5008C58.2036 41.4129 57.6749 41.3709 57.1457 41.3753H54.2497C53.7108 41.3723 53.1726 41.4143 52.6408 41.5008C52.1659 41.577 51.7097 41.7418 51.2958 41.9867C50.8875 42.2399 50.5438 42.5848 50.2918 42.9938C49.9893 43.5069 49.7904 44.0743 49.7062 44.6639L49.2364 47.3732C49.1076 47.9409 49.0967 48.529 49.2042 49.1012C49.2907 49.5068 49.5077 49.873 49.822 50.1437C50.1681 50.4153 50.578 50.5937 51.0126 50.6618C51.5656 50.7625 52.127 50.8099 52.6891 50.8034H55.4209L54.9254 53.635H52.142L52.4252 52.0068L48.0876 52.5763L47.9139 53.6125C47.7932 54.1766 47.7801 54.7585 47.8753 55.3275C47.9512 55.7312 48.1595 56.0981 48.4673 56.3701C48.8025 56.6409 49.2032 56.8185 49.629 56.8849C50.1771 56.9805 50.7329 57.0258 51.2893 57.0201H54.5779C55.1439 57.0246 55.7091 56.9794 56.2672 56.8849C56.7462 56.804 57.2044 56.6291 57.6154 56.3701C58.0244 56.103 58.3649 55.7437 58.6097 55.3211C58.9095 54.7889 59.1101 54.2067 59.2018 53.6028L59.7038 50.7068C59.8274 50.1559 59.8274 49.5845 59.7038 49.0336C59.5905 48.6343 59.3455 48.2851 59.0087 48.0425C58.6424 47.7876 58.2214 47.6223 57.7796 47.5598C57.2305 47.472 56.6752 47.4301 56.1192 47.4344H53.3873L53.8474 44.77H56.3476L56.1095 46.202L60.3698 45.6646L60.5436 44.651C60.6708 44.1027 60.6708 43.5325 60.5436 42.9842C60.4439 42.5878 60.2152 42.2358 59.8936 41.9835Z" fill="black"/>
<path d="M73.4129 41.5508H62.0703L61.3945 45.4282H64.8472L62.8586 56.8448H67.2927L69.2813 45.4282H72.7339L73.4129 41.5508Z" fill="black"/>
<path d="M74.6831 41.5508L72.0156 56.8448H76.4529L79.1172 41.5508H74.6831Z" fill="black"/>
<path d="M91.2655 41.5508L86.9602 47.613L84.5887 41.5508H81.2776L78.6133 56.8448H82.4489L83.8228 48.9581L85.8243 54.2899L89.6052 48.8487L88.2054 56.8448H92.6524L95.3167 41.5508H91.2655Z" fill="black"/>
<path d="M104.44 41.5508L102.432 53.0993H99.8195L101.831 41.5508H97.3998L95.3018 53.6206C95.1796 54.186 95.1708 54.7701 95.276 55.3389C95.3597 55.7464 95.5786 56.1138 95.8971 56.3814C96.2489 56.6503 96.6628 56.8262 97.1005 56.8931C97.6538 56.9911 98.2151 57.0375 98.777 57.0314H102.088C102.673 57.0364 103.258 56.9901 103.835 56.8931C104.326 56.8154 104.796 56.6416 105.219 56.3814C105.628 56.117 105.968 55.7598 106.213 55.3389C106.509 54.8056 106.706 54.2236 106.796 53.6206L108.887 41.5508H104.44Z" fill="black"/>
<path d="M115.398 41.5508H110.961L108.297 56.8448H117.496L118.172 52.9674H113.41L115.398 41.5508Z" fill="black"/>
<path d="M128.424 41.5508L126.413 53.0993H123.803L125.814 41.5508H121.377L119.282 53.6206C119.16 54.186 119.151 54.7701 119.257 55.3389C119.339 55.7469 119.558 56.1146 119.878 56.3814C120.229 56.6507 120.643 56.8267 121.081 56.8931C121.634 56.9914 122.196 57.0377 122.757 57.0314H126.065C126.652 57.0366 127.237 56.9903 127.816 56.8931C128.305 56.816 128.775 56.6421 129.196 56.3814C129.606 56.1187 129.947 55.7611 130.19 55.3389C130.487 54.8058 130.685 54.2238 130.776 53.6206L132.874 41.5508H128.424Z" fill="black"/>
<path d="M144.909 42.9778C144.81 42.5847 144.584 42.2353 144.266 41.9835C143.919 41.7294 143.516 41.5637 143.091 41.5008C142.569 41.4128 142.041 41.3708 141.511 41.3753H138.615C138.077 41.3724 137.538 41.4143 137.006 41.5008C136.533 41.5765 136.077 41.7414 135.665 41.9867C135.255 42.2389 134.91 42.5839 134.658 42.9939C134.357 43.5071 134.161 44.0747 134.082 44.6639L133.612 47.3732C133.482 47.9408 133.47 48.5288 133.576 49.1012C133.663 49.5069 133.88 49.873 134.194 50.1437C134.541 50.4144 134.95 50.5927 135.385 50.6618C135.939 50.7626 136.501 50.81 137.064 50.8034H139.793L139.304 53.635H136.505L136.791 52.0068L132.453 52.5764L132.28 53.6125C132.156 54.1763 132.143 54.7588 132.241 55.3275C132.314 55.7314 132.522 56.0987 132.83 56.3701C133.166 56.6409 133.568 56.8185 133.995 56.8849C134.543 56.9808 135.099 57.0261 135.655 57.0201H138.944C139.508 57.0245 140.073 56.9792 140.63 56.8849C141.11 56.8035 141.569 56.6286 141.981 56.3701C142.39 56.103 142.731 55.7437 142.975 55.3211C143.273 54.7881 143.472 54.2061 143.564 53.6028L144.066 50.7068C144.192 50.1561 144.192 49.5843 144.066 49.0336C143.953 48.6343 143.708 48.2851 143.371 48.0425C143.005 47.7871 142.584 47.6217 142.142 47.5599C141.593 47.4719 141.038 47.4299 140.482 47.4344H137.75L138.21 44.7701H140.713L140.472 46.202L144.732 45.6646L144.909 44.651C145.034 44.1003 145.034 43.5285 144.909 42.9778Z" fill="black"/>
</g>
<defs>
<clipPath id="clip0_3093_17410">
<rect width="120" height="19.313" fill="white" transform="translate(25 40)"/>
</clipPath>
</defs>
</svg>
