<svg width="170" height="100" viewBox="0 0 170 100" fill="none" xmlns="http://www.w3.org/2000/svg">
<g clip-path="url(#clip0_3093_17519)">
<path d="M63.9975 42.4173C63.9955 42.0754 63.9917 41.7336 63.9823 41.3912C63.9624 40.6466 63.9183 39.8951 63.786 39.1584C63.6517 38.4102 63.4321 37.7146 63.0861 37.0349C62.7465 36.3675 62.3025 35.7567 61.7728 35.227C61.2433 34.6974 60.6325 34.2534 59.9648 33.9136C59.2857 33.568 58.5899 33.3485 57.8424 33.2142C57.1053 33.0815 56.3539 33.0377 55.6086 33.0176C55.2664 33.0083 54.9246 33.0044 54.5826 33.0023C54.1766 33 53.7703 33 53.3644 33H44.3641H40.6355C40.2293 33 39.8234 33 39.4175 33.0023C39.0754 33.0045 38.7331 33.0084 38.3915 33.0176C38.2052 33.0227 38.0185 33.0292 37.8317 33.0382C37.2714 33.0652 36.7102 33.1147 36.1576 33.2143C35.597 33.315 35.0654 33.4636 34.5482 33.6775C34.3759 33.7487 34.205 33.8272 34.0352 33.9136C33.5344 34.1685 33.0656 34.4819 32.6391 34.8461C32.497 34.9675 32.3595 35.0946 32.2272 35.227C31.6974 35.7566 31.2534 36.3674 30.9138 37.0349C30.5677 37.7145 30.3485 38.4102 30.2141 39.1584C30.0818 39.8951 30.0379 40.6465 30.0178 41.3912C30.0084 41.7335 30.0045 42.0753 30.0023 42.4172C29.9997 42.8233 30 43.2295 30 43.6355V49.1782V56.3642C30 56.7706 29.9996 57.1764 30.0023 57.5828C30.0045 57.9247 30.0084 58.2665 30.0178 58.6082C30.0379 59.3533 30.0818 60.1049 30.2141 60.8413C30.3485 61.5892 30.5677 62.2855 30.9138 62.965C31.2534 63.6326 31.6974 64.2432 32.2272 64.7727C32.7566 65.3025 33.3675 65.7464 34.0353 66.0865C34.7144 66.4322 35.4102 66.6514 36.1578 66.7857C36.8945 66.9182 37.6465 66.9623 38.3916 66.9823C38.7332 66.9914 39.0754 66.9954 39.4176 66.9974C39.8235 67.0003 40.2293 66.9999 40.6356 66.9999H53.3644C53.7703 66.9999 54.1766 67.0003 54.5825 66.9974C54.9246 66.9954 55.2664 66.9914 55.6086 66.9823C56.3538 66.9623 57.1052 66.9182 57.8424 66.7857C58.5898 66.6514 59.2856 66.4321 59.9647 66.0865C60.6324 65.7465 61.2432 65.3025 61.7727 64.7727C62.3024 64.2432 62.7465 63.6326 63.0861 62.965C63.4321 62.2855 63.6516 61.5893 63.7859 60.8413C63.9183 60.1049 63.9623 59.3533 63.9822 58.6082C63.9916 58.2665 63.9954 57.9248 63.9974 57.5828C64.0001 57.1764 63.9999 56.7706 63.9999 56.3642V43.6355C63.9999 43.2295 64.0001 42.8233 63.9975 42.4173Z" fill="black"/>
<path d="M56.9423 53.9864C56.9415 53.9854 56.9408 53.9846 56.9399 53.9836C56.9775 53.8556 57.0163 53.7284 57.0493 53.5972C58.4604 47.975 55.0163 41.328 49.1882 37.8281C51.7422 41.2904 52.8715 45.484 51.8682 49.1514C51.7787 49.4785 51.6711 49.7925 51.5522 50.0976C51.4232 50.0128 51.2606 49.9166 51.0423 49.7962C51.0423 49.7962 45.2449 46.2167 38.9614 39.8854C38.7965 39.7192 42.312 44.91 46.3017 49.1251C44.422 48.0702 39.1836 44.2588 35.8674 41.2236C36.2748 41.9031 36.7594 42.5574 37.2921 43.1872C40.0614 46.6993 43.673 51.0327 47.9998 54.3602C44.9598 56.2206 40.6641 56.3653 36.387 54.3622C35.3292 53.8664 34.3347 53.2682 33.4141 52.5886C35.2245 55.4844 38.0129 57.983 41.4066 59.4416C45.4537 61.1808 49.4783 61.0629 52.4757 59.4701L52.4734 59.4735C52.4871 59.4649 52.5045 59.4554 52.5187 59.4467C52.6418 59.3805 52.7639 59.3131 52.8834 59.2419C54.3236 58.4944 57.1682 57.736 58.6951 60.7068C59.069 61.4338 59.8636 57.5808 56.9423 53.9864Z" fill="white"/>
<path d="M76.9019 55.064C77.1675 57.4228 79.4173 58.9693 82.5416 58.9693C85.5101 58.9693 87.6503 57.4228 87.6503 55.2829C87.6503 53.4394 86.3538 52.3141 83.3696 51.5645L80.4795 50.8303C76.3239 49.7991 74.449 47.9242 74.449 44.8312C74.449 41.0194 77.7767 38.3789 82.5106 38.3789C87.1033 38.3789 90.3686 41.0347 90.478 44.8626H87.4318C87.1972 42.5192 85.2912 41.0815 82.4325 41.0815C79.6045 41.0815 77.6361 42.5345 77.6361 44.659C77.6361 46.315 78.8549 47.2995 81.8545 48.0651L84.2603 48.6898C88.9158 49.8306 90.8217 51.6427 90.8217 54.9079C90.8217 59.0635 87.5251 61.6726 82.2759 61.6726C77.4018 61.6726 74.0742 59.0788 73.8242 55.0641H76.9019V55.064Z" fill="black"/>
<path d="M110.173 61.2987H107.111L103.533 48.8319H103.471L99.909 61.2987H96.8471L92.3164 44.9727H95.2846L98.4403 58.0802H98.503L102.065 44.9727H104.939L108.533 58.0802H108.595L111.751 44.9727H114.688L110.173 61.2987Z" fill="black"/>
<path d="M116.664 40.5815C116.664 39.5977 117.477 38.8008 118.461 38.8008C119.461 38.8008 120.273 39.5977 120.273 40.5815C120.273 41.566 119.461 42.3784 118.461 42.3784C117.477 42.3784 116.664 41.5661 116.664 40.5815ZM116.977 44.9714H119.961V61.2975H116.977V44.9714Z" fill="black"/>
<path d="M139.448 47.3778V44.9715H136.293V41.0663H133.324V44.9715H130.902H127.62V43.5345C127.636 42.0815 128.198 41.4721 129.542 41.4721C129.979 41.4721 130.416 41.5195 130.776 41.5815V39.2381C130.245 39.16 129.76 39.1133 129.198 39.1133C126.011 39.1133 124.667 40.4415 124.667 43.4878V44.9715H122.387V47.3778H124.667V61.2976H127.636V47.3778H130.903H133.324V57.0172C133.324 60.173 134.527 61.391 137.652 61.391C138.323 61.391 139.089 61.3443 139.433 61.2662V58.8294C139.229 58.8607 138.636 58.9075 138.308 58.9075C136.917 58.9075 136.293 58.2513 136.293 56.7829V47.3778H139.448Z" fill="black"/>
</g>
<defs>
<clipPath id="clip0_3093_17519">
<rect width="109.449" height="34" fill="white" transform="translate(30 33)"/>
</clipPath>
</defs>
</svg>
