<svg width="170" height="100" viewBox="0 0 170 100" fill="none" xmlns="http://www.w3.org/2000/svg">
<g clip-path="url(#clip0_3233_17462)">
<path fill-rule="evenodd" clip-rule="evenodd" d="M46.3804 38.0273H28.0765C26.5019 38.0273 25.2248 39.3027 25.2227 40.8773V59.1543C25.2196 59.9132 25.519 60.642 26.0545 61.1797C26.59 61.7174 27.3177 62.0197 28.0765 62.0197H46.3804C47.1386 62.0186 47.8653 61.7159 48.4 61.1783C48.9347 60.6408 49.2335 59.9125 49.2304 59.1543V40.8773C49.2283 39.3042 47.9535 38.0295 46.3804 38.0273ZM35.5765 55.3081C35.5755 55.5618 35.4735 55.8046 35.2931 55.9828C35.1127 56.1611 34.8687 56.2602 34.615 56.2581H30.615C30.0918 56.256 29.6689 55.8313 29.6689 55.3081V43.4043C29.6689 42.8811 30.0918 42.4564 30.615 42.4543H34.615C35.1388 42.4564 35.5629 42.8805 35.565 43.4043L35.5765 55.3081ZM44.8073 49.8427C44.8073 50.0967 44.7057 50.3401 44.525 50.5186C44.3443 50.6971 44.0997 50.7958 43.8458 50.7928H39.8458C39.322 50.7906 38.8979 50.3665 38.8958 49.8427V43.4043C38.8979 42.8805 39.322 42.4564 39.8458 42.4543H43.8458C44.3689 42.4564 44.7919 42.8811 44.7919 43.4043L44.8073 49.8427Z" fill="black"/>
<path d="M74.9681 39.7852V44.4236H69.4719V62.0198H64.1719V44.4236H58.6758V39.7852H74.9681Z" fill="black"/>
<path d="M81.7125 62.021H76.8125V44.7133H81.7125V48.0287C82.6433 45.6941 84.1317 44.3056 86.7817 44.4748V49.6017C83.3202 49.3325 81.7125 50.1787 81.7125 52.9517V62.021Z" fill="black"/>
<path d="M113.551 62.1543C110.34 62.1543 108.32 60.6158 108.32 56.9773V38.0273H113.255V56.3004C113.255 57.3504 113.947 57.7235 114.793 57.7235C115.037 57.7284 115.282 57.7169 115.524 57.6889V61.9543C114.879 62.1115 114.215 62.1788 113.551 62.1543Z" fill="black"/>
<path d="M123.844 62.1543C120.632 62.1543 118.609 60.6158 118.609 56.9773V38.0273H123.544V56.3004C123.544 57.3504 124.24 57.7235 125.102 57.7235C125.344 57.7285 125.587 57.717 125.829 57.6889V61.9543C125.18 62.113 124.512 62.1803 123.844 62.1543Z" fill="black"/>
<path d="M128.195 53.3593C128.195 48.0132 131.272 44.3555 136.572 44.3555C141.872 44.3555 144.884 48.0016 144.884 53.3593C144.884 58.717 141.838 62.4285 136.572 62.4285C131.307 62.4285 128.195 58.6709 128.195 53.3593ZM132.999 53.3593C132.999 55.9632 134.091 58.0285 136.572 58.0285C139.053 58.0285 140.084 55.9632 140.084 53.3593C140.084 50.7555 139.026 48.7439 136.572 48.7439C134.118 48.7439 132.999 50.7516 132.999 53.3593Z" fill="black"/>
<path d="M93.398 54.9246C94.7699 55.0753 96.1486 55.1562 97.5287 55.1669C101.283 55.1669 104.452 54.1592 104.452 50.5246C104.452 46.9977 101.194 44.3477 97.2749 44.3477C91.998 44.3477 88.6172 48.1746 88.6172 53.5207C88.6172 59.0707 91.5326 62.3669 98.121 62.3669C100.076 62.3828 102.016 62.0359 103.844 61.3438V57.1977C102.152 57.74 100.248 58.2784 98.2941 58.2784C95.671 58.2784 93.8441 57.4169 93.398 54.9246ZM97.1749 48.1246C98.5633 48.1246 99.6787 49.0669 99.6787 50.3553C99.6787 52.013 97.9287 52.5323 95.9133 52.5323C95.0556 52.5283 94.1994 52.4602 93.3518 52.3284C93.4158 51.5202 93.6477 50.7343 94.0326 50.0207C94.6613 48.8692 95.863 48.1471 97.1749 48.1323V48.1246Z" fill="black"/>
</g>
<defs>
<clipPath id="clip0_3233_17462">
<rect width="120" height="24.6154" fill="white" transform="translate(25 38)"/>
</clipPath>
</defs>
</svg>
