<svg width="170" height="100" viewBox="0 0 170 100" fill="none" xmlns="http://www.w3.org/2000/svg">
<g clip-path="url(#clip0_3093_17458)">
<path d="M98.6797 33H71.3203C69.4866 33 68 34.4866 68 36.3203V63.6797C68 65.5134 69.4866 67 71.3203 67H98.6797C100.513 67 102 65.5134 102 63.6797V36.3203C102 34.4866 100.513 33 98.6797 33Z" fill="black"/>
<path fill-rule="evenodd" clip-rule="evenodd" d="M89.0508 60.0255V63.3458C89.5887 63.6247 90.2461 63.8305 90.9766 63.97C91.707 64.1095 92.5039 64.1759 93.3008 64.1759C94.0977 64.1759 94.8281 64.1028 95.5586 63.9501C96.2891 63.7973 96.8867 63.545 97.418 63.2196C97.9559 62.8677 98.4141 62.4227 98.6797 61.8251C98.9453 61.2274 99.1512 60.5634 99.1512 59.7001C99.1512 59.0958 99.0582 58.5712 98.8789 58.1063C98.6996 57.6415 98.4406 57.243 98.082 56.911C97.7434 56.5591 97.3516 56.247 96.8867 55.9813C96.4219 55.7157 95.8906 55.4368 95.293 55.1845C94.8547 55.0052 94.4961 54.8325 94.0977 54.6598C93.7523 54.4872 93.4535 54.3145 93.2344 54.1419C92.9887 53.9626 92.8027 53.7766 92.6699 53.5841C92.5371 53.3848 92.4707 53.1657 92.4707 52.92C92.4707 52.6942 92.5298 52.4884 92.65 52.3024C92.7702 52.1165 92.9355 51.9638 93.148 51.8309C93.3605 51.6981 93.6262 51.5985 93.9449 51.5255C94.257 51.4524 94.6023 51.4192 95.0074 51.4192C95.2863 51.4192 95.5785 51.4398 95.8707 51.4816C96.1762 51.5235 96.4883 51.5879 96.8004 51.6742C97.1125 51.7605 97.418 51.8668 97.7301 51.9996C98.0223 52.1324 98.2945 52.2852 98.527 52.4578V49.3367C98.0223 49.1441 97.4645 48.998 96.8668 48.9051C96.2691 48.8121 95.6051 48.7656 94.8082 48.7656C94.0113 48.7656 93.2809 48.852 92.5504 49.018C91.8199 49.184 91.2223 49.4496 90.691 49.8148C90.1531 50.1734 89.7613 50.6117 89.4293 51.2094C89.1172 51.7672 88.9645 52.4047 88.9645 53.2016C88.9645 54.1977 89.25 55.0609 89.8277 55.725C90.3988 56.4555 91.2887 56.9867 92.4176 57.518C92.8758 57.7039 93.2809 57.8898 93.6793 58.0691C94.0777 58.2484 94.4098 58.4344 94.6754 58.627C94.9609 58.8195 95.1867 59.032 95.3395 59.2578C95.5055 59.4836 95.5918 59.7492 95.5918 60.0547C95.5918 60.2672 95.54 60.4664 95.4391 60.6523C95.3381 60.8383 95.1801 60.9977 94.9676 61.1305C94.7551 61.2633 94.4961 61.3695 94.1707 61.4492C93.8586 61.5223 93.5066 61.5621 93.0418 61.5621C92.3113 61.5621 91.5809 61.4359 90.9168 61.1836C90.1863 60.9312 89.5223 60.5527 88.9246 60.0547L89.0508 60.0255ZM83.4727 51.8575H87.7227V49.1348H75.8359V51.8575H80.0859V64.0098H83.4727V51.8575Z" fill="white"/>
</g>
<defs>
<clipPath id="clip0_3093_17458">
<rect width="34" height="34" fill="white" transform="translate(68 33)"/>
</clipPath>
</defs>
</svg>
