<svg width="170" height="100" viewBox="0 0 170 100" fill="none" xmlns="http://www.w3.org/2000/svg">
<circle cx="85" cy="50" r="17" fill="black"/>
<g clip-path="url(#clip0_3231_17323)">
<g clip-path="url(#clip1_3231_17323)">
<path d="M87.1924 54.9229L85.0143 46.306L82.8075 54.924C82.6353 55.5785 82.4993 56.047 82.3973 56.3318C82.2887 56.6272 82.107 56.8904 81.8693 57.0968C81.592 57.3305 81.2339 57.4516 80.8684 57.4336C80.5778 57.4454 80.2897 57.3759 80.0365 57.2328C79.8132 57.0935 79.6307 56.8978 79.5073 56.6654C79.3606 56.389 79.2492 56.0952 79.1758 55.791C79.0898 55.4563 79.0143 55.1428 78.9463 54.856L76.7045 45.1755C76.5904 44.7563 76.522 44.326 76.5005 43.892C76.4958 43.7187 76.5259 43.5461 76.5891 43.3846C76.6522 43.2231 76.7471 43.0759 76.8681 42.9517C76.9842 42.8271 77.1253 42.7286 77.2823 42.6627C77.4393 42.5967 77.6085 42.5649 77.7787 42.5692C77.9781 42.5463 78.1798 42.5825 78.3588 42.6733C78.5369 42.7636 78.6842 42.9049 78.7817 43.0792C78.9942 43.552 79.1461 44.0493 79.2322 44.5593L80.9959 52.953L82.9722 45.098C83.0795 44.6347 83.2123 44.1768 83.3685 43.7273C83.4853 43.4118 83.6808 43.1323 83.938 42.9124C84.2425 42.669 84.6261 42.5464 85.0153 42.5681C85.4049 42.5446 85.7884 42.673 86.0853 42.9262C86.3233 43.1387 86.5039 43.4075 86.6133 43.705C86.7111 43.9866 86.8428 44.4509 87.0086 45.098L89.0029 52.953L90.7698 44.5593C90.8336 44.2118 90.9143 43.8686 91.0132 43.5297C91.0897 43.28 91.2257 43.0516 91.4084 42.8625C91.5159 42.7594 91.6437 42.68 91.7837 42.6293C91.9237 42.5786 92.0727 42.5578 92.2212 42.5681C92.3902 42.5655 92.5579 42.5978 92.7138 42.6628C92.8697 42.7279 93.0106 42.8244 93.1275 42.9464C93.2498 43.071 93.3458 43.2189 93.4096 43.3814C93.4735 43.5438 93.5041 43.7175 93.4994 43.892C93.475 44.3262 93.4074 44.7569 93.2975 45.1776L91.0557 54.8538C90.9481 55.3381 90.8205 55.8177 90.6732 56.2914C90.5714 56.5969 90.3941 56.8717 90.1578 57.0904C89.8742 57.3339 89.5067 57.457 89.1336 57.4336C88.7694 57.4522 88.4115 57.3335 88.1306 57.101C87.8944 56.9006 87.714 56.6426 87.6068 56.352C87.509 56.0725 87.3709 55.5976 87.1924 54.924V54.9229Z" fill="white"/>
</g>
</g>
<defs>
<clipPath id="clip0_3231_17323">
<rect width="17" height="17" fill="white" transform="translate(76.5 41.5)"/>
</clipPath>
<clipPath id="clip1_3231_17323">
<rect width="17" height="17" fill="white" transform="translate(76.5 41.5)"/>
</clipPath>
</defs>
</svg>
