<svg width="170" height="100" viewBox="0 0 170 100" fill="none" xmlns="http://www.w3.org/2000/svg">
<g clip-path="url(#clip0_3067_17031)">
<path d="M61.6293 33.5117V35.0474C61.6293 35.0474 58.8813 34.0236 57.1032 35.8826C55.81 37.2296 55.7022 38.7383 56.2949 40.7589C62.1143 40.7589 63.0303 44.0189 63.0303 44.0189L62.4376 40.274L64.2696 38.0379C64.2696 35.3976 62.0873 33.6464 61.6293 33.5117Z" fill="white"/>
<path d="M62.1419 37.983C62.5287 37.983 62.8424 37.6694 62.8424 37.2825C62.8424 36.8956 62.5287 36.582 62.1419 36.582C61.755 36.582 61.4414 36.8956 61.4414 37.2825C61.4414 37.6694 61.755 37.983 62.1419 37.983Z" fill="black"/>
<path d="M63.0317 44.019C63.0317 44.019 62.1426 39.5468 56.3233 40.7591C55.7306 38.7385 55.8384 37.2567 57.1315 35.8827C58.8827 34.0238 61.6307 35.0475 61.6307 35.0475V33.5119C60.6609 33.0808 59.7448 33 58.7211 33C54.9762 33 52.9017 35.8019 52.0127 37.6878L41.4786 57.0586L44.4422 56.4929L39 67L42.7987 66.3265L45.7084 58.0555C53.9525 58.0555 64.5135 55.0919 63.0317 44.019Z" fill="black"/>
<path d="M66.5865 40.2752L64.2695 38.0391L62.4375 40.2752H66.5865Z" fill="black"/>
<path d="M47.082 55.6577C47.082 55.6577 47.3514 55.6039 47.8364 55.4961C48.3213 55.3883 48.9949 55.2267 49.8031 55.0112C50.2072 54.9034 50.6383 54.7687 51.0963 54.607C51.5543 54.4454 52.0392 54.2837 52.4972 54.0682C52.9822 53.8796 53.4671 53.6371 53.9521 53.3677C54.437 53.0983 54.895 52.802 55.3261 52.4517C55.4339 52.3709 55.5416 52.2901 55.6494 52.1823L55.9727 51.9129C56.1613 51.7243 56.3768 51.5357 56.5654 51.3202C56.754 51.1316 56.9156 50.9161 57.0773 50.7005C57.1581 50.5928 57.2389 50.485 57.3197 50.3772L57.4275 50.2156L57.5353 50.0539C57.5892 49.9462 57.67 49.8384 57.7239 49.7306C57.7778 49.6229 57.8316 49.5151 57.9125 49.4074C57.9394 49.3535 57.9663 49.2996 57.9933 49.2457C58.0202 49.1918 58.0472 49.1379 58.0741 49.0841C58.128 48.9763 58.1819 48.8685 58.2088 48.7608C58.2896 48.5452 58.3705 48.3297 58.4513 48.1142C58.5052 47.8986 58.586 47.6831 58.6399 47.4945C58.6938 47.3059 58.7207 47.0904 58.7746 46.9287C58.8015 46.7402 58.8285 46.5785 58.8554 46.3899C58.8823 46.2283 58.9093 46.0666 58.9093 45.9319C58.9362 45.7972 58.9362 45.6625 58.9632 45.5278C58.9901 45.0429 58.9901 44.7734 58.9901 44.7734L59.4212 44.8004C59.4212 44.8004 59.3942 45.0967 59.3673 45.5817C59.3404 45.7164 59.3404 45.8511 59.3134 45.9858C59.2865 46.1474 59.2865 46.3091 59.2326 46.4707C59.2056 46.6324 59.1518 46.821 59.1248 47.0096C59.0709 47.1982 59.0171 47.3867 58.9632 47.6023C58.9093 47.8178 58.8285 48.0064 58.7476 48.2489C58.6668 48.4644 58.586 48.6799 58.4782 48.9224C58.4243 49.0302 58.3705 49.1379 58.3166 49.2457C58.2896 49.2996 58.2627 49.3535 58.2358 49.4074C58.2088 49.4612 58.1819 49.5151 58.1549 49.569C58.101 49.6768 58.0202 49.7845 57.9663 49.9192C57.8855 50.027 57.8316 50.1348 57.7508 50.2425C57.7239 50.2964 57.67 50.3503 57.643 50.4042L57.5353 50.5658C57.4545 50.6736 57.3736 50.7814 57.2928 50.8891C57.1042 51.1047 56.9426 51.3202 56.727 51.5088C56.5385 51.7243 56.3229 51.886 56.1074 52.1015L55.7841 52.3709C55.6763 52.4517 55.5686 52.5326 55.4339 52.6134C54.9759 52.9367 54.4909 53.233 54.006 53.5024C53.521 53.7449 53.0091 53.9874 52.5242 54.176C52.0392 54.3646 51.5543 54.5262 51.0963 54.6609C50.6383 54.7956 50.2072 54.9303 49.7762 55.0112C48.9679 55.1997 48.2675 55.3614 47.7825 55.4422C47.3514 55.6039 47.082 55.6577 47.082 55.6577Z" fill="white"/>
<path d="M73.2147 55.6035H70.8438L67.4492 45.7969H69.5776L72.0023 53.2058L74.427 45.7969H76.5554L78.9801 53.2058L81.4048 45.7969H83.5332L80.2194 55.6035H77.8486L75.5316 48.8951L73.2147 55.6035Z" fill="#231F20"/>
<path d="M92.9095 55.6046H91.0236V54.2845C90.2154 55.2544 89.1377 55.7393 87.7637 55.7393C86.7399 55.7393 85.9047 55.443 85.2312 54.8772C84.5577 54.3114 84.2344 53.5301 84.2344 52.5602C84.2344 51.5904 84.5846 50.8629 85.312 50.4049C86.0125 49.92 86.9824 49.6775 88.1948 49.6775H90.862V49.3003C90.862 48.0072 90.1345 47.3336 88.6797 47.3336C87.7637 47.3336 86.8207 47.6569 85.8509 48.3305L84.9349 47.0373C86.1203 46.0943 87.4673 45.6094 89.003 45.6094C90.1615 45.6094 91.1044 45.9057 91.8318 46.4715C92.5593 47.0642 92.9364 47.9802 92.9364 49.2195V55.6046H92.9095ZM90.835 51.9406V51.1054H88.5181C87.0363 51.1054 86.2819 51.5634 86.2819 52.5064C86.2819 52.9913 86.4705 53.3415 86.8477 53.611C87.2249 53.8534 87.7368 53.9881 88.3833 53.9881C89.0299 53.9881 89.6226 53.7996 90.1076 53.4224C90.5925 53.0721 90.835 52.5872 90.835 51.9406Z" fill="#231F20"/>
<path d="M104.118 45.7976V54.338C104.118 56.0622 103.66 57.3823 102.717 58.2445C101.774 59.1066 100.561 59.5377 99.1066 59.5377C97.6248 59.5377 96.3047 59.0797 95.1193 58.1636L96.0891 56.601C97.059 57.3285 98.002 57.6787 98.9988 57.6787C99.9687 57.6787 100.75 57.4362 101.316 56.9243C101.882 56.4125 102.178 55.6042 102.178 54.4996V53.2334C101.882 53.7991 101.424 54.2841 100.858 54.6074C100.292 54.9576 99.6454 55.1193 98.9449 55.1193C97.6517 55.1193 96.5741 54.6613 95.7389 53.7453C94.9037 52.8293 94.4727 51.6977 94.4727 50.3507C94.4727 49.0036 94.9037 47.872 95.7389 46.956C96.5741 46.04 97.6517 45.582 98.9449 45.582C100.238 45.582 101.289 46.1209 102.097 47.1985V45.7437H104.118V45.7976ZM96.4663 50.3237C96.4663 51.132 96.7088 51.8324 97.2207 52.3982C97.7056 52.9909 98.3792 53.2603 99.2413 53.2603C100.076 53.2603 100.777 52.9909 101.289 52.4251C101.801 51.8594 102.07 51.1589 102.07 50.3237C102.07 49.4885 101.801 48.7611 101.289 48.1953C100.75 47.6026 100.076 47.3332 99.2413 47.3332C98.4061 47.3332 97.7326 47.6296 97.2476 48.2492C96.7088 48.815 96.4663 49.5155 96.4663 50.3237Z" fill="#231F20"/>
<path d="M109.29 47.4413V52.4255C109.29 52.8835 109.425 53.2606 109.668 53.53C109.91 53.7995 110.26 53.9342 110.691 53.9342C111.122 53.9342 111.553 53.7186 111.958 53.2876L112.793 54.7424C112.065 55.389 111.257 55.7123 110.395 55.7123C109.506 55.7123 108.778 55.4159 108.159 54.7963C107.539 54.1766 107.216 53.3684 107.216 52.3446V47.4413H105.977V45.7709H107.216V42.7266H109.29V45.7979H111.877V47.4682H109.29V47.4413Z" fill="#231F20"/>
<path d="M122.382 55.6046H120.496V54.2845C119.688 55.2544 118.61 55.7393 117.236 55.7393C116.213 55.7393 115.377 55.443 114.704 54.8772C114.03 54.3114 113.707 53.5301 113.707 52.5602C113.707 51.5904 114.057 50.8629 114.785 50.4049C115.485 49.92 116.455 49.6775 117.667 49.6775H120.335V49.3003C120.335 48.0072 119.607 47.3336 118.152 47.3336C117.236 47.3336 116.293 47.6569 115.324 48.3305L114.408 47.0373C115.593 46.0943 116.94 45.6094 118.476 45.6094C119.634 45.6094 120.577 45.9057 121.304 46.4715C122.032 47.0642 122.409 47.9802 122.409 49.2195V55.6046H122.382ZM120.308 51.9406V51.1054H117.991C116.509 51.1054 115.755 51.5634 115.755 52.5064C115.755 52.9913 115.943 53.3415 116.32 53.611C116.698 53.8534 117.209 53.9881 117.856 53.9881C118.503 53.9881 119.095 53.7996 119.58 53.4224C120.065 53.0721 120.308 52.5872 120.308 51.9406Z" fill="#231F20"/>
<path d="M125.022 43.8303C124.752 43.5609 124.645 43.2645 124.645 42.9143C124.645 42.564 124.779 42.2407 125.022 41.9983C125.291 41.7289 125.587 41.6211 125.938 41.6211C126.288 41.6211 126.611 41.7558 126.854 41.9983C127.123 42.2677 127.231 42.564 127.231 42.9143C127.231 43.2645 127.096 43.5878 126.854 43.8303C126.611 44.0728 126.288 44.2075 125.938 44.2075C125.587 44.2344 125.291 44.0997 125.022 43.8303ZM126.961 55.6037H124.887V45.797H126.961V55.6037Z" fill="#231F20"/>
<path d="M131.274 55.6042H129.199V41.918H131.274V55.6042Z" fill="#231F20"/>
</g>
<defs>
<clipPath id="clip0_3067_17031">
<rect width="92.2742" height="34" fill="white" transform="translate(39 33)"/>
</clipPath>
</defs>
</svg>
