<svg width="170" height="100" viewBox="0 0 170 100" fill="none" xmlns="http://www.w3.org/2000/svg">
<g clip-path="url(#clip0_3093_17598)">
<path d="M94.5972 46.7188H89.8735V47.2199C91.351 47.2199 91.5886 47.5365 91.5886 49.4103V52.7883C91.5886 54.6619 91.3512 55.005 89.8735 55.005C88.739 54.8467 87.9735 54.2396 86.9179 53.0785L85.7041 51.7592C87.3401 51.4685 88.2108 50.4396 88.2108 49.2783C88.2108 47.8272 86.9708 46.7188 84.6484 46.7188H80.0039V47.2199C81.4815 47.2199 81.719 47.5365 81.719 49.4103V52.7883C81.719 54.6619 81.4815 55.005 80.0039 55.005V55.5063H85.2552V55.005C83.7777 55.005 83.5401 54.6619 83.5401 52.7883V51.8385H83.9886L86.9179 55.5063H94.5972C98.3708 55.5063 100.007 53.501 100.007 51.0992C100.007 48.6979 98.371 46.7188 94.5972 46.7188ZM83.5403 51.0199V47.5105H84.6221C85.8095 47.5105 86.3375 48.3285 86.3375 49.2785C86.3375 50.2023 85.8095 51.0201 84.6221 51.0201H83.5403V51.0199ZM94.6766 54.6883H94.4917C93.5419 54.6883 93.4099 54.451 93.4099 53.237V47.5105C93.4099 47.5105 94.571 47.5105 94.6766 47.5105C97.421 47.5105 97.9221 49.5159 97.9221 51.073C97.9221 52.6825 97.4208 54.6883 94.6766 54.6883Z" fill="black"/>
<path d="M65.3049 51.9952L67.1258 46.6115C67.6538 45.0546 67.4162 44.6061 65.7273 44.6061V44.0781H70.6884V44.6061C69.026 44.6061 68.6302 45.0019 67.9704 46.9283L64.9618 55.9535H64.6189L61.9269 47.6935L59.1827 55.9535H58.8396L55.9104 46.9283C55.2771 45.0019 54.8549 44.6061 53.3242 44.6061V44.0781H59.1827V44.6061C57.6256 44.6061 57.2031 44.9755 57.7576 46.6115L59.5256 51.9952L62.1909 44.0781H62.6924L65.3049 51.9952Z" fill="black"/>
<path d="M74.2778 55.849C71.3751 55.849 69 53.7117 69 51.0988C69 48.5128 71.3753 46.375 74.2778 46.375C77.1807 46.375 79.5556 48.5128 79.5556 51.0988C79.5556 53.7117 77.1807 55.849 74.2778 55.849ZM74.2778 47.1937C71.8502 47.1937 71.0056 49.3837 71.0056 51.099C71.0056 52.841 71.8502 55.0048 74.2778 55.0048C76.7322 55.0048 77.5767 52.841 77.5767 51.099C77.5767 49.3837 76.7322 47.1937 74.2778 47.1937Z" fill="black"/>
<path d="M106.524 54.9772V55.505H100.48V54.9772C102.249 54.9772 102.565 54.5288 102.565 51.8895V47.6675C102.565 45.0281 102.249 44.6061 100.48 44.6061V44.0781H105.943C108.661 44.0781 110.166 45.4768 110.166 47.3508C110.166 49.1717 108.661 50.5966 105.943 50.5966H104.439V51.8892C104.439 54.5288 104.755 54.9772 106.524 54.9772ZM105.943 45.0281H104.439V49.6201H105.943C107.421 49.6201 108.107 48.591 108.107 47.3508C108.107 46.0841 107.421 45.0281 105.943 45.0281Z" fill="black"/>
<path d="M128.295 53.0259L128.163 53.5007C127.926 54.3716 127.635 54.6883 125.762 54.6883H125.392C124.02 54.6883 123.783 54.3716 123.783 52.4981V51.2843C125.841 51.2843 126 51.4687 126 52.8412H126.501V48.909H126C126 50.2812 125.841 50.4659 123.783 50.4659V47.5105H125.234C127.108 47.5105 127.398 47.8272 127.635 48.6981L127.768 49.1992H128.19L128.005 46.7188H120.247V47.2199C121.724 47.2199 121.962 47.5365 121.962 49.4103V52.7883C121.962 54.5023 121.76 54.9341 120.595 54.9956C119.488 54.8265 118.727 54.2225 117.687 53.0785L116.473 51.7592C118.109 51.4685 118.98 50.4396 118.98 49.2783C118.98 47.8272 117.74 46.7188 115.418 46.7188H110.773V47.2199C112.251 47.2199 112.489 47.5365 112.489 49.4103V52.7883C112.489 54.6619 112.251 55.005 110.773 55.005V55.5063H116.025V55.005C114.547 55.005 114.31 54.6619 114.31 52.7883V51.8385H114.758L117.687 55.5063H128.533L128.692 53.0261H128.295V53.0259ZM114.309 51.0199V47.5105H115.391C116.579 47.5105 117.107 48.3285 117.107 49.2785C117.107 50.2023 116.579 51.0201 115.391 51.0201H114.309V51.0199Z" fill="black"/>
<path d="M133.654 55.8488C132.599 55.8488 131.675 55.2948 131.279 54.9514C131.147 55.0837 130.91 55.4794 130.857 55.8488H130.355V52.2074H130.883C131.095 53.949 132.308 54.9781 133.865 54.9781C134.71 54.9781 135.396 54.5032 135.396 53.7117C135.396 53.0257 134.789 52.4977 133.707 51.9963L132.203 51.2839C131.147 50.7821 130.355 49.9112 130.355 48.7503C130.355 47.4837 131.543 46.4019 133.179 46.4019C134.05 46.4019 134.789 46.7186 135.238 47.0879C135.369 46.9823 135.501 46.6919 135.581 46.375H136.082V49.4892H135.528C135.343 48.2488 134.657 47.2197 133.259 47.2197C132.52 47.2197 131.833 47.6419 131.833 48.3019C131.833 48.9879 132.387 49.3572 133.654 49.9379L135.105 50.6503C136.372 51.2572 136.873 52.2341 136.873 53.0257C136.873 54.6879 135.422 55.8488 133.654 55.8488Z" fill="black"/>
<path d="M141.779 55.8488C140.724 55.8488 139.8 55.2948 139.404 54.9514C139.272 55.0837 139.035 55.4794 138.982 55.8488H138.481V52.2074H139.008C139.22 53.949 140.433 54.9781 141.99 54.9781C142.835 54.9781 143.521 54.5032 143.521 53.7117C143.521 53.0257 142.914 52.4977 141.832 51.9963L140.328 51.2839C139.272 50.7821 138.48 49.9112 138.48 48.7503C138.48 47.4837 139.668 46.4019 141.304 46.4019C142.175 46.4019 142.914 46.7186 143.363 47.0879C143.494 46.9823 143.626 46.6919 143.705 46.375H144.207V49.4892H143.653C143.468 48.2488 142.782 47.2197 141.384 47.2197C140.645 47.2197 139.958 47.6419 139.958 48.3019C139.958 48.9879 140.512 49.3572 141.779 49.9379L143.23 50.6503C144.497 51.2572 144.998 52.2341 144.998 53.0257C144.998 54.6879 143.547 55.8488 141.779 55.8488Z" fill="black"/>
<path d="M26.9336 49.6123C26.9336 54.2349 29.62 58.2298 33.5156 60.1229L27.9447 44.8594C27.2967 46.3118 26.9336 47.9192 26.9336 49.6123Z" fill="black"/>
<path d="M46.4972 49.0225C46.4972 47.5792 45.9788 46.5796 45.5341 45.8016C44.9421 44.8396 44.3872 44.0249 44.3872 43.0629C44.3872 41.9894 45.2015 40.99 46.3484 40.99C46.4001 40.99 46.4492 40.9965 46.4997 40.9994C44.4219 39.0958 41.6537 37.9336 38.6132 37.9336C34.5332 37.9336 30.9437 40.0269 28.8555 43.1976C29.1295 43.2058 29.3877 43.2116 29.607 43.2116C30.8286 43.2116 32.7195 43.0634 32.7195 43.0634C33.349 43.0263 33.4232 43.9509 32.7944 44.0254C32.7944 44.0254 32.1617 44.0998 31.4577 44.1367L35.7106 56.7867L38.2664 49.1216L36.4468 44.1363C35.8179 44.0994 35.2221 44.0249 35.2221 44.0249C34.5928 43.988 34.6666 43.0258 35.2959 43.0629C35.2959 43.0629 37.2246 43.2111 38.3721 43.2111C39.5935 43.2111 41.4846 43.0629 41.4846 43.0629C42.1146 43.0258 42.1886 43.9505 41.5595 44.0249C41.5595 44.0249 40.9255 44.0994 40.2228 44.1363L44.4432 56.6905L45.6081 52.7978C46.113 51.1825 46.4972 50.0223 46.4972 49.0225Z" fill="black"/>
<path d="M38.8204 50.6367L35.3164 60.8187C36.3626 61.1263 37.4691 61.2945 38.6155 61.2945C39.9755 61.2945 41.2797 61.0594 42.4937 60.6325C42.4624 60.5825 42.434 60.5294 42.4106 60.4716L38.8204 50.6367Z" fill="black"/>
<path d="M48.861 44.0117C48.9113 44.3837 48.9397 44.7831 48.9397 45.2126C48.9397 46.3977 48.7184 47.7299 48.0517 49.3957L44.4844 59.7097C47.9564 57.6851 50.2917 53.9235 50.2917 49.6151C50.2919 47.5846 49.7733 45.6753 48.861 44.0117Z" fill="black"/>
<path d="M38.6138 36C31.1073 36 25 42.1069 25 49.6133C25 57.1207 31.1073 63.2273 38.6138 63.2273C46.12 63.2273 52.2282 57.1207 52.2282 49.6133C52.228 42.1069 46.12 36 38.6138 36ZM38.6138 62.6033C31.4516 62.6033 25.6242 56.776 25.6242 49.6133C25.6242 42.4511 31.4513 36.6242 38.6138 36.6242C45.7758 36.6242 51.6027 42.4511 51.6027 49.6133C51.6027 56.776 45.7758 62.6033 38.6138 62.6033Z" fill="black"/>
</g>
<defs>
<clipPath id="clip0_3093_17598">
<rect width="120" height="27.2273" fill="white" transform="translate(25 36)"/>
</clipPath>
</defs>
</svg>
