<svg width="170" height="100" viewBox="0 0 170 100" fill="none" xmlns="http://www.w3.org/2000/svg">
<g clip-path="url(#clip0_3231_17196)">
<path d="M74.1752 33H96.6966C100.111 33 102.872 35.7607 102.872 39.1752V60.8248C102.872 64.2393 100.111 67 96.6966 67H74.1752C70.7607 67 68 64.2393 68 60.8248V39.1752C68 35.7607 70.7607 33 74.1752 33Z" fill="black"/>
<path d="M86.3351 41.9367L81.9761 49.129L86.6257 56.7572C86.6548 56.8153 86.6693 56.8734 86.6548 56.9316C86.6402 56.9897 86.5821 56.9461 86.4949 56.9606H83.1676C82.9351 56.9606 82.7753 56.9461 82.6736 56.8008C82.3684 56.1905 82.0488 55.5948 81.7437 54.9846C81.4385 54.3888 81.1043 53.7786 80.7556 53.1538C80.4069 52.529 80.0582 51.9042 79.7095 51.2649H79.6804C79.3753 51.8897 79.0411 52.5145 78.7069 53.1393C78.3727 53.764 78.0385 54.3888 77.7189 54.9991C77.3847 55.6093 77.0505 56.2341 76.7163 56.8299C76.6582 56.9752 76.5419 56.9897 76.3821 56.9897H73.1855C73.1274 56.9897 73.0838 57.0187 73.0838 56.9461C73.0693 56.888 73.0838 56.8299 73.1129 56.7863L77.6317 49.376L73.2291 41.9222C73.1855 41.864 73.171 41.8059 73.2001 41.7769C73.2291 41.7333 73.2872 41.7188 73.3454 41.7188H76.6437C76.7163 41.7188 76.789 41.7333 76.8471 41.7478C76.9052 41.7769 76.9488 41.8205 76.9924 41.8786C77.2684 42.5034 77.5881 43.1282 77.9223 43.7529C78.271 44.3777 78.6052 44.988 78.9684 45.5982C79.3172 46.2085 79.6368 46.8187 79.9419 47.4435H79.971C80.2761 46.8042 80.5958 46.1794 80.9154 45.5692C81.2351 44.9589 81.5693 44.3487 81.9035 43.7384C82.2377 43.1282 82.5573 42.5034 82.877 41.9076C82.8915 41.8495 82.9206 41.7914 82.9642 41.7623C83.0223 41.7333 83.0804 41.7187 83.1531 41.7333H86.2189C86.2915 41.7187 86.3642 41.7623 86.3787 41.835C86.3932 41.8495 86.3642 41.9076 86.3351 41.9367Z" fill="white"/>
<path d="M93.0473 57.2665C91.9721 57.281 90.8969 57.0631 89.9234 56.6126C89.008 56.1913 88.2525 55.4938 87.7294 54.6366C87.1918 53.7503 86.9302 52.646 86.9302 51.3238C86.9157 50.2485 87.1918 49.1879 87.7294 48.2579C88.2815 47.3135 89.0807 46.5289 90.0396 46.0058C91.0567 45.4391 92.2772 45.1631 93.7157 45.1631C93.7884 45.1631 93.8901 45.1631 94.0208 45.1776C94.1516 45.1921 94.2969 45.1921 94.4713 45.2067V40.6152C94.4713 40.5135 94.5148 40.4554 94.6166 40.4554H97.5661C97.6388 40.4409 97.6969 40.499 97.7114 40.5571C97.7114 40.5716 97.7114 40.5862 97.7114 40.5862V54.4186C97.7114 54.6802 97.726 54.9708 97.7405 55.2904C97.7695 55.5956 97.7841 55.8862 97.7986 56.1332C97.7986 56.2349 97.755 56.3221 97.6533 56.3656C96.8978 56.6853 96.0986 56.9178 95.2849 57.0631C94.5439 57.1938 93.8029 57.2665 93.0473 57.2665ZM94.4713 54.3605V47.9673C94.3405 47.9383 94.2097 47.9092 94.079 47.8947C93.9191 47.8802 93.7593 47.8656 93.5995 47.8656C93.0328 47.8656 92.4661 47.9819 91.9576 48.2434C91.4636 48.4904 91.0422 48.8537 90.7225 49.3186C90.4029 49.7836 90.2431 50.4084 90.2431 51.1639C90.2285 51.6725 90.3157 52.181 90.4901 52.6605C90.6354 53.0528 90.8533 53.4015 91.1439 53.6921C91.42 53.9537 91.7542 54.1571 92.1319 54.2733C92.5243 54.4041 92.9311 54.4622 93.3379 54.4622C93.5559 54.4622 93.7593 54.4477 93.9482 54.4332C94.1371 54.4477 94.2969 54.4186 94.4713 54.3605Z" fill="white"/>
</g>
<defs>
<clipPath id="clip0_3231_17196">
<rect width="34.8718" height="34" fill="white" transform="translate(68 33)"/>
</clipPath>
</defs>
</svg>
