<svg width="60" height="60" viewBox="0 0 60 60" fill="none" xmlns="http://www.w3.org/2000/svg">
<g clip-path="url(#clip0_3708_20090)">
<path d="M30 20C33.3137 20 36 18.2091 36 16C36 13.7909 33.3137 12 30 12C26.6863 12 24 13.7909 24 16C24 18.2091 26.6863 20 30 20Z" fill="#FF3D2E"/>
<path d="M30 12.5C31.933 12.5 33.5 10.933 33.5 9C33.5 7.067 31.933 5.5 30 5.5C28.067 5.5 26.5 7.067 26.5 9C26.5 10.933 28.067 12.5 30 12.5Z" fill="black"/>
<path d="M30 59C33.3137 59 36 57.2091 36 55C36 52.7909 33.3137 51 30 51C26.6863 51 24 52.7909 24 55C24 57.2091 26.6863 59 30 59Z" fill="#FF3D2E"/>
<path d="M30 51.5C31.933 51.5 33.5 49.933 33.5 48C33.5 46.067 31.933 44.5 30 44.5C28.067 44.5 26.5 46.067 26.5 48C26.5 49.933 28.067 51.5 30 51.5Z" fill="black"/>
<path d="M10.5 39.5C13.8137 39.5 16.5 37.7091 16.5 35.5C16.5 33.2909 13.8137 31.5 10.5 31.5C7.18629 31.5 4.5 33.2909 4.5 35.5C4.5 37.7091 7.18629 39.5 10.5 39.5Z" fill="#FF3D2E"/>
<path d="M10.5 32C12.433 32 14 30.433 14 28.5C14 26.567 12.433 25 10.5 25C8.567 25 7 26.567 7 28.5C7 30.433 8.567 32 10.5 32Z" fill="black"/>
<path d="M49.5 39.5C52.8137 39.5 55.5 37.7091 55.5 35.5C55.5 33.2909 52.8137 31.5 49.5 31.5C46.1863 31.5 43.5 33.2909 43.5 35.5C43.5 37.7091 46.1863 39.5 49.5 39.5Z" fill="#FF3D2E"/>
<path d="M49.5 32C51.433 32 53 30.433 53 28.5C53 26.567 51.433 25 49.5 25C47.567 25 46 26.567 46 28.5C46 30.433 47.567 32 49.5 32Z" fill="black"/>
<path d="M49.5 19.5C49.1 19.5 48.6 19.5 48.2 19.6C46.3 16.4 43.6 13.7 40.4 11.8C40.5 11.4 40.5 10.9 40.5 10.5C40.5 4.7 35.8 0 30 0C24.2 0 19.5 4.7 19.5 10.5C19.5 10.9 19.5 11.4 19.6 11.8C16.4 13.7 13.7 16.4 11.8 19.6C11.4 19.5 10.9 19.5 10.5 19.5C4.7 19.5 0 24.2 0 30C0 35.8 4.7 40.5 10.5 40.5C10.9 40.5 11.4 40.5 11.8 40.4C13.7 43.6 16.4 46.3 19.6 48.2C19.5 48.6 19.5 49.1 19.5 49.5C19.5 55.3 24.2 60 30 60C35.8 60 40.5 55.3 40.5 49.5C40.5 49.1 40.5 48.6 40.4 48.2C43.6 46.3 46.3 43.6 48.2 40.4C48.6 40.5 49.1 40.5 49.5 40.5C55.3 40.5 60 35.8 60 30C60 24.2 55.3 19.5 49.5 19.5ZM30 3C34.1 3 37.4 6.3 37.5 10.4V10.5C37.5 11.5 37.3 12.5 36.9 13.4C35.8 16.1 33.1 18 30 18C26.9 18 24.2 16.1 23.1 13.4C22.7 12.5 22.5 11.5 22.5 10.5V10.4C22.6 6.3 25.9 3 30 3ZM10.5 37.5C10.4 37.5 10.5 37.5 10.5 37.5C6.3 37.4 3 34.1 3 30C3 25.9 6.3 22.6 10.4 22.5H10.5C11.5 22.5 12.5 22.7 13.4 23.1C16.1 24.2 18 26.9 18 30C18 33.1 16.1 35.8 13.4 36.9C12.5 37.3 11.5 37.5 10.5 37.5ZM30 57C25.9 57 22.6 53.7 22.5 49.6V49.5C22.5 48.5 22.7 47.5 23.1 46.6C24.2 43.9 26.9 42 30 42C33.1 42 35.8 43.9 36.9 46.6C37.3 47.5 37.5 48.5 37.5 49.5V49.6C37.4 53.7 34.1 57 30 57ZM39.6 45.2C37.9 41.6 34.3 39 30 39C25.7 39 22.1 41.6 20.4 45.2C18.1 43.8 16.2 41.8 14.8 39.6C18.5 38 21 34.3 21 30C21 25.7 18.4 22.1 14.8 20.4C16.2 18.1 18.2 16.2 20.4 14.8C22 18.5 25.7 21 30 21C34.3 21 37.9 18.4 39.6 14.8C41.9 16.2 43.8 18.2 45.2 20.4C41.6 22.1 39 25.7 39 30C39 34.3 41.6 37.9 45.2 39.6C43.8 41.9 41.9 43.8 39.6 45.2ZM49.6 37.5C49.5 37.5 49.6 37.5 49.6 37.5C48.5 37.5 47.5 37.3 46.6 36.9C43.9 35.8 42 33.1 42 30C42 26.9 43.9 24.2 46.6 23.1C47.5 22.7 48.5 22.5 49.5 22.5H49.6C53.7 22.6 57 25.9 57 30C57 34.1 53.7 37.4 49.6 37.5Z" fill="black"/>
</g>
<defs>
<clipPath id="clip0_3708_20090">
<rect width="60" height="60" fill="white"/>
</clipPath>
</defs>
</svg>
