<svg width="59" height="59" viewBox="0 0 59 59" fill="none" xmlns="http://www.w3.org/2000/svg">
<g clip-path="url(#clip0_3708_20198)">
<path d="M29.5 59C13.2 59 0 45.8 0 29.5C0 13.2 13.2 0 29.5 0C45.8 0 59 13.2 59 29.5C59 45.8 45.8 59 29.5 59ZM29.5 3C14.9 3 3 14.9 3 29.5C3 44.1 14.9 56 29.5 56C44.1 56 56 44.1 56 29.5C56 14.9 44.1 3 29.5 3Z" fill="#231F20"/>
<path d="M29.3984 52C16.9984 52 6.89844 41.9 6.89844 29.5C6.89844 17.1 16.9984 7 29.3984 7C41.7984 7 51.8984 17.1 51.8984 29.5C51.8984 41.9 41.7984 52 29.3984 52ZM29.3984 10C18.6984 10 9.89844 18.7 9.89844 29.5C9.89844 40.3 18.6984 49 29.3984 49C40.0984 49 48.8984 40.3 48.8984 29.5C48.8984 18.7 40.1984 10 29.3984 10Z" fill="#FF3D2E"/>
<path d="M29.5 44.8008C21 44.8008 14 37.8008 14 29.3008C14 20.8008 21 13.8008 29.5 13.8008C38 13.8008 45 20.7008 45 29.3008C45 37.9008 38 44.8008 29.5 44.8008ZM29.5 16.8008C22.6 16.8008 17 22.4008 17 29.3008C17 36.2008 22.6 41.8008 29.5 41.8008C36.4 41.8008 42 36.2008 42 29.3008C42 22.4008 36.4 16.8008 29.5 16.8008Z" fill="#231F20"/>
<path d="M29.3984 37.3008C24.9984 37.3008 21.3984 33.7008 21.3984 29.3008C21.3984 24.9008 24.9984 21.3008 29.3984 21.3008C33.7984 21.3008 37.3984 24.9008 37.3984 29.3008C37.3984 33.7008 33.7984 37.3008 29.3984 37.3008ZM29.3984 24.3008C26.5984 24.3008 24.3984 26.5008 24.3984 29.3008C24.3984 32.1008 26.5984 34.3008 29.3984 34.3008C32.1984 34.3008 34.3984 32.1008 34.3984 29.3008C34.3984 26.5008 32.1984 24.3008 29.3984 24.3008Z" fill="#FF3D2E"/>
</g>
<defs>
<clipPath id="clip0_3708_20198">
<rect width="59" height="59" fill="white"/>
</clipPath>
</defs>
</svg>
