<svg width="54" height="54" viewBox="0 0 54 54" fill="none" xmlns="http://www.w3.org/2000/svg">
<circle cx="27" cy="27" r="25.5" fill="black" stroke="white" stroke-width="3"/>
<path d="M19.2578 15.375H28.9858C32.3081 15.375 34.7543 16.1032 36.3245 17.5595C37.9174 18.9931 38.7138 20.9842 38.7138 23.5329C38.7138 26.0815 37.9174 28.084 36.3245 29.5403C34.7543 30.9739 32.3081 31.6907 28.9858 31.6907H25.4018V39.2683H19.2578V15.375ZM28.3031 26.639C29.8733 26.639 30.9769 26.3773 31.6141 25.8539C32.2512 25.3306 32.5698 24.5569 32.5698 23.5329C32.5698 22.5089 32.2512 21.7352 31.6141 21.2118C30.9769 20.6884 29.8733 20.4267 28.3031 20.4267H25.4018V26.639H28.3031Z" fill="white"/>
</svg>
