<svg width="68" height="68" viewBox="0 0 68 68" fill="none" xmlns="http://www.w3.org/2000/svg">
<rect width="68" height="68" fill="#F3F3F3"/>
<g clip-path="url(#clip0_3692_20008)">
<path d="M19.3984 23.6016H16.3984V61.6016H19.3984V23.6016Z" fill="#FF3D2E"/>
<path d="M25.3984 23.6016H22.3984V61.6016H25.3984V23.6016Z" fill="#FF3D2E"/>
<path d="M6.39844 58.6016V26.6016C6.39844 24.9016 7.69844 23.6016 9.39844 23.6016H13.3984V61.6016H9.39844C7.79844 61.6016 6.39844 60.3016 6.39844 58.6016Z" fill="#FF3D2E"/>
<path d="M62 36V28C62 24.7 59.3 22 56 22H55.8C55.9 21.3 56 20.7 56 20C56 13.4 50.6 8 44 8C40.3 8 36.9 9.7 34.7 12.4L27.2 4.9C26.6 4.3 25.9 4 25.1 4C24.3 4 23.5 4.3 23 4.9L8.9 18.9C8 19.8 7.8 21.1 8.3 22.2C5.8 23 4 25.3 4 28V58C4 61.3 6.7 64 10 64H56C59.3 64 62 61.3 62 58V50C63.1 50 64 49.1 64 48V38C64 36.9 63.1 36 62 36ZM44 11C49 11 53 15 53 20C53 20.7 52.9 21.4 52.8 22H44.4L36.9 14.5C38.5 12.4 41.1 11 44 11ZM25.1 7L33.1 15L35.3 17.2L40.1 22H35.3H32.2H12L11.7 21.8L11 21.1L25.1 7ZM59 58C59 59.7 57.7 61 56 61H10C8.3 61 7 59.7 7 58V28C7 26.3 8.3 25 10 25H10.2H10.7H15H15.4H33.1H36.5H43H47.3H51.4H54.8H56C57.7 25 59 26.3 59 28V36H48C46.9 36 46 36.9 46 38V48C46 49.1 46.9 50 48 50H59V58ZM57 43C57 45.2 55.2 47 53 47C50.8 47 49 45.2 49 43C49 40.8 50.8 39 53 39C55.2 39 57 40.8 57 43Z" fill="black"/>
<path d="M53 45C54.1046 45 55 44.1046 55 43C55 41.8954 54.1046 41 53 41C51.8954 41 51 41.8954 51 43C51 44.1046 51.8954 45 53 45Z" fill="#FF3D2E"/>
</g>
<defs>
<clipPath id="clip0_3692_20008">
<rect width="60" height="60" fill="white" transform="translate(4 4)"/>
</clipPath>
</defs>
</svg>
