<svg width="107" height="34" viewBox="0 0 107 34" fill="none" xmlns="http://www.w3.org/2000/svg">
    <g clip-path="url(#clip0_585_31)">
        <path d="M24.1644 24.8256C24.1644 23.4945 25.8542 21.8469 29.3826 21.8469C29.5927 21.8469 29.8041 21.8469 30.0155 21.8674C29.7414 24.4233 27.7094 26.1773 25.7274 26.1773C24.7768 26.1773 24.1644 25.734 24.1644 24.8256ZM17.3203 10.8415H17.3626L16.271 20.9385C15.081 20.5828 13.8666 20.3144 12.6376 20.1352L17.3203 10.8415ZM9.6742 19.9251C7.05547 19.9251 4.30861 20.5798 2.89419 22.1428C2.04861 20.558 1.73216 18.9527 1.73216 17.2846C1.73216 12.7851 4.66863 8.60202 10.3084 5.94101L9.58965 4.42024C2.97875 7.41949 0 12.3623 0 17.2846C0 19.6074 0.549627 21.8469 2.00633 23.98C1.96351 24.2172 1.9425 24.4578 1.94355 24.6988C1.94355 26.4924 3.06331 27.7826 5.38609 27.7826C7.82033 27.7826 9.8856 26.1171 11.1322 22.818H9.31547C8.40711 25.0152 6.92863 26.1491 5.38609 26.1491C4.18178 26.1491 3.65393 25.6007 3.65393 24.6924C3.65393 23.1293 5.5552 21.5445 9.69598 21.5445C11.6805 21.5445 14.0892 21.8827 16.0955 22.5579L15.7995 25.3253H17.4894L19.0742 10.4405C19.8135 10.2483 21.1395 10.1202 22.0363 10.1202C25.7518 10.1202 26.7677 11.4296 26.7677 12.844C26.7677 14.7248 25.2303 16.0342 21.529 16.4569L22.0786 11.3655L20.3887 11.4296L18.9051 25.3317H20.595L21.3342 18.298C22.5955 17.9583 23.8936 17.7737 25.1996 17.7484C27.6927 17.7484 29.3826 18.7631 29.8887 20.2621C29.7206 20.245 29.5516 20.2381 29.3826 20.2416C24.5872 20.2416 22.454 22.6912 22.454 24.8461C22.454 26.7474 23.8633 27.8031 25.7069 27.8031C28.3897 27.8031 31.2826 25.6494 31.6849 22.121C32.9055 22.4074 34.073 22.8852 35.1441 23.5368C32.2499 27.8249 26.3987 30.6345 19.3856 30.6345C15.943 30.6345 11.6331 29.8953 8.7825 27.9299L7.89464 29.3456C10.7043 31.3737 15.2038 32.3244 19.3856 32.3244C30.7714 32.3244 38.798 25.6071 38.798 17.3051C38.798 8.58152 30.0745 2.28708 19.4073 2.28708C18.7527 2.28708 18.2876 2.30758 17.6534 2.34986L17.8225 4.01539C18.335 3.99361 18.8795 3.97311 19.3856 3.97311C28.9124 3.97311 37.0659 9.71793 37.0659 17.2974C37.071 18.9653 36.6954 20.6125 35.9679 22.1134C34.8904 21.4164 33.3274 20.7835 31.658 20.4658C31.2993 18.4377 29.6299 16.7068 26.4052 16.366C27.036 16.017 27.5624 15.5061 27.9299 14.8858C28.2975 14.2656 28.4929 13.5586 28.496 12.8376C28.496 10.2394 26.6588 8.48159 22.0325 8.48159C21.1053 8.48384 20.1798 8.56139 19.2651 8.71348L19.456 6.93905L17.7444 6.47526L16.271 9.40532C13.8842 10.1023 11.5601 11.1157 10.188 11.8972L10.9477 13.3552C12.3355 12.6438 13.7679 12.0228 15.2358 11.4962L10.9695 19.9674C10.5198 19.9456 10.097 19.9251 9.6742 19.9251ZM16.2864 4.82125C16.2864 2.98404 14.1942 1.33644 11.8714 0.808594C11.6385 1.75605 11.5096 2.72609 11.4871 3.7015C11.4909 6.27668 12.8221 7.04539 14.0674 7.04539C15.3985 7.04539 16.2864 6.14856 16.2864 4.82125Z" fill="black"/>
        <path d="M52.311 6.30341C50.9735 6.30341 50.2099 6.97219 50.0562 7.96895H48.1472C48.3945 5.71535 49.9229 4.58791 52.311 4.58791C54.8888 4.58791 56.2827 5.88703 56.2827 8.54164V14.33H54.3738V12.0329C53.8959 13.4281 52.8837 14.5171 50.9146 14.5171C49.1209 14.5171 47.9922 13.5613 47.9922 11.842C47.9922 9.66395 49.9985 8.49936 54.3725 8.49936V8.3469C54.3738 6.97219 53.6102 6.30341 52.311 6.30341ZM48.2612 20.627H52.5788C54.6979 20.627 55.8638 21.5239 55.8638 23.1112C55.8638 24.1042 55.2526 24.9446 54.0304 25.2687C55.4243 25.4981 56.284 26.2245 56.284 27.5044C56.284 28.8035 55.4435 30.1782 52.8248 30.1782H48.2612V20.627ZM51.3553 12.8733C53.3232 12.8733 54.3738 11.5165 54.3738 9.87407C51.222 9.87407 49.9998 10.5992 49.9998 11.7459C49.9998 12.4723 50.5148 12.8746 51.3553 12.8746V12.8733ZM53.8959 23.4354C53.8959 22.7666 53.4756 22.2516 52.4866 22.2516H50.133V24.5987H52.4827C53.4756 24.5987 53.8959 24.0862 53.8959 23.4367V23.4354ZM50.133 26.1361V28.5627H52.7121C53.8574 28.5627 54.2777 28.0079 54.2777 27.3212C54.2777 26.7088 53.8574 26.1361 52.6121 26.1361H50.133ZM57.9265 11.1937H59.9123C60.1416 12.1866 60.7912 12.7977 62.2428 12.7977C63.9621 12.7977 64.4016 12.1866 64.4016 11.4986C64.4016 10.8298 63.9045 10.334 62.5874 10.334H60.9846V8.6531H62.303C63.6598 8.6531 64.0966 8.17522 64.0966 7.46801C64.0966 6.7608 63.5034 6.18683 62.2235 6.18683C60.7912 6.18683 60.2762 6.91198 60.1045 7.69478H58.1174C58.3083 5.73073 59.8316 4.47004 62.2658 4.47004C64.9397 4.47004 66.1094 5.71151 66.1094 7.16052C66.1094 8.19188 65.5175 9.05155 64.4092 9.35647C65.6507 9.62424 66.4143 10.4839 66.4143 11.5537C66.4143 13.1001 65.192 14.5145 62.2505 14.5145C59.4549 14.5171 58.1174 13.1603 57.9265 11.1937ZM58.143 20.627H60.0519V24.9254L64.235 20.627H66.5283L62.0967 25.1752L66.8909 30.1795H64.3157L60.0558 25.6954V30.1795H58.1468L58.143 20.627ZM67.7313 33.9987V32.1846C69.5455 32.1846 70.0618 31.6721 70.7114 30.1347L66.8781 20.627H68.9792L71.7466 27.5621L74.5114 20.627H76.4216L72.564 30.2359C71.4365 33.025 70.5576 34 67.7313 34V33.9987ZM68.7755 12.357C68.1259 11.3449 67.9351 10.1598 67.9351 8.23159C67.9351 3.37976 69.616 1.33627 73.6273 0.781521C74.7548 0.630341 75.4991 0.512473 75.6324 0H77.5426C77.3133 2.02427 75.8246 2.27282 73.9335 2.52137C70.6858 2.96081 69.8248 4.25993 69.7684 7.30274C70.4 5.80632 71.8747 4.77496 73.6683 4.77496C76.3806 4.77496 78.0423 6.97219 78.0423 9.64345C78.0423 12.3557 76.018 14.5119 72.9803 14.5119C71.0291 14.5171 69.5212 13.5421 68.7755 12.3583V12.357ZM76.0347 9.64474C76.0347 7.83058 74.774 6.49303 72.9778 6.49303C71.2021 6.49303 69.9414 7.83058 69.9414 9.64474C69.9414 11.4973 71.2021 12.7964 72.9778 12.7964C74.774 12.7977 76.0347 11.4986 76.0347 9.64602V9.64474ZM84.47 26.6486H86.361C85.9408 29.1123 84.3111 30.373 81.8538 30.373C78.893 30.373 76.8879 28.177 76.8879 25.4071C76.8879 22.6564 78.893 20.44 81.8154 20.44C84.4136 20.44 85.9984 21.8352 86.361 24.0696H84.4508C84.0882 22.8473 83.2477 22.1593 81.8154 22.1593C80.0576 22.1593 78.893 23.4584 78.893 25.4071C78.893 27.3558 80.096 28.6536 81.8154 28.6536C83.2093 28.6511 84.1266 27.9836 84.47 26.6486ZM79.4913 18.1479V16.3312C81.3055 16.3312 81.8218 15.8188 82.4713 14.2813L78.6278 4.76856H80.7289L83.4988 11.7023L86.2688 4.76856H88.179L84.3201 14.3774C83.1965 17.1678 82.3189 18.1454 79.4913 18.1454V18.1479ZM92.0725 22.1593C90.7362 22.1593 89.9714 22.8281 89.8189 23.8249H87.9087C88.1572 21.5713 89.6857 20.4438 92.0725 20.4438C94.6515 20.4438 96.0442 21.7429 96.0442 24.3975V30.1859H94.1352V27.8875C93.6586 29.2814 92.6452 30.3704 90.676 30.3704C88.8824 30.3704 87.7536 29.4159 87.7536 27.6966C87.7536 25.5186 89.7587 24.354 94.1326 24.354V24.2002C94.1352 22.8255 93.3716 22.1568 92.0725 22.1568V22.1593ZM89.309 4.77496H91.2205V9.07333L95.4036 4.77496H97.6956L93.2627 9.3206L98.0569 14.3262H95.4792L91.2205 9.83691V14.321H89.309V4.77496ZM91.118 28.7331C93.0846 28.7331 94.1352 27.3763 94.1352 25.7338C90.9835 25.7338 89.7613 26.4602 89.7613 27.6056C89.7613 28.3269 90.2776 28.7279 91.118 28.7279V28.7331ZM102.795 6.31238C101.457 6.31238 100.694 6.98116 100.541 7.97792H98.6309C98.8794 5.72432 100.407 4.59688 102.795 4.59688C105.374 4.59688 106.766 5.896 106.766 8.55061V14.339H104.857V12.0329C104.38 13.4281 103.367 14.5171 101.398 14.5171C99.6046 14.5171 98.4758 13.5613 98.4758 11.842C98.4758 9.66395 100.481 8.49936 104.855 8.49936V8.3469C104.857 6.97219 104.094 6.30341 102.795 6.30341V6.31238ZM101.84 12.8836C103.807 12.8836 104.857 11.5268 104.857 9.88432C101.706 9.88432 100.483 10.6095 100.483 11.7561C100.483 12.4723 100.998 12.8746 101.84 12.8746V12.8836Z" fill="black"/>
    </g>
    <defs>
        <clipPath id="clip0_585_31">
            <rect width="106.767" height="34" fill="white"/>
        </clipPath>
    </defs>
</svg>
