<svg width="102" height="62" viewBox="0 0 102 62" fill="none" xmlns="http://www.w3.org/2000/svg">
<g opacity="0.9" clip-path="url(#clip0_1892_2621)">
<path d="M26.5958 37.9063C26.5958 36.7318 28.0361 35.278 31.0434 35.278C31.2225 35.278 31.4027 35.278 31.5829 35.2961C31.3492 37.5514 29.6173 39.099 27.928 39.099C27.1178 39.099 26.5958 38.7078 26.5958 37.9063ZM20.7625 25.5674H20.7985L19.8681 34.4765C18.8538 34.1627 17.8188 33.9258 16.7713 33.7677L20.7625 25.5674ZM14.2455 33.5823C12.0135 33.5823 9.67232 34.16 8.46678 35.5392C7.74607 34.1408 7.47635 32.7243 7.47635 31.2525C7.47635 27.2823 9.97917 23.5914 14.7861 21.2434L14.1735 19.9016C8.53885 22.548 6 26.9093 6 31.2525C6 33.302 6.46846 35.278 7.71004 37.1602C7.67355 37.3695 7.65563 37.5818 7.65653 37.7944C7.65653 39.3771 8.61092 40.5154 10.5907 40.5154C12.6654 40.5154 14.4257 39.0458 15.4882 36.1349H13.9398C13.1656 38.0736 11.9054 39.0741 10.5907 39.0741C9.56422 39.0741 9.11432 38.5903 9.11432 37.7888C9.11432 36.4096 10.7348 35.0112 14.2641 35.0112C15.9556 35.0112 18.0085 35.3097 19.7185 35.9054L19.4663 38.3472H20.9066L22.2574 25.2136C22.8874 25.044 24.0176 24.931 24.782 24.931C27.9488 24.931 28.8147 26.0863 28.8147 27.3343C28.8147 28.9938 27.5043 30.1492 24.3496 30.5222L24.8181 26.0298L23.3777 26.0863L22.1132 38.3529H23.5535L24.1836 32.1467C25.2586 31.8469 26.365 31.684 27.4781 31.6617C29.6031 31.6617 31.0434 32.557 31.4748 33.8797C31.3315 33.8646 31.1874 33.8586 31.0434 33.8616C26.9562 33.8616 25.138 36.023 25.138 37.9244C25.138 39.602 26.3392 40.5335 27.9105 40.5335C30.1971 40.5335 32.6628 38.6332 33.0057 35.5199C34.046 35.7726 35.0411 36.1942 35.9541 36.7691C33.4873 40.5527 28.5002 43.0318 22.5227 43.0318C19.5886 43.0318 15.9152 42.3795 13.4855 40.6454L12.7288 41.8946C15.1235 43.6841 18.9585 44.5229 22.5227 44.5229C32.2271 44.5229 39.0684 38.5959 39.0684 31.2706C39.0684 23.5733 31.6331 18.0194 22.5413 18.0194C21.9833 18.0194 21.5869 18.0375 21.0464 18.0748L21.1905 19.5444C21.6273 19.5252 22.0914 19.5071 22.5227 19.5071C30.6427 19.5071 37.592 24.576 37.592 31.2638C37.5964 32.7355 37.2763 34.1888 36.6562 35.5132C35.7378 34.8982 34.4056 34.3398 32.9828 34.0594C32.677 32.2699 31.2542 30.7427 28.5057 30.4419C29.0434 30.134 29.492 29.6832 29.8053 29.1359C30.1185 28.5887 30.2851 27.9648 30.2878 27.3287C30.2878 25.0361 28.7219 23.4851 24.7787 23.4851C23.9885 23.4871 23.1997 23.5555 22.4201 23.6897L22.5828 22.1241L21.1239 21.7148L19.8681 24.3002C17.8338 24.9152 15.8529 25.8093 14.6834 26.4989L15.331 27.7854C16.5138 27.1576 17.7346 26.6097 18.9858 26.1451L15.3495 33.6197C14.9662 33.6004 14.6059 33.5823 14.2455 33.5823ZM19.8812 20.2554C19.8812 18.6344 18.098 17.1806 16.1183 16.7148C15.9197 17.5508 15.8099 18.4068 15.7907 19.2674C15.794 21.5396 16.9285 22.2179 17.9899 22.2179C19.1245 22.2179 19.8812 21.4266 19.8812 20.2554Z" fill="black"/>
<path d="M50.5854 21.5618C49.4453 21.5618 48.7945 22.1519 48.6635 23.0314H47.0364C47.2472 21.043 48.5499 20.0482 50.5854 20.0482C52.7824 20.0482 53.9705 21.1944 53.9705 23.5367V28.6441H52.3434V26.6172C51.9361 27.8483 51.0735 28.8092 49.3951 28.8092C47.8663 28.8092 46.9043 27.9659 46.9043 26.4488C46.9043 24.527 48.6143 23.4994 52.3424 23.4994V23.3649C52.3434 22.1519 51.6926 21.5618 50.5854 21.5618ZM47.1336 34.2003H50.8136C52.6197 34.2003 53.6134 34.9916 53.6134 36.3923C53.6134 37.2684 53.0925 38.0099 52.0508 38.296C53.2389 38.4983 53.9716 39.1393 53.9716 40.2686C53.9716 41.4149 53.2552 42.6279 51.0232 42.6279H47.1336V34.2003ZM49.7707 27.3588C51.448 27.3588 52.3434 26.1617 52.3434 24.7124C49.6572 24.7124 48.6154 25.3522 48.6154 26.364C48.6154 27.005 49.0544 27.3599 49.7707 27.3599V27.3588ZM51.9361 36.6783C51.9361 36.0882 51.578 35.6337 50.735 35.6337H48.729V37.7047H50.7317C51.578 37.7047 51.9361 37.2525 51.9361 36.6794V36.6783ZM48.729 39.0613V41.2024H50.9271C51.9034 41.2024 52.2615 40.7129 52.2615 40.1069C52.2615 39.5666 51.9034 39.0613 50.842 39.0613H48.729ZM55.3715 25.8768H57.0641C57.2595 26.7529 57.8132 27.2921 59.0504 27.2921C60.5158 27.2921 60.8904 26.7529 60.8904 26.1458C60.8904 25.5557 60.4667 25.1182 59.3441 25.1182H57.978V23.6351H59.1017C60.2581 23.6351 60.6305 23.2134 60.6305 22.5894C60.6305 21.9654 60.1249 21.459 59.034 21.459C57.8132 21.459 57.3742 22.0988 57.2279 22.7895H55.5342C55.6969 21.0565 56.9953 19.9442 59.07 19.9442C61.349 19.9442 62.346 21.0396 62.346 22.3181C62.346 23.2281 61.8415 23.9867 60.8969 24.2557C61.955 24.492 62.6059 25.2505 62.6059 26.1944C62.6059 27.5589 61.5641 28.8069 59.0569 28.8069C56.6742 28.8092 55.5342 27.612 55.3715 25.8768ZM55.556 34.2003H57.1831V37.993L60.7484 34.2003H62.703L58.9259 38.2134L63.0121 42.629H60.8172L57.1864 38.6724V42.629H55.5593L55.556 34.2003ZM63.7284 45.9989V44.3981C65.2746 44.3981 65.7147 43.946 66.2683 42.5894L63.0011 34.2003H64.792L67.1507 40.3195L69.5072 34.2003H71.1353L67.8473 42.6787C66.8864 45.1397 66.1373 46 63.7284 46V45.9989ZM64.6184 26.9032C64.0647 26.0102 63.902 24.9645 63.902 23.2632C63.902 18.9821 65.3347 17.1791 68.7537 16.6896C69.7146 16.5562 70.3491 16.4522 70.4626 16H72.0908C71.8953 17.7861 70.6264 18.0054 69.0147 18.2247C66.2465 18.6125 65.5127 19.7588 65.4646 22.4436C66.003 21.1232 67.2599 20.2132 68.7886 20.2132C71.1003 20.2132 72.5166 22.1519 72.5166 24.5089C72.5166 26.9021 70.7913 28.8047 68.2022 28.8047C66.5392 28.8092 65.2539 27.9489 64.6184 26.9044V26.9032ZM70.8055 24.5101C70.8055 22.9093 69.731 21.7291 68.2001 21.7291C66.6866 21.7291 65.6121 22.9093 65.6121 24.5101C65.6121 26.1447 66.6866 27.291 68.2001 27.291C69.731 27.2921 70.8055 26.1458 70.8055 24.5112V24.5101ZM77.9951 39.5135H79.6069C79.2487 41.6873 77.8597 42.7997 75.7653 42.7997C73.2417 42.7997 71.5328 40.8621 71.5328 38.418C71.5328 35.991 73.2417 34.0353 75.7325 34.0353C77.9471 34.0353 79.2978 35.2663 79.6069 37.2378H77.9787C77.6697 36.1594 76.9534 35.5523 75.7325 35.5523C74.2343 35.5523 73.2417 36.6986 73.2417 38.418C73.2417 40.1375 74.2671 41.2826 75.7325 41.2826C76.9206 41.2804 77.7024 40.6914 77.9951 39.5135ZM73.7517 32.0129V30.4099C75.2979 30.4099 75.738 29.9577 76.2916 28.6012L73.0157 20.2076H74.8065L77.1674 26.3256L79.5282 20.2076H81.1564L77.8673 28.686C76.9097 31.1481 76.1617 32.0106 73.7517 32.0106V32.0129ZM84.4749 35.5523C83.336 35.5523 82.6841 36.1424 82.5541 37.0219H80.926C81.1378 35.0335 82.4405 34.0387 84.4749 34.0387C86.673 34.0387 87.86 35.1849 87.86 37.5272V42.6346H86.233V40.6066C85.8268 41.8365 84.963 42.7974 83.2846 42.7974C81.7559 42.7974 80.7938 41.9552 80.7938 40.4382C80.7938 38.5164 82.5028 37.4888 86.2308 37.4888V37.3532C86.233 36.1402 85.5822 35.5501 84.4749 35.5501V35.5523ZM82.1195 20.2132H83.7487V24.0059L87.314 20.2132H89.2676L85.4893 24.2241L89.5755 28.6407H87.3785L83.7487 24.6796V28.6362H82.1195V20.2132ZM83.6614 41.3527C85.3376 41.3527 86.233 40.1556 86.233 38.7063C83.5467 38.7063 82.505 39.3473 82.505 40.3579C82.505 40.9943 82.945 41.3482 83.6614 41.3482V41.3527ZM93.6137 21.5697C92.4736 21.5697 91.8228 22.1598 91.6929 23.0393H90.0647C90.2766 21.0509 91.5782 20.0561 93.6137 20.0561C95.8118 20.0561 96.9988 21.2024 96.9988 23.5447V28.652H95.3717V26.6172C94.9644 27.8483 94.1018 28.8092 92.4234 28.8092C90.8946 28.8092 89.9326 27.9659 89.9326 26.4488C89.9326 24.527 91.6415 23.4994 95.3696 23.4994V23.3649C95.3717 22.1519 94.7209 21.5618 93.6137 21.5618V21.5697ZM92.8001 27.3678C94.4763 27.3678 95.3717 26.1707 95.3717 24.7215C92.6855 24.7215 91.6437 25.3613 91.6437 26.373C91.6437 27.005 92.0827 27.3599 92.8001 27.3599V27.3678Z" fill="black"/>
</g>
<defs>
<clipPath id="clip0_1892_2621">
<rect width="91" height="30" fill="white" transform="translate(6 16)"/>
</clipPath>
</defs>
</svg>
