<svg width="99" height="34" viewBox="0 0 99 34" fill="none" xmlns="http://www.w3.org/2000/svg">
    <g clip-path="url(#clip0_585_38)">
        <path d="M10.4789 14.1099C10.4789 12.1515 12.0816 10.5645 14.0443 10.5645C16.0137 10.5645 17.6097 12.1582 17.6097 14.1099C17.6097 16.0682 16.0069 17.662 14.0443 17.662C12.0748 17.662 10.4789 16.0682 10.4789 14.1099ZM19.8915 14.1099C19.8915 10.9021 17.2633 8.29545 14.0443 8.29545C10.8184 8.29545 8.19703 10.9021 8.19703 14.1099C8.19703 17.3176 10.8184 19.931 14.0443 19.931C17.2701 19.931 19.8915 17.3176 19.8915 14.1099ZM6.06459 23.1792C6.06459 22.8618 5.92875 22.5714 5.71822 22.3554C3.60615 20.2551 2.28865 17.3311 2.28865 14.1099C2.28865 7.66066 7.56543 2.41356 14.0511 2.41356C20.5299 2.41356 25.8067 7.66066 25.8067 14.1099C25.8067 17.3311 24.4892 20.2551 22.3568 22.3756L12.4212 32.2553L14.0375 33.8625L23.9731 23.9828C26.513 21.4572 28.0818 17.9659 28.0818 14.1166C28.0886 6.39788 21.7999 0.144531 14.0443 0.144531C6.28867 0.144531 0 6.39788 0 14.1099C0 17.9591 1.57557 21.4572 4.10191 23.9693C4.31923 24.1854 4.60446 24.307 4.92365 24.307C5.54843 24.307 6.06459 23.8005 6.06459 23.1792ZM21.0868 21.0858C22.8797 19.2962 23.9866 16.8313 23.9866 14.1099C23.9866 8.65336 19.5248 4.21662 14.0443 4.21662C8.56375 4.21662 4.09511 8.65336 4.09511 14.1099C4.09511 16.8313 5.22246 19.3232 7.00177 21.0858C7.2123 21.2951 7.49753 21.4302 7.82351 21.4302C8.45511 21.4302 8.96442 20.9237 8.96442 20.2956C8.96442 19.9715 8.82863 19.6812 8.6113 19.4718C7.23265 18.0941 6.38377 16.1965 6.38377 14.1099C6.38377 9.90944 9.8201 6.48564 14.0443 6.48564C18.2684 6.48564 21.7116 9.9027 21.7116 14.1099C21.7116 16.2101 20.8491 18.1144 19.4637 19.492L9.52813 29.3717L11.1444 30.9722L21.0868 21.0858Z" fill="black"/>
        <path d="M76.5031 17.6621H71.2061V11.375H72.5777V16.4533H75.2738V11.375H76.6593V16.4533H77.6576V18.9587H76.5031V17.6621Z" fill="black"/>
        <path d="M83.1991 14.5138C83.1991 13.3929 82.5196 12.5352 81.5081 12.5352C80.5232 12.5352 79.8374 13.3861 79.8374 14.5138C79.8374 15.6349 80.5232 16.4925 81.5081 16.4925C82.5265 16.4925 83.1991 15.6349 83.1991 14.5138ZM78.377 14.5138C78.377 12.6163 79.7152 11.2656 81.5081 11.2656C83.3213 11.2656 84.6521 12.623 84.6521 14.5138C84.6521 16.4115 83.3213 17.7621 81.5081 17.7621C79.7152 17.7621 78.377 16.4115 78.377 14.5138Z" fill="black"/>
        <path d="M87.1318 16.4523H89.1898V12.5895H87.655C87.628 12.6908 87.6481 12.6233 87.553 13.8456C87.492 14.9666 87.3629 15.831 87.1318 16.432V16.4523ZM85.1826 16.4523H85.6177C85.9912 16.1889 86.1607 15.2097 86.3439 13.2108C86.473 11.6508 86.5001 11.3672 86.5001 11.3672H90.6024V16.4523H91.6139V18.9576H90.4324V17.6543H86.3577V18.9576H85.1964V16.4523H85.1826Z" fill="black"/>
        <path d="M94.3441 16.4523H96.4022V12.5895H94.8674C94.8403 12.6908 94.8605 12.6233 94.7654 13.8456C94.7043 14.9666 94.5752 15.831 94.3441 16.432V16.4523ZM92.3955 16.4523H92.8301C93.2035 16.1889 93.373 15.2097 93.5568 13.2108C93.6854 11.6508 93.713 11.3672 93.713 11.3672H97.8148V16.4523H98.8268V18.9576H97.6448V17.6543H93.5701V18.9576H92.4088V16.4523H92.3955Z" fill="black"/>
        <path d="M47.641 32.2418L49.2573 33.8491L59.1928 23.9693C61.7327 21.4437 63.3015 17.9524 63.3015 14.1031C63.3015 6.39788 57.0195 0.144531 49.2641 0.144531C41.5085 0.144531 35.2266 6.39788 35.2266 14.1031C35.2266 17.9524 36.8021 21.4504 39.3285 23.9625C39.5458 24.1787 39.8243 24.3002 40.1502 24.3002C40.7818 24.3002 41.2912 23.7937 41.2912 23.1657C41.2912 22.8483 41.1553 22.5579 40.9448 22.3418C38.8327 20.2416 37.5152 17.3176 37.5152 14.1031C37.5152 7.66066 42.792 2.41356 49.2708 2.41356C55.7567 2.41356 61.0267 7.66066 61.0267 14.1031C61.0267 17.3243 59.7092 20.2484 57.5768 22.3688L47.641 32.2418Z" fill="black"/>
        <path d="M43.5933 17.1221H41.7461L48.3404 10.6797H50.1944L43.5933 17.1221Z" fill="black"/>
        <path d="M47.1245 17.1221H45.2705L51.8716 10.6797H53.7191L47.1245 17.1221Z" fill="black"/>
        <path d="M50.8326 17.1221H48.9854L55.5795 10.6797H57.4336L50.8326 17.1221Z" fill="black"/>
    </g>
    <defs>
        <clipPath id="clip0_585_38">
            <rect width="98.8125" height="34" fill="white"/>
        </clipPath>
    </defs>
</svg>
