<svg width="102" height="62" viewBox="0 0 102 62" fill="none" xmlns="http://www.w3.org/2000/svg">
<g clip-path="url(#clip0_1892_2628)">
<path d="M13.1806 28.1099C13.1806 26.1515 14.7378 24.5645 16.6445 24.5645C18.5579 24.5645 20.1084 26.1582 20.1084 28.1099C20.1084 30.0682 18.5513 31.662 16.6445 31.662C14.7311 31.662 13.1806 30.0682 13.1806 28.1099ZM22.3254 28.1099C22.3254 24.9021 19.772 22.2955 16.6445 22.2955C13.5105 22.2955 10.9637 24.9021 10.9637 28.1099C10.9637 31.3176 13.5105 33.931 16.6445 33.931C19.7786 33.931 22.3254 31.3176 22.3254 28.1099ZM8.89197 37.1792C8.89197 36.8618 8.76 36.5714 8.55546 36.3553C6.5035 34.2551 5.2235 31.3311 5.2235 28.1099C5.2235 21.6607 10.3501 16.4136 16.6511 16.4136C22.9455 16.4136 28.0722 21.6607 28.0722 28.1099C28.0722 31.3311 26.7922 34.2551 24.7204 36.3756L15.0676 46.2553L16.6379 47.8625L26.2907 37.9828C28.7583 35.4572 30.2825 31.9658 30.2825 28.1166C30.2891 20.3979 24.1794 14.1445 16.6445 14.1445C9.10968 14.1445 3 20.3979 3 28.1099C3 31.9591 4.53072 35.4572 6.98516 37.9693C7.19629 38.1854 7.4734 38.3069 7.7835 38.3069C8.3905 38.3069 8.89197 37.8005 8.89197 37.1792ZM23.4866 35.0858C25.2284 33.2962 26.3039 30.8313 26.3039 28.1099C26.3039 22.6534 21.9691 18.2166 16.6445 18.2166C11.32 18.2166 6.97855 22.6534 6.97855 28.1099C6.97855 30.8313 8.07382 33.3232 9.80248 35.0858C10.007 35.2951 10.2841 35.4302 10.6008 35.4302C11.2145 35.4302 11.7093 34.9237 11.7093 34.2956C11.7093 33.9715 11.5773 33.6811 11.3662 33.4718C10.0268 32.0941 9.20206 30.1965 9.20206 28.1099C9.20206 23.9094 12.5406 20.4856 16.6445 20.4856C20.7484 20.4856 24.0936 23.9027 24.0936 28.1099C24.0936 30.2101 23.2557 32.1144 21.9097 33.492L12.2569 43.3717L13.8272 44.9722L23.4866 35.0858Z" fill="black"/>
<path d="M77.3255 31.6621H72.1792V25.375H73.5118V30.4533H76.1312V25.375H77.4773V30.4533H78.4471V32.9587H77.3255V31.6621Z" fill="black"/>
<path d="M83.8314 28.5138C83.8314 27.3929 83.1713 26.5352 82.1886 26.5352C81.2316 26.5352 80.5653 27.3861 80.5653 28.5138C80.5653 29.6349 81.2316 30.4925 82.1886 30.4925C83.178 30.4925 83.8314 29.6349 83.8314 28.5138ZM79.1465 28.5138C79.1465 26.6163 80.4466 25.2656 82.1886 25.2656C83.9501 25.2656 85.243 26.623 85.243 28.5138C85.243 30.4115 83.9501 31.7621 82.1886 31.7621C80.4466 31.7621 79.1465 30.4115 79.1465 28.5138Z" fill="black"/>
<path d="M87.6515 30.4523H89.651V26.5895H88.1599C88.1335 26.6908 88.1532 26.6233 88.0608 27.8456C88.0014 28.9666 87.876 29.831 87.6515 30.432V30.4523ZM85.7578 30.4523H86.1805C86.5434 30.1889 86.708 29.2097 86.8861 27.2108C87.0115 25.6508 87.0378 25.3672 87.0378 25.3672H91.0234V30.4523H92.0061V32.9576H90.8582V31.6543H86.8995V32.9576H85.7712V30.4523H85.7578Z" fill="black"/>
<path d="M94.6583 30.4523H96.6578V26.5895H95.1667C95.1404 26.6908 95.16 26.6233 95.0676 27.8456C95.0082 28.9666 94.8828 29.831 94.6583 30.432V30.4523ZM92.7651 30.4523H93.1873C93.5502 30.1889 93.7148 29.2097 93.8934 27.2108C94.0183 25.6508 94.0451 25.3672 94.0451 25.3672H98.0302V30.4523H99.0134V32.9576H97.865V31.6543H93.9063V32.9576H92.778V30.4523H92.7651Z" fill="black"/>
<path d="M49.2847 46.2418L50.855 47.849L60.5078 37.9693C62.9754 35.4437 64.4995 31.9524 64.4995 28.1031C64.4995 20.3979 58.3963 14.1445 50.8616 14.1445C43.3268 14.1445 37.2236 20.3979 37.2236 28.1031C37.2236 31.9524 38.7544 35.4504 41.2088 37.9625C41.42 38.1787 41.6905 38.3002 42.0072 38.3002C42.6208 38.3002 43.1156 37.7937 43.1156 37.1657C43.1156 36.8483 42.9836 36.5579 42.7791 36.3418C40.7272 34.2416 39.4472 31.3176 39.4472 28.1031C39.4472 21.6607 44.5738 16.4136 50.8682 16.4136C57.1694 16.4136 62.2894 21.6607 62.2894 28.1031C62.2894 31.3243 61.0094 34.2484 58.9377 36.3688L49.2847 46.2418Z" fill="black"/>
<path d="M45.3522 31.1221H43.5576L49.9642 24.6797H51.7655L45.3522 31.1221Z" fill="black"/>
<path d="M48.7832 31.1221H46.9819L53.3951 24.6797H55.19L48.7832 31.1221Z" fill="black"/>
<path d="M52.3859 31.1221H50.5913L56.9978 24.6797H58.7991L52.3859 31.1221Z" fill="black"/>
</g>
<defs>
<clipPath id="clip0_1892_2628">
<rect width="96" height="34" fill="white" transform="translate(3 14)"/>
</clipPath>
</defs>
</svg>
