<svg width="102" height="62" viewBox="0 0 102 62" fill="none" xmlns="http://www.w3.org/2000/svg">
<path d="M9.92232 31.2676V42.444H5.36816V31.2676H3V27.3882H5.36816V26.0027C5.36816 22.5851 7.46307 20.1836 11.0153 20.1836C11.9261 20.1836 12.7459 20.276 13.2013 20.5531V24.3401C12.9281 24.2477 12.5637 24.1554 11.8351 24.1554C11.0153 24.1554 9.92232 24.5248 9.92232 26.1874V27.2958H13.1102V31.1753H9.92232V31.2676Z" fill="black"/>
<path d="M23.6758 31.9138C23.1293 31.8215 22.6739 31.7291 22.2184 31.7291C20.3968 31.7291 18.7573 32.8375 18.7573 35.7933V42.3513H14.2031V27.3879H18.5751V29.4199C19.3949 27.7573 21.2165 27.2031 22.4006 27.2031C22.856 27.2031 23.3114 27.2955 23.5847 27.3879V31.9138H23.6758Z" fill="black"/>
<path fill-rule="evenodd" clip-rule="evenodd" d="M29.7762 22.6786C29.7762 21.2008 28.5011 20 27.0438 20C25.5864 20 24.4023 21.2931 24.4023 22.6786C24.4023 24.1565 25.5864 25.3573 27.0438 25.3573C28.5922 25.3573 29.7762 24.1565 29.7762 22.6786ZM24.7676 27.3893V42.4452H29.3217V27.3893H24.7676Z" fill="black"/>
<path fill-rule="evenodd" clip-rule="evenodd" d="M36.243 22.6786C36.243 21.2008 34.9679 20 33.5106 20C32.0532 20 30.8691 21.2931 30.8691 22.6786C30.8691 24.1565 32.0532 25.3573 33.5106 25.3573C35.059 25.3573 36.243 24.1565 36.243 22.6786ZM31.2344 27.3893V42.4452H35.7885V27.3893H31.2344Z" fill="black"/>
<path fill-rule="evenodd" clip-rule="evenodd" d="M45.1737 42.9053C48.9081 42.9053 51.2763 40.6885 52.0049 38.1022L48.2705 36.9938C47.8151 38.1022 46.9043 38.9335 45.2648 38.9335C43.5342 38.9335 41.9858 37.7327 41.8947 36.0701H52.1871C52.1871 36.0448 52.194 35.9777 52.2039 35.8805C52.2302 35.623 52.2782 35.1538 52.2782 34.6846C52.2782 29.7892 49.4546 26.9258 44.8094 26.9258C40.9839 26.9258 37.4316 30.0663 37.4316 34.8693C37.4316 39.9495 41.075 42.9053 45.1737 42.9053ZM44.8111 30.5289C46.9971 30.5289 47.7258 32.0068 47.8169 33.1152H41.8965C41.9876 31.9144 42.8984 30.5289 44.8111 30.5289Z" fill="black"/>
<path d="M58.4702 42.4448H53.916V27.389H58.288V29.144C59.1078 27.7585 60.9294 27.0195 62.4778 27.0195C66.2122 27.0195 67.8517 29.6982 67.8517 33.0234V42.4448H63.2976V33.7623C63.2976 32.2844 62.4778 31.176 60.8383 31.176C59.381 31.176 58.3791 32.2844 58.3791 33.8547V42.4448H58.4702Z" fill="black"/>
<path fill-rule="evenodd" clip-rule="evenodd" d="M85.2281 41.8942C85.2013 41.4116 85.1578 40.6306 85.1578 39.6733H85.0667V20.4609H80.6036V28.4045C80.2393 27.7579 79.1463 26.8343 76.596 26.8343C72.4061 26.8343 69.4004 30.1595 69.4004 34.6854C69.4004 39.3962 72.5883 42.629 76.7781 42.629C78.5998 42.629 80.0571 41.8901 80.7858 40.874C80.7858 41.2954 80.8245 41.7167 80.8514 42.0103C80.8658 42.1672 80.8769 42.2876 80.8769 42.3519H85.2488C85.2488 42.2663 85.2402 42.1101 85.2281 41.8942ZM80.7831 34.87C80.7831 37.3639 79.1436 38.6571 77.413 38.6571C75.6825 38.6571 74.043 37.3639 74.043 34.87C74.043 32.3761 75.6825 31.1754 77.413 31.1754C79.2347 31.1754 80.7831 32.3761 80.7831 34.87Z" fill="black"/>
<path d="M90.6204 37.457C90.7115 38.473 91.4402 39.4891 92.9886 39.4891C94.1727 39.4891 94.7192 38.8425 94.7192 38.1959C94.7192 37.6417 94.3548 37.1799 93.2618 36.9952L91.5312 36.6257C88.3433 35.8868 87.0682 34.1318 87.0682 32.0073C87.0682 29.2363 89.4363 27.0195 92.8064 27.0195C97.0873 27.0195 98.6357 29.7905 98.7268 31.5455L94.9924 32.2844C94.9013 31.2684 94.2637 30.4371 92.8975 30.4371C91.9867 30.4371 91.258 30.9913 91.258 31.7302C91.258 32.3768 91.8045 32.7463 92.4421 32.8386L94.4459 33.2081C97.5427 33.8547 99.0001 35.702 99.0001 37.9188C99.0001 40.5051 97.0873 42.999 93.0797 42.999C88.4344 42.999 86.886 39.9509 86.7949 38.2883L90.6204 37.457Z" fill="black"/>
</svg>
