<svg width="120" height="30" viewBox="0 0 120 30" fill="none" xmlns="http://www.w3.org/2000/svg">
    <path d="M9.28346 14.768V28.7296H3.62308V14.768H0.679688V9.92188H3.62308V8.19111C3.62308 3.92188 6.22686 0.921875 10.642 0.921875C11.774 0.921875 12.7929 1.03726 13.3589 1.38341V6.11418C13.0193 5.9988 12.5665 5.88341 11.6608 5.88341C10.642 5.88341 9.28346 6.34495 9.28346 8.42188V9.80649H13.2457V14.6526H9.28346V14.768Z" fill="black"/>
    <path d="M26.3781 15.576C25.6988 15.4606 25.1328 15.3453 24.5668 15.3453C22.3026 15.3453 20.2649 16.7299 20.2649 20.4222V28.6145H14.6045V9.92218H20.0385V12.4606C21.0573 10.3837 23.3215 9.69141 24.7932 9.69141C25.3592 9.69141 25.9252 9.80679 26.2649 9.92218V15.576H26.3781Z" fill="black"/>
    <path fill-rule="evenodd" clip-rule="evenodd" d="M33.9624 4.03756C33.9624 2.19141 32.3775 0.691406 30.5662 0.691406C28.7549 0.691406 27.2832 2.30679 27.2832 4.03756C27.2832 5.88371 28.7549 7.38371 30.5662 7.38371C32.4908 7.38371 33.9624 5.88371 33.9624 4.03756ZM27.7361 9.92218V28.7299H33.3965V9.92218H27.7361Z" fill="black"/>
    <path fill-rule="evenodd" clip-rule="evenodd" d="M42.0005 4.03756C42.0005 2.19141 40.4156 0.691406 38.6043 0.691406C36.793 0.691406 35.3213 2.30679 35.3213 4.03756C35.3213 5.88371 36.793 7.38371 38.6043 7.38371C40.5288 7.38371 42.0005 5.88371 42.0005 4.03756ZM35.774 9.92218V28.7299H41.4344V9.92218H35.774Z" fill="black"/>
    <path fill-rule="evenodd" clip-rule="evenodd" d="M53.0943 29.3053C57.7358 29.3053 60.6792 26.5361 61.5849 23.3053L56.9434 21.9207C56.3773 23.3053 55.2453 24.3438 53.2075 24.3438C51.0566 24.3438 49.1321 22.8438 49.0188 20.7668H61.8113C61.8113 20.7352 61.8198 20.6514 61.8322 20.5299C61.8649 20.2084 61.9245 19.6222 61.9245 19.0361C61.9245 12.9207 58.4151 9.34375 52.6415 9.34375C47.8868 9.34375 43.4717 13.2668 43.4717 19.2668C43.4717 25.613 48 29.3053 53.0943 29.3053ZM52.6416 13.8438C55.3585 13.8438 56.2642 15.6899 56.3774 17.0745H49.0189C49.1321 15.5745 50.2642 13.8438 52.6416 13.8438Z" fill="black"/>
    <path d="M69.6233 28.7302H63.9629V9.92248H69.3969V12.1148C70.4157 10.384 72.6799 9.46094 74.6044 9.46094C79.2459 9.46094 81.2836 12.8071 81.2836 16.9609V28.7302H75.6233V17.884C75.6233 16.0379 74.6044 14.6532 72.5667 14.6532C70.7553 14.6532 69.5101 16.0379 69.5101 17.9994V28.7302H69.6233Z" fill="black"/>
    <path fill-rule="evenodd" clip-rule="evenodd" d="M102.88 28.044C102.847 27.441 102.793 26.4655 102.793 25.2695H102.68V1.26953H97.1325V11.1926C96.6797 10.3849 95.3212 9.23107 92.1514 9.23107C86.9439 9.23107 83.208 13.3849 83.208 19.0388C83.208 24.9234 87.1703 28.9618 92.3778 28.9618C94.642 28.9618 96.4533 28.0388 97.359 26.7695C97.359 27.2959 97.407 27.8222 97.4405 28.1889C97.4584 28.3849 97.4722 28.5353 97.4722 28.6157H102.906C102.906 28.5087 102.895 28.3136 102.88 28.044ZM97.3589 19.2696C97.3589 22.3849 95.3212 24.0003 93.1702 24.0003C91.0193 24.0003 88.9816 22.3849 88.9816 19.2696C88.9816 16.1542 91.0193 14.6542 93.1702 14.6542C95.4344 14.6542 97.3589 16.1542 97.3589 19.2696Z" fill="black"/>
    <path d="M109.586 22.4994C109.699 23.7686 110.605 25.0379 112.529 25.0379C114.001 25.0379 114.68 24.2302 114.68 23.4225C114.68 22.7302 114.227 22.1532 112.869 21.9225L110.718 21.4609C106.756 20.5379 105.171 18.3456 105.171 15.6917C105.171 12.2302 108.114 9.46094 112.303 9.46094C117.624 9.46094 119.548 12.9225 119.661 15.1148L115.02 16.0379C114.907 14.7686 114.114 13.7302 112.416 13.7302C111.284 13.7302 110.378 14.4225 110.378 15.3456C110.378 16.1532 111.057 16.6148 111.85 16.7302L114.34 17.1917C118.19 17.9994 120.001 20.3071 120.001 23.0763C120.001 26.3071 117.624 29.4225 112.642 29.4225C106.869 29.4225 104.944 25.6148 104.831 23.5379L109.586 22.4994Z" fill="black"/>
</svg>
