<svg width="120" height="23" viewBox="0 0 120 23" fill="none" xmlns="http://www.w3.org/2000/svg">
    <path d="M0 3.4419C0 3.05348 0.22492 2.7002 0.576851 2.53584L4.25733 0.816983C4.92033 0.507346 5.68048 0.991298 5.68048 1.72304V21.3966C5.68048 22.1283 4.92033 22.6123 4.25733 22.3026L0.576852 20.5838C0.22492 20.4194 0 20.0661 0 19.6777V3.4419Z" fill="#171717"/>
    <path d="M22.7217 9.74952C22.7217 9.35461 22.9541 8.99669 23.3148 8.83602L26.9953 7.19687C27.6567 6.90232 28.4022 7.38638 28.4022 8.11037V21.4285C28.4022 22.1525 27.6567 22.6365 26.9953 22.342L23.3148 20.7028C22.9541 20.5422 22.7217 20.1842 22.7217 19.7893V9.74952Z" fill="#171717"/>
    <path d="M11.441 7.28688C11.63 7.04202 11.9213 6.89871 12.2299 6.89871L17.2046 6.89871C18.0602 6.89871 18.5192 7.90853 17.9585 8.55719L8.46371 19.5408C7.85836 20.2411 6.71171 19.8114 6.71171 18.8842L6.71171 13.7551C6.71171 13.5329 6.78529 13.317 6.92089 13.1414L11.441 7.28688Z" fill="#171717"/>
    <path d="M15.9031 0.565744C16.0912 0.30608 16.3924 0.152344 16.713 0.152344H35.2421C36.0004 0.152344 36.4828 0.963357 36.1208 1.62969L34.1089 5.33342C33.9339 5.65552 33.5967 5.85607 33.2301 5.85607H14.0303C13.214 5.85607 12.7416 4.93065 13.2205 4.26947L15.9031 0.565744Z" fill="#171717"/>
    <path d="M39.7656 11.8525C39.7656 10.6424 39.9882 9.45103 40.4333 8.27822C40.8969 7.10541 41.5646 6.05361 42.4363 5.12281C43.308 4.19201 44.3651 3.43806 45.6077 2.86097C46.8503 2.28387 48.2691 1.99533 49.8641 1.99533C51.7743 1.99533 53.4249 2.39557 54.8159 3.19606C58.2251 5.49959 58.6696 7.80384 58.6696 9.28348H53.8144C53.629 8.79947 53.3786 8.39922 53.0633 8.08275C52.7666 7.76628 52.4327 7.51496 52.0618 7.3288C51.6909 7.14264 51.3014 7.01233 50.8934 6.93787C50.5039 6.86341 50.1237 6.82617 49.7528 6.82617C48.9738 6.82617 48.2969 6.98441 47.722 7.30088C47.1656 7.59874 46.7019 7.99898 46.331 8.50161C45.9786 8.98563 45.7097 9.54411 45.5242 10.177C45.3573 10.7914 45.2739 11.4057 45.2739 12.02C45.2739 12.7088 45.3759 13.3697 45.5799 14.0026C45.7839 14.6356 46.0806 15.1941 46.4701 15.6781C46.8596 16.1621 47.3325 16.553 47.8889 16.8509C48.4638 17.1301 49.1037 17.2697 49.8084 17.2697C50.1793 17.2697 50.5595 17.2325 50.949 17.158C51.3385 17.065 51.7094 16.9253 52.0618 16.7392C52.4327 16.5344 52.7573 16.2831 53.0355 15.9852C53.3322 15.6688 53.564 15.2871 53.731 14.8404H58.8643C58.8643 15.6781 58.7013 17.5298 56.7911 19.4478C56.1976 20.0249 55.5114 20.5089 54.7325 20.8999C53.9721 21.2908 53.1467 21.5886 52.2565 21.7934C51.3849 21.9982 50.5317 22.1006 49.6971 22.1006C48.232 22.1006 46.8874 21.812 45.6633 21.2349C44.4578 20.6392 43.41 19.8574 42.5197 18.8893C41.6481 17.9213 40.9711 16.823 40.4889 15.5943C40.0067 14.3656 39.7656 13.1184 39.7656 11.8525Z" fill="#171717"/>
    <path d="M69.3985 22.1006C67.8962 22.1006 66.5331 21.812 65.309 21.2349C64.085 20.6578 63.0371 19.9039 62.1655 18.9731C61.2938 18.0237 60.6168 16.944 60.1346 15.7339C59.6524 14.5239 59.4113 13.2766 59.4113 11.9921C59.4113 10.689 59.6617 9.43241 60.1625 8.22237C60.6632 7.01233 61.3587 5.95122 62.2489 5.03904C63.1577 4.10824 64.2241 3.37291 65.4481 2.83305C66.6907 2.27457 68.0446 1.99533 69.5098 1.99533C71.012 1.99533 72.3752 2.28387 73.5992 2.86097C74.8233 3.43806 75.8711 4.20132 76.7428 5.15074C77.6145 6.10015 78.2822 7.17988 78.7458 8.38992C79.228 9.59995 79.4691 10.8379 79.4691 12.1038C79.4691 13.4069 79.2187 14.6635 78.718 15.8735C78.2172 17.065 77.5218 18.1261 76.6315 19.0569C75.7413 19.9691 74.6749 20.7044 73.4323 21.2629C72.2083 21.8213 70.8637 22.1006 69.3985 22.1006ZM64.9196 12.048C64.9196 12.7181 65.0123 13.3697 65.1978 14.0026C65.3832 14.617 65.6614 15.1661 66.0324 15.6501C66.4033 16.1342 66.8669 16.5251 67.4233 16.823C67.9983 17.1208 68.6752 17.2697 69.4541 17.2697C70.2331 17.2697 70.91 17.1208 71.4849 16.823C72.0599 16.5065 72.5235 16.1062 72.8759 15.6222C73.2468 15.1196 73.5158 14.5518 73.6827 13.9189C73.8681 13.2859 73.9609 12.6437 73.9609 11.9921C73.9609 11.3219 73.8681 10.6797 73.6827 10.0654C73.4972 9.43241 73.2098 8.88324 72.8203 8.41784C72.4494 7.93382 71.9764 7.5522 71.4015 7.27296C70.8451 6.9751 70.1867 6.82617 69.4263 6.82617C68.6474 6.82617 67.9704 6.9751 67.3955 7.27296C66.8391 7.57081 66.3755 7.97106 66.0045 8.47369C65.6336 8.9577 65.3554 9.51618 65.17 10.1491C65.003 10.7635 64.9196 11.3964 64.9196 12.048Z" fill="#171717"/>
    <path d="M89.0292 20.481C87.5455 20.2948 86.2658 19.9504 85.1901 19.4478C84.133 18.9452 83.252 18.3122 82.5473 17.549C81.8611 16.7857 81.351 15.9108 81.0172 14.9241C80.6834 13.9375 80.5165 12.8671 80.5165 11.7129C80.5165 10.6145 80.6741 9.58134 80.9894 8.61331C81.3047 7.62666 81.7962 6.75171 82.4638 5.98845C83.15 5.20658 84.031 4.55502 85.1067 4.03378C86.1824 3.49391 87.4899 3.12159 89.0292 2.91682V0.152344H94.148V2.91682C95.6688 3.12159 96.967 3.49391 98.0427 4.03378C99.1184 4.55502 99.9993 5.20658 100.686 5.98845C101.372 6.75171 101.872 7.62666 102.188 8.61331C102.503 9.58134 102.661 10.6145 102.661 11.7129C102.661 12.8671 102.494 13.9375 102.16 14.9241C101.826 15.8922 101.307 16.7578 100.602 17.5211C99.9159 18.2657 99.0349 18.8986 97.9592 19.4199C96.8835 19.9225 95.6131 20.2669 94.148 20.4531V22.7708H89.0292V20.481ZM94.148 15.4547C95.3906 15.1941 96.253 14.738 96.7352 14.0864C97.2174 13.4348 97.4585 12.6344 97.4585 11.6849C97.4585 10.6797 97.2081 9.86989 96.7073 9.25556C96.2251 8.64123 95.372 8.20376 94.148 7.94313V15.4547ZM89.0292 7.94313C87.8051 8.20376 86.9427 8.64123 86.442 9.25556C85.9412 9.86989 85.6909 10.6797 85.6909 11.6849C85.6909 12.6344 85.932 13.4348 86.4142 14.0864C86.9149 14.738 87.7866 15.1941 89.0292 15.4547V7.94313Z" fill="#171717"/>
    <path d="M120 6.8541H114.325V21.933H108.9V6.8541H103.197V2.10702H120V6.8541Z" fill="#171717"/>
</svg>
