<svg width="102" height="62" viewBox="0 0 102 62" fill="none" xmlns="http://www.w3.org/2000/svg">
<path d="M3.41992 24.8001C3.41992 24.4114 3.64513 24.058 3.99741 23.8938L6.63735 22.6631C7.3003 22.3541 8.05986 22.838 8.05986 23.5695V39.0321C8.05986 39.7635 7.3003 40.2475 6.63735 39.9384L3.99741 38.7078C3.64513 38.5436 3.41992 38.1901 3.41992 37.8014V24.8001Z" fill="#171717"/>
<path d="M21.9795 29.943C21.9795 29.5478 22.2122 29.1897 22.5733 29.0292L25.2132 27.8556C25.8745 27.5616 26.6194 28.0457 26.6194 28.7694V39.0614C26.6194 39.7851 25.8745 40.2692 25.2132 39.9752L22.5733 38.8016C22.2122 38.6411 21.9795 38.283 21.9795 37.8878V29.943Z" fill="#171717"/>
<path d="M12.7108 27.8859C12.9001 27.6413 13.1916 27.4981 13.5005 27.4981L17.0711 27.4981C17.9275 27.4981 18.387 28.507 17.8257 29.1551L10.6566 37.4331C10.0507 38.1327 8.90302 37.7034 8.90302 36.7771L8.90302 33.1513C8.90302 32.9293 8.97668 32.7136 9.1124 32.5381L12.7108 27.8859Z" fill="#171717"/>
<path d="M16.3558 22.4127C16.5439 22.1534 16.8448 22 17.1652 22H31.8978C32.6564 22 33.1388 22.8117 32.7761 23.478L31.3337 26.1284C31.1586 26.4501 30.8216 26.6504 30.4554 26.6504H15.2419C14.4251 26.6504 13.9529 25.7242 14.4326 25.0631L16.3558 22.4127Z" fill="#171717"/>
<path d="M35.9019 31.5394C35.9019 30.5528 36.0836 29.5814 36.4472 28.6252C36.8259 27.669 37.3713 26.8114 38.0833 26.0525C38.7953 25.2936 39.6588 24.6789 40.6738 24.2084C41.6888 23.7379 42.8477 23.5026 44.1505 23.5026C45.7108 23.5026 47.0591 23.829 48.1953 24.4816C50.98 26.3597 51.343 28.2384 51.343 29.4448H47.3772C47.2257 29.0502 47.0212 28.7239 46.7637 28.4659C46.5213 28.2078 46.2486 28.0029 45.9456 27.8511C45.6427 27.6994 45.3245 27.5931 44.9913 27.5324C44.6731 27.4717 44.3626 27.4413 44.0596 27.4413C43.4233 27.4413 42.8704 27.5703 42.4008 27.8284C41.9463 28.0712 41.5676 28.3975 41.2646 28.8074C40.9768 29.202 40.7571 29.6573 40.6056 30.1734C40.4693 30.6743 40.4011 31.1751 40.4011 31.676C40.4011 32.2376 40.4844 32.7764 40.6511 33.2925C40.8177 33.8085 41.0601 34.2639 41.3782 34.6585C41.6963 35.0531 42.0826 35.3719 42.5371 35.6147C43.0067 35.8424 43.5294 35.9562 44.105 35.9562C44.408 35.9562 44.7186 35.9259 45.0367 35.8652C45.3548 35.7893 45.6578 35.6754 45.9456 35.5236C46.2486 35.3567 46.5137 35.1518 46.741 34.9089C46.9833 34.6509 47.1727 34.3398 47.3091 33.9755H51.5021C51.5021 34.6585 51.3689 36.1683 49.8086 37.7321C49.3239 38.2026 48.7634 38.5972 48.1271 38.9159C47.506 39.2347 46.8319 39.4775 46.1047 39.6445C45.3927 39.8114 44.6958 39.8949 44.0141 39.8949C42.8174 39.8949 41.7191 39.6597 40.7192 39.1891C39.7346 38.7034 38.8786 38.066 38.1515 37.2767C37.4395 36.4875 36.8865 35.5919 36.4927 34.5902C36.0988 33.5884 35.9019 32.5715 35.9019 31.5394Z" fill="#171717"/>
<path d="M60.1067 39.8949C58.8796 39.8949 57.7661 39.6597 56.7663 39.1891C55.7665 38.7186 54.9105 38.1039 54.1985 37.345C53.4865 36.5709 52.9336 35.6906 52.5397 34.704C52.1459 33.7175 51.9489 32.7005 51.9489 31.6532C51.9489 30.5908 52.1534 29.5663 52.5625 28.5797C52.9715 27.5931 53.5396 26.728 54.2667 25.9842C55.009 25.2253 55.8801 24.6258 56.8799 24.1856C57.8949 23.7303 59.0008 23.5026 60.1975 23.5026C61.4246 23.5026 62.5381 23.7379 63.5379 24.2084C64.5377 24.6789 65.3937 25.3012 66.1057 26.0753C66.8177 26.8494 67.363 27.7297 67.7417 28.7163C68.1356 29.7029 68.3326 30.7122 68.3326 31.7443C68.3326 32.8068 68.128 33.8313 67.719 34.8179C67.31 35.7893 66.7419 36.6544 66.0148 37.4133C65.2876 38.157 64.4165 38.7566 63.4016 39.2119C62.4017 39.6673 61.3034 39.8949 60.1067 39.8949ZM56.4482 31.6988C56.4482 32.2452 56.5239 32.7764 56.6754 33.2925C56.8269 33.7933 57.0541 34.2411 57.3571 34.6357C57.6601 35.0304 58.0388 35.3491 58.4933 35.5919C58.9629 35.8348 59.5158 35.9562 60.1521 35.9562C60.7884 35.9562 61.3413 35.8348 61.8109 35.5919C62.2805 35.3339 62.6593 35.0076 62.9471 34.613C63.2501 34.2032 63.4697 33.7402 63.6061 33.2242C63.7576 32.7081 63.8333 32.1845 63.8333 31.6532C63.8333 31.1068 63.7576 30.5832 63.6061 30.0823C63.4546 29.5663 63.2198 29.1185 62.9016 28.7391C62.5987 28.3444 62.2124 28.0333 61.7427 27.8056C61.2883 27.5628 60.7505 27.4413 60.1294 27.4413C59.4931 27.4413 58.9402 27.5628 58.4706 27.8056C58.0161 28.0485 57.6374 28.3748 57.3344 28.7846C57.0314 29.1792 56.8042 29.6346 56.6527 30.1506C56.5163 30.6515 56.4482 31.1675 56.4482 31.6988Z" fill="#171717"/>
<path d="M76.1414 38.5744C74.9295 38.4227 73.8843 38.1419 73.0056 37.7321C72.1421 37.3222 71.4225 36.8062 70.8469 36.1839C70.2864 35.5616 69.8698 34.8482 69.5971 34.0438C69.3244 33.2393 69.1881 32.3666 69.1881 31.4256C69.1881 30.5301 69.3168 29.6877 69.5744 28.8984C69.8319 28.094 70.2333 27.3806 70.7787 26.7583C71.3392 26.1208 72.0588 25.5896 72.9374 25.1646C73.8161 24.7245 74.8841 24.4209 76.1414 24.2539V22H80.3226V24.2539C81.5648 24.4209 82.6252 24.7245 83.5039 25.1646C84.3825 25.5896 85.1021 26.1208 85.6626 26.7583C86.2231 27.3806 86.6321 28.094 86.8897 28.8984C87.1472 29.6877 87.276 30.5301 87.276 31.4256C87.276 32.3666 87.1396 33.2393 86.8669 34.0438C86.5943 34.833 86.1701 35.5388 85.5944 36.1611C85.0339 36.7682 84.3143 37.2843 83.4357 37.7093C82.5571 38.1191 81.5193 38.3999 80.3226 38.5517V40.4413H76.1414V38.5744ZM80.3226 34.4764C81.3376 34.2639 82.042 33.892 82.4359 33.3608C82.8297 32.8295 83.0267 32.1769 83.0267 31.4028C83.0267 30.5832 82.8222 29.9229 82.4131 29.4221C82.0193 28.9212 81.3224 28.5645 80.3226 28.352V34.4764ZM76.1414 28.352C75.1416 28.5645 74.4372 28.9212 74.0282 29.4221C73.6191 29.9229 73.4146 30.5832 73.4146 31.4028C73.4146 32.1769 73.6116 32.8295 74.0054 33.3608C74.4145 33.892 75.1265 34.2639 76.1414 34.4764V28.352Z" fill="#171717"/>
<path d="M101.439 27.4641H96.8037V39.7583H92.3726V27.4641H87.7143V23.5937H101.439V27.4641Z" fill="#171717"/>
</svg>
