<svg width="118" height="34" viewBox="0 0 118 34" fill="none" xmlns="http://www.w3.org/2000/svg">
    <g clip-path="url(#clip0_585_70)">
        <path d="M112.232 29.6076C114.541 29.6076 116.177 29.1906 117.396 28.2925V24.2189C116.145 25.0849 114.637 25.6302 112.52 25.6302C108.96 25.6302 107.485 22.8717 107.485 18.5095C107.485 13.9227 109.281 11.5812 112.553 11.5812C114.477 11.5812 116.37 12.2548 117.364 12.8963V8.66231C116.305 8.08495 114.477 7.66797 111.975 7.66797C105.592 7.66797 102.288 12.2548 102.288 18.6699C102.32 25.6944 105.56 29.6076 112.232 29.6076ZM81.0224 27.7472V23.6736C79.4827 24.7321 76.8526 25.6623 74.4469 25.6623C70.7903 25.6623 69.411 23.9302 69.1865 20.4019H81.2469V17.7717C81.2469 10.4265 78.0073 7.66797 73.0356 7.66797C66.9412 7.66797 64.0544 12.3189 64.0544 18.7019C64.0544 26.0472 67.679 29.6076 74.0299 29.6076C77.2054 29.6076 79.5469 28.7416 81.0224 27.7472ZM35.2507 8.05287V16.3925H28.579V8.05287H23.5752V29.1906H28.579V20.3699H35.2507V29.1906H40.2544V8.05287H35.2507ZM62.8035 25.2132H60.5903V8.05287H46.028V9.8491C46.028 15.0133 45.7073 21.6849 43.9431 25.2132H42.3393V34.0019H46.9582V29.1906H58.1526V34.0019H62.7714V25.2132H62.8035ZM96.9639 29.1906H102.641L94.6224 17.8038L101.679 8.05287H96.6431L89.5865 17.8038V8.05287H84.5827V29.1906H89.5865V18.7982L96.9639 29.1906ZM72.9073 11.5812C75.3771 11.5812 76.1469 13.634 76.1469 16.2963V16.7133H69.1865C69.3148 13.3453 70.5337 11.5812 72.9073 11.5812ZM55.5865 25.2132H48.5299C49.9092 22.0378 50.2941 16.2642 50.2941 12.6076V11.9661H55.5865V25.2132Z" fill="black"/>
        <path d="M19.4057 29.1887H14.3057V3.94528H12.0283C7.85849 3.94528 5.67736 6.03019 5.67736 9.14151C5.67736 12.6698 7.18491 14.3057 10.2962 16.3906L12.8623 18.1226L5.48491 29.1887H0L6.63962 19.3094C2.82264 16.583 0.673585 13.9208 0.673585 9.43019C0.673585 3.81698 4.58679 0 11.9962 0H19.3736V29.1887H19.4057Z" fill="black"/>
    </g>
    <defs>
        <clipPath id="clip0_585_70">
            <rect width="117.717" height="34" fill="white"/>
        </clipPath>
    </defs>
</svg>
