<svg width="102" height="62" viewBox="0 0 102 62" fill="none" xmlns="http://www.w3.org/2000/svg">
<g clip-path="url(#clip0_1892_2663)">
<path d="M94.5269 41.2523C96.4103 41.2523 97.7443 40.8966 98.7383 40.1306V36.656C97.7182 37.3947 96.4888 37.8598 94.7623 37.8598C91.8588 37.8598 90.6555 35.507 90.6555 31.7862C90.6555 27.874 92.1204 25.8768 94.7885 25.8768C96.358 25.8768 97.9013 26.4513 98.7122 26.9985V23.3872C97.849 22.8947 96.358 22.5391 94.3176 22.5391C89.1122 22.5391 86.4179 26.4513 86.4179 31.923C86.4441 37.9145 89.086 41.2523 94.5269 41.2523ZM69.0751 39.6655V36.1909C67.8195 37.0938 65.6746 37.8872 63.7127 37.8872C60.7307 37.8872 59.6059 36.4098 59.4228 33.4004H69.2582V31.157C69.2582 24.8919 66.6163 22.5391 62.5618 22.5391C57.5917 22.5391 55.2375 26.506 55.2375 31.9504C55.2375 38.2155 58.1934 41.2523 63.3727 41.2523C65.9623 41.2523 67.8719 40.5136 69.0751 39.6655ZM31.7476 22.8674V29.9806H26.3067V22.8674H22.2261V40.8966H26.3067V33.373H31.7476V40.8966H35.8283V22.8674H31.7476ZM54.2174 37.5042H52.4125V22.8674H40.5367V24.3994C40.5367 28.8042 40.2751 34.4947 38.8364 37.5042H37.5285V45.0004H41.2953V40.8966H50.4244V45.0004H54.1912V37.5042H54.2174ZM82.0757 40.8966H86.7057L80.1661 31.1843L85.9209 22.8674H81.8141L76.0593 31.1843V22.8674H71.9787V40.8966H76.0593V32.0325L82.0757 40.8966ZM62.4571 25.8768C64.4713 25.8768 65.0991 27.6277 65.0991 29.8985V30.2542H59.4228C59.5274 27.3815 60.5215 25.8768 62.4571 25.8768ZM48.3318 37.5042H42.577C43.7018 34.7957 44.0157 29.8711 44.0157 26.7523V26.2051H48.3318V37.5042Z" fill="black"/>
<path d="M18.8256 40.8962H14.6665V19.3651H12.8093C9.40872 19.3651 7.62997 21.1434 7.62997 23.7972C7.62997 26.8066 8.8594 28.2019 11.3967 29.9802L13.4894 31.4575L7.47302 40.8962H3L8.41471 32.4698C5.30191 30.1443 3.54932 27.8736 3.54932 24.0434C3.54932 19.2557 6.7406 16 12.7831 16H18.7995V40.8962H18.8256Z" fill="black"/>
</g>
<defs>
<clipPath id="clip0_1892_2663">
<rect width="96" height="29" fill="white" transform="translate(3 16)"/>
</clipPath>
</defs>
</svg>
