<svg width="120" height="120" viewBox="0 0 120 120" fill="none" xmlns="http://www.w3.org/2000/svg">
    <path d="M32.6803 88.75H17.0703V114.13H32.6803V88.75Z" fill="#FF3D2E"/>
    <path d="M32.6803 46.0898H17.0703V67.3698H32.6803V46.0898Z" fill="#FF3D2E"/>
    <path d="M65.5703 10.8711C66.951 10.8711 68.0703 9.75181 68.0703 8.37109C68.0703 6.99038 66.951 5.87109 65.5703 5.87109C64.1896 5.87109 63.0703 6.99038 63.0703 8.37109C63.0703 9.75181 64.1896 10.8711 65.5703 10.8711Z" fill="black"/>
    <path d="M25.4496 19.1206C24.9489 19.1227 24.4657 18.9368 24.0954 18.5999C23.7251 18.2629 23.4946 17.7993 23.4496 17.3006C23.4496 16.8706 23.1496 13.0606 25.5396 10.6806C26.5299 9.57907 27.7545 8.71351 29.1233 8.14761C30.4922 7.58172 31.9705 7.32988 33.4496 7.41062H33.5596C37.0796 7.41062 39.0196 9.08062 40.5596 10.4106C41.8196 11.5006 42.7296 12.2806 44.3896 12.2806C47.1096 12.2806 48.3896 11.2806 50.0296 10.1006C51.9638 8.3894 54.4473 7.42796 57.0296 7.39062C57.56 7.39063 58.0687 7.60134 58.4438 7.97641C58.8189 8.35148 59.0296 8.86019 59.0296 9.39063C59.0296 9.92106 58.8189 10.4298 58.4438 10.8048C58.0687 11.1799 57.56 11.3906 57.0296 11.3906C54.9496 11.3906 53.8696 12.1906 52.3796 13.3106C50.1603 15.2399 47.3202 16.3049 44.3796 16.3106C41.2396 16.3106 39.3796 14.7406 37.9396 13.4706C36.4996 12.2006 35.5396 11.3806 33.4296 11.4206C32.4727 11.3344 31.5091 11.4793 30.6199 11.843C29.7307 12.2067 28.9418 12.7786 28.3196 13.5106C27.4196 14.4206 27.3196 16.3606 27.3996 16.9606C27.4215 17.2227 27.3915 17.4864 27.3114 17.7369C27.2312 17.9873 27.1025 18.2195 26.9325 18.4201C26.7625 18.6207 26.5547 18.7859 26.3208 18.9061C26.0869 19.0263 25.8317 19.0992 25.5696 19.1206H25.4496Z" fill="black"/>
    <path d="M106.43 112.128H104.43V63.1284C104.43 62.7612 104.329 62.4009 104.138 62.0873C103.947 61.7736 103.674 61.5186 103.347 61.3502C103.021 61.1818 102.654 61.1066 102.288 61.1327C101.922 61.1589 101.57 61.2854 101.27 61.4984L91.9003 68.1484V48.3384C91.9003 47.808 91.6896 47.2993 91.3145 46.9242C90.9395 46.5492 90.4307 46.3384 89.9003 46.3384C89.3699 46.3384 88.8612 46.5492 88.4861 46.9242C88.111 47.2993 87.9003 47.808 87.9003 48.3384V70.9984L80.3703 76.3784V63.2984C80.3717 62.9253 80.2687 62.5592 80.073 62.2416C79.8772 61.9239 79.5965 61.6674 79.2625 61.5009C78.9286 61.3345 78.5547 61.2647 78.1832 61.2997C77.8117 61.3346 77.4574 61.4727 77.1603 61.6984L70.0703 67.0684V48.3384C70.0703 47.808 69.8596 47.2993 69.4845 46.9242C69.1095 46.5492 68.6007 46.3384 68.0703 46.3384C67.5399 46.3384 67.0312 46.5492 66.6561 46.9242C66.281 47.2993 66.0703 47.808 66.0703 48.3384V69.8384C66.0654 69.915 66.0654 69.9918 66.0703 70.0684L57.8903 76.2584V63.1084C57.8901 62.7364 57.7861 62.3717 57.59 62.0555C57.3939 61.7393 57.1135 61.484 56.7803 61.3184C56.4485 61.1534 56.0774 61.0837 55.7084 61.1173C55.3393 61.1508 54.9869 61.2863 54.6903 61.5084L47.4803 66.8884V48.3384C47.4803 47.808 47.2696 47.2993 46.8945 46.9242C46.5195 46.5492 46.0107 46.3384 45.4803 46.3384C44.9499 46.3384 44.4412 46.5492 44.0661 46.9242C43.691 47.2993 43.4803 47.808 43.4803 48.3384V69.8784L34.7003 76.4584V26.6484C34.7003 25.5876 34.2789 24.5702 33.5287 23.82C32.7786 23.0699 31.7612 22.6484 30.7003 22.6484H19.0703C18.0094 22.6484 16.992 23.0699 16.2419 23.82C15.4917 24.5702 15.0703 25.5876 15.0703 26.6484V112.128H13.5703C13.0399 112.128 12.5312 112.339 12.1561 112.714C11.781 113.089 11.5703 113.598 11.5703 114.128C11.5703 114.659 11.781 115.168 12.1561 115.543C12.5312 115.918 13.0399 116.128 13.5703 116.128H106.43C106.961 116.128 107.469 115.918 107.845 115.543C108.22 115.168 108.43 114.659 108.43 114.128C108.43 113.598 108.22 113.089 107.845 112.714C107.469 112.339 106.961 112.128 106.43 112.128ZM19.0703 112.128V26.6484H30.7003V112.128H19.0703ZM34.7003 81.4484L53.9203 67.0984V80.2784C53.9203 80.6499 54.0237 81.0139 54.219 81.3299C54.4143 81.6458 54.6937 81.9012 55.0259 82.0673C55.3581 82.2334 55.73 82.3037 56.0999 82.2704C56.4698 82.237 56.8232 82.1013 57.1203 81.8784L76.3703 67.3184V80.3184C76.3702 80.6857 76.4712 81.0459 76.6622 81.3596C76.8533 81.6733 77.127 81.9283 77.4535 82.0967C77.7799 82.265 78.1463 82.3403 78.5127 82.3141C78.879 82.288 79.2311 82.1615 79.5303 81.9484L100.39 66.9984V112.128H34.7003V81.4484Z" fill="black"/>
    <path d="M49.7498 88.7617H45.1098C44.5793 88.7617 44.0706 88.9724 43.6956 89.3475C43.3205 89.7226 43.1098 90.2313 43.1098 90.7617C43.1098 91.2922 43.3205 91.8009 43.6956 92.1759C44.0706 92.551 44.5793 92.7617 45.1098 92.7617H47.7498V100.602H43.2598V97.5417C43.2598 97.0113 43.0491 96.5026 42.674 96.1275C42.2989 95.7524 41.7902 95.5417 41.2598 95.5417C40.7293 95.5417 40.2206 95.7524 39.8456 96.1275C39.4705 96.5026 39.2598 97.0113 39.2598 97.5417V102.602C39.2598 103.132 39.4705 103.641 39.8456 104.016C40.2206 104.391 40.7293 104.602 41.2598 104.602H49.7498C50.2802 104.602 50.7889 104.391 51.164 104.016C51.5391 103.641 51.7498 103.132 51.7498 102.602V90.7617C51.7498 90.2313 51.5391 89.7226 51.164 89.3475C50.7889 88.9724 50.2802 88.7617 49.7498 88.7617Z" fill="black"/>
    <path d="M72.3201 88.7617H67.6801C67.1496 88.7617 66.6409 88.9724 66.2659 89.3475C65.8908 89.7226 65.6801 90.2313 65.6801 90.7617C65.6801 91.2922 65.8908 91.8009 66.2659 92.1759C66.6409 92.551 67.1496 92.7617 67.6801 92.7617H70.3201V100.602H65.8301V97.5417C65.8301 97.0113 65.6194 96.5026 65.2443 96.1275C64.8692 95.7524 64.3605 95.5417 63.8301 95.5417C63.2996 95.5417 62.7909 95.7524 62.4159 96.1275C62.0408 96.5026 61.8301 97.0113 61.8301 97.5417V102.602C61.8301 103.132 62.0408 103.641 62.4159 104.016C62.7909 104.391 63.2996 104.602 63.8301 104.602H72.3201C72.8505 104.602 73.3592 104.391 73.7343 104.016C74.1094 103.641 74.3201 103.132 74.3201 102.602V90.7617C74.3201 90.2313 74.1094 89.7226 73.7343 89.3475C73.3592 88.9724 72.8505 88.7617 72.3201 88.7617Z" fill="black"/>
    <path d="M94.1502 88.7617H89.5102C88.9797 88.7617 88.471 88.9724 88.0959 89.3475C87.7209 89.7226 87.5102 90.2313 87.5102 90.7617C87.5102 91.2922 87.7209 91.8009 88.0959 92.1759C88.471 92.551 88.9797 92.7617 89.5102 92.7617H92.1502V100.602H87.6602V97.5417C87.6602 97.0113 87.4494 96.5026 87.0744 96.1275C86.6993 95.7524 86.1906 95.5417 85.6602 95.5417C85.1297 95.5417 84.621 95.7524 84.2459 96.1275C83.8709 96.5026 83.6602 97.0113 83.6602 97.5417V102.602C83.6602 103.132 83.8709 103.641 84.2459 104.016C84.621 104.391 85.1297 104.602 85.6602 104.602H94.1502C94.6806 104.602 95.1893 104.391 95.5644 104.016C95.9394 103.641 96.1502 103.132 96.1502 102.602V90.7617C96.1502 90.2313 95.9394 89.7226 95.5644 89.3475C95.1893 88.9724 94.6806 88.7617 94.1502 88.7617Z" fill="black"/>
</svg>
