<svg width="120" height="120" viewBox="0 0 120 120" fill="none" xmlns="http://www.w3.org/2000/svg">
    <path d="M76 9.93541C71.3333 6.69506 66.6667 13.1758 62 9.93541V20.0646C66.6667 23.3049 71.3333 16.8242 76 20.0646V9.93541Z" fill="#FF3D2E"/>
    <path d="M27 47.3398H93C93.5304 47.3398 94.0391 47.5506 94.4142 47.9256C94.7893 48.3007 95 48.8094 95 49.3398V55.3398H25V49.3398C25 48.8094 25.2107 48.3007 25.5858 47.9256C25.9609 47.5506 26.4696 47.3398 27 47.3398Z" fill="#FF3D2E"/>
    <path d="M39.0195 63.3398H29.0195V103.34H39.0195V63.3398Z" fill="#FF3D2E"/>
    <path d="M65.0195 63.3398H55.0195V103.34H65.0195V63.3398Z" fill="#FF3D2E"/>
    <path d="M91.0195 63.3398H81.0195V103.34H91.0195V63.3398Z" fill="#FF3D2E"/>
    <path d="M109 53.3402H97V49.3402C97 48.2793 96.5786 47.2619 95.8284 46.5117C95.0783 45.7616 94.0609 45.3402 93 45.3402H92V39.9302C91.9998 38.6607 91.597 37.424 90.8495 36.398C90.102 35.372 89.0483 34.6095 87.84 34.2202L62.07 25.9002V8.66016C62.07 8.12972 61.8593 7.62102 61.4842 7.24594C61.1091 6.87087 60.6004 6.66016 60.07 6.66016C59.5396 6.66016 59.0309 6.87087 58.6558 7.24594C58.2807 7.62102 58.07 8.12972 58.07 8.66016V25.8602L32.16 34.2202C30.9517 34.6095 29.898 35.372 29.1505 36.398C28.403 37.424 28.0002 38.6607 28 39.9302V45.3402H27C25.9391 45.3402 24.9217 45.7616 24.1716 46.5117C23.4214 47.2619 23 48.2793 23 49.3402V53.3402H11C9.93913 53.3402 8.92172 53.7616 8.17157 54.5117C7.42143 55.2619 7 56.2793 7 57.3402V61.3402C7 62.401 7.42143 63.4184 8.17157 64.1686C8.92172 64.9187 9.93913 65.3402 11 65.3402V113.34H109V65.3402C110.061 65.3402 111.078 64.9187 111.828 64.1686C112.579 63.4184 113 62.401 113 61.3402V57.3402C113 56.2793 112.579 55.2619 111.828 54.5117C111.078 53.7616 110.061 53.3402 109 53.3402ZM32 39.9302C31.9946 39.502 32.1267 39.0835 32.3769 38.7361C32.6271 38.3887 32.9822 38.1307 33.39 38.0002L59.39 29.6202C59.7867 29.4931 60.2133 29.4931 60.61 29.6202L86.61 38.0002C87.0178 38.1307 87.3729 38.3887 87.6231 38.7361C87.8733 39.0835 88.0054 39.502 88 39.9302V45.3402H32V39.9302ZM27 49.3402H93V53.3402H27V49.3402ZM23 105.34V109.34H15V65.3402H27V101.34C25.9391 101.34 24.9217 101.762 24.1716 102.512C23.4214 103.262 23 104.279 23 105.34ZM93 109.34H27V105.34H93V109.34ZM31 101.34V65.3402H37V101.34H31ZM41 101.34V65.3402H53V101.34H41ZM57 101.34V65.3402H63V101.34H57ZM67 101.34V65.3402H79V101.34H67ZM83 101.34V65.3402H89V101.34H83ZM105 109.34H97V105.34C97 104.279 96.5786 103.262 95.8284 102.512C95.0783 101.762 94.0609 101.34 93 101.34V65.3402H105V109.34ZM109 61.3402H11V57.3402H109V61.3402Z" fill="black"/>
</svg>
