<svg width="120" height="120" viewBox="0 0 120 120" fill="none" xmlns="http://www.w3.org/2000/svg">
    <path d="M60.86 96.7083C58.0199 96.7083 55.2435 95.8661 52.882 94.2882C50.5205 92.7103 48.68 90.4676 47.5931 87.8436C46.5062 85.2197 46.2218 82.3324 46.7759 79.5468C47.33 76.7612 48.6977 74.2025 50.706 72.1942C52.7142 70.186 55.2729 68.8183 58.0585 68.2642C60.8441 67.7101 63.7314 67.9945 66.3553 69.0814C68.9793 70.1683 71.222 72.0088 72.7999 74.3703C74.3778 76.7318 75.22 79.5081 75.22 82.3483C75.2174 86.156 73.7036 89.807 71.0111 92.4994C68.3187 95.1919 64.6677 96.7056 60.86 96.7083ZM60.86 71.9883C58.811 71.9883 56.808 72.5959 55.1043 73.7343C53.4006 74.8726 52.0727 76.4906 51.2886 78.3837C50.5045 80.2767 50.2993 82.3598 50.6991 84.3694C51.0988 86.3791 52.0855 88.225 53.5344 89.6739C54.9833 91.1228 56.8292 92.1095 58.8389 92.5092C60.8485 92.909 62.9316 92.7038 64.8246 91.9197C66.7176 91.1356 68.3357 89.8077 69.474 88.104C70.6124 86.4003 71.22 84.3973 71.22 82.3483C71.2147 79.6032 70.1212 76.9722 68.1792 75.032C66.2372 73.0919 63.6051 72.0009 60.86 71.9983V71.9883Z" fill="black"/>
    <path d="M59.85 87.2803C58.935 87.2327 58.0621 86.8808 57.37 86.2803C57.0945 86.0074 56.8771 85.6816 56.731 85.3223C56.5849 84.9631 56.5131 84.578 56.52 84.1903H59.18C59.2047 84.3557 59.2638 84.514 59.3533 84.6553C59.4429 84.7965 59.561 84.9174 59.7 85.0103C60.0596 85.2102 60.4697 85.3005 60.88 85.2703C62.01 85.2703 62.58 84.9603 62.58 84.3303C62.5882 84.1437 62.5317 83.96 62.42 83.8103C62.2864 83.6611 62.1229 83.5418 61.94 83.4603C61.6961 83.3457 61.4415 83.2553 61.18 83.1903C60.87 83.1103 60.52 83.0203 60.11 82.9403C59.6392 82.8342 59.1777 82.6904 58.73 82.5103C58.3644 82.3609 58.0264 82.1513 57.73 81.8903C57.4274 81.6476 57.1788 81.3445 57 81.0003C56.8426 80.589 56.7678 80.1506 56.78 79.7103C56.7652 79.3403 56.8278 78.9713 56.9639 78.6269C57.0999 78.2825 57.3063 77.9703 57.57 77.7103C58.1935 77.1506 58.977 76.8008 59.81 76.7103V75.3203H61.88V76.6803C62.7169 76.7415 63.5107 77.0752 64.14 77.6303C64.6596 78.1689 64.9592 78.8822 64.98 79.6303H62.36C62.342 79.4898 62.2943 79.3548 62.2202 79.2341C62.1461 79.1134 62.0471 79.0099 61.93 78.9303C61.6248 78.7614 61.2783 78.6817 60.93 78.7003C60.5491 78.6622 60.1662 78.75 59.84 78.9503C59.7405 79.0263 59.6605 79.1249 59.6066 79.2379C59.5527 79.351 59.5264 79.4752 59.53 79.6003C59.529 79.7766 59.5836 79.9487 59.6859 80.0923C59.7882 80.2359 59.933 80.3436 60.1 80.4003C60.628 80.6138 61.178 80.7681 61.74 80.8603C62.2356 80.9543 62.7236 81.0846 63.2 81.2503C63.6058 81.3827 63.9849 81.5858 64.32 81.8503C64.6247 82.1003 64.8706 82.4144 65.04 82.7703C65.2194 83.1866 65.3048 83.6373 65.29 84.0903C65.3066 84.493 65.2377 84.8946 65.0877 85.2686C64.9378 85.6427 64.7102 85.9807 64.42 86.2603C63.7294 86.8441 62.8718 87.1942 61.97 87.2603V88.9103H59.85V87.2803Z" fill="black"/>
    <path d="M50.7197 28.4219H37.7197C32.5285 28.4166 27.5519 26.35 23.884 22.6764C20.216 19.0029 18.1571 14.0231 18.1597 8.83187H31.1597C36.3509 8.83718 41.3276 10.9038 44.9955 14.5773C48.6634 18.2509 50.7224 23.2307 50.7197 28.4219Z" fill="#FF3D2E"/>
    <path d="M92.6698 37.7617H101.84C101.84 39.5787 101.482 41.378 100.786 43.0565C100.09 44.7351 99.0709 46.2602 97.7856 47.5445C96.5003 48.8289 94.9745 49.8474 93.2954 50.5418C91.6163 51.2363 89.8169 51.593 87.9998 51.5917H78.8398C78.8398 49.7755 79.1976 47.9771 79.8926 46.2992C80.5876 44.6213 81.6063 43.0967 82.8906 41.8124C85.4842 39.2188 89.0019 37.7617 92.6698 37.7617Z" fill="#FF3D2E"/>
    <path d="M92.6696 35.7581C89.1189 35.7647 85.6733 36.9641 82.886 39.1639C80.0987 41.3636 78.1313 44.4361 77.2997 47.8881C76.2723 46.7749 75.0262 45.8858 73.6392 45.2767C72.2523 44.6675 70.7545 44.3514 69.2396 44.3481H61.2397V46.3481C61.2397 49.2655 62.3986 52.0634 64.4615 54.1263C66.5244 56.1892 69.3223 57.3481 72.2396 57.3481H76.8997V59.5381H52.1996V38.4181H63.7096C69.4323 38.4102 74.9182 36.1327 78.9638 32.0852C83.0094 28.0377 85.2844 22.5508 85.2896 16.8281V14.8281H70.2896C66.7272 14.8268 63.2197 15.7062 60.0793 17.3881C56.9388 19.07 54.2629 21.5021 52.2896 24.4681C51.3662 19.5269 48.7491 15.0621 44.8887 11.8425C41.0284 8.62277 36.1664 6.84958 31.1396 6.82812H16.1396V8.82812C16.1449 14.5543 18.4227 20.0442 22.4726 24.0922C26.5225 28.1403 32.0135 30.4155 37.7397 30.4181H48.3097V59.5381H29.6896C29.0487 59.5307 28.415 59.6744 27.8399 59.9576C27.2648 60.2408 26.7645 60.6555 26.3796 61.1681C26.0462 61.6166 25.825 62.1384 25.7345 62.6899C25.644 63.2414 25.6869 63.8066 25.8596 64.3381L37.6297 100.838H35.9996C35.5459 100.838 35.098 100.94 34.6896 101.138C34.2812 101.336 33.923 101.623 33.6419 101.98C33.3608 102.336 33.1641 102.751 33.0667 103.194C32.9694 103.637 32.9738 104.097 33.0797 104.538L34.0797 108.538C34.3944 109.85 35.1418 111.017 36.2014 111.852C37.261 112.686 38.5709 113.139 39.9196 113.138H81.9196C83.2684 113.139 84.5783 112.686 85.6379 111.852C86.6975 111.017 87.4449 109.85 87.7597 108.538L88.7597 104.538C88.8655 104.097 88.8699 103.637 88.7726 103.194C88.6752 102.751 88.4785 102.336 88.1974 101.98C87.9163 101.623 87.5581 101.336 87.1497 101.138C86.7413 100.94 86.2934 100.838 85.8396 100.838H84.0896L95.8596 64.3381C96.0324 63.8066 96.0753 63.2414 95.9848 62.6899C95.8943 62.1384 95.6731 61.6166 95.3396 61.1681C94.9518 60.6514 94.4467 60.2341 93.866 59.9507C93.2853 59.6674 92.6457 59.5259 91.9996 59.5381H80.7896V53.5881H87.9996C92.1964 53.5828 96.2197 51.9133 99.1873 48.9458C102.155 45.9782 103.824 41.9549 103.83 37.7581V35.7581H92.6696ZM72.2696 53.3481C70.7619 53.3485 69.2943 52.8621 68.0853 51.9612C66.8763 51.0602 65.9904 49.793 65.5596 48.3481H69.2396C70.7474 48.3477 72.215 48.8342 73.424 49.7351C74.633 50.636 75.5189 51.9032 75.9496 53.3481H72.2696ZM70.2696 18.8281H81.1796C80.6845 23.1162 78.6316 27.0731 75.411 29.9472C72.1903 32.8212 68.0262 34.4123 63.7096 34.4181H52.8396C53.3348 30.13 55.3877 26.1732 58.6083 23.2991C61.829 20.425 65.9931 18.834 70.3096 18.8281H70.2696ZM37.7397 26.4181C33.4231 26.4123 29.259 24.8212 26.0383 21.9472C22.8177 19.0731 20.7648 15.1162 20.2696 10.8281H31.1396C35.4562 10.834 39.6203 12.425 42.841 15.2991C46.0616 18.1732 48.1145 22.13 48.6096 26.4181H37.7397ZM84.4896 104.838L83.8196 107.628C83.7159 108.067 83.4668 108.458 83.1128 108.738C82.7588 109.017 82.3207 109.169 81.8697 109.168H39.8696C39.4101 109.18 38.9603 109.034 38.596 108.753C38.2317 108.473 37.9752 108.076 37.8696 107.628L37.1996 104.838H84.4896ZM79.8896 100.838H41.8297L29.8296 63.5381H91.9196L79.8896 100.838ZM87.9996 49.5881H80.9996C81.4771 46.8401 82.9077 44.3483 85.0402 42.5505C87.1726 40.7527 89.8705 39.764 92.6597 39.7581H99.6597C99.1823 42.5061 97.7516 44.998 95.6191 46.7958C93.4867 48.5935 90.7888 49.5823 87.9996 49.5881Z" fill="black"/>
</svg>
