<svg width="120" height="120" viewBox="0 0 120 120" fill="none" xmlns="http://www.w3.org/2000/svg">
    <path d="M104.29 63.1914C105.395 63.1914 106.29 62.296 106.29 61.1914C106.29 60.0868 105.395 59.1914 104.29 59.1914C103.185 59.1914 102.29 60.0868 102.29 61.1914C102.29 62.296 103.185 63.1914 104.29 63.1914Z" fill="black"/>
    <path d="M13.9697 63.1914C15.0743 63.1914 15.9697 62.296 15.9697 61.1914C15.9697 60.0868 15.0743 59.1914 13.9697 59.1914C12.8652 59.1914 11.9697 60.0868 11.9697 61.1914C11.9697 62.296 12.8652 63.1914 13.9697 63.1914Z" fill="black"/>
    <path d="M87.8203 28H31.8203C29.6112 28 27.8203 29.7909 27.8203 32V88C27.8203 90.2091 29.6112 92 31.8203 92H87.8203C90.0295 92 91.8203 90.2091 91.8203 88V32C91.8203 29.7909 90.0295 28 87.8203 28Z" fill="#FF3D2E"/>
    <path d="M111.29 77.28H93.8203V63.19H98.2903C98.8207 63.19 99.3295 62.9793 99.7045 62.6042C100.08 62.2291 100.29 61.7204 100.29 61.19C100.29 60.6596 100.08 60.1509 99.7045 59.7758C99.3295 59.4007 98.8207 59.19 98.2903 59.19H93.8203V45.11H111.29C111.821 45.11 112.329 44.8993 112.705 44.5242C113.08 44.1491 113.29 43.6404 113.29 43.11C113.29 42.5796 113.08 42.0709 112.705 41.6958C112.329 41.3207 111.821 41.11 111.29 41.11H93.8203V32C93.8203 30.4087 93.1882 28.8826 92.063 27.7574C90.9377 26.6321 89.4116 26 87.8203 26H79.0503V11C79.0503 10.4696 78.8396 9.96086 78.4645 9.58579C78.0894 9.21071 77.5807 9 77.0503 9C76.5199 9 76.0112 9.21071 75.6361 9.58579C75.261 9.96086 75.0503 10.4696 75.0503 11V26H67.0003V21C67.0003 20.4696 66.7896 19.9609 66.4145 19.5858C66.0395 19.2107 65.5307 19 65.0003 19C64.4699 19 63.9612 19.2107 63.5861 19.5858C63.211 19.9609 63.0003 20.4696 63.0003 21V26H54.9403V21C54.9403 20.4696 54.7296 19.9609 54.3545 19.5858C53.9795 19.2107 53.4707 19 52.9403 19C52.4099 19 51.9012 19.2107 51.5261 19.5858C51.151 19.9609 50.9403 20.4696 50.9403 21V26H42.8803V11C42.8803 10.4696 42.6696 9.96086 42.2945 9.58579C41.9195 9.21071 41.4107 9 40.8803 9C40.3499 9 39.8412 9.21071 39.4661 9.58579C39.091 9.96086 38.8803 10.4696 38.8803 11V26H31.8203C30.229 26 28.7029 26.6321 27.5777 27.7574C26.4525 28.8826 25.8203 30.4087 25.8203 32V41.11H8.82031C8.28988 41.11 7.78117 41.3207 7.4061 41.6958C7.03103 42.0709 6.82031 42.5796 6.82031 43.11C6.82031 43.6404 7.03103 44.1491 7.4061 44.5242C7.78117 44.8993 8.28988 45.11 8.82031 45.11H25.8203V59.19H21.8203C21.2899 59.19 20.7812 59.4007 20.4061 59.7758C20.031 60.1509 19.8203 60.6596 19.8203 61.19C19.8203 61.7204 20.031 62.2291 20.4061 62.6042C20.7812 62.9793 21.2899 63.19 21.8203 63.19H25.8203V77.28H8.82031C8.28988 77.28 7.78117 77.4907 7.4061 77.8658C7.03103 78.2409 6.82031 78.7496 6.82031 79.28C6.82031 79.8104 7.03103 80.3191 7.4061 80.6942C7.78117 81.0693 8.28988 81.28 8.82031 81.28H25.8203V88C25.8203 89.5913 26.4525 91.1174 27.5777 92.2426C28.7029 93.3679 30.229 94 31.8203 94H38.8803V109C38.8803 109.53 39.091 110.039 39.4661 110.414C39.8412 110.789 40.3499 111 40.8803 111C41.4107 111 41.9195 110.789 42.2945 110.414C42.6696 110.039 42.8803 109.53 42.8803 109V94H50.9403V99C50.9403 99.5304 51.151 100.039 51.5261 100.414C51.9012 100.789 52.4099 101 52.9403 101C53.4707 101 53.9795 100.789 54.3545 100.414C54.7296 100.039 54.9403 99.5304 54.9403 99V94H63.0003V99C63.0003 99.5304 63.211 100.039 63.5861 100.414C63.9612 100.789 64.4699 101 65.0003 101C65.5307 101 66.0395 100.789 66.4145 100.414C66.7896 100.039 67.0003 99.5304 67.0003 99V94H75.0003V109C75.0003 109.53 75.211 110.039 75.5861 110.414C75.9612 110.789 76.4699 111 77.0003 111C77.5307 111 78.0395 110.789 78.4145 110.414C78.7896 110.039 79.0003 109.53 79.0003 109V94H87.7703C89.3616 94 90.8877 93.3679 92.013 92.2426C93.1382 91.1174 93.7703 89.5913 93.7703 88V81.28H111.24C111.771 81.28 112.279 81.0693 112.655 80.6942C113.03 80.3191 113.24 79.8104 113.24 79.28C113.24 78.7496 113.03 78.2409 112.655 77.8658C112.279 77.4907 111.771 77.28 111.24 77.28H111.29ZM89.8203 88C89.8203 88.5304 89.6096 89.0391 89.2345 89.4142C88.8595 89.7893 88.3507 90 87.8203 90H31.8203C31.2899 90 30.7812 89.7893 30.4061 89.4142C30.031 89.0391 29.8203 88.5304 29.8203 88V32C29.8203 31.4696 30.031 30.9609 30.4061 30.5858C30.7812 30.2107 31.2899 30 31.8203 30H87.8203C88.3507 30 88.8595 30.2107 89.2345 30.5858C89.6096 30.9609 89.8203 31.4696 89.8203 32V88Z" fill="black"/>
    <path d="M78.9397 38H38.9997C37.8786 38 36.9697 38.9089 36.9697 40.03V79.97C36.9697 81.0911 37.8786 82 38.9997 82H78.9397C80.0609 82 80.9697 81.0911 80.9697 79.97V40.03C80.9697 38.9089 80.0609 38 78.9397 38Z" fill="white"/>
    <path d="M57.0898 64.9309H50.0898L48.6598 68.6509H43.5898L51.2098 49.2109H56.5798L64.1898 68.6509H58.5198L57.0898 64.9309ZM51.6198 61.0909H55.6198L53.6198 55.3209L51.6198 61.0909Z" fill="black"/>
    <path d="M66.8799 49.2109H72.2499V68.6509H66.8799V49.2109Z" fill="black"/>
    <path d="M109.39 9.56125L109.23 9.73125C108.951 10.0211 108.77 10.3913 108.713 10.7897C108.655 11.188 108.724 11.5944 108.91 11.9512C109.199 12.5609 109.329 13.2337 109.288 13.9071C109.247 14.5805 109.036 15.2325 108.675 15.8025C108.315 16.3726 107.816 16.8421 107.225 17.1675C106.634 17.4929 105.97 17.6635 105.295 17.6635C104.621 17.6635 103.957 17.4929 103.366 17.1675C102.775 16.8421 102.276 16.3726 101.915 15.8025C101.555 15.2325 101.344 14.5805 101.303 13.9071C101.262 13.2337 101.392 12.5609 101.68 11.9512C101.866 11.5925 101.935 11.1848 101.877 10.785C101.82 10.3853 101.639 10.0134 101.36 9.72125L101.2 9.56125C100.991 9.35496 100.737 9.20002 100.458 9.10862C100.178 9.01722 99.8817 8.99184 99.5909 9.03449C99.3002 9.07713 99.0233 9.18663 98.782 9.35438C98.5407 9.52213 98.3417 9.74355 98.2004 10.0012C97.5735 11.2208 97.2706 12.581 97.3208 13.9513C97.3709 15.3216 97.7725 16.656 98.4868 17.8264C99.2012 18.9969 100.204 19.9641 101.4 20.6351C102.596 21.3062 103.944 21.6587 105.315 21.6587C106.687 21.6587 108.035 21.3062 109.231 20.6351C110.426 19.9641 111.43 18.9969 112.144 17.8264C112.858 16.656 113.26 15.3216 113.31 13.9513C113.36 12.581 113.057 11.2208 112.43 10.0012C112.291 9.73642 112.09 9.50839 111.845 9.33575C111.601 9.16312 111.319 9.05077 111.022 9.00788C110.726 8.96498 110.424 8.99275 110.14 9.08891C109.856 9.18508 109.6 9.34693 109.39 9.56125Z" fill="black"/>
    <path d="M10.59 110.391L10.75 110.231C11.0296 109.942 11.2117 109.572 11.2709 109.174C11.33 108.776 11.2633 108.369 11.08 108.011C10.7912 107.401 10.6613 106.729 10.7024 106.055C10.7435 105.382 10.9542 104.73 11.315 104.16C11.6757 103.59 12.1748 103.12 12.7658 102.795C13.3567 102.47 14.0204 102.299 14.695 102.299C15.3696 102.299 16.0333 102.47 16.6242 102.795C17.2152 103.12 17.7143 103.59 18.075 104.16C18.4358 104.73 18.6465 105.382 18.6876 106.055C18.7287 106.729 18.5988 107.401 18.31 108.011C18.1318 108.371 18.0661 108.776 18.1214 109.174C18.1767 109.572 18.3504 109.944 18.62 110.241L18.78 110.401C18.9869 110.61 19.2398 110.768 19.5185 110.862C19.7972 110.956 20.094 110.984 20.3853 110.943C20.6766 110.903 20.9544 110.794 21.1965 110.627C21.4386 110.46 21.6384 110.239 21.78 109.981C22.4114 108.761 22.7179 107.398 22.6699 106.025C22.6219 104.652 22.2211 103.314 21.506 102.141C20.791 100.968 19.7858 99.9987 18.5873 99.3267C17.3889 98.6547 16.0375 98.3028 14.6635 98.3047C13.2895 98.3066 11.9392 98.6624 10.7427 99.3378C9.54609 100.013 8.54363 100.985 7.83187 102.16C7.12011 103.336 6.72305 104.675 6.67893 106.048C6.63481 107.421 6.94514 108.783 7.58 110.001C7.72393 110.259 7.92614 110.479 8.17044 110.644C8.41474 110.81 8.69435 110.915 8.98689 110.953C9.27944 110.991 9.57679 110.96 9.85517 110.862C10.1335 110.765 10.3852 110.603 10.59 110.391Z" fill="black"/>
    <path d="M112.73 107.101L112.57 106.941C112.28 106.661 111.91 106.48 111.512 106.423C111.113 106.365 110.707 106.435 110.35 106.621C109.74 106.909 109.068 107.039 108.394 106.998C107.721 106.957 107.069 106.746 106.499 106.386C105.929 106.025 105.459 105.526 105.134 104.935C104.808 104.344 104.638 103.68 104.638 103.006C104.638 102.331 104.808 101.667 105.134 101.076C105.459 100.485 105.929 99.9864 106.499 99.6256C107.069 99.2649 107.721 99.0541 108.394 99.0131C109.068 98.972 109.74 99.1018 110.35 99.3906C110.71 99.5653 111.113 99.6282 111.509 99.5711C111.905 99.5141 112.274 99.3397 112.57 99.0706L112.73 98.9006C112.939 98.693 113.096 98.4395 113.189 98.1604C113.283 97.8812 113.31 97.5841 113.268 97.2927C113.226 97.0014 113.117 96.7238 112.949 96.4821C112.781 96.2404 112.559 96.0413 112.3 95.9006C111.08 95.2737 109.72 94.9708 108.35 95.021C106.98 95.0711 105.645 95.4727 104.475 96.187C103.304 96.9014 102.337 97.9046 101.666 99.1004C100.995 100.296 100.643 101.644 100.643 103.016C100.643 104.387 100.995 105.735 101.666 106.931C102.337 108.127 103.304 109.13 104.475 109.844C105.645 110.559 106.98 110.96 108.35 111.01C109.72 111.06 111.08 110.758 112.3 110.131C112.562 109.99 112.788 109.789 112.958 109.544C113.129 109.3 113.239 109.019 113.281 108.724C113.323 108.429 113.295 108.129 113.199 107.847C113.103 107.565 112.943 107.309 112.73 107.101Z" fill="black"/>
    <path d="M7.29035 12.8905L7.45035 13.0505C7.74057 13.3287 8.11008 13.51 8.50779 13.5691C8.90549 13.6282 9.31174 13.5623 9.67035 13.3805C10.28 13.0917 10.9528 12.9618 11.6262 13.0029C12.2996 13.044 12.9516 13.2547 13.5216 13.6155C14.0917 13.9762 14.5612 14.4753 14.8866 15.0662C15.212 15.6572 15.3826 16.3209 15.3826 16.9955C15.3826 17.6701 15.212 18.3337 14.8866 18.9247C14.5612 19.5157 14.0917 20.0147 13.5216 20.3755C12.9516 20.7362 12.2996 20.947 11.6262 20.988C10.9528 21.0291 10.28 20.8992 9.67035 20.6105C9.31409 20.4246 8.9087 20.3546 8.51074 20.4102C8.11277 20.4657 7.74207 20.6441 7.45035 20.9205L7.28035 21.0905C7.0717 21.2981 6.91442 21.5516 6.82106 21.8307C6.7277 22.1099 6.70083 22.407 6.74259 22.6984C6.78435 22.9897 6.8936 23.2673 7.06162 23.509C7.22963 23.7507 7.45178 23.9498 7.71035 24.0905C8.92985 24.7195 10.2906 25.0242 11.6619 24.9754C13.0332 24.9266 14.3689 24.526 15.5406 23.8119C16.7123 23.0979 17.6807 22.0944 18.3526 20.8981C19.0246 19.7017 19.3775 18.3526 19.3775 16.9805C19.3775 15.6083 19.0246 14.2592 18.3526 13.0629C17.6807 11.8665 16.7123 10.8631 15.5406 10.149C14.3689 9.43498 13.0332 9.03431 11.6619 8.98553C10.2906 8.93674 8.92985 9.24149 7.71035 9.87047C7.44891 10.0113 7.22434 10.2118 7.05485 10.4557C6.88536 10.6995 6.77572 10.9799 6.73481 11.274C6.69391 11.5681 6.72289 11.8678 6.81941 12.1486C6.91593 12.4295 7.07727 12.6836 7.29035 12.8905Z" fill="black"/>
</svg>
