<svg width="120" height="120" viewBox="0 0 120 120" fill="none" xmlns="http://www.w3.org/2000/svg">
    <path d="M77.5469 31.168C79.796 29.7625 82.5114 29.3081 85.0956 29.9047C87.6798 30.5014 89.9211 32.1001 91.3265 34.3493C92.732 36.5984 93.1864 39.3138 92.5898 41.898C91.9932 44.4822 90.3944 46.7235 88.1453 48.1289L77.5469 31.168Z" fill="#FF3D2E"/>
    <path d="M30.8934 50.834L13.9324 61.4323C12.9957 62.0177 12.7108 63.2516 13.2962 64.1883L30.2536 91.3258C30.8389 92.2625 32.0728 92.5474 33.0095 91.9621L49.9705 81.3637C50.9072 80.7784 51.1921 79.5445 50.6067 78.6078L33.6493 51.4702C33.064 50.5335 31.8301 50.2486 30.8934 50.834Z" fill="#FF3D2E"/>
    <path d="M86.6804 20.4708C86.5494 20.7391 86.4801 21.0334 86.4776 21.332C86.4751 21.6306 86.5396 21.926 86.6662 22.1964C86.7927 22.4669 86.9783 22.7056 87.2092 22.8949C87.4401 23.0843 87.7104 23.2196 88.0004 23.2908C91.9502 24.216 95.3981 26.6131 97.6411 29.9933C99.884 33.3735 100.753 37.482 100.07 41.4808C100.024 41.769 100.041 42.0638 100.12 42.3447C100.199 42.6256 100.339 42.8858 100.53 43.1069C100.72 43.328 100.957 43.5046 101.223 43.6245C101.489 43.7444 101.779 43.8046 102.07 43.8008C102.535 43.7913 102.981 43.6204 103.334 43.3175C103.686 43.0146 103.922 42.5986 104 42.1408C104.856 37.143 103.773 32.0072 100.973 27.7801C98.1727 23.5529 93.866 20.5527 88.9304 19.3908C88.4885 19.2891 88.0251 19.3406 87.6163 19.5368C87.2075 19.733 86.8775 20.0624 86.6804 20.4708Z" fill="black"/>
    <path d="M91.4604 10.6401C90.6104 10.4201 89.7604 10.2401 88.8904 10.1001C88.4637 10.0256 88.0245 10.0916 87.6386 10.2882C87.2527 10.4847 86.941 10.8012 86.7504 11.1901C86.6217 11.4683 86.5586 11.7723 86.566 12.0787C86.5735 12.3851 86.6512 12.6856 86.7933 12.9572C86.9353 13.2288 87.1379 13.464 87.3854 13.6449C87.6328 13.8257 87.9185 13.9473 88.2204 14.0001C88.7104 14.0801 89.2204 14.1701 89.6704 14.2801C96.0559 15.6804 101.636 19.5329 105.208 25.0076C108.781 30.4824 110.06 37.1414 108.77 43.5501C108.67 44.0401 108.56 44.5501 108.43 45.0101C108.354 45.3103 108.349 45.624 108.415 45.9265C108.481 46.229 108.616 46.5121 108.81 46.7535C109.004 46.9949 109.251 47.188 109.532 47.3175C109.813 47.4471 110.121 47.5096 110.43 47.5001C110.864 47.4878 111.282 47.3349 111.621 47.0643C111.96 46.7937 112.202 46.4202 112.31 46.0001C112.53 45.1601 112.71 44.3101 112.85 43.4501C114.053 36.2948 112.521 28.9491 108.558 22.871C104.596 16.793 98.4925 12.4271 91.4604 10.6401Z" fill="black"/>
    <path d="M96.1499 57.1617L90.7899 48.5917C92.916 46.7154 94.3057 44.1443 94.7105 41.3378C95.1154 38.5313 94.5091 35.6723 92.9999 33.2717C91.4968 30.87 89.1924 29.0777 86.4946 28.2121C83.7969 27.3464 80.8799 27.4631 78.2599 28.5417L72.8799 19.9417C72.3849 19.1569 71.7126 18.4993 70.9172 18.0217C70.1217 17.5441 69.2253 17.2598 68.3 17.1917C67.277 17.1125 66.2497 17.2717 65.2988 17.657C64.3479 18.0422 63.4993 18.6428 62.82 19.4117L35.3499 50.4117C34.7874 49.5129 33.891 48.8743 32.8578 48.6362C31.8246 48.398 30.7392 48.5799 29.8399 49.1417L12.8399 59.7417C11.9412 60.3042 11.3026 61.2006 11.0645 62.2338C10.8263 63.267 11.0081 64.3525 11.5699 65.2517L13.6999 68.6617L8.59995 71.8417C8.15358 72.1202 7.76657 72.4841 7.46107 72.9125C7.15557 73.3409 6.93759 73.8254 6.81961 74.3381C6.70164 74.8509 6.68599 75.3819 6.77356 75.9007C6.86114 76.4196 7.05021 76.916 7.32995 77.3617L15.8099 90.9317C16.175 91.5036 16.6773 91.9752 17.2711 92.3035C17.865 92.6319 18.5314 92.8065 19.2099 92.8117C19.9564 92.8092 20.6873 92.5979 21.3199 92.2017L26.4399 89.0017L28.5499 92.3817C28.829 92.8283 29.1934 93.2155 29.6224 93.521C30.0515 93.8264 30.5366 94.0442 31.0499 94.1617C31.3451 94.2295 31.6471 94.263 31.9499 94.2617C32.6998 94.2611 33.4344 94.0497 34.0699 93.6517L35.7899 92.5717L44.2799 106.162C45.4049 107.954 47.1939 109.227 49.2555 109.703C51.317 110.179 53.4832 109.819 55.2799 108.702C57.0719 107.577 58.3452 105.788 58.8212 103.726C59.2973 101.665 58.9372 99.4984 57.82 97.7017L49.36 84.1017L51.0299 83.1017C51.8234 82.6024 52.4164 81.8402 52.7051 80.9483C52.9939 80.0563 52.9602 79.0913 52.61 78.2217L92.4199 66.4217C93.3759 66.1161 94.2498 65.5973 94.9757 64.9043C95.7016 64.2113 96.2604 63.3624 96.6099 62.4217C96.9448 61.5689 97.0775 60.6502 96.9977 59.7376C96.9179 58.825 96.6277 57.9433 96.1499 57.1617ZM19.2299 88.8117L10.7499 75.2417L15.8399 72.0617L24.3199 85.6317L19.2299 88.8117ZM53.2299 105.322C52.3307 105.883 51.2453 106.065 50.2121 105.827C49.1789 105.589 48.2825 104.95 47.72 104.052L39.2 90.4817L46 86.2417L54.4799 99.8117C54.7572 100.258 54.9438 100.755 55.0291 101.273C55.1143 101.792 55.0965 102.322 54.9767 102.834C54.8569 103.346 54.6375 103.829 54.3309 104.256C54.0243 104.682 53.6366 105.045 53.1899 105.322H53.2299ZM84.6299 31.8317C86.0053 32.1485 87.2724 32.8236 88.3025 33.7884C89.3327 34.7532 90.0892 35.9733 90.4955 37.325C90.9017 38.6766 90.9431 40.1117 90.6154 41.4846C90.2878 42.8574 89.6028 44.1191 88.6299 45.1417L86.4199 41.6117L80.4199 32.0017C81.7829 31.5698 83.2366 31.5111 84.6299 31.8317ZM48.91 79.6717L31.9999 90.2717L14.9999 63.1317L31.9999 52.5317L32.6399 53.5317L48.6899 79.3417L48.91 79.6717ZM92.8999 61.0017C92.7606 61.3677 92.5409 61.6979 92.2571 61.9679C91.9733 62.2379 91.6325 62.4408 91.2599 62.5617L50.4799 74.6417L37.5699 54.0017L65.82 22.1017C66.0857 21.7881 66.4215 21.5414 66.8002 21.3815C67.1789 21.2217 67.5899 21.1532 68 21.1817C68.3047 21.1984 68.6011 21.2869 68.8652 21.4398C69.1293 21.5927 69.3537 21.8058 69.5199 22.0617L74.7999 30.5117L85.1999 47.1817L92.7499 59.2817C92.906 59.5373 93.0008 59.8256 93.0268 60.1241C93.0529 60.4225 93.0094 60.7228 92.8999 61.0017Z" fill="black"/>
</svg>
