<svg width="120" height="120" viewBox="0 0 120 120" fill="none" xmlns="http://www.w3.org/2000/svg">
    <path d="M37.1797 68.0781L46.6897 79.6881L37.1897 68.0781H37.1797Z" fill="black"/>
    <path d="M9.99955 100.002C11.8895 95.0017 16.6295 84.0617 24.4295 76.8617L21.8895 73.7617C13.0595 81.8317 7.88955 94.0717 6.04955 99.1517C5.8206 99.7506 5.7539 100.399 5.8562 101.032C5.9585 101.665 6.22616 102.26 6.63211 102.756C7.03806 103.252 7.56789 103.633 8.16799 103.858C8.76809 104.084 9.41716 104.147 10.0495 104.042C15.3995 103.232 28.4195 100.602 38.0495 93.5417L35.5095 90.4417C26.9995 96.6617 15.3495 99.1517 9.99955 100.002Z" fill="#FF3D2E"/>
    <path d="M37.1903 68.0814L34.6203 64.9414H34.6104L37.1804 68.0814H37.1903Z" fill="black"/>
    <path d="M49.2797 82.8516L50.6297 84.5016L44.4097 92.3416C44.2894 92.4933 44.1378 92.6174 43.9652 92.7054C43.7927 92.7934 43.6032 92.8433 43.4097 92.8516C43.2152 92.854 43.023 92.8098 42.8491 92.7229C42.6751 92.6359 42.5245 92.5086 42.4097 92.3516L41.2197 91.0016L38.6897 87.9116L27.5297 74.3016L24.9997 71.2016L23.9097 69.8716C23.7816 69.7164 23.69 69.5344 23.6418 69.3391C23.5936 69.1437 23.59 68.94 23.6314 68.7431C23.6727 68.5462 23.7578 68.3611 23.8804 68.2015C24.003 68.042 24.16 67.9121 24.3397 67.8216L33.2497 63.2716L34.6097 64.9416L30.6097 60.1016L22.4697 64.2616C21.7587 64.6236 21.1379 65.1404 20.6528 65.7739C20.1678 66.4074 19.8308 67.1415 19.6668 67.9224C19.5028 68.7032 19.5158 69.5109 19.7049 70.286C19.8941 71.0611 20.2545 71.784 20.7597 72.4016L21.8697 73.7616L24.4097 76.8616L35.5697 90.4416L38.1097 93.5416L39.2197 94.9016C39.7177 95.5217 40.3477 96.023 41.0639 96.369C41.7801 96.715 42.5644 96.8969 43.3597 96.9016C44.1551 96.8969 44.9393 96.715 45.6555 96.369C46.3717 96.023 47.0017 95.5217 47.4997 94.9016L53.1897 87.7416L49.2797 82.8516Z" fill="black"/>
    <path d="M49.2804 82.8614V82.8514L46.6904 79.6914L49.2804 82.8614Z" fill="black"/>
    <path d="M61.1703 40.0486C59.0548 41.7791 57.4999 44.0981 56.7022 46.7122C55.9046 49.3264 55.9 52.1184 56.689 54.7352C57.478 57.3519 59.0252 59.676 61.135 61.4135C63.2448 63.151 65.8224 64.2239 68.5419 64.4966C71.2615 64.7692 74.0008 64.2294 76.4135 62.9453C78.8262 61.6612 80.804 59.6905 82.0968 57.2825C83.3896 54.8744 83.9394 52.1371 83.6765 49.4166C83.4137 46.6961 82.3501 44.1146 80.6203 41.9986C78.2969 39.1649 74.9445 37.3682 71.2984 37.0027C67.6523 36.6371 64.01 37.7325 61.1703 40.0486ZM76.1703 58.3486C74.6669 59.5771 72.833 60.3325 70.9005 60.5192C68.9679 60.7058 67.0234 60.3155 65.3127 59.3974C63.6019 58.4792 62.2017 57.0746 61.289 55.361C60.3763 53.6473 59.9921 51.7016 60.1849 49.7696C60.3776 47.8377 61.1388 46.0062 62.3721 44.5067C63.6054 43.0072 65.2556 41.907 67.114 41.345C68.9724 40.783 70.9557 40.7846 72.8133 41.3495C74.6709 41.9143 76.3193 43.0171 77.5503 44.5186C79.1973 46.5395 79.974 49.132 79.7096 51.7256C79.4451 54.3192 78.1612 56.7016 76.1403 58.3486H76.1703Z" fill="black"/>
    <path d="M76.4903 76.6992L72.6104 79.8792C73.937 78.8392 75.2303 77.7792 76.4903 76.6992Z" fill="black"/>
    <path d="M49.1202 76.3511L40.9502 66.3711L49.1202 76.3511Z" fill="black"/>
    <path d="M40.9503 66.3684L38.3203 63.1484L40.9503 66.3684Z" fill="black"/>
    <path d="M49.1201 76.3516L51.7601 79.5716L49.1201 76.3516Z" fill="black"/>
    <path d="M75.8604 82.3787C76.5504 81.8287 77.2304 81.2788 77.8604 80.7188L75.8604 82.3787Z" fill="black"/>
    <path d="M42 37.2383C41.65 37.5083 41.31 37.7983 41 38.0783L42 37.2383Z" fill="black"/>
    <path d="M112.33 16.0781C110.75 14.1281 107.44 13.0781 102.5 13.0781C97.0356 13.1199 91.5975 13.8387 86.3099 15.2181C84.9099 15.5581 83.4599 15.9481 81.9899 16.3781C73.6042 18.8415 65.5231 22.243 57.8999 26.5181L38.4099 21.8881C37.1092 21.5826 35.7557 21.5796 34.4537 21.8796C33.1517 22.1795 31.9359 22.7743 30.8999 23.6181L16.9999 34.9981C16.2297 35.6299 15.6512 36.4642 15.3295 37.4071C15.0079 38.3499 14.9558 39.3639 15.1793 40.3347C15.4028 41.3055 15.8929 42.1946 16.5944 42.9019C17.2959 43.6093 18.181 44.1067 19.1499 44.3381L31.0799 47.1781C30.0466 48.2448 29.0199 49.3581 27.9999 50.5181L27.0999 51.5181C26.5942 52.0819 26.3063 52.8076 26.2879 53.5647C26.2696 54.3218 26.5221 55.0606 26.9999 55.6481L27.8799 56.7181L30.6499 60.0981L34.6499 64.9381L37.2199 68.0781L46.7199 79.6881L49.3099 82.8481L53.2599 87.6781L55.8099 90.7981L56.8099 91.9881C57.2575 92.533 57.8827 92.9028 58.5758 93.0327C59.2688 93.1625 59.9855 93.0441 60.5999 92.6981L61.8699 91.9981C63.2033 91.2248 64.5366 90.4315 65.8699 89.6181L66.2899 101.878C66.3195 102.876 66.6298 103.845 67.1852 104.675C67.7406 105.504 68.5186 106.161 69.4299 106.568C70.1245 106.882 70.8777 107.046 71.6399 107.048C72.8744 107.024 74.062 106.571 74.9999 105.768L88.8499 94.4281C89.8774 93.58 90.6979 92.5086 91.2489 91.2956C91.8 90.0826 92.0671 88.7599 92.0299 87.4281L91.3399 67.5581C97.2139 60.8846 102.319 53.572 106.56 45.7581C107.3 44.3781 107.987 43.0281 108.62 41.7081C110.862 37.1836 112.541 32.4013 113.62 27.4681C114.63 22.1981 114.2 18.3781 112.33 16.0781ZM20.1099 40.3981C19.8671 40.3385 19.6457 40.2126 19.4702 40.0345C19.2948 39.8564 19.1722 39.6331 19.1162 39.3894C19.0602 39.1458 19.073 38.8913 19.1531 38.6545C19.2332 38.4177 19.3775 38.2078 19.5699 38.0481L33.4299 26.7081C33.9828 26.2605 34.6301 25.9442 35.323 25.7831C36.0159 25.622 36.7363 25.6203 37.4299 25.7781L51.7499 29.1781L41.9999 37.2381L40.9999 38.0781L33.9999 43.7081L20.1099 40.3981ZM86.3099 91.3281L72.4599 102.668C72.265 102.826 72.0299 102.927 71.7809 102.959C71.5319 102.991 71.279 102.953 71.0504 102.849C70.8219 102.745 70.6269 102.58 70.4872 102.371C70.3476 102.162 70.2689 101.919 70.2599 101.668L69.7699 87.3581L75.8599 82.3581L77.8599 80.6981L87.4799 72.8181L87.9999 87.5381C88.0279 88.2572 87.89 88.973 87.5969 89.6302C87.3039 90.2874 86.8635 90.8684 86.3099 91.3281ZM76.4899 76.6981C75.2299 77.7781 73.9366 78.8381 72.6099 79.8781C68.403 83.1759 63.9575 86.1574 59.3099 88.7981L51.7599 79.5681L49.1199 76.3481L40.9999 66.3681L38.3699 63.1481L30.5999 53.6581C45.5999 36.4781 65.3599 25.7681 81.7299 20.6581C81.8123 26.5108 83.9087 32.1563 87.6662 36.6442C91.4238 41.1321 96.6129 44.1883 102.36 45.2981C95.6263 57.1883 86.872 67.8139 76.4899 76.6981Z" fill="black"/>
    <path d="M109.69 26.69C108.543 31.855 106.725 36.8475 104.28 41.54C98.9917 40.8409 94.155 38.1908 90.7194 34.1095C87.2838 30.0283 85.4973 24.8105 85.7104 19.48C90.9848 17.9758 96.4277 17.1425 101.91 17H102.44C106.56 17.07 108.67 17.89 109.23 18.58C109.79 19.27 110.75 21.21 109.69 26.69Z" fill="#FF3D2E"/>
    <path d="M19.4197 51.9883L6.67969 62.4283" stroke="black" stroke-width="4" stroke-miterlimit="10" stroke-linecap="round"/>
    <path d="M58.9204 100.379L46.1904 110.819" stroke="black" stroke-width="4" stroke-miterlimit="10" stroke-linecap="round"/>
</svg>
