<svg width="32" height="24" viewBox="0 0 32 24" fill="none" xmlns="http://www.w3.org/2000/svg">
    <g clip-path="url(#clip0_6972_41471)">
        <path d="M32 0H0V27H32V0Z" fill="#003DA6"/>
        <path fill-rule="evenodd" clip-rule="evenodd" d="M11.6408 11.0608C11.2012 10.6766 10.8596 10.1931 10.6444 9.65046C10.4292 9.10778 10.3465 8.52158 10.4033 7.94055C10.4601 7.35952 10.6547 6.80042 10.9709 6.30969C11.2871 5.81896 11.7159 5.41076 12.2216 5.11899C12.7272 4.82722 13.2952 4.66031 13.8783 4.63211C14.4614 4.6039 15.0429 4.71523 15.5743 4.95684C16.1058 5.19845 16.5719 5.56337 16.934 6.0213C17.2962 6.47922 17.5438 7.01693 17.6564 7.58977C17.8214 7.65725 17.9822 7.7344 18.1381 7.82082C18.0592 7.14458 17.8136 6.49852 17.4232 5.94072C17.0329 5.38291 16.5101 4.93083 15.9017 4.62511C15.2934 4.31938 14.6187 4.1696 13.9381 4.1892C13.2576 4.20881 12.5926 4.39721 12.0029 4.73745C11.4132 5.07769 10.9173 5.55912 10.5597 6.13848C10.2021 6.71784 9.99407 7.37696 9.95429 8.05662C9.91451 8.73628 10.0442 9.41517 10.3318 10.0323C10.6193 10.6494 11.0557 11.1854 11.6017 11.5921C11.6044 11.4144 11.6175 11.237 11.6408 11.0608ZM15.735 5.36773C15.0144 5.91152 14.5193 6.70159 14.3442 7.58716C14.1792 7.6541 14.0186 7.73127 13.8633 7.81821C13.9856 6.78077 14.4985 5.82889 15.2977 5.15625C15.4484 5.21621 15.5945 5.28688 15.735 5.36773ZM13.2981 8.19291C13.4379 8.08354 13.5845 7.983 13.7368 7.89187C12.778 7.47684 11.6968 7.44373 10.7144 7.7993C10.69 7.96023 10.6774 8.12272 10.6768 8.28549C11.5091 7.93211 12.4428 7.89914 13.2981 8.19291ZM22.3451 8.375L22.3451 8.37555L22.3444 8.375H22.3451ZM22.3451 8.37555C22.8582 8.75752 23.275 9.25412 23.5622 9.82573C23.8495 10.3976 23.9991 11.0288 23.9991 11.6688C23.9991 12.3088 23.8495 12.9399 23.5622 13.5118C23.2749 14.0837 22.8578 14.5805 22.3444 14.9625C22.3416 14.7845 22.328 14.6068 22.3037 14.4305C22.6984 14.0866 23.0149 13.6622 23.2317 13.1857C23.4486 12.7093 23.5608 12.1919 23.5608 11.6684C23.5608 11.1449 23.4486 10.6275 23.2317 10.1511C23.0149 9.67461 22.6984 9.25017 22.3037 8.90634C22.3281 8.7304 22.342 8.55315 22.3451 8.37555ZM18.6997 8.19287C19.5555 7.89907 20.4897 7.93204 21.3226 8.28544C21.3218 8.12271 21.3094 7.96025 21.2857 7.79926C20.3027 7.44374 19.2211 7.47685 18.2617 7.89183C18.4136 7.9833 18.5599 8.08383 18.6997 8.19287ZM18.4602 15.0469C18.9123 15.2394 19.3987 15.3387 19.8901 15.3389C20.3836 15.3399 20.8722 15.2406 21.3261 15.0469C21.325 15.2096 21.3125 15.3721 21.2884 15.5331C20.3648 15.8662 19.3524 15.8577 18.4346 15.509C18.4504 15.3569 18.4602 15.2034 18.4602 15.0469ZM13.5428 15.0452C13.0908 15.2381 12.6044 15.3374 12.1129 15.3372C11.3653 15.3386 10.635 15.1115 10.02 14.6864C9.40501 14.2613 8.93455 13.6584 8.67162 12.9585C8.4087 12.2587 8.36586 11.4952 8.54885 10.7703C8.73184 10.0454 9.13192 9.39367 9.69553 8.90243C9.67104 8.72632 9.65721 8.54888 9.65413 8.37109C8.8598 8.96353 8.30636 9.8231 8.09579 10.7914C7.88522 11.7597 8.03172 12.7715 8.50828 13.6403C8.98484 14.5091 9.75936 15.1764 10.6891 15.5192C11.6189 15.862 12.6412 15.8573 13.5677 15.5058C13.5515 15.3528 13.5432 15.199 13.5428 15.0452ZM14.604 15.5331C14.58 15.3721 14.5675 15.2096 14.5664 15.0469C15.0196 15.2396 15.5069 15.3389 15.9994 15.3389C16.4918 15.3389 16.9792 15.2396 17.4323 15.0469C17.4315 15.2096 17.4192 15.3721 17.3954 15.5331C16.4934 15.8582 15.5061 15.8582 14.604 15.5331ZM15.9996 7.55469C15.1362 7.555 14.295 7.82726 13.5951 8.33282C12.8953 8.83839 12.3725 9.55156 12.101 10.3711C11.8295 11.1906 11.8231 12.0748 12.0826 12.8982C12.3421 13.7216 12.8545 14.4423 13.5468 14.9581C13.55 14.7803 13.5638 14.6028 13.5882 14.4267C13.0252 13.9353 12.6255 13.2838 12.4426 12.5592C12.2598 11.8346 12.3024 11.0714 12.5648 10.3717C12.8272 9.67197 13.2969 9.06898 13.9111 8.64331C14.5254 8.21764 15.2549 7.98957 16.0022 7.98957C16.7495 7.98957 17.4791 8.21764 18.0933 8.64331C18.7075 9.06898 19.1773 9.67197 19.4397 10.3717C19.7021 11.0714 19.7447 11.8346 19.5618 12.5592C19.3789 13.2838 18.9792 13.9353 18.4162 14.4267C18.4406 14.6031 18.4545 14.7808 18.4576 14.9588C19.1502 14.4429 19.6626 13.722 19.922 12.8983C20.1815 12.0746 20.1748 11.1901 19.9029 10.3704C19.631 9.55074 19.1078 8.83758 18.4075 8.33225C17.7072 7.82692 16.8654 7.55512 16.0018 7.55544L15.9996 7.55469ZM11.6 11.7461C11.6032 11.9224 11.617 12.0983 11.6414 12.2729C10.9616 12.8662 10.5239 13.6889 10.4117 14.5842C10.2712 14.5027 10.1369 14.4112 10.0098 14.3102C10.1964 13.2851 10.7646 12.3689 11.6 11.7461ZM14.7111 13.298C14.4241 13.832 14.2739 14.4288 14.2737 15.035C14.2738 15.603 14.4057 16.1633 14.6592 16.6716C14.9127 17.1799 15.2808 17.6224 15.7345 17.9641C15.594 18.0448 15.4479 18.1152 15.2973 18.1749C14.6527 17.6324 14.1906 16.9047 13.9736 16.0907C13.7565 15.2766 13.7951 14.4155 14.0841 13.6241C14.3731 12.8327 14.8984 12.1494 15.5889 11.6667C16.2794 11.184 17.1017 10.9253 17.9442 10.9258C18.4205 10.925 18.8933 11.0078 19.341 11.1704C19.3651 11.3311 19.3775 11.4933 19.3779 11.6558C18.8197 11.4192 18.2117 11.3245 17.608 11.3801C17.0043 11.4357 16.4238 11.64 15.9183 11.9747C15.4128 12.3093 14.9981 12.764 14.7111 13.298ZM20.4005 11.7422C20.3977 11.9202 20.3839 12.0979 20.3591 12.2743C20.9995 12.8337 21.4257 13.5983 21.5648 14.4372C21.7039 15.2761 21.5473 16.1373 21.1217 16.8735C20.6962 17.6098 20.0281 18.1753 19.2317 18.4734C18.4353 18.7716 17.5601 18.7838 16.7556 18.5081C16.6159 18.617 16.4699 18.7175 16.3184 18.8091C17.2429 19.208 18.2818 19.2535 19.2376 18.9369C20.1935 18.6203 20.9998 17.9637 21.5035 17.0918C22.0071 16.2199 22.173 15.1933 21.9697 14.2071C21.7664 13.221 21.2079 12.3438 20.4005 11.7422ZM16.3174 4.52467C16.831 4.30243 17.3848 4.18793 17.9445 4.18825V4.1875C18.808 4.18723 19.6496 4.45901 20.3498 4.96424C21.05 5.46948 21.5732 6.18248 21.8452 7.00199C22.1171 7.82151 22.124 8.70587 21.8647 9.52949C21.6055 10.3531 21.0933 11.0741 20.401 11.5901C20.3977 11.4123 20.3836 11.2349 20.3589 11.0588C20.9997 10.4995 21.4263 9.73496 21.5657 8.89588C21.705 8.05681 21.5484 7.19538 21.1227 6.45902C20.697 5.72265 20.0286 5.15711 19.232 4.85916C18.4353 4.56122 17.5598 4.54939 16.7554 4.82571C16.6157 4.71643 16.4695 4.61589 16.3174 4.52467ZM17.4083 10.666C17.7568 10.1752 17.9924 9.61336 18.0984 9.02079C17.9713 8.91961 17.837 8.8278 17.6965 8.74609C17.6013 9.51659 17.2637 10.2369 16.7324 10.803C16.9537 10.7392 17.1797 10.6934 17.4083 10.666ZM14.8904 11.8707C14.7243 12.0312 14.5708 12.2043 14.4313 12.3885C14.3072 12.4005 14.1815 12.4058 14.0543 12.4058C13.5788 12.4061 13.1069 12.3236 12.6597 12.162C12.6353 12.001 12.6227 11.8385 12.6221 11.6758C13.3384 11.9795 14.1328 12.0478 14.8904 11.8707ZM15.2441 11.5633C15.3837 11.4541 15.5297 11.3536 15.6814 11.2622C14.7224 10.8479 13.6414 10.815 12.6589 11.1704C12.6344 11.3313 12.6221 11.4938 12.6221 11.6566C13.4545 11.3025 14.3886 11.2692 15.2441 11.5633ZM16.2647 12.106C16.4055 12.0253 16.5519 11.9546 16.7027 11.8945V11.8975C17.2158 12.3296 17.6153 12.8806 17.8664 13.5026C18.1175 14.1246 18.2125 14.7986 18.1432 15.4657C18.0738 16.1329 17.8422 16.7729 17.4686 17.33C17.095 17.887 16.5906 18.3441 15.9997 18.6614C15.4087 18.9787 14.749 19.1464 14.0783 19.1501C13.4075 19.1537 12.7461 18.9931 12.1517 18.6823C11.5573 18.3714 11.0481 17.9198 10.6684 17.3669C10.2887 16.8139 10.0502 16.1764 9.97363 15.51C10.1284 15.5964 10.2882 15.6733 10.4523 15.7403C10.5667 16.3242 10.8213 16.8715 11.1943 17.3351C11.5673 17.7987 12.0474 18.1646 12.5932 18.4014C13.1391 18.6382 13.7343 18.7387 14.3276 18.6942C14.921 18.6498 15.4946 18.4617 15.9991 18.1463C16.5036 17.8308 16.9238 17.3975 17.2235 16.8835C17.5233 16.3695 17.6935 15.7904 17.7197 15.196C17.7458 14.6015 17.627 14.0097 17.3735 13.4714C17.1201 12.9331 16.7395 12.4645 16.2647 12.106ZM15.2687 10.8037C14.7352 10.2382 14.3957 9.51753 14.2994 8.74609C14.1588 8.82797 14.0245 8.92004 13.8975 9.02155C14.004 9.61383 14.2399 10.1753 14.5884 10.666C14.8184 10.6938 15.0459 10.7398 15.2687 10.8037ZM17.1094 11.8707C17.383 11.9346 17.663 11.9669 17.944 11.967C18.4372 11.9679 18.9254 11.8689 19.3792 11.6758C19.3789 11.8386 19.3663 12.0011 19.3416 12.162C18.8937 12.3237 18.421 12.4062 17.9448 12.4058C17.8176 12.4058 17.6919 12.399 17.5685 12.3877C17.4292 12.2036 17.2757 12.0308 17.1094 11.8707ZM16.3266 12.5392C16.2235 12.4456 16.1149 12.3582 16.0015 12.2773L16.0015 12.2774L16.0015 12.2774L16.0015 12.2774L16.0014 12.2774C15.9488 12.315 15.8961 12.3526 15.8457 12.3932C16.0311 13.4173 16.5977 14.333 17.4314 14.9559C17.4272 14.7404 17.4019 14.5259 17.3562 14.3154C16.8512 13.8332 16.494 13.2171 16.3266 12.5392ZM16.2883 10.9583C16.1905 10.9981 16.0957 11.0425 16.0016 11.09C15.9459 11.0621 15.8895 11.0358 15.833 11.0109C15.9905 10.0412 16.4904 9.1601 17.2419 8.52734C17.3927 8.58658 17.5389 8.65702 17.6791 8.73807C16.9588 9.28239 16.4638 10.0726 16.2883 10.9583ZM15.6194 12.7344C15.4352 13.3358 15.0999 13.8799 14.6456 14.3148C14.6002 14.5255 14.575 14.7399 14.5703 14.9553C15.117 14.5453 15.5534 14.0061 15.8407 13.3861C15.7499 13.175 15.676 12.9571 15.6194 12.7344ZM14.7566 8.52734C15.2162 8.91561 15.5856 9.3995 15.8388 9.94525C15.7487 10.1571 15.6755 10.3758 15.6198 10.5993C15.3931 9.85765 14.9379 9.20656 14.3193 8.73883C14.4598 8.65783 14.6059 8.58715 14.7566 8.52734Z" fill="white"/>
    </g>
    <defs>
        <clipPath id="clip0_6972_41471">
            <rect width="32" height="24" rx="2" fill="white"/>
        </clipPath>
    </defs>
</svg>
