<svg width="52" height="64" viewBox="0 0 52 64" fill="none" xmlns="http://www.w3.org/2000/svg">
    <g clip-path="url(#clip0_1358_800)">
        <path fill-rule="evenodd" clip-rule="evenodd" d="M10.8229 52.9743L0 64V52.3145L0 0H52V52.9743H10.8229Z" fill="black"/>
        <path d="M8.21579 23.6711V11.2218H13.4331C13.9993 11.2218 14.5222 11.3416 15.0018 11.5812C15.4813 11.8209 15.8945 12.1365 16.2411 12.5281C16.5878 12.9197 16.8593 13.3639 17.0558 13.8607C17.2522 14.3575 17.3505 14.8572 17.3505 15.3599C17.3505 15.8859 17.258 16.3973 17.0731 16.8941C16.8882 17.3909 16.6282 17.8322 16.2931 18.2179C15.958 18.6037 15.5536 18.9135 15.0798 19.1473C14.606 19.381 14.086 19.4979 13.5198 19.4979H10.6078V23.6711H8.21579ZM10.6078 17.3763H13.3811C13.8202 17.3763 14.1871 17.1951 14.4818 16.8327C14.7765 16.4704 14.9238 15.9794 14.9238 15.3599C14.9238 15.0442 14.8776 14.7608 14.7851 14.5094C14.6927 14.2581 14.5713 14.0448 14.4211 13.8694C14.2709 13.6941 14.0947 13.5626 13.8925 13.4749C13.6902 13.3873 13.4851 13.3434 13.2771 13.3434H10.6078V17.3763ZM21.5278 23.8464C21.0887 23.8464 20.6785 23.7734 20.2971 23.6273C19.9158 23.4811 19.5865 23.2766 19.3091 23.0136C19.0318 22.7505 18.8151 22.4437 18.6591 22.093C18.5031 21.7423 18.4251 21.3566 18.4251 20.9358C18.4251 20.5032 18.5205 20.1029 18.7111 19.7347C18.9018 19.3664 19.1676 19.0537 19.5085 18.7966C19.8493 18.5394 20.2567 18.3378 20.7305 18.1916C21.2042 18.0455 21.7242 17.9725 22.2905 17.9725C22.6949 17.9725 23.0907 18.0075 23.4778 18.0777C23.8649 18.1478 24.2087 18.2472 24.5091 18.3758V17.8497C24.5091 17.2419 24.3387 16.7743 23.9978 16.447C23.6569 16.1197 23.1513 15.956 22.4811 15.956C21.9958 15.956 21.522 16.0437 21.0598 16.219C20.5976 16.3944 20.1238 16.6515 19.6385 16.9905L18.9278 15.5001C20.0949 14.7169 21.3544 14.3253 22.7065 14.3253C24.0122 14.3253 25.0262 14.6497 25.7485 15.2985C26.4707 15.9473 26.8318 16.8853 26.8318 18.1127V20.9708C26.8318 21.2163 26.8751 21.3916 26.9618 21.4968C27.0485 21.6021 27.19 21.6605 27.3864 21.6722V23.6711C26.9936 23.7529 26.6527 23.7938 26.3638 23.7938C25.9247 23.7938 25.5867 23.6945 25.3498 23.4958C25.1129 23.297 24.9656 23.034 24.9078 22.7067L24.8558 22.1982C24.4513 22.7359 23.9602 23.1451 23.3825 23.4256C22.8047 23.7062 22.1865 23.8464 21.5278 23.8464ZM22.1865 22.1281C22.5793 22.1281 22.952 22.0579 23.3045 21.9177C23.6569 21.7774 23.9313 21.5904 24.1278 21.3566C24.382 21.1579 24.5091 20.9358 24.5091 20.6903V19.6382C24.2318 19.533 23.9313 19.4483 23.6078 19.384C23.2842 19.3197 22.9722 19.2875 22.6718 19.2875C22.0709 19.2875 21.5798 19.4249 21.1985 19.6996C20.8171 19.9743 20.6265 20.3221 20.6265 20.7429C20.6265 21.1403 20.7767 21.4705 21.0771 21.7336C21.3776 21.9966 21.7473 22.1281 22.1865 22.1281ZM34.7531 16.5171C34.0482 16.5288 33.4185 16.6662 32.8638 16.9292C32.3091 17.1922 31.9105 17.5867 31.6678 18.1127V23.6711H29.3451V14.4831H31.4771V16.447C31.6389 16.1314 31.8296 15.8479 32.0491 15.5966C32.2687 15.3452 32.5056 15.1261 32.7598 14.939C33.014 14.752 33.2711 14.6088 33.5311 14.5094C33.7911 14.4101 34.0424 14.3604 34.2851 14.3604H34.5711C34.6347 14.3604 34.6953 14.3663 34.7531 14.3779V16.5171ZM42.6051 23.6711L39.9704 19.6908L38.7225 20.9358V23.6711H36.3998V10.8711H38.7225V18.6388L42.3624 14.5007H44.8411L41.4611 18.3933L45.0838 23.6711H42.6051ZM11.4225 40.504C10.6598 40.504 9.91445 40.3812 9.18645 40.1357C8.45845 39.8903 7.83446 39.5396 7.31445 39.0837L8.18112 37.6108C8.73579 38.0083 9.27601 38.3093 9.80179 38.5138C10.3276 38.7184 10.8505 38.8207 11.3705 38.8207C11.8327 38.8207 12.1967 38.733 12.4625 38.5577C12.7282 38.3823 12.8611 38.131 12.8611 37.8037C12.8611 37.4764 12.7051 37.2368 12.3931 37.0848C12.0811 36.9328 11.5727 36.7575 10.8678 36.5588C10.2785 36.3951 9.77579 36.2373 9.35979 36.0853C8.94378 35.9334 8.60868 35.761 8.35445 35.5681C8.10023 35.3752 7.91534 35.1531 7.79979 34.9018C7.68423 34.6505 7.62645 34.3494 7.62645 33.9988C7.62645 33.5312 7.71601 33.1104 7.89512 32.7363C8.07423 32.3622 8.32556 32.0437 8.64912 31.7807C8.97268 31.5177 9.35112 31.316 9.78445 31.1758C10.2178 31.0355 10.6887 30.9653 11.1971 30.9653C11.8789 30.9653 12.5173 31.0647 13.1125 31.2634C13.7076 31.4621 14.2536 31.7836 14.7505 32.2278L13.8145 33.6481C13.3522 33.2974 12.9045 33.0402 12.4711 32.8766C12.0378 32.7129 11.6073 32.6311 11.1798 32.6311C10.7869 32.6311 10.4576 32.7129 10.1918 32.8766C9.92601 33.0402 9.79312 33.3032 9.79312 33.6656C9.79312 33.8293 9.8249 33.9637 9.88845 34.0689C9.95201 34.1741 10.0531 34.2676 10.1918 34.3494C10.3305 34.4313 10.5125 34.5102 10.7378 34.5862C10.9631 34.6621 11.2433 34.741 11.5785 34.8229C12.2025 34.9865 12.7369 35.1502 13.1818 35.3138C13.6267 35.4775 13.9907 35.6645 14.2738 35.8749C14.5569 36.0853 14.7649 36.3279 14.8978 36.6026C15.0307 36.8773 15.0971 37.2075 15.0971 37.5933C15.0971 38.4934 14.7678 39.2035 14.1091 39.7237C13.4504 40.2439 12.5549 40.504 11.4225 40.504ZM16.9518 40.3286V31.1407H19.2745V40.3286H16.9518ZM16.9518 29.8607V27.5286H19.2745V29.8607H16.9518ZM25.4798 40.504C24.8558 40.504 24.278 40.3812 23.7465 40.1357C23.2149 39.8903 22.7585 39.5513 22.3771 39.1188C21.9958 38.6863 21.6982 38.1807 21.4845 37.6021C21.2707 37.0234 21.1638 36.401 21.1638 35.7347C21.1638 35.0683 21.2649 34.4488 21.4671 33.876C21.6693 33.3032 21.9496 32.8006 22.3078 32.3681C22.666 31.9356 23.0936 31.5966 23.5905 31.3511C24.0873 31.1056 24.6305 30.9829 25.2198 30.9829C25.89 30.9829 26.4938 31.1465 27.0311 31.4738C27.5685 31.8011 27.9873 32.2278 28.2878 32.7538V27.5286H30.6105V37.6284C30.6105 37.8738 30.6509 38.0492 30.7318 38.1544C30.8127 38.2596 30.9513 38.318 31.1478 38.3297V40.3286C30.7433 40.4105 30.414 40.4514 30.1598 40.4514C29.7438 40.4514 29.4029 40.3462 29.1371 40.1357C28.8713 39.9253 28.7211 39.6506 28.6865 39.3116L28.6345 38.733C28.2993 39.3175 27.8458 39.7588 27.2738 40.0568C26.7018 40.3549 26.1038 40.504 25.4798 40.504ZM26.0865 38.5051C26.306 38.5051 26.5313 38.4671 26.7624 38.3911C26.9936 38.3151 27.2073 38.207 27.4038 38.0667C27.6002 37.9264 27.7765 37.7628 27.9325 37.5758C28.0885 37.3887 28.2069 37.1842 28.2878 36.9621V34.7703C28.1953 34.5131 28.0653 34.2764 27.8978 34.0601C27.7302 33.8439 27.5396 33.6568 27.3258 33.499C27.112 33.3412 26.8867 33.2156 26.6498 33.122C26.4129 33.0285 26.1789 32.9818 25.9478 32.9818C25.6011 32.9818 25.2805 33.0578 24.9858 33.2097C24.6911 33.3617 24.4398 33.5692 24.2318 33.8322C24.0238 34.0952 23.862 34.3962 23.7465 34.7352C23.6309 35.0742 23.5731 35.4249 23.5731 35.7873C23.5731 36.173 23.6367 36.5295 23.7638 36.8568C23.8909 37.1842 24.0642 37.4705 24.2838 37.716C24.5033 37.9615 24.7662 38.1544 25.0725 38.2947C25.3787 38.4349 25.7167 38.5051 26.0865 38.5051ZM37.4571 40.504C36.7291 40.504 36.0705 40.3783 35.4811 40.127C34.8918 39.8757 34.3891 39.5337 33.9731 39.1012C33.5571 38.6687 33.2365 38.1661 33.0111 37.5933C32.7858 37.0205 32.6731 36.4185 32.6731 35.7873C32.6731 35.1326 32.7829 34.516 33.0025 33.9374C33.222 33.3588 33.5398 32.8503 33.9558 32.4119C34.3718 31.9736 34.8773 31.6258 35.4725 31.3686C36.0676 31.1115 36.7349 30.9829 37.4745 30.9829C38.214 30.9829 38.8756 31.1115 39.4591 31.3686C40.0427 31.6258 40.5396 31.9706 40.9498 32.4031C41.36 32.8357 41.672 33.3383 41.8858 33.9111C42.0996 34.4839 42.2065 35.08 42.2065 35.6996C42.2065 35.8516 42.2036 35.9977 42.1978 36.1379C42.192 36.2782 42.1776 36.3951 42.1544 36.4886H35.1345C35.1691 36.851 35.2558 37.1725 35.3945 37.453C35.5331 37.7336 35.7122 37.9732 35.9318 38.1719C36.1513 38.3706 36.3998 38.5226 36.6771 38.6278C36.9545 38.733 37.2433 38.7856 37.5438 38.7856C38.006 38.7856 38.4422 38.6716 38.8525 38.4437C39.2627 38.2157 39.5429 37.9147 39.6931 37.5407L41.6864 38.1018C41.3513 38.8032 40.8169 39.3789 40.0831 39.8289C39.3493 40.2789 38.474 40.504 37.4571 40.504ZM39.8144 34.9631C39.7567 34.2735 39.5053 33.7211 39.0604 33.3062C38.6156 32.8912 38.0753 32.6837 37.4398 32.6837C37.1278 32.6837 36.836 32.7392 36.5644 32.8503C36.2929 32.9613 36.0531 33.1162 35.8451 33.3149C35.6371 33.5137 35.4667 33.7533 35.3338 34.0338C35.2009 34.3144 35.1229 34.6242 35.0998 34.9631H39.8144Z" fill="white"/>
    </g>
    <defs>
        <clipPath id="clip0_1358_800">
            <rect width="52" height="64" fill="white"/>
        </clipPath>
    </defs>
</svg>
