<svg width="10" height="9" viewBox="0 0 10 9" fill="none" xmlns="http://www.w3.org/2000/svg">
    <path d="M4.9498 8.90156C4.3598 8.90156 3.80481 8.79156 3.2848 8.57156C2.7648 8.34156 2.3098 8.03656 1.9198 7.65656C1.5398 7.26656 1.2348 6.81156 1.0048 6.29156C0.784805 5.77156 0.674805 5.21656 0.674805 4.62656C0.674805 4.03656 0.784805 3.48156 1.0048 2.96156C1.2348 2.44156 1.5398 1.99156 1.9198 1.61156C2.3098 1.22156 2.7648 0.916563 3.2848 0.696563C3.80481 0.466563 4.3598 0.351562 4.9498 0.351562C5.5398 0.351562 6.0948 0.466563 6.6148 0.696563C7.1348 0.916563 7.5848 1.22156 7.9648 1.61156C8.3548 1.99156 8.65981 2.44156 8.8798 2.96156C9.1098 3.48156 9.2248 4.03656 9.2248 4.62656C9.2248 5.21656 9.1098 5.77156 8.8798 6.29156C8.65981 6.81156 8.3548 7.26656 7.9648 7.65656C7.5848 8.03656 7.1348 8.34156 6.6148 8.57156C6.0948 8.79156 5.5398 8.90156 4.9498 8.90156ZM4.9498 8.00156C5.39981 8.00156 5.8248 7.91656 6.2248 7.74656C6.6248 7.56656 6.9698 7.32656 7.2598 7.02656C7.5598 6.71656 7.7948 6.35656 7.9648 5.94656C8.1448 5.53656 8.23481 5.09656 8.23481 4.62656C8.23481 4.15656 8.1448 3.71656 7.9648 3.30656C7.7948 2.89656 7.5598 2.54156 7.2598 2.24156C6.9698 1.93156 6.6248 1.69156 6.2248 1.52156C5.8248 1.34156 5.39981 1.25156 4.9498 1.25156C4.4998 1.25156 4.07481 1.34156 3.6748 1.52156C3.27481 1.69156 2.9248 1.93156 2.6248 2.24156C2.33481 2.54156 2.0998 2.89656 1.9198 3.30656C1.7498 3.71656 1.6648 4.15656 1.6648 4.62656C1.6648 5.09656 1.7498 5.53656 1.9198 5.94656C2.0998 6.35656 2.33481 6.71656 2.6248 7.02656C2.9248 7.32656 3.27481 7.56656 3.6748 7.74656C4.07481 7.91656 4.4998 8.00156 4.9498 8.00156ZM3.3748 2.37656H4.9498C5.6198 2.37656 6.0998 2.50156 6.3898 2.75156C6.6798 3.00156 6.8248 3.35156 6.8248 3.80156C6.8248 4.13156 6.7448 4.41156 6.5848 4.64156C6.4248 4.87156 6.1698 5.03656 5.8198 5.13656L6.8248 6.87656H5.7748L4.8748 5.22656H4.3348V6.87656H3.3748V2.37656ZM4.8898 4.47656C5.2698 4.47656 5.52481 4.42156 5.6548 4.31156C5.79481 4.20156 5.86481 4.03156 5.86481 3.80156C5.86481 3.57156 5.79481 3.40156 5.6548 3.29156C5.52481 3.18156 5.2698 3.12656 4.8898 3.12656H4.3348V4.47656H4.8898Z" fill="black"/>
</svg>
