<svg width="205" height="48" viewBox="0 0 205 48" fill="none" xmlns="http://www.w3.org/2000/svg">
    <path d="M203.352 0.6875H0.685547V46.8868H203.352V0.6875Z" stroke="#DCE2E8" stroke-miterlimit="10"/>
    <path d="M54.528 12.1406H16.9646C15.0862 12.1406 13.5635 13.6634 13.5635 15.5418V32.8492C13.5635 34.7276 15.0862 36.2503 16.9646 36.2503H54.528C56.4064 36.2503 57.9292 34.7276 57.9292 32.8492V15.5418C57.9292 13.6634 56.4064 12.1406 54.528 12.1406Z" fill="black"/>
    <path d="M19.6113 30.295V18.5967H24.7542C25.2548 18.5661 25.7564 18.6382 26.2281 18.8088C26.6998 18.9793 27.1316 19.2445 27.4969 19.5882C27.8622 19.9318 28.1534 20.3466 28.3524 20.807C28.5514 21.2674 28.654 21.7637 28.654 22.2653C28.654 22.7668 28.5514 23.2631 28.3524 23.7235C28.1534 24.1839 27.8622 24.5987 27.4969 24.9424C27.1316 25.286 26.6998 25.5513 26.2281 25.7218C25.7564 25.8923 25.2548 25.9645 24.7542 25.9338H21.6685V30.295H19.6113ZM26.4685 22.2721C26.4732 22.0153 26.424 21.7603 26.324 21.5236C26.2241 21.2869 26.0756 21.0738 25.8883 20.8981C25.7009 20.7223 25.4787 20.5878 25.2361 20.5032C24.9936 20.4186 24.7359 20.3859 24.4799 20.407H21.6685V24.1236H24.4799C24.7348 24.1446 24.9912 24.1121 25.2328 24.0284C25.4745 23.9446 25.6959 23.8113 25.8831 23.6371C26.0703 23.4628 26.219 23.2514 26.3198 23.0164C26.4206 22.7813 26.4712 22.5278 26.4685 22.2721Z" fill="white"/>
    <path d="M36.8635 30.295L34.2852 25.9339H32.2418V30.295H30.1709V18.5967H35.3138C35.8133 18.5577 36.3155 18.6248 36.7873 18.7936C37.2591 18.9624 37.6898 19.2292 38.0512 19.5763C38.4126 19.9234 38.6964 20.3431 38.8841 20.8077C39.0718 21.2724 39.159 21.7714 39.14 22.2722C39.1911 23.0824 38.9384 23.8826 38.4313 24.5166C37.9241 25.1505 37.1989 25.5727 36.3972 25.7007L39.2498 30.295H36.8635ZM37.028 22.2722C37.0308 22.0147 36.9798 21.7594 36.8783 21.5227C36.7768 21.286 36.6271 21.0731 36.4387 20.8976C36.2502 20.722 36.0272 20.5877 35.7839 20.5033C35.5407 20.4188 35.2824 20.386 35.0258 20.407H32.2829V24.1236H35.0258C35.2817 24.1466 35.5397 24.1157 35.7829 24.0329C36.0262 23.95 36.2494 23.817 36.4381 23.6426C36.6268 23.4681 36.7768 23.256 36.8784 23.0199C36.98 22.7839 37.031 22.5291 37.028 22.2722Z" fill="white"/>
    <path d="M40.5664 24.456C40.5664 23.6708 40.7211 22.8932 41.0216 22.1678C41.3221 21.4423 41.7625 20.7831 42.3177 20.2279C42.873 19.6727 43.5321 19.2322 44.2576 18.9317C44.9831 18.6312 45.7606 18.4766 46.5458 18.4766C47.3311 18.4766 48.1086 18.6312 48.8341 18.9317C49.5595 19.2322 50.2187 19.6727 50.7739 20.2279C51.3292 20.7831 51.7696 21.4423 52.0701 22.1678C52.3706 22.8932 52.5253 23.6708 52.5253 24.456C52.5253 25.2412 52.3706 26.0188 52.0701 26.7442C51.7696 27.4697 51.3292 28.1288 50.7739 28.6841C50.2187 29.2393 49.5595 29.6798 48.8341 29.9803C48.1086 30.2808 47.3311 30.4354 46.5458 30.4354C45.7606 30.4354 44.9831 30.2808 44.2576 29.9803C43.5321 29.6798 42.873 29.2393 42.3177 28.6841C41.7625 28.1288 41.3221 27.4697 41.0216 26.7442C40.7211 26.0188 40.5664 25.2412 40.5664 24.456ZM50.4133 24.456C50.4692 23.9137 50.4107 23.3656 50.2415 22.8474C50.0723 22.3291 49.7961 21.8521 49.4309 21.4473C49.0658 21.0425 48.6196 20.7188 48.1215 20.4973C47.6233 20.2758 47.0842 20.1614 46.539 20.1614C45.9938 20.1614 45.4547 20.2758 44.9565 20.4973C44.4583 20.7188 44.0122 21.0425 43.647 21.4473C43.2818 21.8521 43.0057 22.3291 42.8365 22.8474C42.6673 23.3656 42.6087 23.9137 42.6647 24.456C42.6087 24.9983 42.6673 25.5463 42.8365 26.0646C43.0057 26.5829 43.2818 27.0599 43.647 27.4647C44.0122 27.8695 44.4583 28.1931 44.9565 28.4146C45.4547 28.6362 45.9938 28.7506 46.539 28.7506C47.0842 28.7506 47.6233 28.6362 48.1215 28.4146C48.6196 28.1931 49.0658 27.8695 49.4309 27.4647C49.7961 27.0599 50.0723 26.5829 50.2415 26.0646C50.4107 25.5463 50.4692 24.9983 50.4133 24.456Z" fill="white"/>
    <path d="M95.2048 15.8008C93.5366 15.8008 91.906 16.2954 90.519 17.2222C89.1319 18.149 88.0509 19.4662 87.4125 21.0074C86.7742 22.5486 86.6071 24.2444 86.9326 25.8805C87.258 27.5166 88.0613 29.0195 89.2409 30.199C90.4204 31.3786 91.9233 32.1819 93.5593 32.5073C95.1954 32.8327 96.8913 32.6657 98.4325 32.0273C99.9736 31.389 101.291 30.3079 102.218 28.9209C103.144 27.5339 103.639 25.9032 103.639 24.2351C103.639 23.1275 103.421 22.0307 102.997 21.0074C102.573 19.9841 101.952 19.0543 101.169 18.2711C100.386 17.4879 99.4558 16.8667 98.4325 16.4428C97.4092 16.0189 96.3124 15.8008 95.2048 15.8008ZM99.8402 30.2419C99.7168 30.3242 99.6071 30.4202 99.4837 30.4888L95.1911 27.4305L90.9122 30.5299L90.5145 30.2419L92.1465 25.1951L87.9088 22.0819C87.9088 21.9585 87.9911 21.8214 88.0459 21.6842H93.3534L94.9854 16.6511H95.4105L97.0699 21.6979H102.364L102.487 22.1094L98.2082 25.2362L99.8402 30.2419Z" fill="black"/>
    <path d="M184.855 20.0248V22.6031H189.586V25.5516H184.855V28.3768H190.464V31.3939H181.536V17.0625H190.725L189.765 20.0248H184.855Z" fill="black"/>
    <path d="M174.981 28.6116C175.727 28.6052 176.464 28.4466 177.147 28.1453C177.935 27.7996 178.665 27.3373 179.314 26.7739L179.095 30.5727C178.477 30.9958 177.797 31.3197 177.079 31.5327C176.34 31.7487 175.573 31.855 174.802 31.8482C173.978 31.8545 173.157 31.7247 172.375 31.4642C170.504 30.8007 168.972 29.4256 168.11 27.6379C167.656 26.6359 167.406 25.5541 167.373 24.4548C167.34 23.3555 167.525 22.2606 167.918 21.2333C168.267 20.3091 168.802 19.4668 169.491 18.7589C170.18 18.051 171.008 17.4927 171.922 17.119C172.839 16.7352 173.823 16.5394 174.816 16.543C175.601 16.5444 176.382 16.6599 177.134 16.8859C177.88 17.117 178.587 17.4591 179.232 17.9007L178.862 21.5762C178.318 21.0154 177.683 20.5515 176.983 20.2047C176.354 19.902 175.665 19.7428 174.967 19.7384C174.409 19.7225 173.855 19.827 173.341 20.0447C172.828 20.2625 172.367 20.5883 171.991 21.0002C171.204 21.8845 170.791 23.04 170.839 24.223C170.788 25.3999 171.196 26.5507 171.977 27.4322C172.364 27.8358 172.831 28.1532 173.348 28.3636C173.866 28.5739 174.422 28.6725 174.981 28.6527V28.6116Z" fill="black"/>
    <path d="M160.018 16.6094H159.813L152.489 31.3934H155.932L156.864 29.3088H162.693L163.598 31.3934H167.191L160.018 16.6094ZM157.865 26.8402L159.772 22.3557L161.623 26.8402H157.865Z" fill="black"/>
    <path d="M153.6 19.6005C153.309 19.0209 152.887 18.5182 152.365 18.133C151.832 17.7425 151.226 17.4627 150.582 17.3102C149.681 17.1199 148.76 17.0371 147.84 17.0633H144.137V31.3948H147.565V26.1559H148.237C149.743 26.2391 151.229 25.7874 152.434 24.8805C152.944 24.4683 153.35 23.9421 153.619 23.3441C153.888 22.7462 154.013 22.0933 153.984 21.4382C154.006 20.8036 153.874 20.1729 153.6 19.6005ZM150.212 23.029C149.621 23.3956 148.931 23.5682 148.237 23.5228H147.62V19.6965H148.086C148.828 19.6422 149.57 19.7991 150.226 20.149C150.453 20.3101 150.635 20.5275 150.753 20.78C150.87 21.0325 150.921 21.3113 150.898 21.589C150.906 21.8721 150.843 22.1527 150.713 22.4046C150.584 22.6565 150.393 22.8713 150.157 23.029H150.212Z" fill="black"/>
    <path d="M136.416 31.8583C135.832 31.8535 135.249 31.7985 134.674 31.6937C133.974 31.5637 133.282 31.3897 132.603 31.1726L132.315 27.3463C133.026 27.7987 133.779 28.18 134.564 28.4846C135.145 28.6931 135.758 28.7998 136.375 28.8C136.86 28.8155 137.339 28.6814 137.746 28.416C137.912 28.3076 138.048 28.159 138.142 27.984C138.235 27.809 138.283 27.6132 138.281 27.4148C138.281 26.8251 137.65 26.1668 136.361 25.44C136.206 25.3403 136.046 25.2488 135.881 25.1657L134.921 24.6171C134.091 24.1842 133.373 23.5645 132.823 22.8068C132.367 22.1307 132.128 21.3319 132.137 20.5166C132.134 19.9701 132.256 19.4301 132.493 18.938C132.731 18.4459 133.078 18.0148 133.508 17.6777C134.461 16.9109 135.66 16.5161 136.882 16.5668C137.44 16.5736 137.996 16.638 138.542 16.7588C139.212 16.8953 139.872 17.0786 140.516 17.3074V20.6674C139.899 20.2667 139.242 19.9312 138.555 19.6663C138.051 19.4503 137.512 19.3294 136.964 19.3097C136.562 19.2847 136.163 19.3906 135.826 19.6114C135.694 19.7092 135.587 19.8377 135.515 19.9858C135.444 20.1339 135.409 20.2972 135.415 20.4617C135.418 20.7157 135.504 20.9616 135.662 21.1611C135.863 21.4086 136.116 21.6098 136.402 21.7508L138.089 22.6834C139.166 23.2105 140.13 23.9418 140.928 24.8366C141.418 25.519 141.673 26.3419 141.655 27.1817C141.686 27.812 141.579 28.4416 141.342 29.0265C141.105 29.6115 140.744 30.1379 140.283 30.5691C139.225 31.4631 137.868 31.9236 136.484 31.8583H136.416Z" fill="black"/>
    <path d="M127.652 31.3939L122.537 24.7974V31.3939H119.149V17.0625H122.537V23.3025L127.282 17.0625H131.355L125.938 23.8785L131.78 31.3939H127.652Z" fill="black"/>
    <path d="M113.417 25.2374C114.215 24.9026 114.903 24.3516 115.405 23.6466C115.867 22.9424 116.106 22.1157 116.091 21.274C116.091 20.653 115.94 20.0414 115.652 19.4911C115.35 18.942 114.922 18.4721 114.404 18.1197C113.887 17.7448 113.299 17.4789 112.676 17.338C111.773 17.1622 110.853 17.084 109.933 17.1049H106.23V31.3951H109.563V25.7723H110.043L113.883 31.3951H117.792L113.417 25.2374ZM112.265 23.1254C111.675 23.5079 110.978 23.6906 110.276 23.6466H109.563V19.6694H110.125C110.873 19.6071 111.623 19.7694 112.278 20.1357C112.509 20.3032 112.692 20.5278 112.81 20.7875C112.928 21.0471 112.976 21.3329 112.95 21.6169C112.966 21.9049 112.911 22.1923 112.792 22.4549C112.673 22.7175 112.492 22.9475 112.265 23.1254Z" fill="black"/>
    <path d="M80.2012 31.8617L77.1292 23.6605L74.1258 31.8617H73.8789L67.8721 17.0639H71.3418L74.1258 24.7988L77.1292 16.5977H77.4035L80.4206 24.7988L83.1909 17.0639H86.3864L80.4206 31.8617H80.2012Z" fill="black"/>
</svg>
