<svg width="24" height="24" viewBox="0 0 24 24" fill="none" xmlns="http://www.w3.org/2000/svg">
    <path d="M13.2998 6C13.2998 5.7 13.3998 5.5 13.5998 5.3C13.9998 4.9 14.5998 4.9 14.9998 5.3L20.6998 11C20.8998 11.2 20.9998 11.5 20.9998 11.7C20.9998 11.9 20.8998 12.2 20.6998 12.4C20.2998 12.8 19.6998 12.8 19.2998 12.4L13.5998 6.7C13.3998 6.5 13.2998 6.3 13.2998 6Z" fill="black"/>
    <path d="M13.5 17.9008C13.5 17.6008 13.6 17.4008 13.8 17.2008L17.3 13.6008C17.7 13.2008 18.3 13.2008 18.7 13.6008C18.9 13.8008 19 14.1008 19 14.3008C19 14.5008 18.9 14.8008 18.7 15.0008L15.2 18.5008C14.8 18.9008 14.2 18.9008 13.8 18.5008C13.6 18.4008 13.5 18.1008 13.5 17.9008Z" fill="black" fill-opacity="0.48"/>
    <path d="M14.2998 10.8984L4.2998 10.8984C3.6998 10.8984 3.2998 11.2984 3.2998 11.8984C3.2998 12.4984 3.6998 12.8984 4.2998 12.8984L14.2998 12.8984C14.8998 12.8984 15.2998 12.4984 15.2998 11.8984C15.2998 11.3984 14.8998 10.8984 14.2998 10.8984Z" fill="black"/>
</svg>
