<svg width="68" height="68" viewBox="0 0 68 68" fill="none" xmlns="http://www.w3.org/2000/svg">
<rect width="68" height="68" fill="#F3F3F3"/>
<g clip-path="url(#clip0_2228_5466)">
<rect x="7" y="7" width="54" height="10" fill="#FF3D2E"/>
<path d="M58 5H10C7.2 5 5 7.2 5 10V58C5 60.8 7.2 63 10 63H58C60.8 63 63 60.8 63 58V10C63 7.2 60.8 5 58 5ZM10 8H58C59.1 8 60 8.9 60 10V16.2H8V10C8 8.9 8.9 8 10 8ZM58 60H10C8.9 60 8 59.1 8 58V19.2H60V58C60 59.1 59.1 60 58 60Z" fill="black"/>
<path d="M20 52H13V55H20V52Z" fill="black"/>
<path d="M30 49H23V52H30V49Z" fill="#FF3D2E"/>
<path d="M55 24H48V27H55V24Z" fill="#FF3D2E"/>
<path d="M45 27H38V30H45V27Z" fill="black"/>
<path d="M13.1996 14.1992H12.9996C11.9996 14.1992 11.0996 13.3992 11.0996 12.2992V12.1992C11.0996 11.0992 11.9996 10.1992 12.9996 10.1992H13.0996C14.1996 10.1992 14.9996 11.0992 14.9996 12.0992V12.1992C15.0996 13.3992 14.1996 14.1992 13.1996 14.1992Z" fill="black"/>
<path d="M23.9998 41.7008C23.0998 41.7008 22.2998 41.6008 21.4998 41.3008C19.5998 40.6008 18.0998 39.3008 17.1998 37.5008C16.2998 35.7008 16.1998 33.7008 16.8998 31.8008C17.9998 28.8008 20.7998 26.8008 23.9998 26.8008C24.8998 26.8008 25.6998 26.9008 26.4998 27.2008C30.3998 28.6008 32.4998 32.9008 31.0998 36.8008C29.9998 39.6008 27.1998 41.7008 23.9998 41.7008Z" fill="#F3F3F3"/>
<path d="M35.3 33.6C35.3 33.4 35.2 33.2 35 33.1C34.4 32.8 33.8 32.6 33.2 32.4C33.1 32.1 33.1 31.8 33 31.5C32.9 31.2 32.8 30.9 32.7 30.6C33.1 30.1 33.5 29.6 33.9 29C34 28.8 34 28.6 33.9 28.4C33.6 27.9 33.3 27.5 33 27.1C32.9 26.9 32.6 26.8 32.5 26.9C31.9 27 31.2 27.2 30.6 27.4C30.4 27.2 30.1 27 29.9 26.8C29.6 26.6 29.4 26.4 29.1 26.2C29.2 25.6 29.2 24.9 29.1 24.3C29.1 24.1 29 23.9 28.7 23.8L27.8 23.5L27 23.3C26.8 23.2 26.6 23.3 26.4 23.4C25.9 23.9 25.5 24.4 25.2 24.9C24.9 24.9 24.6 24.8 24.2 24.8C23.9 24.8 23.5 24.8 23.2 24.8C22.9 24.3 22.5 23.7 22.1 23.2C22 23.1 21.8 23 21.5 23C21 23.1 20.4 23.3 19.9 23.5C19.7 23.6 19.5 23.8 19.5 24C19.4 24.6 19.4 25.3 19.4 26C19.1 26.1 18.8 26.3 18.6 26.5C18.3 26.7 18.1 26.9 17.8 27.1C17.2 26.8 16.6 26.6 16 26.5C15.8 26.5 15.6 26.5 15.4 26.7C15 27.1 14.7 27.5 14.4 28C14.3 28.2 14.2 28.4 14.4 28.6C14.7 29.2 15.1 29.7 15.5 30.2L15.1 31.1L14.8 32C14.2 32.1 13.6 32.3 12.9 32.6C12.7 32.7 12.6 32.9 12.6 33.1C12.5 33.6 12.5 34.2 12.5 34.7C12.5 34.9 12.6 35.1 12.8 35.2C13.6 35.4 14.2 35.7 14.8 35.8C14.9 36.1 14.9 36.4 15 36.7C15.1 37 15.2 37.3 15.3 37.6C14.9 38.1 14.5 38.6 14.1 39.2C14 39.4 14 39.6 14.1 39.8C14.4 40.3 14.7 40.7 15 41.1C15.1 41.3 15.4 41.4 15.5 41.3C16.1 41.2 16.8 41 17.4 40.8C17.6 41 17.9 41.2 18.1 41.4C18.4 41.6 18.6 41.8 18.9 42C18.8 42.6 18.8 43.3 18.9 43.9C18.9 44.1 19 44.3 19.3 44.4L20.1 44.7L20.9 44.9C21.1 45 21.3 44.9 21.5 44.8C22 44.3 22.4 43.8 22.7 43.3C23 43.3 23.3 43.4 23.7 43.4C24 43.4 24.4 43.4 24.7 43.4C25 43.9 25.4 44.5 25.8 45C25.9 45.1 26.1 45.2 26.4 45.2C26.9 45.1 27.5 44.9 28 44.7C28.2 44.6 28.4 44.4 28.4 44.2C28.5 43.6 28.5 42.9 28.5 42.2C28.8 42.1 29.1 41.9 29.3 41.7C29.6 41.5 29.8 41.3 30.1 41.1C30.7 41.4 31.3 41.6 31.9 41.7C32.1 41.7 32.3 41.7 32.5 41.5C32.9 41.1 33.2 40.7 33.5 40.2C33.6 40 33.7 39.8 33.6 39.6C33.3 39 32.9 38.5 32.5 38L32.9 37.1L33.2 36.2C33.8 36.1 34.4 35.9 35.1 35.6C35.3 35.5 35.4 35.3 35.4 35.1C35.3 34.7 35.3 34.2 35.3 33.6ZM24 28.1C24.7 28.1 25.4 28.2 26 28.4C27.5 28.9 28.7 30 29.4 31.5C30.1 32.9 30.2 34.6 29.6 36.1C28.8 38.5 26.5 40.1 23.9 40.1C23.2 40.1 22.5 40 21.9 39.8C18.8 38.7 17.1 35.2 18.2 32.1C19.2 29.7 21.5 28.1 24 28.1Z" fill="#FF3D2E"/>
<path d="M24.0001 36.7C23.7001 36.7 23.4001 36.6 23.1001 36.5C21.8001 36 21.0001 34.5 21.5001 33.2C21.9001 32.2 22.8001 31.5 23.9001 31.5C24.2001 31.5 24.5001 31.6 24.8001 31.7C26.1001 32.2 26.9001 33.7 26.4001 35C26.1001 36 25.1001 36.7 24.0001 36.7Z" fill="#F3F3F3"/>
<path d="M24.0002 33C24.1002 33 24.2002 33 24.4002 33.1C25.0002 33.3 25.3002 33.9 25.1002 34.5C24.9002 35 24.5002 35.2 24.1002 35.2C24.0002 35.2 23.9002 35.2 23.7002 35.1C23.1002 34.9 22.8002 34.3 23.0002 33.7C23.2002 33.3 23.6002 33 24.0002 33ZM24.0002 30C22.3002 30 20.7002 31 20.1002 32.7C19.3002 34.8 20.5002 37.2 22.6002 37.9C23.1002 38.1 23.5002 38.1 24.0002 38.1C25.7002 38.1 27.3002 37.1 27.9002 35.4C28.7002 33.3 27.5002 30.9 25.4002 30.2C24.9002 30.1 24.5002 30 24.0002 30Z" fill="black"/>
<path d="M43.3998 52.7003C42.4998 52.6003 41.6998 52.4003 40.8998 52.1003C39.0998 51.3003 37.5998 49.8003 36.8998 48.0003C36.1998 46.1003 36.1998 44.1003 36.9998 42.3003C38.2998 39.4003 41.1998 37.6003 44.3998 37.8003C45.2998 37.9003 46.0998 38.1003 46.8998 38.4003C50.6998 40.0003 52.4998 44.5003 50.7998 48.3003C49.5998 51.1003 46.5998 52.9003 43.3998 52.7003Z" fill="#F3F3F3"/>
<path d="M55.3 45.5C55.3 45.3 55.2 45.1 55 45C54.4 44.7 53.8 44.4 53.2 44.2C53.2 43.9 53.1 43.6 53 43.2C52.9 42.9 52.9 42.6 52.7 42.3C53.2 41.9 53.6 41.4 54 40.8C54.1 40.6 54.1 40.4 54 40.2C53.7 39.7 53.5 39.2 53.2 38.8C53.1 38.6 52.9 38.5 52.7 38.5C52 38.6 51.4 38.7 50.8 38.9C50.6 38.7 50.3 38.4 50.1 38.2C49.9 38 49.6 37.8 49.3 37.6C49.4 37 49.4 36.3 49.5 35.7C49.5 35.5 49.4 35.3 49.2 35.2L48.5 34.8L47.7 34.5C47.5 34.4 47.3 34.5 47.1 34.6C46.6 35.1 46.2 35.5 45.8 36C45.5 36 45.2 35.9 44.8 35.9C44.5 35.9 44.2 35.8 43.8 35.9C43.5 35.3 43.2 34.8 42.8 34.2C42.7 34 42.5 34 42.2 34C41.7 34.1 41.1 34.2 40.6 34.4C40.4 34.5 40.2 34.6 40.2 34.8C40.1 35.4 40 36.1 40 36.7C39.7 36.8 39.4 37 39.1 37.2C38.8 37.3 38.6 37.6 38.3 37.7C37.7 37.4 37.1 37.2 36.5 36.9C36.3 36.8 36.1 36.9 35.9 37.1C35.5 37.5 35.1 37.9 34.8 38.3C34.7 38.5 34.6 38.7 34.7 38.9C35 39.5 35.3 40.1 35.7 40.6L35.3 41.5L35 42.4C34.4 42.5 33.7 42.6 33.1 42.8C32.9 42.9 32.8 43 32.7 43.3C32.6 43.8 32.6 44.4 32.5 44.9C32.5 45.1 32.6 45.3 32.8 45.4C33.4 45.7 34 46 34.6 46.2C34.6 46.5 34.7 46.8 34.8 47.2C34.9 47.5 34.9 47.8 35.1 48.1C34.6 48.5 34.2 49 33.8 49.6C33.7 49.8 33.7 50 33.8 50.2C34.1 50.7 34.3 51.2 34.6 51.6C34.7 51.8 34.9 51.9 35.1 51.9C35.8 51.8 36.4 51.7 37 51.5C37.2 51.7 37.5 52 37.7 52.2C37.9 52.4 38.2 52.6 38.5 52.8C38.4 53.4 38.4 54.1 38.3 54.7C38.3 54.9 38.4 55.1 38.6 55.2L39.3 55.6L40.1 55.9C40.3 56 40.5 55.9 40.7 55.8C41.2 55.3 41.6 54.9 42 54.4C42.3 54.4 42.6 54.5 43 54.5C43.3 54.5 43.6 54.6 44 54.5C44.3 55.1 44.6 55.6 45 56.2C45.1 56.4 45.3 56.4 45.6 56.4C46.1 56.3 46.7 56.2 47.2 56C47.4 55.9 47.6 55.8 47.6 55.6C47.7 55 47.8 54.3 47.8 53.7C48.1 53.6 48.4 53.4 48.7 53.2C49 53.1 49.2 52.8 49.5 52.7C50.1 53 50.7 53.2 51.3 53.5C51.5 53.6 51.7 53.5 51.9 53.3C52.3 52.9 52.7 52.5 53 52.1C53.1 51.9 53.2 51.7 53.1 51.5C52.8 50.9 52.5 50.3 52.1 49.8L52.5 48.9L52.8 48C53.4 47.9 54.1 47.8 54.7 47.6C54.9 47.5 55 47.4 55.1 47.1C55.2 46.6 55.3 46 55.3 45.5ZM44.4 39.2C45.1 39.2 45.7 39.4 46.4 39.7C47.9 40.3 49 41.5 49.6 43C50.2 44.5 50.2 46.1 49.5 47.6C48.5 49.9 46.1 51.4 43.6 51.2C42.9 51.2 42.3 51 41.6 50.7C38.6 49.4 37.2 45.8 38.5 42.8C39.5 40.5 41.8 39 44.4 39.2Z" fill="black"/>
<path d="M43.7997 47.8016C43.4997 47.8016 43.1997 47.7016 42.8997 47.6016C41.5997 47.0016 40.9997 45.5016 41.5997 44.2016C41.9997 43.2016 43.0997 42.6016 44.1997 42.6016C44.4997 42.6016 44.7997 42.7016 45.0997 42.8016C46.3997 43.4016 46.9997 44.9016 46.3997 46.2016C45.8997 47.2016 44.8997 47.9016 43.7997 47.8016Z" fill="#F3F3F3"/>
<path d="M44 44.1013C44.1 44.1013 44.2 44.1013 44.4 44.2013C45 44.4013 45.2 45.1013 45 45.6013C44.8 46.1013 44.3 46.3013 43.9 46.3013C43.8 46.3013 43.7 46.3013 43.5 46.2013C42.9 46.0013 42.7 45.3013 42.9 44.8013C43.2 44.3013 43.6 44.1013 44 44.1013ZM44.2 41.1013C42.5 41.0013 40.9 41.9013 40.2 43.6013C39.3 45.7013 40.3 48.1013 42.3 49.0013C42.7 49.2013 43.2 49.3013 43.6 49.3013C45.3 49.4013 46.9 48.5013 47.6 46.8013C48.5 44.7013 47.5 42.3013 45.5 41.4013C45.1 41.3013 44.7 41.1013 44.2 41.1013Z" fill="#FF3D2E"/>
</g>
<defs>
<clipPath id="clip0_2228_5466">
<rect width="58" height="58" fill="white" transform="translate(5 5)"/>
</clipPath>
</defs>
</svg>
