<svg width="68" height="68" viewBox="0 0 68 68" fill="none" xmlns="http://www.w3.org/2000/svg">
<rect width="68" height="68" fill="#F3F3F3"/>
<g clip-path="url(#clip0_2161_2612)">
<path d="M39.5 30.5C38.7 30.5 38 29.8 38 29V7C38 6.2 38.7 5.5 39.5 5.5H61.5C62.3 5.5 63 6.2 63 7V29C63 29.8 62.3 30.5 61.5 30.5H39.5Z" fill="#F3F3F3"/>
<path d="M61.5 7V29H39.5V7H61.5ZM61.5 4H39.5C37.8 4 36.5 5.3 36.5 7V29C36.5 30.7 37.8 32 39.5 32H61.5C63.2 32 64.5 30.7 64.5 29V7C64.5 5.3 63.2 4 61.5 4Z" fill="black"/>
<path d="M50.0311 19.5C50.1311 19.5 50.2311 19.5 50.2311 19.5C51.3311 19.6 52.1311 20.6 51.9311 21.7C51.8311 22.7 50.9311 23.5 49.9311 23.5C49.8311 23.5 49.7311 23.5 49.7311 23.5C48.6311 23.4 47.8311 22.4 48.0311 21.3C48.1311 20.3 49.0311 19.5 50.0311 19.5ZM50.0311 16.5C47.5311 16.5 45.3311 18.4 45.0311 20.9C44.7311 23.6 46.6311 26.1 49.4311 26.5C49.6311 26.5 49.8311 26.5 50.0311 26.5C52.5311 26.5 54.7311 24.6 55.0311 22.1C55.3311 19.4 53.4311 16.9 50.6311 16.5C50.4311 16.5 50.2311 16.5 50.0311 16.5Z" fill="#FF3D2E"/>
<path d="M64.5 11H36.5V14H64.5V11Z" fill="black"/>
<path d="M39.5 62.5C38.7 62.5 38 61.8 38 61V39C38 38.2 38.7 37.5 39.5 37.5H61.5C62.3 37.5 63 38.2 63 39V61C63 61.8 62.3 62.5 61.5 62.5H39.5Z" fill="#FF3D2E"/>
<path d="M61.5 39V61H39.5V39H61.5ZM61.5 36H39.5C37.8 36 36.5 37.3 36.5 39V61C36.5 62.7 37.8 64 39.5 64H61.5C63.2 64 64.5 62.7 64.5 61V39C64.5 37.3 63.2 36 61.5 36Z" fill="black"/>
<path d="M64.5 43H36.5V46H64.5V43Z" fill="black"/>
<path d="M29.4 35.2008C29.4 34.8008 29.5 34.4008 29.5 34.0008C29.5 33.6008 29.5 33.2008 29.4 32.8008C29.8 32.6008 30.2 32.3008 30.5 32.0008C30.7 31.9008 30.7 31.7008 30.7 31.5008C30.6 31.0008 30.5 30.5008 30.3 30.0008C30.2 29.8008 30.1 29.7008 29.9 29.6008C29.4 29.5008 29 29.5008 28.5 29.5008C28.2 28.7008 27.8 28.0008 27.4 27.3008C27.6 26.9008 27.8 26.5008 28 26.1008C28.1 25.9008 28.1 25.7008 27.9 25.5008C27.6 25.1008 27.2 24.7008 26.9 24.4008C26.8 24.3008 26.5 24.2008 26.4 24.3008C26 24.5008 25.5 24.6008 25.1 24.8008C24.5 24.3008 23.8 23.8008 23.1 23.4008C23.1 22.9008 23.1 22.5008 23.1 22.0008C23.1 21.8008 23 21.6008 22.8 21.5008C22.3 21.3008 21.9 21.1008 21.4 21.0008C21.2 20.9008 21 21.0008 20.9 21.1008C20.6 21.4008 20.3 21.8008 20 22.1008C19.2 21.9008 18.4 21.8008 17.6 21.8008C17.4 21.4008 17.2 21.0008 17 20.6008C16.9 20.4008 16.7 20.3008 16.5 20.3008C16 20.3008 15.5 20.4008 15 20.5008C14.8 20.5008 14.6 20.7008 14.6 20.9008C14.5 21.4008 14.4 21.8008 14.3 22.2008C13.5 22.4008 12.8 22.7008 12 23.1008C11.8 23.0008 11.4 22.7008 11 22.5008C10.8 22.4008 10.6 22.4008 10.4 22.5008C10 22.7008 9.6 23.0008 9.2 23.3008C9.1 23.5008 9 23.7008 9 23.9008C9.1 24.4008 9.2 24.8008 9.4 25.2008C8.8 25.8008 8.3 26.4008 7.8 27.0008C7.3 26.9008 6.9 26.8008 6.4 26.8008C6.2 26.8008 6 26.9008 5.9 27.1008C5.6 27.5008 5.4 28.0008 5.2 28.4008C5.1 28.6008 5.1 28.8008 5.3 28.9008C5.6 29.3008 5.9 29.6008 6.2 29.9008C5.9 30.7008 5.7 31.4008 5.6 32.3008C5.2 32.4008 4.7 32.6008 4.3 32.8008C4.2 32.9008 4 33.0008 4 33.3008V34.0008V34.7008C4 34.9008 4.1 35.1008 4.3 35.2008C4.7 35.4008 5.2 35.5008 5.6 35.7008C5.7 36.5008 5.9 37.3008 6.2 38.1008C5.9 38.4008 5.6 38.8008 5.3 39.1008C5.2 39.3008 5.2 39.5008 5.2 39.6008C5.4 40.1008 5.6 40.5008 5.9 40.9008C6 41.1008 6.2 41.2008 6.4 41.2008C6.8 41.2008 7.3 41.1008 7.8 41.0008C8.3 41.7008 8.8 42.3008 9.4 42.8008C9.3 43.2008 9.1 43.7008 9 44.1008C9 44.3008 9 44.5008 9.2 44.6008C9.6 45.0008 10 45.3008 10.5 45.5008C10.7 45.6008 10.9 45.6008 11.1 45.5008C11.5 45.3008 11.9 45.0008 12.2 44.7008C12.9 45.1008 13.7 45.3008 14.5 45.6008C14.6 46.0008 14.7 46.5008 14.8 46.9008C14.9 47.1008 15 47.2008 15.2 47.3008C15.7 47.4008 16.2 47.5008 16.7 47.5008C16.9 47.5008 17.1 47.4008 17.2 47.2008C17.4 46.8008 17.6 46.4008 17.8 46.0008C18.6 46.0008 19.4 45.9008 20.2 45.7008C20.5 46.0008 20.8 46.4008 21.1 46.7008C21.2 46.8008 21.4 46.9008 21.6 46.8008C22.1 46.6008 22.6 46.5008 23 46.3008C23.2 46.2008 23.3 46.0008 23.3 45.8008C23.3 45.3008 23.3 44.9008 23.3 44.4008C24 44.0008 24.7 43.5008 25.3 43.0008C25.7 43.2008 26.1 43.3008 26.6 43.5008C26.8 43.6008 27 43.5008 27.1 43.4008C27.4 43.0008 27.8 42.7008 28.1 42.3008C28.2 42.1008 28.3 41.9008 28.2 41.7008C28 41.3008 27.8 40.9008 27.6 40.5008C28 39.8008 28.4 39.1008 28.7 38.3008C29.1 38.3008 29.6 38.2008 30.1 38.2008C30.3 38.2008 30.5 38.0008 30.5 37.8008C30.6 37.3008 30.8 36.8008 30.9 36.3008C30.9 36.1008 30.9 35.9008 30.7 35.8008C30.2 35.7008 29.8 35.5008 29.4 35.2008Z" fill="black"/>
<path d="M17.5 43C22.4706 43 26.5 38.9706 26.5 34C26.5 29.0294 22.4706 25 17.5 25C12.5294 25 8.5 29.0294 8.5 34C8.5 38.9706 12.5294 43 17.5 43Z" fill="#FF3D2E"/>
<path d="M36.5 17.6016H20.5C18.8 17.6016 17.5 18.9016 17.5 20.5016V47.4016C17.5 49.0016 18.8 50.3016 20.5 50.3016H37.5" stroke="black" stroke-width="3" stroke-miterlimit="10"/>
<path d="M17.4011 37.5C17.3011 37.5 17.1011 37.5 17.0011 37.5C16.1011 37.4 15.2011 36.9 14.7011 36.2C14.1011 35.5 13.9011 34.5 14.0011 33.6C14.2011 31.8 15.7011 30.5 17.5011 30.5C17.6011 30.5 17.8011 30.5 17.9011 30.5C18.8011 30.6 19.7011 31.1 20.2011 31.8C20.8011 32.5 21.0011 33.5 20.9011 34.4C20.6011 36.2 19.2011 37.5 17.4011 37.5Z" fill="white"/>
<path d="M17.4002 32C17.5002 32 17.6002 32 17.6002 32C18.7002 32.1 19.5002 33.1 19.3002 34.2C19.2002 35.2 18.3002 36 17.3002 36C17.2002 36 17.1002 36 17.1002 36C16.0002 35.9 15.2002 34.9 15.4002 33.8C15.5002 32.8 16.4002 32 17.4002 32ZM17.4002 29C14.9002 29 12.7002 30.9 12.4002 33.4C12.1002 36.1 14.0002 38.6 16.8002 39C17.0002 39 17.2002 39 17.4002 39C19.9002 39 22.1002 37.1 22.4002 34.6C22.7002 31.9 20.8002 29.4 18.0002 29C17.8002 29 17.6002 29 17.4002 29Z" fill="black"/>
</g>
<defs>
<clipPath id="clip0_2161_2612">
<rect width="60.5" height="60" fill="white" transform="translate(4 4)"/>
</clipPath>
</defs>
</svg>
