<svg width="68" height="68" viewBox="0 0 68 68" fill="none" xmlns="http://www.w3.org/2000/svg">
<rect width="68" height="68" fill="#F3F3F3"/>
<g clip-path="url(#clip0_2439_5471)">
<rect x="13" y="24" width="16" height="15" fill="#FF3D2E"/>
<path d="M58.7996 62.1992H32.3996C30.5996 62.1992 29.0996 60.6992 29.0996 58.8992V9.49922C29.0996 7.69922 30.5996 6.19922 32.3996 6.19922H58.8996C60.6996 6.19922 62.1996 7.69922 62.1996 9.49922V58.9992C62.0996 60.7992 60.5996 62.1992 58.7996 62.1992Z" fill="#F3F3F3"/>
<path d="M13.1996 14.1992H12.9996C11.9996 14.1992 11.0996 13.3992 11.0996 12.2992V12.1992C11.0996 11.0992 11.9996 10.1992 12.9996 10.1992H13.0996C14.1996 10.1992 14.9996 11.0992 14.9996 12.0992V12.1992C15.0996 13.3992 14.1996 14.1992 13.1996 14.1992Z" fill="black"/>
<path d="M58 5H10C7.2 5 5 7.2 5 10V58C5 60.8 7.2 63 10 63H58C60.8 63 63 60.8 63 58V10C63 7.2 60.8 5 58 5ZM10 8H27V16.2H8V10C8 8.9 8.9 8 10 8ZM8 58V19.2H27V22H11V40H27V43.5H11V46.5H27V53.5H11V56.5H27V60H10C8.9 60 8 59.1 8 58ZM27 37H14V25H27V37ZM60 58C60 59.1 59.1 60 58 60H30V40V22V8H58C59.1 8 60 8.9 60 10V58Z" fill="black"/>
<path d="M21 48.5H11V51.5H21V48.5Z" fill="black"/>
<path d="M43 17.5H33V20.5H43V17.5Z" fill="#FF3D2E"/>
<path d="M48.0996 47.1992H38.0996V50.1992H48.0996V47.1992Z" fill="#FF3D2E"/>
<path d="M50.0996 23.1992H40.0996V26.1992H50.0996V23.1992Z" fill="#FF3D2E"/>
<path d="M57.0996 41.1992H47.0996V44.1992H57.0996V41.1992Z" fill="#FF3D2E"/>
<path d="M47.0996 35.1992H37.0996V38.1992H47.0996V35.1992Z" fill="#FF3D2E"/>
<path d="M51 17.5H45V20.5H51V17.5Z" fill="#FF3D2E"/>
<path d="M39.0996 29.1992H33.0996V32.1992H39.0996V29.1992Z" fill="#FF3D2E"/>
<path d="M52.0996 29.1992H46.0996V32.1992H52.0996V29.1992Z" fill="#FF3D2E"/>
<path d="M45.0996 41.1992H39.0996V44.1992H45.0996V41.1992Z" fill="#FF3D2E"/>
<path d="M56.0996 47.1992H50.0996V50.1992H56.0996V47.1992Z" fill="#FF3D2E"/>
<path d="M56 17.5H53V20.5H56V17.5Z" fill="#FF3D2E"/>
<path d="M38.0996 23.1992H35.0996V26.1992H38.0996V23.1992Z" fill="#FF3D2E"/>
<path d="M52.0996 35.1992H49.0996V38.1992H52.0996V35.1992Z" fill="#FF3D2E"/>
<path d="M36.0996 47.1992H33.0996V50.1992H36.0996V47.1992Z" fill="#FF3D2E"/>
<path d="M44.0996 29.1992H41.0996V32.1992H44.0996V29.1992Z" fill="#FF3D2E"/>
</g>
<defs>
<clipPath id="clip0_2439_5471">
<rect width="58" height="58" fill="white" transform="translate(5 5)"/>
</clipPath>
</defs>
</svg>
