<svg width="68" height="68" viewBox="0 0 68 68" fill="none" xmlns="http://www.w3.org/2000/svg">
<rect width="68" height="68" fill="#F3F3F3"/>
<g clip-path="url(#clip0_2439_5473)">
<path d="M24.8996 29.6984C24.7996 29.6984 24.5996 29.5984 24.4996 29.4984L19.7996 24.8984L18.9996 25.0984C18.1996 25.2984 17.3996 25.3984 16.5996 25.3984C11.5996 25.3984 7.59961 21.3984 7.59961 16.3984C7.59961 11.3984 11.5996 7.39844 16.5996 7.39844C21.5996 7.39844 25.5996 11.3984 25.5996 16.3984V28.9984C25.5996 29.1984 25.4996 29.2984 25.3996 29.3984C25.1996 29.5984 24.9996 29.6984 24.8996 29.6984Z" fill="#F3F3F3"/>
<path d="M16.5 9C20.6 9 24 12.4 24 16.5V27L21.4 24.5L20.2 23.3L18.6 23.8C17.9 24 17.2 24.1 16.6 24.1C12.4 24 9 20.6 9 16.5C9 12.4 12.4 9 16.5 9ZM16.5 6C10.7 6 6 10.7 6 16.5C6 22.3 10.7 27 16.5 27C17.5 27 18.4 26.9 19.3 26.6L23.4 30.6C23.8 31 24.3 31.2 24.8 31.2C25.9 31.2 26.9 30.4 26.9 29.1V16.5C27 10.7 22.3 6 16.5 6Z" fill="black"/>
<path d="M14 50.3008C10.4 50.3008 7.5 47.4008 7.5 43.8008C7.5 40.2008 10.4 37.3008 14 37.3008H22C25.6 37.3008 28.5 40.2008 28.5 43.8008C28.5 47.4008 25.6 50.3008 22 50.3008H14Z" fill="#FF3D2E"/>
<path d="M22 38.8008C24.8 38.8008 27 41.0008 27 43.8008C27 46.6008 24.8 48.8008 22 48.8008H14C11.2 48.8008 9 46.6008 9 43.8008C9 41.0008 11.2 38.8008 14 38.8008H22ZM22 35.8008H14C9.6 35.8008 6 39.4008 6 43.8008C6 48.2008 9.6 51.8008 14 51.8008H22C26.4 51.8008 30 48.2008 30 43.8008C30 39.4008 26.4 35.8008 22 35.8008Z" fill="black"/>
<path d="M14 41.8008C12.9 41.8008 12 42.7008 12 43.8008C12 44.9008 12.9 45.8008 14 45.8008C15.1 45.8008 16 44.9008 16 43.8008C16 42.7008 15.1 41.8008 14 41.8008Z" fill="black"/>
<path d="M22 41.8008C20.9 41.8008 20 42.7008 20 43.8008C20 44.9008 20.9 45.8008 22 45.8008C23.1 45.8008 24 44.9008 24 43.8008C24 42.7008 23.1 41.8008 22 41.8008Z" fill="black"/>
<path d="M22.5 56.8008H13.5C12.7 56.8008 12 56.1008 12 55.3008C12 54.5008 12.7 53.8008 13.5 53.8008H22.5C23.3 53.8008 24 54.5008 24 55.3008C24 56.2008 23.3 56.8008 22.5 56.8008Z" fill="black"/>
<path d="M20.5 61.8008H15.5C14.7 61.8008 14 61.1008 14 60.3008C14 59.5008 14.7 58.8008 15.5 58.8008H20.5C21.3 58.8008 22 59.5008 22 60.3008C22 61.2008 21.3 61.8008 20.5 61.8008Z" fill="black"/>
<path d="M35 47.3008C34.3 47.3008 33.5 46.7008 33.5 45.8008V27.8008C33.5 20.4008 39.6 14.3008 47 14.3008C54.4 14.3008 60.5 20.4008 60.5 27.8008C60.5 35.2008 54.4 41.3008 47 41.3008C45.8 41.3008 44.6 41.1008 43.4 40.8008L42.6 40.6008L36 46.9008C35.7 47.2008 35.4 47.3008 35 47.3008Z" fill="#FF3D2E"/>
<path d="M47 15.8008C53.6 15.8008 59 21.2008 59 27.8008C59 34.4008 53.6 39.8008 47 39.8008C45.9 39.8008 44.9 39.6008 43.8 39.3008L42.2 38.8008L41 40.0008L35 45.8008V27.8008C35 21.2008 40.4 15.8008 47 15.8008ZM47 12.8008C38.7 12.8008 32 19.5008 32 27.8008V45.8008C32 47.6008 33.5 48.8008 35 48.8008C35.7 48.8008 36.5 48.5008 37.1 48.0008L43 42.3008C44.3 42.7008 45.6 42.9008 47 42.9008C55.3 42.9008 62 36.2008 62 27.9008C62 19.6008 55.3 12.8008 47 12.8008Z" fill="black"/>
<path d="M40 25.8008C38.9 25.8008 38 26.7008 38 27.8008C38 28.9008 38.9 29.8008 40 29.8008C41.1 29.8008 42 28.9008 42 27.8008C42 26.7008 41.1 25.8008 40 25.8008Z" fill="black"/>
<path d="M47 25.8008C45.9 25.8008 45 26.7008 45 27.8008C45 28.9008 45.9 29.8008 47 29.8008C48.1 29.8008 49 28.9008 49 27.8008C49 26.7008 48.1 25.8008 47 25.8008Z" fill="black"/>
<path d="M54 25.8008C52.9 25.8008 52 26.7008 52 27.8008C52 28.9008 52.9 29.8008 54 29.8008C55.1 29.8008 56 28.9008 56 27.8008C56 26.7008 55.1 25.8008 54 25.8008Z" fill="black"/>
</g>
<defs>
<clipPath id="clip0_2439_5473">
<rect width="56" height="55.8" fill="white" transform="translate(6 6)"/>
</clipPath>
</defs>
</svg>
