<svg width="68" height="70" viewBox="0 0 68 70" fill="none" xmlns="http://www.w3.org/2000/svg">
<rect width="68" height="68" fill="#F3F3F3"/>
<g clip-path="url(#clip0_2228_5493)">
<path d="M13.5 55.0012C12.7 55.0012 12 54.2998 12 53.4982V20.9336H57V53.4982C57 54.2998 56.3 55.0012 55.5 55.0012H13.5Z" fill="#FF3D2E"/>
<path d="M60 9.91016H8C6.3 9.91016 5 11.2127 5 12.9161V18.928C5 20.6314 6.3 21.934 8 21.934H10V52.9956C10 54.699 11.3 56.0016 13 56.0016H32.5V59.2079C30.7 59.8091 29.3 61.3121 29 63.4163C28.7 66.1216 30.6 68.6266 33.4 69.0274C33.6 69.0274 33.8 69.0274 34 69.0274C36.5 69.0274 38.7 67.1236 39 64.6187C39.3 62.2139 37.8 59.9093 35.5 59.2079V56.0016H55C56.7 56.0016 58 54.699 58 52.9956V21.934H60C61.7 21.934 63 20.6314 63 18.928V12.9161C63 11.2127 61.7 9.91016 60 9.91016ZM36 64.2179C35.9 65.2199 35 66.0214 34 66.0214C33.9 66.0214 33.8 66.0214 33.8 66.0214C32.7 65.9212 31.9 64.9193 32.1 63.8171C32.2 62.8151 33.1 62.0135 34.1 62.0135C34.2 62.0135 34.3 62.0135 34.3 62.0135C35.3 62.1137 36.1 63.1157 36 64.2179ZM55 52.9956H13V21.934H55V52.9956ZM60 18.928H58H10H8V12.9161H60V18.928Z" fill="#231F20"/>
<path d="M44.1996 47.0863V38.7698H44.3996V47.0863H44.1996ZM38.2996 45.4831V38.6696H38.4996V45.4831H38.2996ZM26.4996 44.4811V38.6696H26.6996V44.4811H26.4996ZM32.4996 39.7717V38.7698H32.6996V39.7717H32.4996ZM41.1996 37.367V31.5554H41.3996V37.367H41.1996ZM35.3996 37.367V26.4453H35.5996V37.367H35.3996ZM29.4996 37.367V28.2489H29.6996V37.367H29.4996ZM23.5996 37.367V33.5594H23.7996V37.367H23.5996Z" fill="#FF3D2E"/>
<path d="M35.7 24.9414H35.1C34.4 24.9414 33.8 25.5426 33.8 26.244V37.2659H31.2V28.1478C31.2 27.4464 30.6 26.8452 29.9 26.8452H29.3C28.6 26.8452 28 27.4464 28 28.1478V37.366H25.2V33.4583C25.2 32.7569 24.6 32.1557 23.9 32.1557H23.3C22.6 32.1557 22 32.7569 22 33.4583V37.366V37.867V39.0694H25V44.9812C25 45.6825 25.6 46.2837 26.3 46.2837H26.9C27.6 46.2837 28.2 45.6825 28.2 44.9812V39.1696H30.9V40.2718C30.9 40.9732 31.5 41.5744 32.2 41.5744H32.8C33.5 41.5744 34.1 40.9732 34.1 40.2718V39.1696H36.7V46.0833C36.7 46.7847 37.3 47.3859 38 47.3859H38.6C39.3 47.3859 39.9 46.7847 39.9 46.0833V39.2698H42.6V47.6865C42.6 48.3879 43.2 48.9891 43.9 48.9891H44.5C45.2 48.9891 45.8 48.3879 45.8 47.6865V39.37V37.7668H42.8V31.9553C42.8 31.2539 42.2 30.6527 41.5 30.6527H40.9C40.2 30.6527 39.6 31.2539 39.6 31.9553V37.867H37.1V26.244C37.1 25.5426 36.5 24.9414 35.7 24.9414Z" fill="#231F20"/>
</g>
<defs>
<clipPath id="clip0_2228_5493">
<rect width="58" height="59.1172" fill="white" transform="translate(5 9.91016)"/>
</clipPath>
</defs>
</svg>
