<svg width="68" height="68" viewBox="0 0 68 68" fill="none" xmlns="http://www.w3.org/2000/svg">
<path d="M59.6304 6.19141C58.8333 6.19103 58.0542 6.42882 57.3932 6.87426C56.7322 7.3197 56.2193 7.95247 55.9204 8.69141H38.2604V6.19141H30.2604V8.69141H12.7804C12.4323 7.83088 11.7957 7.11821 10.9798 6.67554C10.1639 6.23286 9.21938 6.08775 8.3082 6.26507C7.39702 6.44238 6.57588 6.93109 5.9855 7.64743C5.39512 8.36377 5.07227 9.26314 5.07227 10.1914C5.07227 11.1197 5.39512 12.0191 5.9855 12.7354C6.57588 13.4517 7.39702 13.9404 8.3082 14.1178C9.21938 14.2951 10.1639 14.15 10.9798 13.7073C11.7957 13.2646 12.4323 12.5519 12.7804 11.6914H21.7804C17.2504 14.0914 13.7804 17.9814 13.0504 23.5514C13.0354 23.6408 13.0354 23.732 13.0504 23.8214H10.6904V31.8214H18.6904V23.8214H16.0004C17.0004 16.8214 23.4504 13.1014 30.2604 12.0314V14.1914H38.2604V12.0014C45.0004 13.0014 51.1404 16.7714 52.0004 23.6714H49.6404V31.6714H57.6404V23.6714H55.0004C55.0053 23.645 55.0053 23.6179 55.0004 23.5914C54.7323 21.0755 53.8364 18.6673 52.3948 16.588C50.9533 14.5087 49.0124 12.8249 46.7504 11.6914H55.9004C56.1725 12.3641 56.6225 12.9502 57.2022 13.3867C57.7819 13.8233 58.4694 14.0939 59.1911 14.1696C59.9129 14.2453 60.6416 14.1232 61.2993 13.8165C61.9569 13.5098 62.5187 13.0299 62.9246 12.4283C63.3304 11.8267 63.5649 11.126 63.603 10.4013C63.641 9.67662 63.4813 8.95524 63.1407 8.31441C62.8002 7.67359 62.2918 7.13747 61.6699 6.76349C61.048 6.38951 60.336 6.19176 59.6104 6.19141H59.6304Z" fill="black"/>
<path d="M36.2092 18.8786C35.9843 18.5255 35.6739 18.2349 35.3069 18.0335C34.9398 17.8321 34.5279 17.7266 34.1092 17.7266C33.6906 17.7266 33.2787 17.8321 32.9116 18.0335C32.5446 18.2349 32.2342 18.5255 32.0092 18.8786L22.6292 33.4386C22.3126 33.9286 22.1238 34.4901 22.0801 35.0718C22.0364 35.6535 22.1393 36.2369 22.3792 36.7686L25.8792 44.5486C25.2135 44.7985 24.6396 45.2453 24.2341 45.8295C23.8286 46.4137 23.6106 47.1075 23.6092 47.8186V51.8186C23.6122 52.6659 23.9233 53.4832 24.4845 54.118C25.0457 54.7528 25.8187 55.1618 26.6592 55.2686C26.6322 55.4509 26.6155 55.6345 26.6092 55.8186V57.8186C26.6092 58.7469 26.978 59.6371 27.6344 60.2935C28.2907 60.9499 29.181 61.3186 30.1092 61.3186H38.1092C39.0375 61.3186 39.9277 60.9499 40.5841 60.2935C41.2405 59.6371 41.6092 58.7469 41.6092 57.8186V55.8186C41.6046 55.6339 41.5845 55.45 41.5492 55.2686C42.3916 55.164 43.167 54.7561 43.7302 54.121C44.2935 53.486 44.606 52.6674 44.6092 51.8186V47.8186C44.6079 47.1075 44.3899 46.4137 43.9844 45.8295C43.5789 45.2453 43.005 44.7985 42.3392 44.5486L45.8392 36.7486C46.0765 36.2163 46.1779 35.6333 46.1343 35.0521C46.0906 34.4709 45.9033 33.9096 45.5892 33.4186L36.2092 18.8786ZM34.1092 33.7686C34.4265 33.7666 34.7372 33.859 35.0019 34.0341C35.2665 34.2091 35.4732 34.4589 35.5955 34.7517C35.7178 35.0445 35.7504 35.367 35.6889 35.6783C35.6275 35.9896 35.4749 36.2756 35.2506 36.5C35.0262 36.7243 34.7402 36.8769 34.4289 36.9383C34.1176 36.9997 33.7951 36.9672 33.5023 36.8449C33.2095 36.7225 32.9598 36.5159 32.7847 36.2513C32.6097 35.9866 32.5173 35.6759 32.5192 35.3586C32.5192 34.9369 32.6868 34.5325 32.9849 34.2343C33.2831 33.9361 33.6875 33.7686 34.1092 33.7686ZM38.6092 57.7686C38.6092 57.9012 38.5566 58.0284 38.4628 58.1222C38.369 58.2159 38.2418 58.2686 38.1092 58.2686H30.1092C29.9766 58.2686 29.8495 58.2159 29.7557 58.1222C29.6619 58.0284 29.6092 57.9012 29.6092 57.7686V55.7686C29.6092 55.636 29.6619 55.5088 29.7557 55.4151C29.8495 55.3213 29.9766 55.2686 30.1092 55.2686H38.1092C38.241 55.2712 38.3667 55.3247 38.46 55.4179C38.5532 55.5111 38.6067 55.6368 38.6092 55.7686V57.7686ZM41.1092 47.2686C41.2418 47.2686 41.369 47.3213 41.4628 47.4151C41.5566 47.5088 41.6092 47.636 41.6092 47.7686V51.7686C41.6067 51.9004 41.5532 52.0261 41.46 52.1193C41.3667 52.2126 41.241 52.2661 41.1092 52.2686H27.1092C26.9766 52.2686 26.8495 52.2159 26.7557 52.1222C26.6619 52.0284 26.6092 51.9012 26.6092 51.7686V47.7686C26.6092 47.636 26.6619 47.5088 26.7557 47.4151C26.8495 47.3213 26.9766 47.2686 27.1092 47.2686H41.0792H41.1092ZM43.1092 35.4686L39.1692 44.2686H29.0592L25.1192 35.4886C25.0798 35.4148 25.0592 35.3323 25.0592 35.2486C25.0592 35.1649 25.0798 35.0825 25.1192 35.0086L32.5792 23.4386V30.9986C31.5533 31.3534 30.6864 32.0602 30.1323 32.9936C29.5782 33.927 29.3728 35.0266 29.5527 36.0971C29.7325 37.1676 30.286 38.1397 31.1147 38.8408C31.9434 39.5419 32.9937 39.9266 34.0792 39.9266C35.1647 39.9266 36.2151 39.5419 37.0438 38.8408C37.8725 38.1397 38.4259 37.1676 38.6058 36.0971C38.7856 35.0266 38.5803 33.927 38.0262 32.9936C37.4721 32.0602 36.6051 31.3534 35.5792 30.9986V23.4786L43.0392 35.0486C43.0882 35.1155 43.1193 35.1937 43.1298 35.2759C43.1403 35.3581 43.1298 35.4416 43.0992 35.5186L43.1092 35.4686Z" fill="#FF3D2E"/>
</svg>
