<svg width="68" height="68" viewBox="0 0 68 68" fill="none" xmlns="http://www.w3.org/2000/svg">
<rect width="68" height="68" fill="#F3F3F3"/>
<g clip-path="url(#clip0_2439_5472)">
<path d="M51.0231 61H11.9769C9.80769 61 8 59.5129 8 57.7284V18.1724C8.12051 16.3879 9.80769 15 11.9769 15H51.0231C53.1923 15 55 16.4871 55 18.2716V57.8276C55 59.6121 53.1923 61 51.0231 61Z" fill="#FF3D2E"/>
<path d="M51.0231 42H11.9769C9.80769 42 8 41.1272 8 40.0797V16.8621C8.12051 15.8147 9.80769 15 11.9769 15H51.0231C53.1923 15 55 15.8728 55 16.9203V40.1379C55 41.1853 53.1923 42 51.0231 42Z" fill="#F3F3F3"/>
<path d="M22.1992 21.1016H12.1992V24.1016H22.1992V21.1016Z" fill="#FF3D2E"/>
<path d="M29.2988 26.8008H19.2988V29.8008H29.2988V26.8008Z" fill="#FF3D2E"/>
<path d="M30.1992 21.1016H24.1992V24.1016H30.1992V21.1016Z" fill="#FF3D2E"/>
<path d="M18.2988 32.8008H12.2988V35.8008H18.2988V32.8008Z" fill="#FF3D2E"/>
<path d="M31.2988 32.8008H25.2988V35.8008H31.2988V32.8008Z" fill="#FF3D2E"/>
<path d="M35.1992 21.1016H32.1992V24.1016H35.1992V21.1016Z" fill="#FF3D2E"/>
<path d="M17.2988 26.8008H14.2988V29.8008H17.2988V26.8008Z" fill="#FF3D2E"/>
<path d="M23.2988 32.8008H20.2988V35.8008H23.2988V32.8008Z" fill="#FF3D2E"/>
<rect x="7.5" y="14.5" width="47" height="47" rx="3.5" stroke="black" stroke-width="3"/>
<rect x="8" y="40" width="47" height="3" fill="black"/>
<rect x="38.5" y="6.5" width="23" height="41" rx="2.5" fill="#F3F3F3" stroke="black" stroke-width="3"/>
<path d="M18.5992 52.3L12.1992 56V53.4L15.5992 51.5L12.1992 49.6V47L18.5992 50.7V52.3Z" fill="black"/>
<path d="M22.7996 56.8016H20.0996V54.1016H22.7996V56.8016Z" fill="black"/>
<path d="M27.3992 56.8016H24.6992V54.1016H27.3992V56.8016Z" fill="black"/>
<path d="M45 6H55V8C55 9.10457 54.1046 10 53 10H47C45.8954 10 45 9.10457 45 8V6Z" fill="black"/>
<rect x="43" y="33" width="14" height="3" fill="black"/>
<rect x="43" y="38" width="8" height="3" fill="black"/>
<path d="M56 22C56 23.3845 55.5895 24.7378 54.8203 25.889C54.0511 27.0401 52.9579 27.9373 51.6788 28.4672C50.3997 28.997 48.9922 29.1356 47.6344 28.8655C46.2765 28.5954 45.0292 27.9287 44.0503 26.9497C43.0713 25.9708 42.4046 24.7235 42.1345 23.3656C41.8644 22.0078 42.003 20.6003 42.5328 19.3212C43.0627 18.0421 43.9599 16.9489 45.111 16.1797C46.2622 15.4105 47.6155 15 49 15V22H56Z" fill="black"/>
<path d="M51 13C51.9193 13 52.8295 13.1811 53.6788 13.5328C54.5281 13.8846 55.2997 14.4002 55.9497 15.0503C56.5998 15.7003 57.1154 16.4719 57.4672 17.3212C57.8189 18.1705 58 19.0807 58 20L51 20V13Z" fill="#FF3D2E"/>
</g>
<defs>
<clipPath id="clip0_2439_5472">
<rect width="57" height="58" fill="white" transform="translate(6 5)"/>
</clipPath>
</defs>
</svg>
