<svg width="68" height="68" viewBox="0 0 68 68" fill="none" xmlns="http://www.w3.org/2000/svg">
<rect width="68" height="68" fill="#F3F3F3"/>
<g clip-path="url(#clip0_2161_2510)">
<path d="M15.3 60.7031C15.1 60.7031 14.9 60.6031 14.8 60.3031L6.5 29.5031C6.5 29.3031 6.5 29.2031 6.5 29.1031C6.5 29.0031 6.6 28.9031 6.8 28.9031L30 22.7031H30.1C30.3 22.7031 30.5 22.8031 30.6 23.1031L38.9 54.0031C38.9 54.2031 38.9 54.3031 38.9 54.4031C38.9 54.5031 38.8 54.6031 38.6 54.6031L15.4 60.8031C15.4 60.7031 15.3 60.7031 15.3 60.7031Z" fill="#FF3D2E"/>
<path d="M29.5004 24.4016L37.3004 53.4016L16.0004 59.0016L8.2004 30.0016L29.5004 24.4016ZM30.2004 21.1016C30.0004 21.1016 29.9004 21.1016 29.7004 21.2016L6.5004 27.4016C5.4004 27.7016 4.8004 28.8016 5.1004 29.8016L13.4004 60.7016C13.6004 61.6016 14.4004 62.2016 15.3004 62.2016C15.5004 62.2016 15.6004 62.2016 15.8004 62.1016L39.0004 56.0016C40.1004 55.7016 40.7004 54.6016 40.4004 53.6016L32.1004 22.7016C31.9004 21.7016 31.1004 21.1016 30.2004 21.1016Z" fill="black"/>
<path d="M52.2 60.6H52.1L28.9 54.4C28.6 54.3 28.5 54.1 28.5 53.8L36.8 22.9C36.9 22.6 37.1 22.5 37.3 22.5H37.4L60.6 28.7C60.9 28.8 61 29 61 29.3L52.7 60.2C52.7 60.5 52.4 60.6 52.2 60.6Z" fill="#F3F3F3"/>
<path d="M38.1004 24.2L59.4004 29.9L51.6004 58.9L30.3004 53.2L38.1004 24.2ZM37.3004 21C36.4004 21 35.6004 21.6 35.4004 22.5L27.1004 53.4C26.8004 54.5 27.4004 55.6 28.5004 55.8L51.7004 62C51.9004 62 52.0004 62.1 52.2004 62.1C53.1004 62.1 53.9004 61.5 54.1004 60.6L62.4004 29.7C62.7004 28.6 62.1004 27.5 61.0004 27.3L37.8004 21.1C37.7004 21 37.5004 21 37.3004 21Z" fill="black"/>
<path d="M44.0002 51L43.2002 53.9L49.0002 55.5L49.8002 52.6L44.0002 51Z" fill="#FF3D2E"/>
<path d="M21.8008 40.5C21.5008 40.5 21.3008 40.3 21.3008 40V8C21.3008 7.7 21.5008 7.5 21.8008 7.5H45.8008C46.1008 7.5 46.3008 7.7 46.3008 8V40C46.3008 40.3 46.1008 40.5 45.8008 40.5H21.8008Z" fill="#F3F3F3"/>
<path d="M44.8008 9V39H22.8008V9H44.8008ZM45.8008 6H21.8008C20.7008 6 19.8008 6.9 19.8008 8V40C19.8008 41.1 20.7008 42 21.8008 42H45.8008C46.9008 42 47.8008 41.1 47.8008 40V8C47.8008 6.9 46.9008 6 45.8008 6Z" fill="black"/>
<path d="M41.8008 12H25.8008V15H41.8008V12Z" fill="black"/>
<path d="M39.8008 22H25.8008V25H39.8008V22Z" fill="black"/>
<path d="M35.8008 17H25.8008V20H35.8008V17Z" fill="black"/>
<path d="M32.8008 32H25.8008V35H32.8008V32Z" fill="black"/>
</g>
<defs>
<clipPath id="clip0_2161_2510">
<rect width="57.5" height="56.2" fill="white" transform="translate(5 6)"/>
</clipPath>
</defs>
</svg>
