<svg width="16" height="16" viewBox="0 0 16 16" fill="none" xmlns="http://www.w3.org/2000/svg">
    <path d="M2.99994 4.66016C2.86475 4.66584 2.73212 4.69891 2.61008 4.75735C2.48804 4.8158 2.37912 4.8984 2.28994 5.00016C2.19621 5.09312 2.12182 5.20372 2.07105 5.32558C2.02028 5.44744 1.99414 5.57814 1.99414 5.71016C1.99414 5.84217 2.02028 5.97287 2.07105 6.09473C2.12182 6.21659 2.19621 6.32719 2.28994 6.42016L6.81994 10.9402C7.0073 11.1264 7.26075 11.2309 7.52494 11.2309C7.78912 11.2309 8.04258 11.1264 8.22994 10.9402C8.41619 10.7528 8.52073 10.4993 8.52073 10.2352C8.52073 9.97097 8.41619 9.71752 8.22994 9.53016L3.70994 5.00016C3.62075 4.8984 3.51184 4.8158 3.3898 4.75735C3.26776 4.69891 3.13513 4.66584 2.99994 4.66016Z" fill="#161616"/>
    <path d="M12.9997 4.60158C12.8674 4.60213 12.7365 4.62893 12.6147 4.68042C12.4928 4.73192 12.3824 4.80709 12.2897 4.90158L9.45974 7.73158C9.27349 7.91894 9.16895 8.17239 9.16895 8.43658C9.16895 8.70077 9.27349 8.95422 9.45974 9.14158C9.55318 9.23426 9.66399 9.30759 9.78583 9.35735C9.90767 9.40711 10.0381 9.43234 10.1697 9.43158C10.3013 9.43234 10.4318 9.40711 10.5536 9.35735C10.6755 9.30759 10.7863 9.23426 10.8797 9.14158L13.7097 6.31158C13.8508 6.17171 13.9469 5.99301 13.986 5.79826C14.0251 5.60351 14.0053 5.40154 13.9291 5.2181C13.8529 5.03465 13.7239 4.87805 13.5584 4.76825C13.3928 4.65845 13.1984 4.60042 12.9997 4.60158Z" fill="#8D8D8D"/>
</svg>
