<svg width="24" height="24" viewBox="0 0 24 24" fill="none" xmlns="http://www.w3.org/2000/svg">
<path d="M21.189 4.22077L4.18903 21.2208C3.99773 21.3846 3.75165 21.4702 3.49998 21.4605C3.2483 21.4508 3.00956 21.3464 2.83147 21.1683C2.65337 20.9902 2.54904 20.7515 2.53932 20.4998C2.5296 20.2481 2.6152 20.0021 2.77903 19.8108L10.589 12.0008L2.80903 4.22077C2.6452 4.02947 2.5596 3.78339 2.56932 3.53172C2.57904 3.28004 2.68337 3.0413 2.86147 2.86321C3.03956 2.68511 3.2783 2.58078 3.52998 2.57106C3.78165 2.56134 4.02773 2.64694 4.21903 2.81077L11.999 10.5908L19.779 2.81077C19.9703 2.64694 20.2164 2.56134 20.4681 2.57106C20.7198 2.58078 20.9585 2.68511 21.1366 2.86321C21.3147 3.0413 21.419 3.28004 21.4287 3.53172C21.4385 3.78339 21.3529 4.02947 21.189 4.22077Z" fill="#161616"/>
<path d="M16.2414 14.828C15.8509 14.4375 15.2177 14.4375 14.8272 14.828C14.4367 15.2186 14.4367 15.8517 14.8272 16.2423L19.777 21.192C20.1675 21.5825 20.8007 21.5825 21.1912 21.192C21.5817 20.8015 21.5817 20.1683 21.1912 19.7778L16.2414 14.828Z" fill="#8D8D8D"/>
</svg>
