<svg width="109" height="21" viewBox="0 0 109 21" fill="none" xmlns="http://www.w3.org/2000/svg">
<path d="M0.82 20V1.8H8.23C9.92867 1.8 11.324 2.05133 12.416 2.554C13.508 3.03933 14.314 3.75 14.834 4.686C15.3713 5.60467 15.64 6.714 15.64 8.014C15.64 9.29667 15.3713 10.406 14.834 11.342C14.314 12.278 13.508 12.9973 12.416 13.5C11.324 13.9853 9.92867 14.228 8.23 14.228H5.5V20H0.82ZM5.5 10.38H7.71C8.906 10.38 9.74667 10.1807 10.232 9.782C10.7173 9.38333 10.96 8.794 10.96 8.014C10.96 7.234 10.7173 6.64467 10.232 6.246C9.74667 5.84733 8.906 5.648 7.71 5.648H5.5V10.38ZM21.6271 20.338C20.6391 20.338 19.7898 20.1473 19.0791 19.766C18.3858 19.3847 17.8571 18.8647 17.4931 18.206C17.1291 17.53 16.9471 16.7847 16.9471 15.97C16.9471 14.6007 17.3631 13.552 18.1951 12.824C19.0444 12.096 20.3184 11.732 22.0171 11.732H25.9171V11.16C25.9171 10.328 25.7178 9.756 25.3191 9.444C24.9378 9.132 24.4004 8.976 23.7071 8.976C23.0484 8.976 22.5631 9.08 22.2511 9.288C21.9391 9.47867 21.7658 9.79933 21.7311 10.25H17.7271C17.7791 9.418 18.0391 8.67267 18.5071 8.014C18.9924 7.35533 19.6771 6.83533 20.5611 6.454C21.4624 6.07267 22.5544 5.882 23.8371 5.882C25.0504 5.882 26.1164 6.064 27.0351 6.428C27.9538 6.792 28.6644 7.38133 29.1671 8.196C29.6871 8.99333 29.9471 10.068 29.9471 11.42V16.49C29.9471 17.218 29.9644 17.8593 29.9991 18.414C30.0338 18.9513 30.0858 19.48 30.1551 20H26.3331C26.3158 19.7053 26.2898 19.4453 26.2551 19.22C26.2378 18.9947 26.2291 18.7173 26.2291 18.388C25.8131 18.9427 25.2324 19.4107 24.4871 19.792C23.7591 20.156 22.8058 20.338 21.6271 20.338ZM22.9271 17.504C23.4991 17.504 24.0104 17.4 24.4611 17.192C24.9118 16.984 25.2671 16.672 25.5271 16.256C25.7871 15.8227 25.9171 15.3373 25.9171 14.8V14.228H22.7971C22.2078 14.228 21.7658 14.384 21.4711 14.696C21.1938 15.008 21.0551 15.3633 21.0551 15.762C21.0551 16.282 21.1938 16.7067 21.4711 17.036C21.7658 17.348 22.2511 17.504 22.9271 17.504ZM32.4191 20V6.22H36.1111V8.092C36.2498 7.78 36.4838 7.45067 36.8131 7.104C37.1425 6.75733 37.5411 6.47133 38.0091 6.246C38.4771 6.00333 38.9971 5.882 39.5691 5.882C39.8638 5.882 40.0978 5.89933 40.2711 5.934C40.4445 5.96867 40.6005 6.00333 40.7391 6.038V9.496C40.6525 9.444 40.4531 9.38333 40.1411 9.314C39.8291 9.24467 39.4738 9.21 39.0751 9.21C38.4511 9.21 37.9398 9.33133 37.5411 9.574C37.1598 9.81667 36.8738 10.146 36.6831 10.562C36.5098 10.978 36.4231 11.446 36.4231 11.966V20H32.4191ZM42.55 20V1.8H46.554V11.524L51 6.22H55.524L50.688 12.018L56.07 20H51.442L47.984 14.8L46.554 16.464V20H42.55ZM63.4851 20.338C62.3584 20.338 61.3877 20.2253 60.5731 20C59.7757 19.7573 59.1171 19.4367 58.5971 19.038C58.0771 18.622 57.6871 18.1453 57.4271 17.608C57.1671 17.0533 57.0197 16.464 56.9851 15.84H60.9891C61.0931 16.2213 61.3184 16.5593 61.6651 16.854C62.0117 17.1313 62.6184 17.27 63.4851 17.27C64.3691 17.27 65.0017 17.1487 65.3831 16.906C65.7644 16.6633 65.9551 16.3427 65.9551 15.944C65.9551 15.736 65.8684 15.554 65.6951 15.398C65.5391 15.2247 65.2357 15.0687 64.7851 14.93C64.3517 14.7913 63.7191 14.6527 62.8871 14.514C62.1244 14.3927 61.4051 14.2367 60.7291 14.046C60.0704 13.8553 59.4897 13.604 58.9871 13.292C58.4844 12.9627 58.0857 12.5467 57.7911 12.044C57.5137 11.5413 57.3751 10.9087 57.3751 10.146C57.3751 9.33133 57.6177 8.60333 58.1031 7.962C58.5884 7.32067 59.2904 6.818 60.2091 6.454C61.1277 6.07267 62.2197 5.882 63.4851 5.882C64.9237 5.882 66.0591 6.10733 66.8911 6.558C67.7404 6.99133 68.3644 7.55467 68.7631 8.248C69.1617 8.924 69.3957 9.63467 69.4651 10.38H65.4351C65.3311 9.94667 65.1057 9.6 64.7591 9.34C64.4297 9.08 64.0051 8.95 63.4851 8.95C62.6877 8.95 62.1331 9.07133 61.8211 9.314C61.5264 9.55667 61.3791 9.85133 61.3791 10.198C61.3791 10.5447 61.6217 10.822 62.1071 11.03C62.5924 11.2207 63.3637 11.3853 64.4211 11.524C65.1837 11.628 65.8944 11.7753 66.5531 11.966C67.2291 12.1567 67.8184 12.4253 68.3211 12.772C68.8411 13.1013 69.2484 13.526 69.5431 14.046C69.8377 14.5487 69.9851 15.164 69.9851 15.892C69.9851 16.7587 69.7337 17.53 69.2311 18.206C68.7457 18.882 68.0177 19.4107 67.0471 19.792C66.0937 20.156 64.9064 20.338 63.4851 20.338ZM72.3139 20V6.22H76.3179V20H72.3139ZM74.3159 4.92C73.5706 4.92 72.9899 4.72933 72.5739 4.348C72.1752 3.94933 71.9759 3.44667 71.9759 2.84C71.9759 2.23333 72.1752 1.73933 72.5739 1.358C72.9899 0.959333 73.5706 0.76 74.3159 0.76C75.0612 0.76 75.6332 0.959333 76.0319 1.358C76.4479 1.73933 76.6559 2.23333 76.6559 2.84C76.6559 3.44667 76.4479 3.94933 76.0319 4.348C75.6332 4.72933 75.0612 4.92 74.3159 4.92ZM84.5967 20.338C83.4007 20.338 82.352 20.0693 81.4507 19.532C80.5667 18.9947 79.882 18.206 79.3967 17.166C78.9113 16.1087 78.6687 14.8 78.6687 13.24V12.72C78.6687 11.2293 78.9027 9.98133 79.3707 8.976C79.8387 7.95333 80.5147 7.182 81.3987 6.662C82.2827 6.142 83.3487 5.882 84.5967 5.882C85.3767 5.882 86.1133 6.064 86.8067 6.428C87.5173 6.77467 88.1067 7.286 88.5747 7.962V1.8H92.5787V20H88.8867V18.128C88.54 18.6827 87.994 19.194 87.2487 19.662C86.5207 20.1127 85.6367 20.338 84.5967 20.338ZM85.5587 17.036C86.1307 17.036 86.642 16.906 87.0927 16.646C87.5433 16.3687 87.8987 15.9787 88.1587 15.476C88.436 14.956 88.5747 14.3407 88.5747 13.63V12.33C88.5747 11.6367 88.436 11.056 88.1587 10.588C87.8987 10.12 87.5433 9.77333 87.0927 9.548C86.642 9.30533 86.1307 9.184 85.5587 9.184C84.744 9.184 84.0767 9.47867 83.5567 10.068C83.0367 10.64 82.7767 11.524 82.7767 12.72V13.24C82.7767 14.488 83.0367 15.4327 83.5567 16.074C84.094 16.7153 84.7613 17.036 85.5587 17.036ZM101.815 20.338C100.463 20.338 99.2494 20.0867 98.1748 19.584C97.1001 19.064 96.2421 18.2753 95.6008 17.218C94.9768 16.1607 94.6648 14.8347 94.6648 13.24V12.72C94.6648 11.1947 94.9681 9.92933 95.5748 8.924C96.1814 7.91867 97.0048 7.16467 98.0448 6.662C99.1021 6.142 100.272 5.882 101.555 5.882C103.825 5.882 105.541 6.47133 106.703 7.65C107.864 8.81133 108.445 10.5013 108.445 12.72V14.176H98.7728C98.8074 14.852 98.9634 15.4153 99.2408 15.866C99.5354 16.3167 99.9081 16.646 100.359 16.854C100.809 17.0447 101.295 17.14 101.815 17.14C102.577 17.14 103.175 17.0273 103.609 16.802C104.059 16.5593 104.354 16.2387 104.493 15.84H108.185C107.907 17.348 107.223 18.4747 106.131 19.22C105.039 19.9653 103.6 20.338 101.815 20.338ZM101.685 9.08C101.199 9.08 100.74 9.158 100.307 9.314C99.8734 9.47 99.5181 9.73 99.2408 10.094C98.9808 10.4407 98.8334 10.9173 98.7988 11.524H104.519C104.519 10.8827 104.389 10.3887 104.129 10.042C103.869 9.678 103.522 9.42667 103.089 9.288C102.673 9.14933 102.205 9.08 101.685 9.08Z" fill="black"/>
</svg>
