<svg width="122" height="37" viewBox="0 0 122 37" xmlns="http://www.w3.org/2000/svg">
<path d="M102.815 20.3388C101.81 20.3388 100.865 20.2001 99.981 19.9228C99.1144 19.6281 98.3604 19.1861 97.719 18.5968C97.0777 18.0075 96.575 17.2708 96.211 16.3868C95.847 15.4855 95.665 14.4368 95.665 13.2408V12.7208C95.665 11.5768 95.8384 10.5801 96.185 9.73081C96.549 8.88148 97.0344 8.17081 97.641 7.59881C98.265 7.02681 98.993 6.60215 99.825 6.32481C100.674 6.03015 101.584 5.88281 102.555 5.88281C104.826 5.88281 106.542 6.47215 107.703 7.65081C108.864 8.81215 109.445 10.5021 109.445 12.7208V14.1508H99.773C99.7904 14.6881 99.8857 15.1475 100.059 15.5288C100.232 15.8928 100.458 16.1961 100.735 16.4388C101.012 16.6815 101.324 16.8635 101.671 16.9848C102.035 17.0888 102.416 17.1408 102.815 17.1408C103.578 17.1408 104.176 17.0281 104.609 16.8028C105.06 16.5601 105.354 16.2395 105.493 15.8408H109.185C108.908 17.3488 108.223 18.4755 107.131 19.2208C106.039 19.9661 104.6 20.3388 102.815 20.3388ZM102.685 9.05481C102.321 9.05481 101.966 9.09815 101.619 9.18481C101.29 9.27148 100.986 9.41881 100.709 9.62681C100.449 9.81748 100.232 10.0688 100.059 10.3808C99.903 10.6928 99.8164 11.0741 99.799 11.5248H105.519C105.519 11.0395 105.441 10.6408 105.285 10.3288C105.129 10.0168 104.921 9.76548 104.661 9.57481C104.418 9.38415 104.124 9.25415 103.777 9.18481C103.43 9.09815 103.066 9.05481 102.685 9.05481Z"  />
<path d="M85.5969 20.3388C84.6956 20.3388 83.8809 20.1914 83.1529 19.8968C82.4249 19.5848 81.8009 19.1341 81.2809 18.5448C80.7609 17.9554 80.3623 17.2188 80.0849 16.3348C79.8076 15.4508 79.6689 14.4194 79.6689 13.2408V12.7208C79.6689 10.5021 80.1803 8.81212 81.2029 7.65078C82.2429 6.47212 83.7076 5.88278 85.5969 5.88278C86.3769 5.88278 87.1136 6.06478 87.8069 6.42878C88.5176 6.77545 89.1069 7.28678 89.5749 7.96278V1.80078H93.5789V20.0008H89.8869V18.1288C89.7136 18.4061 89.4883 18.6834 89.2109 18.9608C88.9509 19.2208 88.6389 19.4548 88.2749 19.6628C87.9109 19.8708 87.5036 20.0354 87.0529 20.1568C86.6023 20.2781 86.1169 20.3388 85.5969 20.3388ZM86.5589 17.0368C87.4083 17.0368 88.1189 16.7421 88.6909 16.1528C89.2803 15.5634 89.5749 14.7228 89.5749 13.6308V12.3308C89.5749 11.2908 89.2803 10.5108 88.6909 9.99078C88.1189 9.45345 87.4083 9.18478 86.5589 9.18478C85.7269 9.18478 85.0509 9.47945 84.5309 10.0688C84.0283 10.6408 83.7769 11.5248 83.7769 12.7208V13.2408C83.7769 14.4888 84.0369 15.4334 84.5569 16.0748C85.0943 16.7161 85.7616 17.0368 86.5589 17.0368Z"  />
<path d="M73.3146 6.22172H77.3186V20.0017H73.3146V6.22172ZM75.3166 4.92172C74.5712 4.92172 73.9906 4.73105 73.5746 4.34972C73.1759 3.95105 72.9766 3.44839 72.9766 2.84172C72.9766 2.23505 73.1759 1.74105 73.5746 1.35972C73.9906 0.961052 74.5712 0.761719 75.3166 0.761719C76.0619 0.761719 76.6339 0.961052 77.0326 1.35972C77.4486 1.74105 77.6566 2.23505 77.6566 2.84172C77.6566 3.44839 77.4486 3.95105 77.0326 4.34972C76.6339 4.73105 76.0619 4.92172 75.3166 4.92172Z"  />
<path d="M64.4854 20.3388C63.3587 20.3388 62.388 20.2261 61.5734 20.0008C60.776 19.7581 60.1174 19.4375 59.5974 19.0388C59.0774 18.6228 58.6874 18.1461 58.4274 17.6088C58.1674 17.0541 58.02 16.4648 57.9854 15.8408H61.9894C62.0934 16.2395 62.3187 16.5775 62.6654 16.8548C63.012 17.1321 63.6187 17.2708 64.4854 17.2708C65.3694 17.2708 66.002 17.1495 66.3834 16.9068C66.782 16.6641 66.9814 16.3435 66.9814 15.9448C66.9814 15.7888 66.938 15.6501 66.8514 15.5288C66.7647 15.3901 66.6 15.2688 66.3574 15.1648C66.132 15.0435 65.82 14.9308 65.4214 14.8268C65.0227 14.7228 64.5114 14.6188 63.8874 14.5148C63.1247 14.3935 62.4054 14.2375 61.7294 14.0468C61.0534 13.8561 60.464 13.6048 59.9614 13.2928C59.476 12.9635 59.086 12.5475 58.7914 12.0448C58.514 11.5421 58.3754 10.9095 58.3754 10.1468C58.3754 9.54015 58.514 8.97681 58.7914 8.45681C59.0687 7.93681 59.4674 7.48615 59.9874 7.10481C60.5247 6.72348 61.166 6.42881 61.9114 6.22081C62.674 5.99548 63.532 5.88281 64.4854 5.88281C65.56 5.88281 66.4614 6.01281 67.1894 6.27281C67.9347 6.53281 68.5414 6.87948 69.0094 7.31281C69.4774 7.72881 69.824 8.20548 70.0494 8.74281C70.2747 9.28015 70.4134 9.82615 70.4654 10.3808H66.4613C66.3573 9.93015 66.132 9.58348 65.7854 9.34081C65.4387 9.08081 65.0054 8.95081 64.4854 8.95081C63.688 8.95081 63.1334 9.07215 62.8214 9.31481C62.5267 9.55748 62.3794 9.84348 62.3794 10.1728C62.3794 10.5368 62.622 10.8228 63.1074 11.0308C63.5927 11.2215 64.364 11.3861 65.4214 11.5248C66.1667 11.6288 66.8774 11.7761 67.5534 11.9668C68.2294 12.1575 68.8187 12.4261 69.3214 12.7728C69.8414 13.1021 70.2487 13.5268 70.5434 14.0468C70.838 14.5495 70.9854 15.1648 70.9854 15.8928C70.9854 17.2101 70.4307 18.2848 69.3214 19.1168C68.2294 19.9315 66.6174 20.3388 64.4854 20.3388Z"  />
<path d="M43.5508 1.80078H47.5548V11.5248L52.0008 6.22078H56.5248L51.6888 12.0188L57.0708 20.0008H52.4428L48.9848 14.8008L47.5548 16.4648V20.0008H43.5508V1.80078Z"  />
<path d="M33.4199 6.22081H37.1119V8.09281C37.2159 7.86748 37.3719 7.62481 37.5799 7.36481C37.8053 7.10481 38.0653 6.86215 38.3599 6.63681C38.6546 6.41148 38.9839 6.22948 39.3479 6.09081C39.7293 5.95215 40.1366 5.88281 40.5699 5.88281C40.8646 5.88281 41.0986 5.90015 41.2719 5.93481C41.4453 5.96948 41.6013 6.00415 41.7399 6.03881V9.49681C41.6533 9.44481 41.4539 9.38415 41.1419 9.31481C40.8299 9.24548 40.4659 9.21081 40.0499 9.21081C39.1313 9.21081 38.4639 9.47948 38.0479 10.0168C37.6319 10.5541 37.4239 11.2041 37.4239 11.9668V20.0008H33.4199V6.22081Z"  />
<path d="M22.6273 20.3388C21.8819 20.3388 21.2146 20.2261 20.6253 20.0008C20.0533 19.7755 19.5679 19.4721 19.1693 19.0908C18.7706 18.6921 18.4673 18.2328 18.2593 17.7128C18.0513 17.1755 17.9473 16.5948 17.9473 15.9708C17.9473 14.6015 18.3633 13.5528 19.1953 12.8248C20.0446 12.0968 21.3186 11.7328 23.0173 11.7328H26.9433V11.1608C26.9433 10.3288 26.7439 9.75681 26.3453 9.44481C25.9466 9.11548 25.4006 8.95081 24.7073 8.95081C24.0486 8.95081 23.5633 9.05481 23.2513 9.26281C22.9393 9.47081 22.7659 9.80015 22.7313 10.2508H18.7273C18.7619 9.62681 18.9179 9.05481 19.1953 8.53481C19.4726 7.99748 19.8626 7.53815 20.3653 7.15681C20.8853 6.75815 21.5179 6.44615 22.2633 6.22081C23.0086 5.99548 23.8666 5.88281 24.8373 5.88281C25.7386 5.88281 26.5619 5.98681 27.3073 6.19481C28.0699 6.38548 28.7199 6.70615 29.2573 7.15681C29.7946 7.59015 30.2106 8.16215 30.5053 8.87281C30.7999 9.56615 30.9473 10.4155 30.9473 11.4208V16.4908C30.9473 17.2188 30.9646 17.8601 30.9993 18.4148C31.0339 18.9521 31.0859 19.4808 31.1553 20.0008H27.3593C27.3246 19.7061 27.2899 19.4461 27.2553 19.2208C27.2379 18.9955 27.2293 18.7181 27.2293 18.3888C26.8133 18.9435 26.2326 19.4115 25.4873 19.7928C24.7593 20.1568 23.8059 20.3388 22.6273 20.3388ZM23.9273 17.5308C24.7766 17.5308 25.4873 17.2881 26.0593 16.8028C26.6486 16.3175 26.9433 15.6501 26.9433 14.8008V14.2288H23.7973C23.2079 14.2288 22.7659 14.3848 22.4713 14.6968C22.1939 15.0088 22.0553 15.3728 22.0553 15.7888C22.0553 16.2915 22.1939 16.7075 22.4713 17.0368C22.7659 17.3661 23.2513 17.5308 23.9273 17.5308Z"  />
<path d="M1.82031 1.80078H9.23031C11.761 1.80078 13.6243 2.35545 14.8203 3.46478C16.0336 4.55678 16.6403 6.07345 16.6403 8.01478C16.6403 9.95612 16.0336 11.4814 14.8203 12.5908C13.6243 13.6828 11.761 14.2288 9.23031 14.2288H6.50031V20.0008H1.82031V1.80078ZM8.71031 10.3808C9.90631 10.3808 10.747 10.1814 11.2323 9.78278C11.7176 9.38412 11.9603 8.79478 11.9603 8.01478C11.9603 7.23478 11.7176 6.64545 11.2323 6.24678C10.747 5.84811 9.90631 5.64878 8.71031 5.64878H6.50031V10.3808H8.71031Z"  />
<path d="M117.235 35.145C116.707 35.145 116.203 35.065 115.723 34.905C115.251 34.745 114.831 34.493 114.463 34.149C114.103 33.805 113.815 33.365 113.599 32.829C113.383 32.285 113.275 31.629 113.275 30.861V30.621C113.275 29.885 113.383 29.257 113.599 28.737C113.815 28.209 114.103 27.777 114.463 27.441C114.831 27.105 115.251 26.857 115.723 26.697C116.203 26.537 116.707 26.457 117.235 26.457C117.763 26.457 118.263 26.537 118.735 26.697C119.215 26.857 119.635 27.105 119.995 27.441C120.363 27.777 120.655 28.209 120.871 28.737C121.087 29.257 121.195 29.885 121.195 30.621V30.861C121.195 31.629 121.087 32.285 120.871 32.829C120.655 33.365 120.363 33.805 119.995 34.149C119.635 34.493 119.215 34.745 118.735 34.905C118.263 35.065 117.763 35.145 117.235 35.145ZM117.235 33.633C117.507 33.633 117.767 33.589 118.015 33.501C118.271 33.405 118.495 33.249 118.687 33.033C118.879 32.817 119.031 32.533 119.143 32.181C119.263 31.829 119.323 31.389 119.323 30.861V30.621C119.323 30.125 119.263 29.709 119.143 29.373C119.031 29.037 118.879 28.765 118.687 28.557C118.495 28.349 118.271 28.201 118.015 28.113C117.767 28.017 117.507 27.969 117.235 27.969C116.963 27.969 116.699 28.017 116.443 28.113C116.195 28.201 115.975 28.349 115.783 28.557C115.591 28.765 115.435 29.037 115.315 29.373C115.203 29.709 115.147 30.125 115.147 30.621V30.861C115.147 31.389 115.203 31.829 115.315 32.181C115.435 32.533 115.591 32.817 115.783 33.033C115.975 33.249 116.195 33.405 116.443 33.501C116.699 33.589 116.963 33.633 117.235 33.633Z"  />
<path d="M104.519 26.6016H106.319V29.9376H109.919V26.6016H111.719V35.0016H109.919V31.4256H106.319V35.0016H104.519V26.6016Z"  />
<path d="M94.6788 30.6336L91.9188 26.6016H93.8388L96.0588 30.0216H96.6588V26.6016H98.4588V30.0216H99.0588L101.351 26.6016H103.199L100.439 30.5496L103.319 35.0016H101.327L99.0588 31.3416H98.4588V35.0016H96.6588V31.3416H96.0588L93.7668 35.0016H91.7988L94.6788 30.6336Z"  />
<path d="M85.0771 26.6016H90.9572V28.0896H86.8892V29.9616H90.5972V31.4016H86.8892V33.5136H90.9572V35.0016H85.0771V26.6016Z"  />
<path d="M75.3574 33.5136H76.2934C76.4134 33.2336 76.5134 32.8976 76.5934 32.5056C76.6734 32.1056 76.7374 31.6856 76.7854 31.2456C76.8334 30.7976 76.8694 30.3416 76.8934 29.8776C76.9174 29.4056 76.9294 28.9536 76.9294 28.5216V26.6016H82.8454V33.5136H83.7574V36.5616H82.1494V35.0016H76.9654V36.5616H75.3574V33.5136ZM81.0454 33.5136V28.0896H78.6334V28.7616C78.6334 29.8576 78.5814 30.7816 78.4774 31.5336C78.3734 32.2856 78.2254 32.9456 78.0334 33.5136H81.0454Z"  />
<path d="M72.1435 33.2856H69.0355L68.3995 35.0016H66.6475L69.7675 26.6016H71.5675L74.6875 35.0016H72.7915L72.1435 33.2856ZM69.5875 31.7976H71.6035L70.5955 28.8816L69.5875 31.7976Z"  />
<path d="M58.3701 26.6016H60.1701V29.9376H63.7701V26.6016H65.5701V35.0016H63.7701V31.4256H60.1701V35.0016H58.3701V26.6016Z"  />
<path d="M52.5552 35.1455C52.2752 35.1455 52.0352 35.0455 51.8352 34.8455C51.6352 34.6455 51.5352 34.4055 51.5352 34.1255C51.5352 33.8295 51.6352 33.5855 51.8352 33.3935C52.0352 33.2015 52.2752 33.1055 52.5552 33.1055C52.8352 33.1055 53.0752 33.2015 53.2752 33.3935C53.4752 33.5855 53.5752 33.8295 53.5752 34.1255C53.5752 34.4055 53.4752 34.6455 53.2752 34.8455C53.0752 35.0455 52.8352 35.1455 52.5552 35.1455Z"  />
<path d="M46.3487 35.145C45.8207 35.145 45.3167 35.065 44.8367 34.905C44.3647 34.745 43.9447 34.493 43.5767 34.149C43.2167 33.805 42.9287 33.365 42.7127 32.829C42.4967 32.285 42.3887 31.629 42.3887 30.861V30.621C42.3887 29.885 42.4967 29.257 42.7127 28.737C42.9287 28.209 43.2167 27.777 43.5767 27.441C43.9447 27.105 44.3647 26.857 44.8367 26.697C45.3167 26.537 45.8207 26.457 46.3487 26.457C46.8767 26.457 47.3767 26.537 47.8487 26.697C48.3287 26.857 48.7487 27.105 49.1087 27.441C49.4767 27.777 49.7687 28.209 49.9847 28.737C50.2007 29.257 50.3087 29.885 50.3087 30.621V30.861C50.3087 31.629 50.2007 32.285 49.9847 32.829C49.7687 33.365 49.4767 33.805 49.1087 34.149C48.7487 34.493 48.3287 34.745 47.8487 34.905C47.3767 35.065 46.8767 35.145 46.3487 35.145ZM46.3487 33.633C46.6207 33.633 46.8807 33.589 47.1287 33.501C47.3847 33.405 47.6087 33.249 47.8007 33.033C47.9927 32.817 48.1447 32.533 48.2567 32.181C48.3767 31.829 48.4367 31.389 48.4367 30.861V30.621C48.4367 30.125 48.3767 29.709 48.2567 29.373C48.1447 29.037 47.9927 28.765 47.8007 28.557C47.6087 28.349 47.3847 28.201 47.1287 28.113C46.8807 28.017 46.6207 27.969 46.3487 27.969C46.0767 27.969 45.8127 28.017 45.5567 28.113C45.3087 28.201 45.0887 28.349 44.8967 28.557C44.7047 28.765 44.5487 29.037 44.4287 29.373C44.3167 29.709 44.2607 30.125 44.2607 30.621V30.861C44.2607 31.389 44.3167 31.829 44.4287 32.181C44.5487 32.533 44.7047 32.817 44.8967 33.033C45.0887 33.249 45.3087 33.405 45.5567 33.501C45.8127 33.589 46.0767 33.633 46.3487 33.633Z"  />
<path d="M37.2293 28.0896H34.5293V26.6016H41.7293V28.0896H39.0293V35.0016H37.2293V28.0896Z"  />
<path d="M30.4773 35.145C29.9253 35.145 29.4173 35.065 28.9533 34.905C28.4973 34.745 28.1013 34.497 27.7653 34.161C27.4293 33.817 27.1653 33.373 26.9733 32.829C26.7893 32.285 26.6973 31.629 26.6973 30.861V30.621C26.6973 29.885 26.7933 29.257 26.9853 28.737C27.1853 28.209 27.4533 27.777 27.7893 27.441C28.1333 27.105 28.5333 26.857 28.9893 26.697C29.4533 26.537 29.9493 26.457 30.4773 26.457C30.9493 26.457 31.3933 26.513 31.8093 26.625C32.2253 26.737 32.5893 26.913 32.9013 27.153C33.2213 27.385 33.4773 27.685 33.6693 28.053C33.8693 28.421 33.9853 28.857 34.0173 29.361H32.1453C32.0573 28.881 31.8653 28.529 31.5693 28.305C31.2733 28.081 30.9093 27.969 30.4773 27.969C30.2293 27.969 29.9893 28.013 29.7573 28.101C29.5333 28.189 29.3333 28.337 29.1573 28.545C28.9813 28.753 28.8373 29.025 28.7253 29.361C28.6213 29.697 28.5693 30.117 28.5693 30.621V30.861C28.5693 31.389 28.6253 31.833 28.7373 32.193C28.8493 32.545 28.9933 32.829 29.1693 33.045C29.3533 33.253 29.5573 33.405 29.7813 33.501C30.0133 33.589 30.2453 33.633 30.4773 33.633C30.9333 33.633 31.3093 33.517 31.6053 33.285C31.9013 33.045 32.0813 32.697 32.1453 32.241H34.0173C33.9773 32.769 33.8613 33.217 33.6693 33.585C33.4773 33.953 33.2253 34.253 32.9133 34.485C32.6013 34.717 32.2373 34.885 31.8213 34.989C31.4053 35.093 30.9573 35.145 30.4773 35.145Z"  />
<path d="M21.5401 35.145C21.0121 35.145 20.5081 35.065 20.0281 34.905C19.5561 34.745 19.1361 34.493 18.7681 34.149C18.4081 33.805 18.1201 33.365 17.9041 32.829C17.6881 32.285 17.5801 31.629 17.5801 30.861V30.621C17.5801 29.885 17.6881 29.257 17.9041 28.737C18.1201 28.209 18.4081 27.777 18.7681 27.441C19.1361 27.105 19.5561 26.857 20.0281 26.697C20.5081 26.537 21.0121 26.457 21.5401 26.457C22.0681 26.457 22.5681 26.537 23.0401 26.697C23.5201 26.857 23.9401 27.105 24.3001 27.441C24.6681 27.777 24.9601 28.209 25.1761 28.737C25.3921 29.257 25.5001 29.885 25.5001 30.621V30.861C25.5001 31.629 25.3921 32.285 25.1761 32.829C24.9601 33.365 24.6681 33.805 24.3001 34.149C23.9401 34.493 23.5201 34.745 23.0401 34.905C22.5681 35.065 22.0681 35.145 21.5401 35.145ZM21.5401 33.633C21.8121 33.633 22.0721 33.589 22.3201 33.501C22.5761 33.405 22.8001 33.249 22.9921 33.033C23.1841 32.817 23.3361 32.533 23.4481 32.181C23.5681 31.829 23.6281 31.389 23.6281 30.861V30.621C23.6281 30.125 23.5681 29.709 23.4481 29.373C23.3361 29.037 23.1841 28.765 22.9921 28.557C22.8001 28.349 22.5761 28.201 22.3201 28.113C22.0721 28.017 21.8121 27.969 21.5401 27.969C21.2681 27.969 21.0041 28.017 20.7481 28.113C20.5001 28.201 20.2801 28.349 20.0881 28.557C19.8961 28.765 19.7401 29.037 19.6201 29.373C19.5081 29.709 19.4521 30.125 19.4521 30.621V30.861C19.4521 31.389 19.5081 31.829 19.6201 32.181C19.7401 32.533 19.8961 32.817 20.0881 33.033C20.2801 33.249 20.5001 33.405 20.7481 33.501C21.0041 33.589 21.2681 33.633 21.5401 33.633Z"  />
<path d="M9.95996 26.6016H13.2C14.336 26.6016 15.18 26.8536 15.732 27.3576C16.284 27.8536 16.56 28.5216 16.56 29.3616C16.56 30.2016 16.284 30.8736 15.732 31.3776C15.18 31.8736 14.336 32.1216 13.2 32.1216H11.76V35.0016H9.95996V26.6016ZM13.02 30.6336C13.66 30.6336 14.108 30.5256 14.364 30.3096C14.628 30.0936 14.76 29.7776 14.76 29.3616C14.76 28.9536 14.628 28.6416 14.364 28.4256C14.108 28.2016 13.66 28.0896 13.02 28.0896H11.76V30.6336H13.02Z"  />
<path d="M0.959961 26.6016H8.03996V35.0016H6.23996V28.0896H2.75996V35.0016H0.959961V26.6016Z"  />
</svg>
