<svg
    width="24"
    height="24"
    viewBox="0 0 24 24"
    fill="none"
    xmlns="http://www.w3.org/2000/svg"
>
    <path
        d="M10.7002 18C10.7002 18.3 10.6002 18.5 10.4002 18.7C10.0002 19.1 9.4002 19.1 9.0002 18.7L3.3002 13C3.1002 12.8 3.00019 12.5 3.00019 12.3C3.00019 12.1 3.1002 11.8 3.30019 11.6C3.7002 11.2 4.30019 11.2 4.70019 11.6L10.4002 17.3C10.6002 17.5 10.7002 17.7 10.7002 18Z"
        fill="white"
    />
    <path
        d="M10.5 6.09922C10.5 6.39922 10.4 6.59922 10.2 6.79922L6.7 10.3992C6.3 10.7992 5.7 10.7992 5.3 10.3992C5.1 10.1992 5 9.89922 5 9.69922C5 9.49922 5.1 9.19922 5.3 8.99922L8.8 5.49922C9.2 5.09922 9.8 5.09922 10.2 5.49922C10.4 5.59922 10.5 5.89922 10.5 6.09922Z"
        fill="white"
    />
    <path
        d="M9.7002 13.1016L19.7002 13.1016C20.3002 13.1016 20.7002 12.7016 20.7002 12.1016C20.7002 11.5016 20.3002 11.1016 19.7002 11.1016L9.7002 11.1016C9.10019 11.1016 8.7002 11.5016 8.7002 12.1016C8.7002 12.6016 9.10019 13.1016 9.7002 13.1016Z"
        fill="white"
    />
</svg>
