<svg width="24" height="24" viewBox="0 0 24 24" fill="none" xmlns="http://www.w3.org/2000/svg">
<path d="M18 13.3008C18.3 13.3008 18.5 13.4008 18.7 13.6008C19.1 14.0008 19.1 14.6008 18.7 15.0008L13 20.7008C12.8 20.9008 12.5 21.0008 12.3 21.0008C12.1 21.0008 11.8 20.9008 11.6 20.7008C11.2 20.3008 11.2 19.7008 11.6 19.3008L17.3 13.6008C17.5 13.4008 17.7 13.3008 18 13.3008Z" fill="black"/>
<path d="M6.1002 13.5C6.4002 13.5 6.60019 13.6 6.80019 13.8L10.4002 17.3C10.8002 17.7 10.8002 18.3 10.4002 18.7C10.2002 18.9 9.9002 19 9.7002 19C9.5002 19 9.2002 18.9 9.0002 18.7L5.5002 15.2C5.1002 14.8 5.1002 14.2 5.5002 13.8C5.6002 13.6 5.9002 13.5 6.1002 13.5Z" fill="black" fill-opacity="0.48"/>
<path d="M13.0996 14.3008L13.0996 4.30078C13.0996 3.70078 12.6996 3.30078 12.0996 3.30078C11.4996 3.30078 11.0996 3.70078 11.0996 4.30078L11.0996 14.3008C11.0996 14.9008 11.4996 15.3008 12.0996 15.3008C12.5996 15.3008 13.0996 14.9008 13.0996 14.3008Z" fill="black"/>
</svg>
