<svg width="170" height="100" viewBox="0 0 170 100" fill="none" xmlns="http://www.w3.org/2000/svg">
    <g clip-path="url(#clip0_1237_211)">
        <path d="M37.7257 46.1356C37.7257 43.7573 39.6722 41.83 42.0557 41.83C44.4474 41.83 46.3855 43.7655 46.3855 46.1356C46.3855 48.5139 44.4392 50.4493 42.0557 50.4493C39.6639 50.4493 37.7257 48.5139 37.7257 46.1356ZM49.1567 46.1356C49.1567 42.24 45.965 39.0744 42.0557 39.0744C38.1381 39.0744 34.9546 42.24 34.9546 46.1356C34.9546 50.0311 38.1381 53.2049 42.0557 53.2049C45.9732 53.2049 49.1567 50.0311 49.1567 46.1356ZM32.365 57.1496C32.365 56.7641 32.2 56.4115 31.9443 56.1491C29.3794 53.5985 27.7794 50.0475 27.7794 46.1356C27.7794 38.3035 34.1876 31.9313 42.0639 31.9313C49.9319 31.9313 56.3402 38.3035 56.3402 46.1356C56.3402 50.0475 54.7402 53.5985 52.1505 56.1737L40.0845 68.1718L42.0474 70.1237L54.1134 58.1255C57.1979 55.0583 59.1031 50.8184 59.1031 46.1438C59.1114 36.77 51.4743 29.1758 42.0557 29.1758C32.6371 29.1758 25 36.77 25 46.1356C25 50.8102 26.9134 55.0583 29.9814 58.1091C30.2454 58.3715 30.5918 58.5191 30.9794 58.5191C31.7381 58.5191 32.365 57.904 32.365 57.1496ZM50.6083 54.6073C52.7855 52.434 54.1299 49.4406 54.1299 46.1356C54.1299 39.5091 48.7114 34.121 42.0557 34.121C35.4 34.121 29.9732 39.5091 29.9732 46.1356C29.9732 49.4406 31.3423 52.4668 33.5031 54.6073C33.7588 54.8615 34.1052 55.0255 34.501 55.0255C35.2681 55.0255 35.8866 54.4104 35.8866 53.6477C35.8866 53.2541 35.7217 52.9015 35.4577 52.6472C33.7835 50.9742 32.7526 48.6697 32.7526 46.1356C32.7526 41.0345 36.9257 36.8766 42.0557 36.8766C47.1855 36.8766 51.367 41.0263 51.367 46.1356C51.367 48.6861 50.3196 50.9988 48.6371 52.6718L36.5712 64.6699L38.534 66.6136L50.6083 54.6073Z" fill="black"/>
        <path d="M117.907 50.4477H111.474V42.8125H113.14V48.9797H116.414V42.8125H118.097V48.9797H119.309V52.0223H117.907V50.4477Z" fill="black"/>
        <path d="M126.039 46.6283C126.039 45.2669 125.214 44.2254 123.986 44.2254C122.79 44.2254 121.957 45.2588 121.957 46.6283C121.957 47.9897 122.79 49.0312 123.986 49.0312C125.222 49.0312 126.039 47.9897 126.039 46.6283ZM120.183 46.6283C120.183 44.3239 121.808 42.6836 123.986 42.6836C126.188 42.6836 127.804 44.332 127.804 46.6283C127.804 48.9328 126.188 50.573 123.986 50.573C121.808 50.573 120.183 48.9328 120.183 46.6283Z" fill="black"/>
        <path d="M130.814 48.9801H133.314V44.2891H131.45C131.417 44.4121 131.441 44.3301 131.326 45.8145C131.252 47.1758 131.095 48.2256 130.814 48.9555V48.9801ZM128.447 48.9801H128.976C129.429 48.6602 129.635 47.4711 129.858 45.0436C130.014 43.1491 130.047 42.8047 130.047 42.8047H135.029V48.9801H136.258V52.0227H134.823V50.4398H129.874V52.0227H128.464V48.9801H128.447Z" fill="black"/>
        <path d="M139.573 48.9801H142.072V44.2891H140.208C140.176 44.4121 140.2 44.3301 140.085 45.8145C140.01 47.1758 139.854 48.2256 139.573 48.9555V48.9801ZM137.207 48.9801H137.734C138.188 48.6602 138.394 47.4711 138.617 45.0436C138.773 43.1491 138.807 42.8047 138.807 42.8047H143.788V48.9801H145.017V52.0227H143.581V50.4398H138.633V52.0227H137.223V48.9801H137.207Z" fill="black"/>
        <path d="M82.8556 68.1554L84.8185 70.1073L96.8845 58.1091C99.969 55.0419 101.874 50.802 101.874 46.1273C101.874 36.77 94.2451 29.1758 84.8268 29.1758C75.4082 29.1758 67.7793 36.77 67.7793 46.1273C67.7793 50.802 69.6927 55.0501 72.7608 58.1009C73.0247 58.3633 73.3628 58.511 73.7587 58.511C74.5258 58.511 75.1443 57.8959 75.1443 57.1331C75.1443 56.7477 74.9793 56.3951 74.7237 56.1326C72.1587 53.5821 70.5587 50.0311 70.5587 46.1273C70.5587 38.3035 76.967 31.9313 84.835 31.9313C92.7116 31.9313 99.1116 38.3035 99.1116 46.1273C99.1116 50.0393 97.5116 53.5903 94.9219 56.1655L82.8556 68.1554Z" fill="black"/>
        <path d="M77.9401 49.7926H75.6968L83.705 41.9688H85.9566L77.9401 49.7926Z" fill="black"/>
        <path d="M82.2286 49.7926H79.9771L87.9936 41.9688H90.2372L82.2286 49.7926Z" fill="black"/>
        <path d="M86.7321 49.7926H84.4888L92.4969 41.9688H94.7485L86.7321 49.7926Z" fill="black"/>
    </g>
    <defs>
        <clipPath id="clip0_1237_211">
            <rect width="120" height="41.2903" fill="white" transform="translate(25 29)"/>
        </clipPath>
    </defs>
</svg>
