<svg width="170" height="100" viewBox="0 0 170 100" fill="none" xmlns="http://www.w3.org/2000/svg">
    <path d="M34.2835 50.768V64.7296H28.6231V50.768H25.6797V45.9219H28.6231V44.1911C28.6231 39.9219 31.2269 36.9219 35.642 36.9219C36.774 36.9219 37.7929 37.0373 38.3589 37.3834V42.1142C38.0193 41.9988 37.5665 41.8834 36.6608 41.8834C35.642 41.8834 34.2835 42.345 34.2835 44.4219V45.8065H38.2457V50.6526H34.2835V50.768Z" fill="black"/>
    <path d="M51.3781 51.576C50.6988 51.4606 50.1328 51.3453 49.5668 51.3453C47.3026 51.3453 45.2649 52.7299 45.2649 56.4222V64.6145H39.6045V45.9222H45.0385V48.4606C46.0573 46.3837 48.3215 45.6914 49.7932 45.6914C50.3592 45.6914 50.9252 45.8068 51.2649 45.9222V51.576H51.3781Z" fill="black"/>
    <path fill-rule="evenodd" clip-rule="evenodd" d="M58.9624 40.0376C58.9624 38.1914 57.3775 36.6914 55.5662 36.6914C53.7549 36.6914 52.2832 38.3068 52.2832 40.0376C52.2832 41.8837 53.7549 43.3837 55.5662 43.3837C57.4908 43.3837 58.9624 41.8837 58.9624 40.0376ZM52.7361 45.9224V64.7301H58.3965V45.9224H52.7361Z" fill="black"/>
    <path fill-rule="evenodd" clip-rule="evenodd" d="M67.0005 40.0376C67.0005 38.1914 65.4156 36.6914 63.6043 36.6914C61.793 36.6914 60.3213 38.3068 60.3213 40.0376C60.3213 41.8837 61.793 43.3837 63.6043 43.3837C65.5288 43.3837 67.0005 41.8837 67.0005 40.0376ZM61 45.999V64.8067H66.6604V45.999H61Z" fill="black"/>
    <path fill-rule="evenodd" clip-rule="evenodd" d="M78.0953 65.3053C82.7368 65.3053 85.6802 62.5361 86.5859 59.3053L81.9444 57.9207C81.3783 59.3053 80.2462 60.3438 78.2085 60.3438C76.0576 60.3438 74.133 58.8438 74.0198 56.7668H86.8123C86.8123 56.7352 86.8208 56.6514 86.8332 56.5299C86.8659 56.2084 86.9255 55.6222 86.9255 55.0361C86.9255 48.9207 83.4161 45.3438 77.6425 45.3438C72.8878 45.3438 68.4727 49.2668 68.4727 55.2668C68.4727 61.613 73.001 65.3053 78.0953 65.3053ZM77.6425 49.8438C80.3595 49.8438 81.2652 51.6899 81.3784 53.0745H74.0199C74.1331 51.5745 75.2652 49.8438 77.6425 49.8438Z" fill="black"/>
    <path d="M94.6233 64.7302H88.9629V45.9225H94.3969V48.1148C95.4157 46.384 97.6799 45.4609 99.6044 45.4609C104.246 45.4609 106.284 48.8071 106.284 52.9609V64.7302H100.623V53.884C100.623 52.0379 99.6044 50.6532 97.5667 50.6532C95.7553 50.6532 94.5101 52.0379 94.5101 53.9994V64.7302H94.6233Z" fill="black"/>
    <path fill-rule="evenodd" clip-rule="evenodd" d="M127.88 64.044C127.847 63.441 127.793 62.4655 127.793 61.2695H127.68V37.2695H122.133V47.1926C121.68 46.3849 120.321 45.2311 117.151 45.2311C111.944 45.2311 108.208 49.3849 108.208 55.0388C108.208 60.9234 112.17 64.9618 117.378 64.9618C119.642 64.9618 121.453 64.0388 122.359 62.7695C122.359 63.2959 122.407 63.8222 122.441 64.1889C122.458 64.3849 122.472 64.5353 122.472 64.6157H127.906C127.906 64.5087 127.895 64.3136 127.88 64.044ZM122.359 55.2692C122.359 58.3846 120.321 60 118.17 60C116.019 60 113.982 58.3846 113.982 55.2692C113.982 52.1538 116.019 50.6538 118.17 50.6538C120.434 50.6538 122.359 52.1538 122.359 55.2692Z" fill="black"/>
    <path d="M134.585 58.4994C134.698 59.7686 135.604 61.0379 137.528 61.0379C139 61.0379 139.679 60.2302 139.679 59.4225C139.679 58.7302 139.226 58.1532 137.868 57.9225L135.717 57.4609C131.755 56.5379 130.17 54.3456 130.17 51.6917C130.17 48.2302 133.113 45.4609 137.302 45.4609C142.623 45.4609 144.547 48.9225 144.66 51.1148L140.019 52.0379C139.906 50.7686 139.113 49.7302 137.415 49.7302C136.283 49.7302 135.377 50.4225 135.377 51.3456C135.377 52.1532 136.056 52.6148 136.849 52.7302L139.34 53.1917C143.189 53.9994 145 56.3071 145 59.0763C145 62.3071 142.623 65.4225 137.641 65.4225C131.868 65.4225 129.943 61.6148 129.83 59.5379L134.585 58.4994Z" fill="black"/>
</svg>
