<svg width="170" height="100" viewBox="0 0 170 100" fill="none" xmlns="http://www.w3.org/2000/svg">
    <g clip-path="url(#clip0_1193_459)">
        <path d="M27.9283 46.7408V55.7622H25V43.8125H29.348L32.8679 53.0706H32.927L36.4173 43.8125H40.7949V55.7622H37.8371V46.7408H37.7779L34.406 55.7622H31.389L27.9874 46.7408H27.9283Z" fill="black"/>
        <path d="M56.3826 53.7525V55.7935H44.4033V43.8438H56.4122V45.8847H47.6865V48.7834H55.6432V50.8243H47.6865V53.8117H56.3826V53.7525Z" fill="black"/>
        <path d="M61.8843 51.3271V55.7935H58.6011V43.8438H65.6112C69.2789 43.8438 71.379 45.1156 71.379 47.6002C71.379 50.0848 69.2198 51.3567 65.6112 51.3567H61.8843V51.3271ZM61.8843 45.8551V49.2862H65.4337C67.0901 49.2862 68.0662 48.7834 68.0662 47.5706C68.0662 46.3579 67.0901 45.8551 65.4337 45.8551H61.8843Z" fill="black"/>
        <path d="M76.6738 50.2623V55.7935H73.3906V43.8438H76.6738V49.3749H76.733L82.9445 43.8438H86.701L80.0458 49.8186L86.701 55.7935H82.9445L76.733 50.2623H76.6738Z" fill="black"/>
        <path d="M92.705 53.3089L91.4627 55.7935H88.3569L94.2726 43.8438H97.7037L103.59 55.7935H100.514L99.2714 53.3089H92.705ZM96.0178 46.5058H95.9586L93.6811 51.2975H98.2953L96.0178 46.5058Z" fill="black"/>
        <path d="M109.033 45.8534L109.003 55.7918H105.72L105.75 45.8534H100.958L100.928 43.8125H113.765L113.795 45.8534H109.033Z" fill="black"/>
        <path d="M135.535 51.3271V55.7935H132.222V43.8438H139.232C142.9 43.8438 145 45.1156 145 47.6002C145 50.0848 142.841 51.3567 139.232 51.3567H135.535V51.3271ZM135.535 45.8551V49.2862H139.084C140.741 49.2862 141.717 48.7834 141.717 47.5706C141.717 46.3579 140.741 45.8551 139.084 45.8551H135.535Z" fill="black"/>
        <path d="M127.874 42.423C127.874 42.4526 127.874 42.4822 127.874 42.5413C127.874 43.6949 125.626 44.6414 122.846 44.6414V57.5672H122.55V44.6414C119.888 44.5822 117.788 43.6653 117.788 42.5413C117.788 42.4526 117.788 42.3934 117.817 42.3047C115.777 44.0202 114.475 46.771 114.475 49.8472C114.475 55.053 118.172 59.2532 122.757 59.2532C127.342 59.2532 131.039 55.053 131.039 49.8472C131.069 46.8302 129.826 44.1386 127.874 42.423ZM118.941 54.6685C118.379 54.6685 117.936 54.2248 117.936 53.6628C117.936 53.1008 118.379 52.6572 118.941 52.6572C119.503 52.6572 119.947 53.1008 119.947 53.6628C119.947 54.2248 119.503 54.6685 118.941 54.6685ZM118.527 49.6993C117.433 49.6993 116.516 48.812 116.516 47.688C116.516 46.5936 117.403 45.6766 118.527 45.6766C119.622 45.6766 120.539 46.564 120.539 47.688C120.539 48.7824 119.651 49.6993 118.527 49.6993ZM126.543 54.6685C125.981 54.6685 125.537 54.2248 125.537 53.6628C125.537 53.1008 125.981 52.6572 126.543 52.6572C127.105 52.6572 127.549 53.1008 127.549 53.6628C127.549 54.2248 127.105 54.6685 126.543 54.6685ZM126.928 49.6993C125.833 49.6993 124.916 48.812 124.916 47.688C124.916 46.5936 125.804 45.6766 126.928 45.6766C128.022 45.6766 128.939 46.564 128.939 47.688C128.939 48.7824 128.022 49.6993 126.928 49.6993Z" fill="black"/>
        <path d="M118.527 49.6985C119.638 49.6985 120.539 48.798 120.539 47.6871C120.539 46.5763 119.638 45.6758 118.527 45.6758C117.417 45.6758 116.516 46.5763 116.516 47.6871C116.516 48.798 117.417 49.6985 118.527 49.6985Z" fill="white"/>
        <path d="M126.928 49.6985C128.039 49.6985 128.939 48.798 128.939 47.6871C128.939 46.5763 128.039 45.6758 126.928 45.6758C125.817 45.6758 124.917 46.5763 124.917 47.6871C124.917 48.798 125.817 49.6985 126.928 49.6985Z" fill="white"/>
        <path d="M126.543 52.6562C125.981 52.6562 125.538 53.0999 125.538 53.6619C125.538 54.2239 125.981 54.6676 126.543 54.6676C127.105 54.6676 127.549 54.2239 127.549 53.6619C127.549 53.0999 127.105 52.6562 126.543 52.6562Z" fill="white"/>
        <path d="M118.941 52.6562C118.379 52.6562 117.936 53.0999 117.936 53.6619C117.936 54.2239 118.379 54.6676 118.941 54.6676C119.503 54.6676 119.947 54.2239 119.947 53.6619C119.947 53.0999 119.503 52.6562 118.941 52.6562Z" fill="white"/>
        <path d="M127.874 42.4248C127.608 42.1882 127.312 41.9516 127.017 41.7741C126.721 42.0403 126.129 42.0995 125.597 41.8628C125.005 41.6262 124.65 41.1234 124.65 40.7093C124.059 40.5614 123.408 40.4727 122.787 40.4727C122.107 40.4727 121.426 40.5614 120.805 40.7389C120.805 41.153 120.45 41.6262 119.859 41.8628C119.326 42.0995 118.794 42.0699 118.468 41.8333C118.261 41.9812 118.025 42.1586 117.818 42.3065C117.788 42.3953 117.788 42.4544 117.788 42.5432C117.788 43.6671 119.888 44.5841 122.55 44.6432V57.569H122.846V44.6432C125.626 44.6432 127.874 43.6967 127.874 42.5432C127.904 42.5136 127.874 42.4544 127.874 42.4248Z" fill="white"/>
        <path d="M120.746 40.4727C120.539 39.9994 119.829 39.8811 119.148 40.1769C118.468 40.4727 118.054 41.0938 118.261 41.5671C118.261 41.5967 118.291 41.6262 118.32 41.6558C118.823 41.2121 119.71 40.8572 120.805 40.6501C120.775 40.5614 120.775 40.5022 120.746 40.4727Z" fill="black"/>
        <path d="M118.468 41.8042C119.178 41.3014 119.947 40.9465 120.775 40.7098C120.775 40.6803 120.775 40.6507 120.775 40.6211C119.681 40.8281 118.823 41.1831 118.291 41.6268C118.35 41.6859 118.409 41.7451 118.468 41.8042Z" fill="black"/>
        <path d="M119.858 41.831C120.42 41.5944 120.805 41.1211 120.805 40.707C119.976 40.9437 119.207 41.2986 118.498 41.8014C118.793 42.0381 119.326 42.0676 119.858 41.831Z" fill="black"/>
        <path d="M126.307 40.1461C125.626 39.8503 124.887 39.9982 124.709 40.4419C124.68 40.501 124.68 40.5306 124.68 40.5898C125.745 40.7672 126.661 41.0926 127.223 41.5067C127.371 41.0334 126.987 40.4419 126.307 40.1461Z" fill="black"/>
        <path d="M124.65 40.6791C125.508 40.8862 126.306 41.2707 127.016 41.744C127.105 41.6848 127.164 41.5961 127.194 41.5073C127.194 41.5073 127.194 41.4778 127.194 41.4482C126.632 41.0341 125.715 40.7087 124.65 40.5312C124.679 40.62 124.65 40.6496 124.65 40.6791Z" fill="black"/>
        <path d="M125.596 41.8332C126.158 42.0699 126.72 42.0107 127.016 41.7445C126.277 41.2417 125.508 40.8867 124.65 40.6797C124.65 41.1234 125.005 41.5966 125.596 41.8332Z" fill="black"/>
    </g>
    <defs>
        <clipPath id="clip0_1193_459">
            <rect width="120" height="19.2556" fill="white" transform="translate(25 40)"/>
        </clipPath>
    </defs>
</svg>
