<svg width="170" height="100" viewBox="0 0 170 100" fill="none" xmlns="http://www.w3.org/2000/svg">
    <g clip-path="url(#clip0_1197_339)">
        <path d="M56.5399 58.7486H53.7378V45.5898H59.8946C61.2759 45.5898 62.3586 45.9935 63.1427 46.8008C63.9298 47.6098 64.3568 48.7021 64.3267 49.8302C64.3554 50.9544 63.9284 52.0426 63.1427 52.8477C62.2832 53.6908 61.109 54.1345 59.9064 54.0705H56.5518L56.5399 58.7486ZM59.5197 51.6091C60.0303 51.6262 60.5284 51.4485 60.9128 51.1121C61.2597 50.7717 61.4551 50.3062 61.4551 49.8203C61.4551 49.3344 61.2597 48.8689 60.9128 48.5285C60.527 48.1987 60.0308 48.0268 59.5236 48.0473H56.5399V51.5973L59.5197 51.6091Z" fill="#282B2E"/>
        <path d="M78.3252 58.7486H75.1442L74.3549 56.52H68.7111L67.8823 58.7486H64.6855L69.7412 45.5898H73.2537L78.3252 58.7486ZM73.5655 54.0547L71.5133 48.3944L69.461 54.0547H73.5655Z" fill="#282B2E"/>
        <path fill-rule="evenodd" clip-rule="evenodd" d="M86.021 58.7486H83.2189V53.3644L78.1475 45.5898H81.3443L84.62 50.8755L87.8562 45.5898H91.053L86.021 53.3605V58.7486Z" fill="#282B2E"/>
        <path fill-rule="evenodd" clip-rule="evenodd" d="M106.544 58.7486H103.722V49.5343L100.008 58.7486H98.7849L95.079 49.5343V58.7486H92.2769V45.5898H96.2235L99.4203 53.538L102.597 45.5898H106.544V58.7486Z" fill="#282B2E"/>
        <path fill-rule="evenodd" clip-rule="evenodd" d="M118.463 58.7486H109.149V45.5898H118.463V48.0551H111.951V50.8163H118.325V53.2816H111.951V56.2597H118.463V58.7486Z" fill="#282B2E"/>
        <path fill-rule="evenodd" clip-rule="evenodd" d="M132.434 58.7486H129.731L123.455 50.1694V58.7486H120.653V45.5898H123.534L129.632 53.8733V45.5898H132.434V58.7486Z" fill="#282B2E"/>
        <path fill-rule="evenodd" clip-rule="evenodd" d="M42.4858 38.8167C42.4419 38.4682 42.2407 38.1591 41.9399 37.9776C41.6391 37.7962 41.2717 37.7623 40.9427 37.8858L29.3237 43.266L42.6792 40.3589L42.4858 38.8167Z" fill="black" stroke="white"/>
        <path fill-rule="evenodd" clip-rule="evenodd" d="M140.9 58.7486H138.078V48.0591H134.23V45.5898H144.728V48.0551H140.9V58.7486Z" fill="#282B2E"/>
        <path fill-rule="evenodd" clip-rule="evenodd" d="M37.071 43.4701L43.0739 44.0302H45.7418H45.8168V41.0521C45.8163 40.717 45.6692 40.3989 45.4143 40.1813C45.1593 39.9637 44.822 39.8682 44.4908 39.9201L42.6753 40.3145L29.3237 43.2216L28.1792 43.4701V44.0302H30.9695L36.925 43.4701C36.9736 43.4656 37.0225 43.4656 37.071 43.4701Z" fill="black" stroke="white"/>
        <path fill-rule="evenodd" clip-rule="evenodd" d="M36.8616 42.5938L28.1789 43.4103H28.1118C27.059 43.4103 26.2056 44.2632 26.2056 45.3154V51.958C26.2056 57.8747 33.8739 62.6712 36.9247 62.6712C39.9755 62.6712 47.6478 57.8747 47.6478 51.958V45.3154C47.6464 44.2941 46.8378 43.4563 45.8165 43.4181H45.7415L36.9997 42.5938" fill="black"/>
        <path d="M36.8616 42.5938L28.1789 43.4103H28.1118C27.059 43.4103 26.2056 44.2632 26.2056 45.3154V51.958C26.2056 57.8747 33.8739 62.6712 36.9247 62.6712C39.9755 62.6712 47.6478 57.8747 47.6478 51.958V45.3154C47.6464 44.2941 46.8378 43.4563 45.8165 43.4181H45.7415L36.9997 42.5938" stroke="white"/>
        <path fill-rule="evenodd" clip-rule="evenodd" d="M38.7246 58.6579H35.9422V49.1912L33.7676 51.404L32.189 49.7394L36.2935 45.5898H38.7246V58.6579Z" fill="white"/>
    </g>
    <defs>
        <clipPath id="clip0_1197_339">
            <rect width="120" height="26.7568" fill="white" transform="translate(25 37)"/>
        </clipPath>
    </defs>
</svg>
