<svg width="170" height="100" viewBox="0 0 170 100" fill="none" xmlns="http://www.w3.org/2000/svg">
    <g clip-path="url(#clip0_1197_216)">
        <path fill-rule="evenodd" clip-rule="evenodd" d="M60.0633 37.9868H52.9367L49.2633 54.3338L45.0755 37.9868H40.2265L36.0388 54.3338L32.3285 37.9868H25.2388L32.2551 62.4889H38.9408L42.651 47.1338L46.3612 62.4889H53.047L60.0633 37.9868ZM80.0102 56.9787H68.3653V52.8276H79.7531V47.3174H68.3653V43.497H80.0102V37.9868H62.0469V62.4889H80.0102V56.9787ZM103.337 60.5787C103.952 59.9557 104.435 59.2149 104.757 58.4005C105.079 57.5862 105.233 56.7152 105.21 55.8399C105.234 54.3958 104.758 52.9879 103.863 51.8542C103.064 50.7725 101.869 50.0524 100.539 49.8521C101.731 49.5882 102.791 48.9117 103.533 47.9419C104.348 46.8805 104.77 45.5693 104.727 44.2317C104.733 43.4105 104.57 42.5969 104.247 41.8416C103.925 41.0863 103.45 40.4055 102.853 39.8419C102.14 39.1946 101.305 38.6968 100.396 38.3781C99.4876 38.0595 98.5243 37.9264 97.5633 37.9868H83.6775V62.4889H98.0041C98.9763 62.5521 99.9512 62.4152 100.868 62.0867C101.786 61.7581 102.626 61.2449 103.337 60.5787ZM90.0021 47.3909V43.3134H96.1367C96.7117 43.2906 97.2726 43.4952 97.6979 43.8827C97.8976 44.0669 98.0555 44.2917 98.1611 44.542C98.2667 44.7923 98.3175 45.0622 98.3102 45.3338C98.32 45.6111 98.2705 45.8873 98.1649 46.1438C98.0593 46.4004 97.9001 46.6315 97.6979 46.8215C97.2727 47.2094 96.7117 47.4139 96.1367 47.3909H90.0021ZM90.0021 57.1623V52.7542H96.3572C96.6807 52.7352 97.0047 52.7806 97.3106 52.8878C97.6164 52.995 97.8979 53.1619 98.1387 53.3787C98.551 53.8048 98.7815 54.3745 98.7815 54.9674C98.7815 55.5604 98.551 56.1301 98.1387 56.5562C97.6468 56.9831 97.0074 57.2007 96.3572 57.1623H90.0021ZM119.051 40.857H113.401V47.6725H107.266V52.8558H113.401V59.8685H119.051V52.857H125.173V47.6725H119.051V40.857ZM138.674 40.857H133.023V47.6725H126.89V52.8558H133.023V59.8685H138.674V52.857H144.797V47.6725H138.674V40.857Z" fill="black"/>
    </g>
    <defs>
        <clipPath id="clip0_1197_216">
            <rect width="120" height="24.4898" fill="white" transform="translate(25 38)"/>
        </clipPath>
    </defs>
</svg>
